<svg width="16" height="11" viewBox="0 0 16 11" fill="none" xmlns="http://www.w3.org/2000/svg">
<path d="M14.0952 0H1.90476C0.852976 0.000357151 0.000476191 0.852976 0 1.90476V9.01702C0.000476191 10.0688 0.852976 10.9215 1.90476 10.9218H14.0952C15.147 10.9215 15.9995 10.0688 16 9.01702V1.90476C15.9995 0.852976 15.147 0.000357151 14.0952 0ZM1.90476 0.761905H14.0952C14.6439 0.763333 15.1148 1.15274 15.219 1.69131L8 5.71429L0.780952 1.69131C0.885238 1.15274 1.35607 0.763333 1.90476 0.761905ZM14.0952 10.1562H1.90476C1.2744 10.1543 0.763691 9.64369 0.761905 9.01333V2.55238L7.81333 6.48369C7.87048 6.51512 7.93464 6.53226 8 6.53333C8.0656 6.53405 8.13 6.51691 8.18667 6.48369L15.2381 2.55238V9.01333C15.2376 9.64429 14.7262 10.1556 14.0952 10.1562Z" fill="#FF7300"/>
</svg>
