<svg width="24" height="24" viewBox="0 0 24 24" fill="none" xmlns="http://www.w3.org/2000/svg">
<path d="M12 0C9.62663 0 7.30655 0.703788 5.33316 2.02236C3.35977 3.34094 1.8217 5.21508 0.913451 7.4078C0.00519935 9.60051 -0.232441 12.0133 0.230582 14.3411C0.693605 16.6688 1.83649 18.807 3.51472 20.4853C5.19295 22.1635 7.33115 23.3064 9.65892 23.7694C11.9867 24.2324 14.3995 23.9948 16.5922 23.0865C18.7849 22.1783 20.6591 20.6402 21.9776 18.6668C23.2962 16.6934 24 14.3734 24 12C23.9963 8.81854 22.7308 5.76844 20.4812 3.51881C18.2316 1.26918 15.1815 0.00370522 12 0ZM12 22.6667C9.89034 22.6667 7.82804 22.0411 6.07392 20.869C4.3198 19.6969 2.95262 18.031 2.14529 16.082C1.33796 14.1329 1.12672 11.9882 1.5383 9.91903C1.94987 7.8499 2.96577 5.94929 4.45753 4.45753C5.94929 2.96577 7.84991 1.94987 9.91904 1.53829C11.9882 1.12671 14.1329 1.33795 16.082 2.14528C18.031 2.95262 19.6969 4.31979 20.869 6.07392C22.0411 7.82804 22.6667 9.89033 22.6667 12C22.6633 14.8279 21.5384 17.5391 19.5388 19.5388C17.5391 21.5384 14.8279 22.6633 12 22.6667Z" fill="white"/>
<path d="M19.2683 6.66058C19.2137 6.57748 19.1412 6.50764 19.0561 6.45618C18.9711 6.40471 18.8756 6.37293 18.7766 6.36315C18.6777 6.35337 18.5778 6.36584 18.4843 6.39966C18.3908 6.43348 18.306 6.48778 18.2363 6.55858L16.5029 8.31125L15.6403 7.43658L17.3823 5.67325C17.4517 5.60344 17.5048 5.51912 17.5378 5.42634C17.5707 5.33356 17.5827 5.23464 17.5729 5.13667C17.5631 5.0387 17.5317 4.94413 17.481 4.85973C17.4303 4.77534 17.3615 4.70323 17.2796 4.64858C16.5408 4.15148 15.6511 3.92902 14.7653 4.01988C13.8794 4.11074 13.0534 4.50918 12.4309 5.14592C11.8705 5.71619 11.4976 6.44398 11.362 7.23194C11.2264 8.0199 11.3347 8.83047 11.6723 9.55525L9.59425 11.6666C8.87582 11.3258 8.06913 11.217 7.28608 11.3553C6.50303 11.4937 5.78244 11.8723 5.22426 12.4386C4.59884 13.0731 4.20903 13.9024 4.11943 14.7888C4.02983 15.6752 4.24581 16.5657 4.73159 17.3126C4.75937 17.3573 4.79226 17.3987 4.82959 17.4359C4.8954 17.5017 4.97426 17.553 5.06108 17.5864C5.1479 17.6199 5.24077 17.6348 5.33371 17.6302C5.42665 17.6257 5.51759 17.6017 5.6007 17.5598C5.68381 17.518 5.75724 17.4592 5.81626 17.3872L7.50359 15.6786L8.36692 16.5526L6.62426 18.3179C6.5554 18.3877 6.50276 18.4717 6.4701 18.5641C6.43744 18.6565 6.42556 18.755 6.4353 18.8525C6.44504 18.9501 6.47616 19.0442 6.52645 19.1284C6.57674 19.2125 6.64496 19.2845 6.72626 19.3392C7.46605 19.8344 8.35541 20.0558 9.241 19.9655C10.1266 19.8752 10.9529 19.4788 11.5776 18.8446C12.1412 18.2752 12.5161 17.5464 12.6515 16.7569C12.787 15.9673 12.6765 15.1552 12.3349 14.4306L14.4156 12.3239C15.1324 12.6676 15.9389 12.7778 16.7216 12.6391C17.5044 12.5004 18.2239 12.1197 18.7789 11.5506C19.4042 10.9125 19.7934 10.0805 19.8824 9.19152C19.9714 8.30259 19.7547 7.40988 19.2683 6.66058ZM17.8283 10.6146C17.4235 11.0312 16.885 11.2921 16.3072 11.3513C15.7293 11.4106 15.1491 11.2644 14.6683 10.9386C14.5395 10.8524 14.3847 10.8138 14.2306 10.8294C14.0764 10.845 13.9325 10.9138 13.8236 11.0239L11.0336 13.8486C10.9264 13.957 10.8597 14.0988 10.8444 14.2504C10.8291 14.402 10.8662 14.5543 10.9496 14.6819C11.2733 15.1747 11.418 15.7637 11.3595 16.3505C11.3011 16.9372 11.0429 17.486 10.6283 17.9052C10.3228 18.2146 9.94188 18.4388 9.52316 18.5558C9.10445 18.6727 8.66245 18.6783 8.24092 18.5719L9.77426 17.0159C9.89641 16.8913 9.96483 16.7237 9.96483 16.5492C9.96483 16.3747 9.89641 16.2072 9.77426 16.0826L7.97426 14.2599C7.84661 14.1379 7.67683 14.0698 7.50026 14.0698C7.32368 14.0698 7.1539 14.1379 7.02626 14.2599L5.50959 15.7999C5.45895 15.6008 5.4332 15.3961 5.43292 15.1906C5.43527 14.5112 5.70157 13.8593 6.17559 13.3726C6.58297 12.9594 7.12169 12.7011 7.69897 12.6424C8.27625 12.5836 8.85595 12.728 9.33825 13.0506C9.4672 13.1375 9.62247 13.1766 9.7772 13.1612C9.93194 13.1457 10.0764 13.0766 10.1856 12.9659L12.9729 10.1332C13.0801 10.0244 13.1467 9.88205 13.1615 9.72999C13.1763 9.57793 13.1385 9.42539 13.0543 9.29792C12.7333 8.80432 12.5909 8.21581 12.6505 7.63008C12.7102 7.04436 12.9684 6.49666 13.3823 6.07792C13.6856 5.76658 14.0659 5.54094 14.4846 5.42387C14.9032 5.3068 15.3454 5.30245 15.7663 5.41125L14.2289 6.96792C14.1068 7.09254 14.0383 7.26008 14.0383 7.43458C14.0383 7.60908 14.1068 7.77663 14.2289 7.90125L16.0289 9.72458C16.1566 9.84679 16.3265 9.915 16.5033 9.915C16.68 9.915 16.8499 9.84679 16.9776 9.72458L18.4963 8.18658C18.6004 8.61471 18.5937 9.06231 18.4768 9.48713C18.36 9.91195 18.1367 10.3 17.8283 10.6146Z" fill="white"/>
</svg>
