<svg width="24" height="24" viewBox="0 0 24 24" fill="none" xmlns="http://www.w3.org/2000/svg">
<path d="M12 0C5.37281 0 0 5.37281 0 12C0 18.6272 5.37281 24 12 24C18.6272 24 24 18.6272 24 12C24 5.37281 18.6272 0 12 0ZM12.0703 21.2578C6.96558 21.2578 2.8125 17.1048 2.8125 12C2.8125 6.89522 6.96558 2.74219 12.0703 2.74219C17.175 2.74219 21.3281 6.89522 21.3281 12C21.3281 17.1048 17.175 21.2578 12.0703 21.2578Z" fill="black"/>
<path d="M19.7713 13.5324C19.8698 13.0366 19.9219 12.5243 19.9219 12C19.9219 11.2731 19.8221 10.569 19.6364 9.90041L18.6547 9.65732C14.284 8.57582 9.71602 8.57582 5.3452 9.65732L4.51439 9.8631C4.32192 10.5427 4.21875 11.2596 4.21875 12C4.21875 12.5285 4.27158 13.0448 4.37161 13.5443C7.49213 13.8369 9.948 16.4148 10.049 19.5873C10.6942 19.7594 11.3717 19.8516 12.0703 19.8516C12.7179 19.8516 13.3472 19.7722 13.9496 19.6237C14.0341 16.3861 16.5711 13.7593 19.7713 13.5324ZM12 15.2813C10.7423 15.2813 9.71916 14.2581 9.71916 13.0004C9.71916 11.7428 10.7423 10.7196 12 10.7196C13.2577 10.7196 14.2808 11.7428 14.2808 13.0005C14.2808 14.2581 13.2577 15.2813 12 15.2813Z" fill="black"/>
<path d="M11.9996 12.126C11.5173 12.126 11.125 12.5183 11.125 13.0006C11.125 13.4828 11.5173 13.8751 11.9996 13.8751C12.4818 13.8751 12.8741 13.4828 12.8741 13.0005C12.8741 12.5183 12.4818 12.126 11.9996 12.126Z" fill="black"/>
</svg>
