<svg width="20" height="20" viewBox="0 0 20 20" fill="none" xmlns="http://www.w3.org/2000/svg">
<path d="M12.2598 14.7148C13.873 12.0391 15.9121 8.27734 15.9121 6.34375C15.9121 3.08203 13.2598 0.429688 9.99805 0.429688C6.73633 0.429688 4.08398 3.08203 4.08398 6.34375C4.08398 8.27734 6.12305 12.0391 7.73633 14.7148C5.82227 14.8594 1.4668 15.3789 1.4668 17.1016C1.4668 18.7969 5.88867 19.5703 10.002 19.5703C14.1113 19.5703 18.5371 18.7969 18.5371 17.1016C18.5332 15.3789 14.1738 14.8594 12.2598 14.7148ZM4.90039 6.34375C4.90039 3.53125 7.18945 1.24219 9.99805 1.24219C12.8105 1.24219 15.0996 3.53125 15.0996 6.34375C15.0996 8.80078 11.1855 14.9648 9.99805 16.7773C8.81055 14.9648 4.90039 8.80078 4.90039 6.34375ZM9.99805 18.7539C5.00195 18.7539 2.2793 17.6602 2.2793 17.0977C2.2793 16.6641 4.07617 15.7305 8.2168 15.4922C8.99414 16.7461 9.58398 17.6328 9.66211 17.7383C9.76758 17.8789 10.0762 18.0469 10.3379 17.7383C10.4199 17.6406 11.0059 16.7461 11.7832 15.4922C15.9238 15.7305 17.7207 16.6602 17.7207 17.0977C17.7168 17.6641 14.9941 18.7539 9.99805 18.7539Z" fill="#FF7300"/>
<path d="M12.5723 6.34375C12.5723 4.92187 11.4199 3.76953 9.99805 3.76953C8.57617 3.76953 7.42383 4.92187 7.42383 6.34375C7.42383 7.76562 8.57617 8.91797 9.99805 8.91797C11.4199 8.91797 12.5723 7.76562 12.5723 6.34375ZM8.23633 6.34375C8.23633 5.37109 9.02539 4.58203 9.99805 4.58203C10.9707 4.58203 11.7598 5.37109 11.7598 6.34375C11.7598 7.31641 10.9707 8.10547 9.99805 8.10547C9.02539 8.10547 8.23633 7.31641 8.23633 6.34375Z" fill="#FF7300"/>
</svg>
