<svg width="16" height="16" viewBox="0 0 16 16" fill="none" xmlns="http://www.w3.org/2000/svg">
<path d="M14.0488 0.078125H1.95122C0.874085 0.0793445 0.00121951 0.95221 0 2.02934V10.8687C0.00121951 11.9458 0.874085 12.8187 1.95122 12.8199H7.58247L11.2659 15.8152C11.3826 15.9101 11.5437 15.9295 11.6799 15.8649C11.8159 15.8002 11.9024 15.6629 11.9024 15.5123V12.8199H14.0488C15.1259 12.8187 15.9988 11.9458 16 10.8687V2.02934C15.9988 0.95221 15.1259 0.0793445 14.0488 0.078125ZM15.2195 10.8687C15.2188 11.5149 14.6951 12.0386 14.0488 12.0394H11.5122C11.2966 12.0394 11.122 12.2141 11.122 12.4297V14.692L7.96738 12.1269C7.89787 12.0704 7.81098 12.0394 7.72119 12.0394H1.95122C1.30488 12.0388 0.78125 11.515 0.780488 10.8687V2.02934C0.78125 1.383 1.30488 0.859375 1.95122 0.858613H14.0488C14.6951 0.859375 15.2188 1.383 15.2195 2.02934V10.8687Z" fill="#FF7300"/>
<path d="M2.77013 4.01876H7.26906C7.48461 4.01876 7.65931 3.84407 7.65931 3.62852C7.65931 3.41313 7.48461 3.23828 7.26906 3.23828H2.77013C2.55473 3.23828 2.37988 3.41313 2.37988 3.62852C2.37988 3.84407 2.55473 4.01876 2.77013 4.01876Z" fill="#FF7300"/>
<path d="M13.2302 6.05859H2.77013C2.55473 6.05859 2.37988 6.23329 2.37988 6.44884C2.37988 6.66439 2.55473 6.83908 2.77013 6.83908H13.23C13.4456 6.83908 13.6203 6.66439 13.6203 6.44884C13.6203 6.23329 13.4456 6.05859 13.23 6.05859H13.2302Z" fill="#FF7300"/>
<path d="M13.2302 8.87891H2.77013C2.55473 8.87891 2.37988 9.0536 2.37988 9.26915C2.37988 9.4847 2.55473 9.65939 2.77013 9.65939H13.23C13.4456 9.65939 13.6203 9.4847 13.6203 9.26915C13.6203 9.0536 13.4456 8.87891 13.23 8.87891H13.2302Z" fill="#FF7300"/>
</svg>
