<svg width="24" height="24" viewBox="0 0 24 24" fill="none" xmlns="http://www.w3.org/2000/svg">
<g clip-path="url(#clip0)">
<path d="M23.2493 11.84C22.4468 11.1787 21.1785 11.1219 20.346 12.0153L18.2794 14.2338C18.0122 13.3751 17.2103 12.7498 16.2649 12.7498H12.577C12.2971 12.7498 12.2034 12.6429 11.7173 12.2685C9.864 10.6528 7.08028 10.6579 5.23256 12.2839L3.87703 13.4773C3.2677 13.1548 2.55619 13.1468 1.94353 13.4529L0.388782 14.23C0.0414378 14.4039 -0.0991403 14.8262 0.0742504 15.1736L4.29277 23.6106C4.46667 23.9579 4.88897 24.0985 5.23631 23.9251L6.79106 23.1475C7.55742 22.7646 7.98394 21.9827 7.95628 21.1869H16.2648C17.8055 21.1869 19.2778 20.451 20.2021 19.2182L23.5774 14.7176C24.2322 13.8452 24.1286 12.5661 23.2493 11.84ZM6.162 21.8899L5.23627 22.353L1.64634 15.1736L2.57255 14.7105C2.91989 14.5371 3.34172 14.6772 3.51563 15.025L6.47653 20.9469C6.64997 21.2941 6.50934 21.716 6.162 21.8899ZM22.4524 13.8738L19.0772 18.3745C18.4168 19.2552 17.3654 19.7806 16.2649 19.7806H7.46555L4.83084 14.5108L6.16153 13.3395C7.48566 12.1747 9.48244 12.1747 10.8066 13.3395C11.5865 14.0262 12.0716 14.156 12.5769 14.156H16.2648C16.6525 14.156 16.9679 14.4715 16.9679 14.8591C16.9679 15.2467 16.6524 15.5622 16.2648 15.5622H12.674C12.2858 15.5622 11.9709 15.8772 11.9709 16.2653C11.9709 16.6533 12.2859 16.9683 12.674 16.9683H16.7359C17.3195 16.9683 17.882 16.7236 18.2794 16.2967L21.3749 12.9739C21.658 12.6701 22.092 12.6954 22.3582 12.9284C22.6366 13.1721 22.6667 13.5888 22.4524 13.8738Z" fill="white"/>
<path d="M14.7839 4.79833C15.2653 4.29353 15.562 3.61108 15.562 2.85968C15.562 1.31196 14.3115 0.000488281 12.7497 0.000488281C11.1997 0.000488281 9.89053 1.30961 9.89053 2.85968C9.89053 3.58807 10.176 4.27567 10.6944 4.80396C9.4087 5.52485 8.48438 6.9085 8.48438 8.53122V9.2343C8.48438 9.62238 8.79937 9.93738 9.18745 9.93738H16.2651C16.6532 9.93738 16.9682 9.62238 16.9682 9.2343V8.53122C16.9682 6.94038 16.0932 5.53516 14.7839 4.79833ZM12.7497 1.40669C13.5119 1.40669 14.1559 2.07227 14.1559 2.85972C14.1559 3.63499 13.525 4.26588 12.7497 4.26588C11.9623 4.26588 11.2967 3.62186 11.2967 2.85972C11.2967 2.08586 11.9759 1.40669 12.7497 1.40669ZM9.89053 8.53122C9.89053 6.98116 11.1997 5.67203 12.7497 5.67203C14.3002 5.67203 15.562 6.95444 15.562 8.53122H9.89053Z" fill="white"/>
</g>
<defs>
<clipPath id="clip0">
<rect width="24" height="24" fill="white"/>
</clipPath>
</defs>
</svg>
