<svg width="18" height="14" viewBox="0 0 18 14" fill="none" xmlns="http://www.w3.org/2000/svg">
<path d="M5.4002 10.0518C5.16286 10.0518 4.93085 10.1232 4.73351 10.2571C4.53617 10.391 4.38237 10.5813 4.29154 10.8039C4.20072 11.0265 4.17695 11.2715 4.22325 11.5078C4.26956 11.7442 4.38385 11.9613 4.55167 12.1317C4.71949 12.3021 4.93331 12.4181 5.16609 12.4651C5.39886 12.5121 5.64014 12.488 5.85942 12.3958C6.07869 12.3036 6.2661 12.1474 6.39796 11.9471C6.52982 11.7467 6.6002 11.5111 6.6002 11.2701C6.6002 10.947 6.47377 10.6371 6.24872 10.4086C6.02368 10.1801 5.71846 10.0518 5.4002 10.0518ZM5.4002 11.8793C5.28153 11.8793 5.16552 11.8436 5.06685 11.7767C4.96818 11.7097 4.89128 11.6146 4.84587 11.5033C4.80046 11.392 4.78857 11.2695 4.81172 11.1513C4.83488 11.0331 4.89202 10.9246 4.97593 10.8394C5.05984 10.7542 5.16675 10.6962 5.28314 10.6727C5.39953 10.6492 5.52017 10.6612 5.62981 10.7073C5.73944 10.7534 5.83315 10.8315 5.89908 10.9317C5.96501 11.0319 6.0002 11.1497 6.0002 11.2701C6.0002 11.4317 5.93698 11.5867 5.82446 11.7009C5.71194 11.8152 5.55933 11.8793 5.4002 11.8793Z" fill="#FF7300"/>
<path d="M11.698 6.70117H10.498V7.31036H11.698V6.70117Z" fill="#FF7300"/>
<path d="M4.79961 6.70117H3.59961V7.31036H4.79961V6.70117Z" fill="#FF7300"/>
<path d="M17.247 6.01273L14.322 5.51624L13.026 1.82453C12.9626 1.64741 12.8472 1.4943 12.6954 1.3859C12.5435 1.2775 12.3626 1.21903 12.177 1.21838H11.1V0.609192H11.7V0H3V0.609192H3.6V1.21838H2.1C1.86152 1.21911 1.63302 1.31561 1.46439 1.48683C1.29576 1.65804 1.20071 1.89004 1.2 2.13217V3.35056H0.9C0.661524 3.35128 0.433019 3.44779 0.264391 3.619C0.0957621 3.79021 0.000712227 4.02222 0 4.26435V7.31031C0.000712227 7.55244 0.0957621 7.78444 0.264391 7.95565C0.433019 8.12687 0.661524 8.22337 0.9 8.2241H1.2V10.6609C1.20071 10.903 1.29576 11.135 1.46439 11.3062C1.63302 11.4774 1.86152 11.5739 2.1 11.5747H2.718C2.79433 12.2425 3.10973 12.8586 3.60422 13.3058C4.09871 13.7529 4.73781 14 5.4 14C6.06219 14 6.70128 13.7529 7.19577 13.3058C7.69027 12.8586 8.00566 12.2425 8.082 11.5747H10.518C10.5943 12.2425 10.9097 12.8586 11.4042 13.3058C11.8987 13.7529 12.5378 14 13.2 14C13.8622 14 14.5013 13.7529 14.9958 13.3058C15.4903 12.8586 15.8057 12.2425 15.882 11.5747H17.1C17.3385 11.5739 17.567 11.4774 17.7356 11.3062C17.9042 11.135 17.9993 10.903 18 10.6609V6.91129C18.0006 6.69495 17.9251 6.4855 17.787 6.32073C17.649 6.15596 17.4574 6.04672 17.247 6.01273ZM1.2 7.6149H0.9C0.820435 7.6149 0.744129 7.58281 0.687868 7.52569C0.631607 7.46857 0.6 7.39109 0.6 7.31031V6.70111H1.2V7.6149ZM1.2 6.09192H0.6V5.48273H1.2V6.09192ZM1.2 4.87354H0.6V4.26435C0.6 4.18356 0.631607 4.10609 0.687868 4.04896C0.744129 3.99184 0.820435 3.95975 0.9 3.95975H1.2V4.87354ZM4.2 0.609192H10.5V1.21838H4.2V0.609192ZM7.476 11.5747C7.42567 11.926 7.28953 12.259 7.08 12.5433L6.885 12.3483L6.462 12.7778L6.654 12.9758C6.37402 13.1885 6.04606 13.3268 5.7 13.3779V13.0976H5.1V13.3779C4.75394 13.3268 4.42597 13.1885 4.146 12.9758L4.338 12.7778L3.915 12.3483L3.72 12.5433C3.51046 12.259 3.37433 11.926 3.324 11.5747H3.6V10.9655H3.324C3.37433 10.6141 3.51046 10.2811 3.72 9.99684L3.915 10.1918L4.338 9.76231L4.146 9.56432C4.42597 9.35157 4.75394 9.21335 5.1 9.16225V9.44248H5.7V9.16225C6.04606 9.21335 6.37402 9.35157 6.654 9.56432L6.462 9.76231L6.885 10.1918L7.08 9.99684C7.28953 10.2811 7.42567 10.6141 7.476 10.9655H7.2V11.5747H7.476ZM9.3 5.48273H6.6V3.04596H9.3V5.48273ZM15.276 11.5747C15.2257 11.926 15.0895 12.259 14.88 12.5433L14.685 12.3483L14.262 12.7778L14.454 12.9758C14.174 13.1885 13.8461 13.3268 13.5 13.3779V13.0976H12.9V13.3779C12.5539 13.3268 12.226 13.1885 11.946 12.9758L12.138 12.7778L11.715 12.3483L11.52 12.5433C11.3105 12.259 11.1743 11.926 11.124 11.5747H11.4V10.9655H11.124C11.1743 10.6141 11.3105 10.2811 11.52 9.99684L11.715 10.1918L12.138 9.76231L11.946 9.56432C12.226 9.35157 12.5539 9.21335 12.9 9.16225V9.44248H13.5V9.16225C13.8461 9.21335 14.174 9.35157 14.454 9.56432L14.262 9.76231L14.685 10.1918L14.88 9.99684C15.0895 10.2811 15.2257 10.6141 15.276 10.9655H15V11.5747H15.276ZM17.4 9.13788H16.5V9.74708H17.4V10.6609C17.4 10.7416 17.3684 10.8191 17.3121 10.8762C17.2559 10.9334 17.1796 10.9655 17.1 10.9655H15.882C15.8057 10.2976 15.4903 9.68153 14.9958 9.23436C14.5013 8.78719 13.8622 8.54011 13.2 8.54011C12.5378 8.54011 11.8987 8.78719 11.4042 9.23436C10.9097 9.68153 10.5943 10.2976 10.518 10.9655H9.9V6.09192H12.9C12.9491 6.092 12.9975 6.07982 13.041 6.05645C13.0844 6.03308 13.1215 5.99924 13.149 5.9579C13.1759 5.91653 13.1926 5.86923 13.1978 5.81996C13.203 5.77068 13.1966 5.72085 13.179 5.67463L11.979 2.62866C11.9568 2.57199 11.9183 2.5234 11.8685 2.48918C11.8188 2.45497 11.7601 2.43671 11.7 2.43677H3.006C2.92643 2.43677 2.85013 2.46886 2.79387 2.52598C2.73761 2.58311 2.706 2.66058 2.706 2.74137L2.7 5.78733C2.69977 5.86824 2.73104 5.94598 2.787 6.00359C2.8442 6.05969 2.92047 6.09132 3 6.09192H9.3V10.9655H8.082C8.00566 10.2976 7.69027 9.68153 7.19577 9.23436C6.70128 8.78719 6.06219 8.54011 5.4 8.54011C4.73781 8.54011 4.09871 8.78719 3.60422 9.23436C3.10973 9.68153 2.79433 10.2976 2.718 10.9655H2.1C2.02043 10.9655 1.94413 10.9334 1.88787 10.8762C1.83161 10.8191 1.8 10.7416 1.8 10.6609V9.44248H2.7V8.83329H1.8V8.2241H2.7V7.6149H1.8V2.13217C1.8 2.05139 1.83161 1.97391 1.88787 1.91679C1.94413 1.85967 2.02043 1.82758 2.1 1.82758H12.177C12.2386 1.82786 12.2986 1.84728 12.349 1.88322C12.3994 1.91915 12.4378 1.96989 12.459 2.02861L13.818 5.89089C13.836 5.9421 13.8673 5.98746 13.9084 6.02228C13.9496 6.0571 13.9991 6.08009 14.052 6.08888L17.148 6.61278C17.2112 6.62269 17.2693 6.65379 17.313 6.70111H16.5C16.2613 6.70111 16.0324 6.79739 15.8636 6.96876C15.6948 7.14013 15.6 7.37255 15.6 7.6149C15.6 7.85725 15.6948 8.08968 15.8636 8.26105C16.0324 8.43242 16.2613 8.52869 16.5 8.52869H17.4V9.13788ZM9.9 5.48273V3.04596H11.496L12.456 5.48273H9.9ZM6 3.04596V5.48273H3.3L3.306 3.04596H6ZM17.4 7.9195H16.5C16.4204 7.9195 16.3441 7.88741 16.2879 7.83029C16.2316 7.77316 16.2 7.69569 16.2 7.6149C16.2 7.53412 16.2316 7.45664 16.2879 7.39952C16.3441 7.3424 16.4204 7.31031 16.5 7.31031H17.4V7.9195Z" fill="#FF7300"/>
<path d="M13.2 10.0518C12.9627 10.0518 12.7307 10.1232 12.5333 10.2571C12.336 10.391 12.1822 10.5813 12.0913 10.8039C12.0005 11.0265 11.9768 11.2715 12.0231 11.5078C12.0694 11.7442 12.1837 11.9613 12.3515 12.1317C12.5193 12.3021 12.7331 12.4181 12.9659 12.4651C13.1987 12.5121 13.44 12.488 13.6592 12.3958C13.8785 12.3036 14.0659 12.1474 14.1978 11.9471C14.3296 11.7467 14.4 11.5111 14.4 11.2701C14.4 10.947 14.2736 10.6371 14.0485 10.4086C13.8235 10.1801 13.5183 10.0518 13.2 10.0518ZM13.2 11.8793C13.0813 11.8793 12.9653 11.8436 12.8667 11.7767C12.768 11.7097 12.6911 11.6146 12.6457 11.5033C12.6003 11.392 12.5884 11.2695 12.6115 11.1513C12.6347 11.0331 12.6918 10.9246 12.7757 10.8394C12.8597 10.7542 12.9666 10.6962 13.083 10.6727C13.1993 10.6492 13.32 10.6612 13.4296 10.7073C13.5393 10.7534 13.633 10.8315 13.6989 10.9317C13.7648 11.0319 13.8 11.1497 13.8 11.2701C13.8 11.4317 13.7368 11.5867 13.6243 11.7009C13.5118 11.8152 13.3591 11.8793 13.2 11.8793Z" fill="#FF7300"/>
</svg>
