<svg width="16" height="16" viewBox="0 0 16 16" fill="none" xmlns="http://www.w3.org/2000/svg">
<path d="M16 9.11352C16 6.92798 15.1187 4.94466 13.6933 3.49936C13.6822 3.48457 13.6703 3.47009 13.6568 3.45661C13.6433 3.44313 13.6289 3.43127 13.6141 3.4202C12.1688 1.99473 10.1855 1.11353 8 1.11353C5.81451 1.11353 3.83119 1.99478 2.38584 3.4202C2.37104 3.43132 2.35662 3.44318 2.34313 3.45661C2.32965 3.47009 2.3178 3.48452 2.30668 3.49936C0.881259 4.94466 0 6.92798 0 9.11352C0 11.2501 0.831948 13.2587 2.34256 14.7697C2.34277 14.7699 2.34298 14.7702 2.34319 14.7704C2.34334 14.7705 2.34345 14.7707 2.34361 14.7708C2.34382 14.771 2.34403 14.7712 2.34424 14.7714C2.42104 14.8482 2.5217 14.8865 2.62237 14.8865C2.72309 14.8865 2.82382 14.8481 2.90062 14.7713C2.90717 14.7647 2.9131 14.7577 2.91908 14.7508L4.13152 13.5383C4.28517 13.3846 4.28517 13.1356 4.13152 12.9819C3.97786 12.8283 3.72873 12.8283 3.57513 12.9819L2.62898 13.9281C1.52572 12.7004 0.885666 11.1552 0.797639 9.50697H2.13571C2.353 9.50697 2.52915 9.33086 2.52915 9.11352C2.52915 8.89619 2.353 8.72008 2.13571 8.72008H0.797744C0.889233 7.02712 1.56721 5.48766 2.63155 4.30151L3.57513 5.24509C3.65193 5.32189 3.75266 5.36029 3.85332 5.36029C3.95399 5.36029 4.05472 5.32189 4.13152 5.24509C4.28517 5.09139 4.28517 4.84231 4.13152 4.68866L3.18799 3.74503C4.37419 2.68069 5.9136 2.00271 7.60656 1.91127V3.24929C7.60656 3.46663 7.78271 3.64273 8 3.64273C8.21729 3.64273 8.39344 3.46663 8.39344 3.24929V1.91127C10.0864 2.00271 11.6258 2.68074 12.812 3.74508L11.8684 4.68866C11.7148 4.84236 11.7148 5.09144 11.8684 5.24509C11.9452 5.32189 12.046 5.36029 12.1466 5.36029C12.2473 5.36029 12.348 5.32189 12.4248 5.24509L13.3684 4.30151C14.4327 5.48772 15.1108 7.02712 15.2022 8.72008H13.8642C13.6469 8.72008 13.4707 8.89619 13.4707 9.11352C13.4707 9.33086 13.6469 9.50697 13.8642 9.50697H15.2023C15.1142 11.1552 14.4742 12.7004 13.371 13.9281L12.4248 12.9819C12.2712 12.8283 12.0221 12.8283 11.8684 12.9819C11.7148 13.1356 11.7148 13.3847 11.8684 13.5383L13.1004 14.7703C13.1772 14.8471 13.278 14.8855 13.3786 14.8855C13.4289 14.8855 13.4793 14.8759 13.5267 14.8567C13.574 14.8375 13.6184 14.8087 13.6569 14.7703C15.1678 13.2593 16 11.2503 16 9.11352Z" fill="#FF7300"/>
<path d="M9.8075 4.60158C9.60569 4.52074 9.37676 4.61874 9.29598 4.8205L8.15903 7.65853C8.10605 7.65287 8.05306 7.64898 8.00003 7.64898C7.44627 7.64898 6.94607 7.95571 6.69453 8.44946C6.4316 8.9656 6.49896 9.58231 6.87457 10.099C6.91297 10.1519 6.96123 10.2002 7.01442 10.2388C7.31958 10.4607 7.66041 10.5779 8.00003 10.5779C8.55379 10.5779 9.05403 10.2712 9.30552 9.77746C9.56845 9.26131 9.50109 8.64466 9.12575 8.1283C9.08735 8.07532 9.03898 8.02685 8.98563 7.98803C8.95693 7.96715 8.92761 7.94811 8.89828 7.92912L10.0264 5.11306C10.1072 4.91141 10.0092 4.68237 9.8075 4.60158ZM8.6043 9.42026C8.48779 9.64893 8.25624 9.79099 7.99997 9.79099C7.8319 9.79099 7.66271 9.73229 7.49694 9.61646C7.30809 9.3453 7.271 9.05132 7.3957 8.8066C7.51216 8.57793 7.74371 8.43587 8.00003 8.43587C8.08176 8.43587 8.1637 8.45003 8.24543 8.47758C8.24811 8.47868 8.25057 8.48009 8.2533 8.48119C8.2619 8.4846 8.27056 8.48738 8.27921 8.49016C8.35423 8.51897 8.42893 8.55862 8.503 8.61035C8.69181 8.88151 8.72895 9.17554 8.6043 9.42026Z" fill="#FF7300"/>
</svg>
