<svg width="16" height="16" viewBox="0 0 16 16" fill="none" xmlns="http://www.w3.org/2000/svg">
<g clip-path="url(#clip0)">
<path d="M14.1666 15.9999H1.83337C0.822021 15.9999 0 15.1779 0 14.1665V3.1665C0 2.15515 0.822021 1.33325 1.83337 1.33325H14.1666C15.178 1.33325 16 2.15515 16 3.1665V14.1665C16 15.1779 15.178 15.9999 14.1666 15.9999ZM1.83337 2.33325C1.37402 2.33325 1 2.70715 1 3.1665V14.1665C1 14.6259 1.37402 14.9999 1.83337 14.9999H14.1666C14.626 14.9999 15 14.6259 15 14.1665V3.1665C15 2.70715 14.626 2.33325 14.1666 2.33325H1.83337Z" fill="#FF7300"/>
<path d="M15.5 6.33325H0.5C0.223999 6.33325 0 6.10925 0 5.83325C0 5.55725 0.223999 5.33325 0.5 5.33325H15.5C15.776 5.33325 16 5.55725 16 5.83325C16 6.10925 15.776 6.33325 15.5 6.33325Z" fill="#FF7300"/>
<path d="M3.83301 4C3.55701 4 3.33301 3.776 3.33301 3.5V0.5C3.33301 0.223999 3.55701 0 3.83301 0C4.10901 0 4.33301 0.223999 4.33301 0.5V3.5C4.33301 3.776 4.10901 4 3.83301 4Z" fill="#FF7300"/>
<path d="M12.167 4C11.891 4 11.667 3.776 11.667 3.5V0.5C11.667 0.223999 11.891 0 12.167 0C12.443 0 12.667 0.223999 12.667 0.5V3.5C12.667 3.776 12.443 4 12.167 4Z" fill="#FF7300"/>
</g>
<defs>
<clipPath id="clip0">
<rect width="16" height="16" fill="white"/>
</clipPath>
</defs>
</svg>
