<svg width="24" height="24" viewBox="0 0 24 24" fill="none" xmlns="http://www.w3.org/2000/svg">
<path d="M23.4457 10.4099L22.1482 10.2881C21.9959 9.7642 21.7888 9.26471 21.5147 8.78958L22.3371 7.79669C22.5381 7.55303 22.5198 7.20582 22.3005 6.98044L20.6802 5.34186C20.4609 5.11648 20.1015 5.09821 19.8579 5.29922L18.865 6.12156C18.3959 5.85354 17.8904 5.64034 17.3726 5.48806L17.2508 4.19669C17.2203 3.88603 16.9584 3.64846 16.6416 3.64846H14.6193V1.82105C14.6193 1.48603 14.3452 1.21191 14.0102 1.21191C13.6751 1.21191 13.401 1.48603 13.401 1.82105V4.86674H11.0985C10.1178 4.86674 9.18579 5.32968 8.58883 6.10938L6.07919 9.41699L1.85787 10.5683C0.761421 10.8667 0.00609137 11.8596 0 12.9987V14.6129C0.00609137 16.0018 1.13909 17.1226 2.52792 17.1226H2.85685C3.31371 18.8221 5.06193 19.8211 6.76142 19.3642C7.85178 19.0657 8.71066 18.2129 9.00305 17.1226H13.401V22.1784C13.401 22.5134 13.6751 22.7875 14.0102 22.7875C14.3452 22.7875 14.6193 22.5134 14.6193 22.1784V20.7165H16.6416C16.9584 20.7165 17.2203 20.4789 17.2508 20.1622L17.3726 18.8647C17.8964 18.7124 18.3959 18.5053 18.8711 18.2373L19.864 19.0596C20.1076 19.2606 20.4609 19.2424 20.6802 19.0231L22.3188 17.3845C22.5381 17.1652 22.5563 16.8058 22.3553 16.5622L21.533 15.5693C21.801 15.0941 22.0142 14.5947 22.1665 14.0769L23.4457 13.9551C23.7563 13.9246 24 13.6627 24 13.3459V11.0129C24 10.7023 23.7563 10.4403 23.4457 10.4099ZM5.9269 18.2617C4.84264 18.2617 3.95939 17.3784 3.95939 16.2941C3.95939 15.2099 4.84264 14.3266 5.9269 14.3266C7.01117 14.3266 7.89442 15.2099 7.89442 16.2941C7.89442 17.3784 7.01726 18.2617 5.9269 18.2617ZM13.401 15.8982H9.08832C8.87513 14.15 7.28528 12.9134 5.54315 13.1205C4.0934 13.2972 2.94822 14.4424 2.76548 15.8982H2.52183C1.80305 15.9043 1.21827 15.3256 1.21218 14.6068V12.9987C1.21827 12.4139 1.60812 11.9023 2.17462 11.7439L6.59695 10.5378C6.72487 10.5013 6.84061 10.4282 6.9198 10.3185L9.56345 6.85252C9.92893 6.3713 10.5015 6.0911 11.1046 6.0911H13.401V15.8982ZM14.6193 9.59364C16.0447 9.11851 17.5858 9.89212 18.0609 11.3236C18.536 12.7551 17.7624 14.2901 16.331 14.7652C15.7766 14.948 15.1736 14.948 14.6193 14.7652V9.59364ZM22.7817 12.7855L21.6244 12.8952C21.3624 12.9195 21.1431 13.1145 21.0883 13.3703C20.936 14.0525 20.6619 14.6982 20.2782 15.283C20.132 15.5084 20.1503 15.7947 20.3208 16.0018L21.064 16.9033L20.2112 17.7561L19.3096 17.019C19.1025 16.8485 18.8102 16.8302 18.5848 16.9825C18.0061 17.3662 17.3604 17.6403 16.6782 17.7865C16.4162 17.8414 16.2274 18.0606 16.203 18.3226L16.0934 19.4921H14.6193V16.0261C16.7452 16.5013 18.8528 15.1612 19.3218 13.0353C19.797 10.9094 18.4569 8.80176 16.331 8.32663C15.7645 8.19872 15.1797 8.19872 14.6193 8.32663V4.87283H16.0873L16.203 6.03628C16.2274 6.29821 16.4223 6.5175 16.6782 6.57232C17.3604 6.7246 18.0061 6.99872 18.5909 7.37638C18.8162 7.52257 19.1025 7.5043 19.3096 7.33374L20.2051 6.59059L21.0457 7.43729L20.2964 8.34491C20.1259 8.55202 20.1076 8.8444 20.2599 9.06978C20.6437 9.64846 20.9178 10.2941 21.064 10.9764C21.1249 11.2383 21.3381 11.4271 21.6061 11.4515L22.7817 11.5672V12.7855Z" fill="white"/>
</svg>
