<svg width="24" height="24" viewBox="0 0 24 24" fill="none" xmlns="http://www.w3.org/2000/svg">
<g clip-path="url(#clip0)">
<path d="M20.0779 14.9665C21.0807 13.4434 21.6654 11.6217 21.6654 9.66559C21.6654 4.33594 17.3293 0 11.9996 0C6.66998 0 2.33405 4.33594 2.33405 9.66559C2.33405 11.6217 2.9187 13.4434 3.92139 14.9665L0.140625 20.4803L4.46686 19.6738L5.27362 24L8.83905 18.8C9.83002 19.1439 10.8933 19.3312 11.9996 19.3312C13.1061 19.3312 14.1694 19.1439 15.1602 18.8L18.7258 24L19.5324 19.6738L23.8586 20.4803L20.0779 14.9665ZM6.03809 20.3837L5.59808 18.0238L3.2384 18.464L4.83069 16.1417C5.59332 16.985 6.50244 17.6933 7.51721 18.2269L6.03809 20.3837ZM3.74854 9.66559C3.74854 5.11597 7.45001 1.41449 11.9996 1.41449C16.5494 1.41449 20.2509 5.11597 20.2509 9.66559C20.2509 14.2154 16.5494 17.9169 11.9996 17.9169C7.45001 17.9169 3.74854 14.2154 3.74854 9.66559ZM18.4012 18.0238L17.9612 20.3837L16.4822 18.2269C17.497 17.6933 18.4061 16.985 19.1688 16.1417L20.761 18.4638L18.4012 18.0238Z" fill="white"/>
<path d="M10.2765 11.7881L7.97668 9.48853L6.97656 10.4886L10.2765 13.7886L17.0226 7.0426L16.0225 6.04248L10.2765 11.7881Z" fill="white"/>
</g>
<defs>
<clipPath id="clip0">
<rect width="24" height="24" fill="white"/>
</clipPath>
</defs>
</svg>
