<svg width="24" height="24" viewBox="0 0 24 24" fill="none" xmlns="http://www.w3.org/2000/svg">
<g clip-path="url(#clip0)">
<path d="M20.617 16.1574C20.5855 16.1059 20.5479 16.0586 20.5045 16.017C19.0875 14.268 17.1392 12.9667 14.9072 12.3608C16.5349 11.374 17.625 9.58537 17.625 7.54688C17.625 7.53127 17.6245 7.51561 17.6243 7.5H18.1894C18.5777 7.5 18.8925 7.18519 18.8925 6.79688C18.8925 6.40856 18.5777 6.09375 18.1894 6.09375H17.671C17.5421 5.1142 17.1614 4.19044 16.552 3.39019C15.9053 2.541 15.0203 1.88063 14.0308 1.50056C13.7854 0.635625 12.9892 0 12.0467 0H11.9532C11.0108 0 10.2145 0.635625 9.96911 1.50052C8.97963 1.88058 8.09467 2.54095 7.44794 3.39014C6.83847 4.19044 6.45784 5.1142 6.32894 6.09375H5.81055C5.42223 6.09375 5.10742 6.40856 5.10742 6.79688C5.10742 7.18519 5.42223 7.5 5.81055 7.5H6.37595C6.37581 7.51561 6.37502 7.53127 6.37502 7.54688C6.37502 9.58537 7.46505 11.374 9.09278 12.3607C4.47934 13.6132 1.07617 17.837 1.07617 22.8414V23.2969C1.07617 23.6852 1.39098 24 1.7793 24H22.2207C22.609 24 22.9238 23.6852 22.9238 23.2969V22.8414C22.9238 20.3227 22.0616 18.0015 20.617 16.1574ZM7.49997 14.4953C8.82334 13.7893 10.3333 13.3888 11.935 13.3888H12.0649C13.6667 13.3888 15.1766 13.7893 16.5 14.4953V17.5312H7.49997V14.4953ZM9.89059 3.08812V3.37444C9.89059 3.76275 10.2054 4.07756 10.5937 4.07756C10.982 4.07756 11.2968 3.76275 11.2968 3.37444V2.06264C11.2968 1.70072 11.5913 1.40625 11.9532 1.40625H12.0467C12.4086 1.40625 12.703 1.70072 12.703 2.06264V3.37453C12.703 3.76284 13.0179 4.07766 13.4062 4.07766C13.7945 4.07766 14.1093 3.76284 14.1093 3.37453V3.08812C15.2223 3.72117 16.0171 4.83248 16.2462 6.09375H7.75366C7.98283 4.83248 8.77759 3.72117 9.89059 3.08812ZM7.78122 7.54688C7.78122 7.53127 7.78197 7.51561 7.78216 7.5H16.2181C16.2183 7.51561 16.2188 7.53127 16.2188 7.54688C16.2188 9.87309 14.3262 11.7656 12 11.7656C9.67375 11.7656 7.78122 9.87309 7.78122 7.54688ZM6.09372 15.4152V18.2344C6.09372 18.6227 6.40853 18.9375 6.79684 18.9375H17.2031C17.5914 18.9375 17.9062 18.6227 17.9062 18.2344V15.4153C18.4214 15.8214 18.8935 16.2797 19.3144 16.7825V22.5938H4.68705C4.68808 22.5782 4.68939 22.5627 4.68939 22.5469V16.8047C4.68939 16.7961 4.68841 16.7878 4.68813 16.7793C5.10836 16.2778 5.57959 15.8205 6.09372 15.4152ZM3.28314 19.035V22.5469C3.28314 22.5627 3.2845 22.5782 3.28548 22.5938H2.48561C2.51823 21.3308 2.80005 20.1289 3.28314 19.035ZM20.7207 22.5938V19.0441C21.2013 20.1356 21.4818 21.3343 21.5143 22.5938H20.7207Z" fill="white"/>
</g>
<defs>
<clipPath id="clip0">
<rect width="24" height="24" fill="white"/>
</clipPath>
</defs>
</svg>
