<svg width="40" height="22" viewBox="0 0 40 22" fill="none" xmlns="http://www.w3.org/2000/svg">
<path fill-rule="evenodd" clip-rule="evenodd" d="M20.221 0.421126C20.221 0.461132 20.1228 0.493864 20.0028 0.493864C19.8828 0.493864 19.7846 0.526595 19.7846 0.566601C19.7846 0.606607 19.7191 0.639338 19.6391 0.639338C19.5591 0.639338 19.4936 0.67207 19.4936 0.712076C19.4936 0.752081 19.4354 0.784813 19.3642 0.784813C19.293 0.784813 19.1876 0.850277 19.13 0.930288C19.0723 1.0103 18.9809 1.07576 18.9269 1.07576C18.8002 1.07576 18.6208 1.25521 18.6208 1.38184C18.6208 1.43589 18.5553 1.52724 18.4753 1.58492C18.3953 1.64261 18.3298 1.748 18.3298 1.81921C18.3298 1.89035 18.2971 1.94861 18.2571 1.94861C18.2171 1.94861 18.1844 2.01408 18.1844 2.09409C18.1844 2.1741 18.1516 2.23956 18.1116 2.23956C18.0716 2.23956 18.0389 2.37049 18.0389 2.53051C18.0389 2.69053 18.0062 2.82146 17.9662 2.82146C17.9246 2.82146 17.8934 3.03967 17.8934 3.33062C17.8934 3.62157 17.9246 3.83978 17.9662 3.83978C18.0062 3.83978 18.0389 3.93798 18.0389 4.058C18.0389 4.17801 18.0716 4.27621 18.1116 4.27621C18.1516 4.27621 18.1844 4.34167 18.1844 4.42168C18.1844 4.5017 18.2171 4.56716 18.2571 4.56716C18.2971 4.56716 18.3298 4.63262 18.3298 4.71263C18.3298 4.79264 18.3626 4.85811 18.4026 4.85811C18.4426 4.85811 18.4753 4.91637 18.4753 4.98751C18.4753 5.05872 18.5408 5.16411 18.6208 5.2218C18.7008 5.27948 18.7663 5.37767 18.7663 5.44001C18.7663 5.50234 18.8317 5.60054 18.9117 5.65822C18.9918 5.7159 19.0572 5.8141 19.0572 5.87643C19.0572 5.93877 19.1227 6.03696 19.2027 6.09464C19.2827 6.15233 19.3482 6.25052 19.3482 6.31286C19.3482 6.37519 19.4136 6.47339 19.4936 6.53107C19.5737 6.58875 19.6391 6.68695 19.6391 6.74928C19.6391 6.81162 19.7046 6.90981 19.7846 6.96749C19.8646 7.02517 19.9301 7.12337 19.9301 7.18571C19.9301 7.24804 19.9955 7.34624 20.0755 7.40392C20.1556 7.4616 20.221 7.55979 20.221 7.62213C20.221 7.68447 20.2865 7.78266 20.3665 7.84034C20.4465 7.89802 20.512 7.99622 20.512 8.05856C20.512 8.12089 20.5774 8.21909 20.6574 8.27677C20.7375 8.33445 20.8029 8.43264 20.8029 8.49498C20.8029 8.55732 20.8684 8.65551 20.9484 8.71319C21.0284 8.77087 21.0939 8.86223 21.0939 8.91628C21.0939 9.04946 20.9119 9.22235 20.7717 9.22235C20.7089 9.22235 20.6574 9.25509 20.6574 9.29509C20.6574 9.3351 20.5992 9.36783 20.528 9.36783C20.4568 9.36783 20.3514 9.43329 20.2938 9.5133C20.2361 9.59331 20.1307 9.65878 20.0595 9.65878C19.9883 9.65878 19.9301 9.69151 19.9301 9.73152C19.9301 9.77152 19.8646 9.80425 19.7846 9.80425C19.7046 9.80425 19.6391 9.83698 19.6391 9.87699C19.6391 9.917 19.5809 9.94973 19.5097 9.94973C19.4385 9.94973 19.3331 10.0152 19.2754 10.0952C19.2177 10.1752 19.1196 10.2407 19.0572 10.2407C18.9949 10.2407 18.8967 10.3061 18.839 10.3862C18.7813 10.4662 18.6759 10.5316 18.6047 10.5316C18.5336 10.5316 18.4753 10.5644 18.4753 10.6044C18.4753 10.6444 18.4099 10.6771 18.3298 10.6771C18.2498 10.6771 18.1844 10.7098 18.1844 10.7498C18.1844 10.7954 17.7237 10.8226 16.9478 10.8226C16.1719 10.8226 15.7113 10.7954 15.7113 10.7498C15.7113 10.7098 15.744 10.6771 15.784 10.6771C15.8281 10.6771 15.8568 10.3619 15.8568 9.87699C15.8568 9.39205 15.8281 9.07688 15.784 9.07688C15.744 9.07688 15.7113 8.97868 15.7113 8.85867C15.7113 8.73865 15.6786 8.64045 15.6386 8.64045C15.5985 8.64045 15.5658 8.58816 15.5658 8.52415C15.5658 8.46021 15.4676 8.31612 15.3476 8.20403C15.2276 8.09194 15.1294 7.94785 15.1294 7.88391C15.1294 7.8199 15.0771 7.76761 15.0131 7.76761C14.9491 7.76761 14.8051 7.66941 14.693 7.54939C14.5809 7.42938 14.4368 7.33118 14.3728 7.33118C14.3088 7.33118 14.2565 7.29845 14.2565 7.25844C14.2565 7.21844 14.1583 7.18571 14.0383 7.18571C13.9183 7.18571 13.8201 7.15297 13.8201 7.11297C13.8201 7.06518 12.1714 7.04023 9.01945 7.04023C5.86751 7.04023 4.21877 7.06518 4.21877 7.11297C4.21877 7.15297 4.12058 7.18571 4.00056 7.18571C3.88054 7.18571 3.78235 7.21844 3.78235 7.25844C3.78235 7.29845 3.73005 7.33118 3.66604 7.33118C3.6021 7.33118 3.45801 7.42938 3.34592 7.54939C3.23383 7.66941 3.08974 7.76761 3.02581 7.76761C2.9618 7.76761 2.9095 7.8199 2.9095 7.88391C2.9095 7.94785 2.8113 8.09194 2.69129 8.20403C2.57127 8.31612 2.47307 8.46021 2.47307 8.52415C2.47307 8.58816 2.44034 8.64045 2.40034 8.64045C2.36033 8.64045 2.3276 8.73865 2.3276 8.85867C2.3276 8.97868 2.29487 9.07688 2.25486 9.07688C2.21078 9.07688 2.18212 9.39205 2.18212 9.87699C2.18212 10.3619 2.21078 10.6771 2.25486 10.6771C2.29487 10.6771 2.3276 10.7426 2.3276 10.8226C2.3276 10.9195 2.27908 10.9681 2.18212 10.9681C2.10211 10.9681 2.03665 11.0008 2.03665 11.0408C2.03665 11.0808 1.97119 11.1135 1.89117 11.1135C1.81116 11.1135 1.7457 11.1463 1.7457 11.1863C1.7457 11.2263 1.68024 11.259 1.60022 11.259C1.52021 11.259 1.45475 11.2917 1.45475 11.3317C1.45475 11.3717 1.40456 11.4045 1.34324 11.4045C1.20708 11.4045 0.727375 11.8717 0.727375 12.0043C0.727375 12.0568 0.661911 12.1469 0.5819 12.2046C0.501889 12.2623 0.436425 12.3677 0.436425 12.4389C0.436425 12.51 0.403693 12.5683 0.363687 12.5683C0.323682 12.5683 0.29095 12.6665 0.29095 12.7865C0.29095 12.9065 0.258218 13.0047 0.218212 13.0047C0.174133 13.0047 0.145475 13.3199 0.145475 13.8048C0.145475 14.2898 0.174133 14.6049 0.218212 14.6049C0.258218 14.6049 0.29095 14.7031 0.29095 14.8231C0.29095 14.9432 0.323682 15.0413 0.363687 15.0413C0.403693 15.0413 0.436425 15.0918 0.436425 15.1536C0.436425 15.2153 0.699516 15.5261 1.02109 15.8441L1.60568 16.4226L0.802876 17.2208C0.202428 17.8177 0 18.0654 0 18.2031C0 18.3044 0.0327319 18.3873 0.0727375 18.3873C0.113179 18.3873 0.145475 18.5813 0.145475 18.8237C0.145475 19.0661 0.17777 19.2601 0.218212 19.2601C0.258218 19.2601 0.29095 19.3256 0.29095 19.4056C0.29095 19.4856 0.323682 19.5511 0.363687 19.5511C0.403693 19.5511 0.436425 19.6093 0.436425 19.6805C0.436425 19.7517 0.501889 19.8571 0.5819 19.9148C0.661911 19.9724 0.727375 20.0638 0.727375 20.1178C0.727375 20.2445 0.906817 20.4239 1.03345 20.4239C1.0875 20.4239 1.17886 20.4894 1.23654 20.5694C1.29422 20.6494 1.39961 20.7149 1.47082 20.7149C1.54196 20.7149 1.60022 20.7476 1.60022 20.7876C1.60022 20.8276 1.66569 20.8603 1.7457 20.8603C1.82571 20.8603 1.89117 20.8931 1.89117 20.9331C1.89117 20.9731 2.0221 21.0058 2.18212 21.0058C2.34215 21.0058 2.47307 21.0385 2.47307 21.0786C2.47307 21.1265 4.63098 21.1513 8.80123 21.1513C12.9715 21.1513 15.1294 21.1265 15.1294 21.0786C15.1294 21.0385 15.2603 21.0058 15.4203 21.0058C15.5804 21.0058 15.7113 20.9731 15.7113 20.9331C15.7113 20.8931 15.8023 20.8603 15.9134 20.8603C16.0321 20.8603 16.1588 20.8003 16.2205 20.7149C16.2781 20.6349 16.3674 20.5694 16.4187 20.5694C16.53 20.5694 19.7846 17.3313 19.7846 17.2206C19.7846 17.1064 20.1259 16.787 20.248 16.787C20.3065 16.787 20.3735 16.7462 20.3968 16.6961C20.4307 16.6234 20.4477 16.6234 20.4816 16.6961C20.5435 16.8287 26.3039 16.8287 26.3515 16.6961C26.3736 16.6344 26.431 16.6579 26.5298 16.7689C26.6098 16.8589 26.7133 16.9325 26.7597 16.9325C26.8652 16.9325 27.4948 17.5559 27.4948 17.6604C27.4948 17.7791 27.9849 18.2418 28.1106 18.2418C28.1736 18.2418 28.2221 18.3051 28.2221 18.3873C28.2221 18.4842 28.2707 18.5327 28.3676 18.5327C28.4646 18.5327 28.5131 18.5813 28.5131 18.6782C28.5131 18.822 28.4646 18.8237 24.2216 18.8237C21.409 18.8237 19.9301 18.8488 19.9301 18.8964C19.9301 18.9364 19.8799 18.9692 19.8186 18.9692C19.7572 18.9692 19.5935 19.0826 19.4549 19.2213C19.2225 19.4536 19.2027 19.5082 19.2027 19.9148C19.2027 20.3213 19.2225 20.3759 19.4549 20.6082C19.5935 20.7469 19.7572 20.8603 19.8186 20.8603C19.8799 20.8603 19.9301 20.8931 19.9301 20.9331C19.9301 20.9812 22.8153 21.0058 28.4403 21.0058C34.0654 21.0058 36.9506 20.9812 36.9506 20.9331C36.9506 20.8931 37.0816 20.8603 37.2416 20.8603C37.4016 20.8603 37.5325 20.8276 37.5325 20.7876C37.5325 20.7476 37.6307 20.7149 37.7507 20.7149C37.8708 20.7149 37.969 20.6821 37.969 20.6421C37.969 20.6021 38.0213 20.5694 38.0853 20.5694C38.1492 20.5694 38.2933 20.4712 38.4054 20.3512C38.5175 20.2312 38.6475 20.133 38.6944 20.133C38.8042 20.133 38.9873 19.9499 38.9873 19.8401C38.9873 19.7932 39.0855 19.6632 39.2055 19.5511C39.3255 19.439 39.4237 19.2949 39.4237 19.2309C39.4237 19.1669 39.4564 19.1146 39.4964 19.1146C39.5364 19.1146 39.5692 19.0164 39.5692 18.8964C39.5692 18.7764 39.6019 18.6782 39.6419 18.6782C39.6822 18.6782 39.7147 18.4863 39.7147 18.2478C39.7147 17.9747 39.7479 17.802 39.8056 17.775C39.8783 17.7411 39.8783 17.7241 39.8056 17.6902C39.7556 17.6669 39.7147 17.5523 39.7147 17.4356C39.7147 17.319 39.6819 17.2235 39.6419 17.2235C39.6019 17.2235 39.5692 17.172 39.5692 17.1092C39.5692 16.9622 39.394 16.787 39.247 16.787C39.1842 16.787 39.1328 16.7543 39.1328 16.7143C39.1328 16.6743 38.9691 16.6416 38.7691 16.6416C38.569 16.6416 38.4054 16.6743 38.4054 16.7143C38.4054 16.7543 38.3552 16.787 38.2939 16.787C38.2325 16.787 38.0688 16.9005 37.9302 17.0392C37.7032 17.2662 37.678 17.3316 37.678 17.6939C37.678 17.9152 37.6453 18.0963 37.6053 18.0963C37.5653 18.0963 37.5325 18.1469 37.5325 18.2087C37.5325 18.3542 37.2086 18.6782 37.063 18.6782C37.0012 18.6782 36.9506 18.7109 36.9506 18.751C36.9506 18.7981 36.017 18.8237 34.2951 18.8237H31.6395L30.6582 17.8424C30.1185 17.3027 29.6769 16.8117 29.6769 16.7513C29.6769 16.6901 29.7412 16.6416 29.8224 16.6416C29.9024 16.6416 29.9678 16.6743 29.9678 16.7143C29.9678 16.7588 30.3073 16.787 30.8407 16.787C31.3741 16.787 31.7135 16.7588 31.7135 16.7143C31.7135 16.6719 31.956 16.6416 32.2954 16.6416C32.6349 16.6416 32.8773 16.6112 32.8773 16.5688C32.8773 16.5288 32.9755 16.4961 33.0955 16.4961C33.2156 16.4961 33.3138 16.4634 33.3138 16.4234C33.3138 16.3834 33.3792 16.3506 33.4592 16.3506C33.5392 16.3506 33.6047 16.3179 33.6047 16.2779C33.6047 16.2379 33.6543 16.2051 33.715 16.2051C33.8587 16.2051 34.914 15.1499 34.914 15.0061C34.914 14.9455 34.9467 14.8959 34.9867 14.8959C35.0267 14.8959 35.0595 14.8304 35.0595 14.7504C35.0595 14.6704 35.0922 14.6049 35.1322 14.6049C35.1722 14.6049 35.2049 14.5067 35.2049 14.3867C35.2049 14.2667 35.2377 14.1685 35.2777 14.1685C35.3177 14.1685 35.3504 14.0048 35.3504 13.8048C35.3504 13.6048 35.3831 13.4411 35.4231 13.4411C35.4632 13.4411 35.4959 13.3102 35.4959 13.1502C35.4959 12.9902 35.4632 12.8592 35.4231 12.8592C35.3831 12.8592 35.3504 12.6956 35.3504 12.4955C35.3504 12.2955 35.3177 12.1319 35.2777 12.1319C35.2377 12.1319 35.2049 12.0337 35.2049 11.9136C35.2049 11.7936 35.1722 11.6954 35.1322 11.6954C35.0922 11.6954 35.0595 11.6372 35.0595 11.566C35.0595 11.4948 34.994 11.3894 34.914 11.3317C34.834 11.2741 34.7685 11.1842 34.7685 11.1319C34.7685 10.9995 34.142 10.3862 34.0067 10.3862C33.9456 10.3862 33.8957 10.3534 33.8957 10.3134C33.8957 10.2734 33.8374 10.2407 33.7663 10.2407C33.695 10.2407 33.5897 10.1752 33.532 10.0952C33.4743 10.0152 33.3689 9.94973 33.2977 9.94973C33.2265 9.94973 33.1683 9.917 33.1683 9.87699C33.1683 9.83698 33.1028 9.80425 33.0228 9.80425C32.9428 9.80425 32.8773 9.77152 32.8773 9.73152C32.8773 9.69151 32.8119 9.65878 32.7319 9.65878C32.6518 9.65878 32.5864 9.62605 32.5864 9.58604C32.5864 9.54603 32.5209 9.5133 32.4409 9.5133C32.3609 9.5133 32.2954 9.48057 32.2954 9.44057C32.2954 9.40056 32.23 9.36783 32.15 9.36783C32.0699 9.36783 32.0045 9.3351 32.0045 9.29509C32.0045 9.25509 31.9462 9.22235 31.8751 9.22235C31.8039 9.22235 31.6985 9.15689 31.6408 9.07688C31.5831 8.99687 31.4777 8.9314 31.4065 8.9314C31.3354 8.9314 31.2771 8.89867 31.2771 8.85867C31.2771 8.81866 31.2116 8.78593 31.1316 8.78593C31.0516 8.78593 30.9862 8.7532 30.9862 8.71319C30.9862 8.67319 30.9207 8.64045 30.8407 8.64045C30.7607 8.64045 30.6952 8.60772 30.6952 8.56772C30.6952 8.52771 30.6297 8.49498 30.5497 8.49498C30.4697 8.49498 30.4043 8.46225 30.4043 8.42224C30.4043 8.38224 30.3388 8.3495 30.2588 8.3495C30.1788 8.3495 30.1133 8.31677 30.1133 8.27677C30.1133 8.23676 30.0478 8.20403 29.9678 8.20403C29.8878 8.20403 29.8224 8.1713 29.8224 8.13129C29.8224 8.09129 29.7569 8.05856 29.6769 8.05856C29.5969 8.05856 29.5314 8.02582 29.5314 7.98582C29.5314 7.94581 29.4659 7.91308 29.3859 7.91308C29.3059 7.91308 29.2405 7.88035 29.2405 7.84034C29.2405 7.80034 29.175 7.76761 29.095 7.76761C29.015 7.76761 28.9495 7.73487 28.9495 7.69487C28.9495 7.65486 28.884 7.62213 28.804 7.62213C28.724 7.62213 28.6586 7.5894 28.6586 7.54939C28.6586 7.50939 28.5931 7.47666 28.5131 7.47666C28.4331 7.47666 28.3676 7.44392 28.3676 7.40392C28.3676 7.36391 28.3021 7.33118 28.2221 7.33118C28.1421 7.33118 28.0767 7.29845 28.0767 7.25844C28.0767 7.21844 28.0112 7.18571 27.9312 7.18571C27.8512 7.18571 27.7857 7.15297 27.7857 7.11297C27.7857 7.07296 27.7202 7.04023 27.6402 7.04023C27.5602 7.04023 27.4948 7.0075 27.4948 6.96749C27.4948 6.92749 27.4293 6.89476 27.3493 6.89476C27.2693 6.89476 27.2038 6.86202 27.2038 6.82202C27.2038 6.78201 27.1383 6.74928 27.0583 6.74928C26.9783 6.74928 26.9129 6.71655 26.9129 6.67654C26.9129 6.63654 26.8627 6.60381 26.8014 6.60381C26.6652 6.60381 26.1855 6.13661 26.1855 6.00401C26.1855 5.9515 26.12 5.86138 26.04 5.8037C25.96 5.74601 25.8945 5.64782 25.8945 5.58548C25.8945 5.52315 25.8291 5.42495 25.7491 5.36727C25.6691 5.30959 25.6036 5.21139 25.6036 5.14906C25.6036 5.08672 25.5381 4.98853 25.4581 4.93085C25.3781 4.87317 25.3126 4.77497 25.3126 4.71263C25.3126 4.6503 25.2472 4.5521 25.1672 4.49442C25.0872 4.43674 25.0217 4.33855 25.0217 4.27621C25.0217 4.21387 24.9562 4.11568 24.8762 4.058C24.7962 4.00032 24.7307 3.90212 24.7307 3.83978C24.7307 3.77745 24.6653 3.67925 24.5853 3.62157C24.5053 3.56389 24.4398 3.47159 24.4398 3.41645C24.4398 3.36139 24.3416 3.2245 24.2216 3.11241C24.1016 3.00032 24.0034 2.86343 24.0034 2.80837C24.0034 2.75323 23.9379 2.66093 23.8579 2.60325C23.7779 2.54557 23.7124 2.44017 23.7124 2.36896C23.7124 2.29782 23.6797 2.23956 23.6397 2.23956C23.5997 2.23956 23.5669 2.18726 23.5669 2.12325C23.5669 2.05932 23.4687 1.91523 23.3487 1.80314C23.2287 1.69105 23.1305 1.56223 23.1305 1.51692C23.1305 1.40272 22.6475 0.930288 22.5307 0.930288C22.4782 0.930288 22.3881 0.864824 22.3304 0.784813C22.2727 0.704802 22.1673 0.639338 22.0961 0.639338C22.025 0.639338 21.9667 0.606607 21.9667 0.566601C21.9667 0.526595 21.8358 0.493864 21.6758 0.493864C21.5157 0.493864 21.3848 0.461132 21.3848 0.421126C21.3848 0.37872 21.1424 0.348389 20.8029 0.348389C20.4634 0.348389 20.221 0.37872 20.221 0.421126ZM4.54005 16.7325C4.57395 16.8052 4.59097 16.8052 4.62487 16.7325C4.67513 16.6249 5.09162 16.6087 5.09162 16.7143C5.09162 16.7584 5.40679 16.787 5.89173 16.787C6.37668 16.787 6.69185 16.7584 6.69185 16.7143C6.69185 16.6712 6.95857 16.6416 7.34648 16.6416C7.73439 16.6416 8.00112 16.6712 8.00112 16.7143C8.00112 16.7593 8.38903 16.787 9.01945 16.787C9.64986 16.787 10.0378 16.7593 10.0378 16.7143C10.0378 16.6719 10.2802 16.6416 10.6197 16.6416C10.9591 16.6416 11.2016 16.6719 11.2016 16.7143C11.2016 16.7614 12.0744 16.787 13.6746 16.787C15.2749 16.787 16.1477 16.7614 16.1477 16.7143C16.1477 16.6743 16.2786 16.6416 16.4387 16.6416C16.5987 16.6416 16.7296 16.6743 16.7296 16.7143C16.7296 16.7543 16.7951 16.787 16.8751 16.787C16.9551 16.787 17.0206 16.7543 17.0206 16.7143C17.0206 16.6743 17.0533 16.6416 17.0933 16.6416C17.3109 16.6416 17.0607 16.9663 16.1119 17.9151L15.0579 18.9692H8.83818C4.74023 18.9692 2.61855 18.9444 2.61855 18.8964C2.61855 18.8564 2.55308 18.8237 2.47307 18.8237C2.39306 18.8237 2.3276 18.807 2.3276 18.7867C2.3276 18.7344 4.39021 16.6545 4.44913 16.6474C4.47575 16.6442 4.51671 16.6825 4.54005 16.7325Z" fill="black"/>
</svg>
