<svg width="36" height="32" viewBox="0 0 36 32" fill="none" xmlns="http://www.w3.org/2000/svg">
<path fill-rule="evenodd" clip-rule="evenodd" d="M5.58135 0.603934C5.58135 0.616922 5.50103 0.625836 5.38423 0.625836C5.26742 0.625836 5.18711 0.63475 5.18711 0.647738C5.18711 0.659785 5.13783 0.669641 5.0776 0.669641C5.01736 0.669641 4.96808 0.679497 4.96808 0.691543C4.96808 0.703589 4.93852 0.713445 4.90238 0.713445C4.86624 0.713445 4.83667 0.723301 4.83667 0.735348C4.83667 0.747394 4.8071 0.75725 4.77096 0.75725C4.73482 0.75725 4.70525 0.767106 4.70525 0.779153C4.70525 0.791199 4.68554 0.801055 4.66145 0.801055C4.63736 0.801055 4.61765 0.810911 4.61765 0.822957C4.61765 0.835004 4.59793 0.84486 4.57384 0.84486C4.54975 0.84486 4.53004 0.854716 4.53004 0.866762C4.53004 0.878808 4.51032 0.888664 4.48623 0.888664C4.46214 0.888664 4.44243 0.89852 4.44243 0.910567C4.44243 0.922613 4.42271 0.932469 4.39862 0.932469C4.37453 0.932469 4.35482 0.942325 4.35482 0.954371C4.35482 0.966418 4.33727 0.976274 4.31585 0.976274C4.29441 0.976274 4.26267 0.995986 4.24531 1.02008C4.22794 1.04417 4.19837 1.06388 4.1796 1.06388C4.16083 1.06388 4.13126 1.0836 4.11389 1.10769C4.09652 1.13178 4.0696 1.15149 4.05405 1.15149C4.01715 1.15149 3.56633 1.60231 3.56633 1.63921C3.56633 1.65477 3.54662 1.68168 3.52253 1.69905C3.49843 1.71642 3.47872 1.74599 3.47872 1.76476C3.47872 1.78353 3.45901 1.8131 3.43492 1.83047C3.41082 1.84783 3.39111 1.87957 3.39111 1.90101C3.39111 1.92243 3.38126 1.93998 3.36921 1.93998C3.35716 1.93998 3.34731 1.95969 3.34731 1.98378C3.34731 2.00788 3.33745 2.02759 3.32541 2.02759C3.31336 2.02759 3.3035 2.0473 3.3035 2.07139C3.3035 2.09548 3.29365 2.1152 3.2816 2.1152C3.26955 2.1152 3.2597 2.14476 3.2597 2.1809C3.2597 2.21704 3.24984 2.24661 3.2378 2.24661C3.22575 2.24661 3.21589 2.26632 3.21589 2.29042C3.21589 2.31451 3.20604 2.33422 3.19399 2.33422C3.18195 2.33422 3.17209 2.37364 3.17209 2.42183C3.17209 2.47001 3.16223 2.50944 3.15019 2.50944C3.13801 2.50944 3.12828 2.56785 3.12828 2.64085C3.12828 2.71385 3.11856 2.77227 3.10638 2.77227C3.09184 2.77227 3.08448 4.65986 3.08448 8.39121V14.0102L3.03071 14.0639C3.00114 14.0935 2.96391 14.1177 2.94794 14.1177C2.932 14.1177 2.90473 14.1374 2.88736 14.1615C2.86999 14.1856 2.84042 14.2053 2.82165 14.2053C2.80288 14.2053 2.77331 14.225 2.75594 14.2491C2.73858 14.2732 2.70684 14.2929 2.6854 14.2929C2.66398 14.2929 2.64643 14.3028 2.64643 14.3148C2.64643 14.3269 2.62889 14.3367 2.60747 14.3367C2.58603 14.3367 2.55429 14.3564 2.53692 14.3805C2.51955 14.4046 2.49176 14.4243 2.47516 14.4243C2.45858 14.4243 2.41736 14.4539 2.3836 14.49C2.34985 14.5262 2.30863 14.5557 2.29205 14.5557C2.27545 14.5557 2.24766 14.5755 2.23029 14.5995C2.21292 14.6236 2.18512 14.6433 2.16852 14.6433C2.15194 14.6433 2.11072 14.6729 2.07697 14.7091C2.04322 14.7452 2.00379 14.7748 1.98936 14.7748C1.97493 14.7748 1.9355 14.8043 1.90175 14.8405C1.868 14.8766 1.8289 14.9062 1.81489 14.9062C1.80087 14.9062 1.7414 14.9555 1.68273 15.0157C1.62405 15.0759 1.56509 15.1252 1.55169 15.1252C1.53826 15.1252 1.45926 15.1942 1.37609 15.2785C1.29293 15.3628 1.21441 15.4318 1.20162 15.4318C1.17058 15.4318 0.806633 15.7968 0.806633 15.8279C0.806633 15.8413 0.777065 15.8799 0.740926 15.9137C0.704787 15.9474 0.675219 15.9908 0.675219 16.0101C0.675219 16.0294 0.665363 16.0451 0.653317 16.0451C0.64127 16.0451 0.631414 16.0648 0.631414 16.0889C0.631414 16.113 0.621558 16.1327 0.609512 16.1327C0.597466 16.1327 0.587609 16.1623 0.587609 16.1984C0.587609 16.2346 0.577753 16.2641 0.565707 16.2641C0.553661 16.2641 0.543805 16.2937 0.543805 16.3298C0.543805 16.366 0.533949 16.3955 0.521902 16.3955C0.508279 16.3955 0.5 16.5197 0.5 16.7241C0.5 16.9285 0.508279 17.0526 0.521902 17.0526C0.533949 17.0526 0.543805 17.092 0.543805 17.1402C0.543805 17.1884 0.553661 17.2278 0.565707 17.2278C0.577753 17.2278 0.587609 17.2574 0.587609 17.2935C0.587609 17.3297 0.597466 17.3592 0.609512 17.3592C0.621558 17.3592 0.631414 17.379 0.631414 17.403C0.631414 17.4271 0.64127 17.4469 0.653317 17.4469C0.665363 17.4469 0.675219 17.4626 0.675219 17.4819C0.675219 17.5011 0.704787 17.5445 0.740926 17.5783C0.777065 17.612 0.806633 17.6507 0.806633 17.6642C0.806633 17.6985 1.04031 17.9287 1.07511 17.9287C1.09077 17.9287 1.1178 17.9484 1.13517 17.9725C1.15254 17.9966 1.18427 18.0163 1.20572 18.0163C1.22714 18.0163 1.24468 18.0262 1.24468 18.0382C1.24468 18.0503 1.26439 18.0601 1.28849 18.0601C1.31258 18.0601 1.33229 18.07 1.33229 18.082C1.33229 18.0941 1.352 18.1039 1.37609 18.1039C1.40019 18.1039 1.4199 18.1138 1.4199 18.1258C1.4199 18.1379 1.44947 18.1477 1.48561 18.1477C1.52175 18.1477 1.55131 18.1576 1.55131 18.1696C1.55131 18.1817 1.60059 18.1915 1.66083 18.1915C1.72106 18.1915 1.77034 18.2014 1.77034 18.2134C1.77034 18.2264 1.85065 18.2353 1.96746 18.2353C2.08426 18.2353 2.16458 18.2264 2.16458 18.2134C2.16458 18.2014 2.21386 18.1915 2.27409 18.1915C2.33432 18.1915 2.3836 18.1817 2.3836 18.1696C2.3836 18.1576 2.41317 18.1477 2.44931 18.1477C2.48545 18.1477 2.51502 18.1379 2.51502 18.1258C2.51502 18.1138 2.53473 18.1039 2.55882 18.1039C2.58292 18.1039 2.60263 18.0941 2.60263 18.082C2.60263 18.07 2.62234 18.0601 2.64643 18.0601C2.67052 18.0601 2.69024 18.0503 2.69024 18.0382C2.69024 18.0262 2.70598 18.0163 2.72526 18.0163C2.74451 18.0163 2.7879 17.9867 2.82165 17.9506C2.8554 17.9145 2.89417 17.8849 2.90779 17.8849C2.92142 17.8849 3.04035 17.7765 3.17209 17.644C3.30383 17.5115 3.42243 17.403 3.43564 17.403C3.44885 17.403 3.50766 17.3538 3.56633 17.2935C3.62501 17.2333 3.68428 17.184 3.69803 17.184C3.71181 17.184 3.76096 17.1446 3.80726 17.0964C3.85356 17.0482 3.90481 17.0088 3.92117 17.0088C3.93753 17.0088 3.96511 16.9891 3.98248 16.965C3.99985 16.9409 4.02764 16.9212 4.04424 16.9212C4.06082 16.9212 4.10204 16.8916 4.13579 16.8555C4.16954 16.8193 4.21076 16.7898 4.22734 16.7898C4.24395 16.7898 4.27174 16.7701 4.28911 16.746C4.30648 16.7219 4.33605 16.7022 4.35482 16.7022C4.37359 16.7022 4.40316 16.6825 4.42052 16.6584C4.43789 16.6343 4.46963 16.6146 4.49107 16.6146C4.51249 16.6146 4.53004 16.6047 4.53004 16.5927C4.53004 16.5806 4.54758 16.5708 4.569 16.5708C4.59044 16.5708 4.62218 16.551 4.63955 16.527C4.65692 16.5029 4.68865 16.4831 4.7101 16.4831C4.73152 16.4831 4.74906 16.4733 4.74906 16.4612C4.74906 16.4492 4.76877 16.4393 4.79286 16.4393C4.81696 16.4393 4.83667 16.4295 4.83667 16.4174C4.83667 16.4054 4.85421 16.3955 4.87563 16.3955C4.89708 16.3955 4.92881 16.3758 4.94618 16.3517C4.96355 16.3276 4.99529 16.3079 5.01673 16.3079C5.03815 16.3079 5.05569 16.2981 5.05569 16.286C5.05569 16.274 5.0754 16.2641 5.0995 16.2641C5.12359 16.2641 5.1433 16.2543 5.1433 16.2422C5.1433 16.2302 5.16301 16.2203 5.18711 16.2203C5.2112 16.2203 5.23091 16.2105 5.23091 16.1984C5.23091 16.1864 5.25062 16.1765 5.27472 16.1765C5.29881 16.1765 5.31852 16.1667 5.31852 16.1546C5.31852 16.1426 5.33823 16.1327 5.36233 16.1327C5.38642 16.1327 5.40613 16.1229 5.40613 16.1108C5.40613 16.0988 5.4357 16.0889 5.47184 16.0889C5.50798 16.0889 5.53754 16.079 5.53754 16.067C5.53754 16.055 5.55726 16.0451 5.58135 16.0451C5.60544 16.0451 5.62515 16.0352 5.62515 16.0232C5.62515 16.0112 5.64487 16.0013 5.66896 16.0013C5.69305 16.0013 5.71276 15.9914 5.71276 15.9794C5.71276 15.9673 5.74233 15.9575 5.77847 15.9575C5.81461 15.9575 5.84418 15.9476 5.84418 15.9356C5.84418 15.9235 5.86389 15.9137 5.88798 15.9137C5.91208 15.9137 5.93179 15.9038 5.93179 15.8918C5.93179 15.8797 5.96136 15.8699 5.99749 15.8699C6.03363 15.8699 6.0632 15.86 6.0632 15.848C6.0632 15.8359 6.09277 15.8261 6.12891 15.8261C6.16505 15.8261 6.19462 15.8162 6.19462 15.8042C6.19462 15.7921 6.22418 15.7823 6.26032 15.7823C6.29646 15.7823 6.32603 15.7724 6.32603 15.7604C6.32603 15.7483 6.3556 15.7385 6.39174 15.7385C6.42788 15.7385 6.45744 15.7286 6.45744 15.7166C6.45744 15.7045 6.48701 15.6947 6.52315 15.6947C6.55929 15.6947 6.58886 15.6848 6.58886 15.6728C6.58886 15.6607 6.61843 15.6509 6.65457 15.6509C6.6907 15.6509 6.72027 15.641 6.72027 15.629C6.72027 15.6169 6.7597 15.6071 6.80788 15.6071C6.85607 15.6071 6.89549 15.5972 6.89549 15.5852C6.89549 15.5731 6.93492 15.5632 6.9831 15.5632C7.03129 15.5632 7.07071 15.5534 7.07071 15.5413C7.07071 15.5293 7.11014 15.5194 7.15832 15.5194C7.20651 15.5194 7.24593 15.5096 7.24593 15.4975C7.24593 15.4854 7.30434 15.4756 7.37734 15.4756C7.45034 15.4756 7.50876 15.4659 7.50876 15.4537C7.50876 15.4416 7.56717 15.4318 7.64017 15.4318C7.71317 15.4318 7.77159 15.4221 7.77159 15.4099C7.77159 15.3972 7.84459 15.388 7.94681 15.388C8.04902 15.388 8.12202 15.3789 8.12202 15.3661C8.12202 15.3523 8.27473 15.3442 8.53635 15.3442C8.84638 15.3442 8.95388 15.3373 8.96345 15.3168C8.97365 15.2949 8.97878 15.2949 8.98899 15.3168C8.99858 15.3374 9.11043 15.3442 9.43798 15.3442C9.7142 15.3442 9.87421 15.3523 9.87421 15.3661C9.87421 15.3789 9.94721 15.388 10.0494 15.388C10.1517 15.388 10.2247 15.3972 10.2247 15.4099C10.2247 15.4221 10.2831 15.4318 10.3561 15.4318C10.4291 15.4318 10.4875 15.4416 10.4875 15.4537C10.4875 15.4658 10.5368 15.4756 10.597 15.4756C10.6572 15.4756 10.7065 15.4855 10.7065 15.4975C10.7065 15.5096 10.7558 15.5194 10.816 15.5194C10.8762 15.5194 10.9255 15.5293 10.9255 15.5413C10.9255 15.5534 10.965 15.5632 11.0131 15.5632C11.0613 15.5632 11.1007 15.5731 11.1007 15.5852C11.1007 15.5972 11.1402 15.6071 11.1884 15.6071C11.2365 15.6071 11.276 15.6169 11.276 15.629C11.276 15.641 11.3055 15.6509 11.3417 15.6509C11.3778 15.6509 11.4074 15.6607 11.4074 15.6728C11.4074 15.6848 11.4369 15.6947 11.4731 15.6947C11.5092 15.6947 11.5388 15.7045 11.5388 15.7166C11.5388 15.7286 11.5782 15.7385 11.6264 15.7385C11.6746 15.7385 11.714 15.7483 11.714 15.7604C11.714 15.7724 11.7337 15.7823 11.7578 15.7823C11.7819 15.7823 11.8016 15.7921 11.8016 15.8042C11.8016 15.8162 11.8312 15.8261 11.8673 15.8261C11.9035 15.8261 11.933 15.8359 11.933 15.848C11.933 15.86 11.9626 15.8699 11.9987 15.8699C12.0349 15.8699 12.0645 15.8797 12.0645 15.8918C12.0645 15.9038 12.0842 15.9137 12.1083 15.9137C12.1323 15.9137 12.1521 15.9235 12.1521 15.9356C12.1521 15.9476 12.1816 15.9575 12.2178 15.9575C12.2539 15.9575 12.2835 15.9673 12.2835 15.9794C12.2835 15.9914 12.3032 16.0013 12.3273 16.0013C12.3514 16.0013 12.3711 16.0112 12.3711 16.0232C12.3711 16.0352 12.4007 16.0451 12.4368 16.0451C12.4729 16.0451 12.5025 16.055 12.5025 16.067C12.5025 16.079 12.5222 16.0889 12.5463 16.0889C12.5704 16.0889 12.5901 16.0988 12.5901 16.1108C12.5901 16.1229 12.6098 16.1327 12.6339 16.1327C12.658 16.1327 12.6777 16.1426 12.6777 16.1546C12.6777 16.1667 12.6974 16.1765 12.7215 16.1765C12.7456 16.1765 12.7653 16.1864 12.7653 16.1984C12.7653 16.2105 12.785 16.2203 12.8091 16.2203C12.8332 16.2203 12.8529 16.2302 12.8529 16.2422C12.8529 16.2543 12.8726 16.2641 12.8967 16.2641C12.9208 16.2641 12.9405 16.274 12.9405 16.286C12.9405 16.2981 12.9603 16.3079 12.9843 16.3079C13.0084 16.3079 13.0282 16.3178 13.0282 16.3298C13.0282 16.3419 13.0457 16.3517 13.0671 16.3517C13.0886 16.3517 13.1203 16.3714 13.1377 16.3955C13.155 16.4196 13.1868 16.4393 13.2082 16.4393C13.2296 16.4393 13.2472 16.4492 13.2472 16.4612C13.2472 16.4733 13.2647 16.4831 13.2861 16.4831C13.3076 16.4831 13.3393 16.5029 13.3567 16.527C13.3741 16.551 13.4058 16.5708 13.4272 16.5708C13.4487 16.5708 13.4662 16.5806 13.4662 16.5927C13.4662 16.6047 13.4837 16.6146 13.5052 16.6146C13.5266 16.6146 13.5583 16.6343 13.5757 16.6584C13.5931 16.6825 13.6227 16.7022 13.6414 16.7022C13.6602 16.7022 13.6898 16.7219 13.7071 16.746C13.7245 16.7701 13.7523 16.7898 13.7689 16.7898C13.7855 16.7898 13.8267 16.8193 13.8604 16.8555C13.8942 16.8916 13.9354 16.9212 13.952 16.9212C13.9686 16.9212 13.9964 16.9409 14.0138 16.965C14.0311 16.9891 14.0587 17.0088 14.0751 17.0088C14.0914 17.0088 14.1427 17.0482 14.189 17.0964C14.2353 17.1446 14.2844 17.184 14.2982 17.184C14.312 17.184 14.3712 17.2333 14.4299 17.2935C14.4886 17.3538 14.5471 17.403 14.5601 17.403C14.5907 17.403 15.3936 18.2059 15.3936 18.2366C15.3936 18.2495 15.4429 18.3081 15.5031 18.3668C15.5634 18.4254 15.6126 18.4849 15.6126 18.4989C15.6126 18.5129 15.6422 18.552 15.6783 18.5858C15.7145 18.6195 15.744 18.6589 15.744 18.6734C15.744 18.6878 15.7736 18.7272 15.8098 18.761C15.8459 18.7947 15.8755 18.836 15.8755 18.8525C15.8755 18.8691 15.8952 18.8969 15.9193 18.9143C15.9434 18.9317 15.9631 18.9612 15.9631 18.98C15.9631 18.9988 15.9828 19.0284 16.0069 19.0457C16.031 19.0631 16.0507 19.0927 16.0507 19.1114C16.0507 19.1302 16.0704 19.1598 16.0945 19.1771C16.1186 19.1945 16.1383 19.2241 16.1383 19.2428C16.1383 19.2616 16.158 19.2912 16.1821 19.3086C16.2062 19.3259 16.2259 19.3577 16.2259 19.3791C16.2259 19.4005 16.2358 19.4181 16.2478 19.4181C16.2598 19.4181 16.2697 19.4356 16.2697 19.457C16.2697 19.4785 16.2894 19.5102 16.3135 19.5276C16.3376 19.5449 16.3573 19.5767 16.3573 19.5981C16.3573 19.6195 16.3672 19.6371 16.3792 19.6371C16.3913 19.6371 16.4011 19.6568 16.4011 19.6809C16.4011 19.705 16.411 19.7247 16.423 19.7247C16.4351 19.7247 16.4449 19.7444 16.4449 19.7685C16.4449 19.7926 16.4548 19.8123 16.4668 19.8123C16.4789 19.8123 16.4887 19.832 16.4887 19.8561C16.4887 19.8802 16.4986 19.8999 16.5106 19.8999C16.5227 19.8999 16.5325 19.9196 16.5325 19.9437C16.5325 19.9678 16.5424 19.9875 16.5544 19.9875C16.5665 19.9875 16.5763 20.0072 16.5763 20.0313C16.5763 20.0554 16.5862 20.0751 16.5982 20.0751C16.6103 20.0751 16.6201 20.0948 16.6201 20.1189C16.6201 20.143 16.63 20.1627 16.642 20.1627C16.6541 20.1627 16.6639 20.1825 16.6639 20.2065C16.6639 20.2306 16.6738 20.2504 16.6859 20.2504C16.6979 20.2504 16.7078 20.2701 16.7078 20.2942C16.7078 20.3183 16.7176 20.338 16.7297 20.338C16.7417 20.338 16.7516 20.3577 16.7516 20.3818C16.7516 20.4059 16.7614 20.4256 16.7735 20.4256C16.7855 20.4256 16.7954 20.4551 16.7954 20.4913C16.7954 20.5274 16.8052 20.557 16.8173 20.557C16.8293 20.557 16.8392 20.5767 16.8392 20.6008C16.8392 20.6249 16.849 20.6446 16.8611 20.6446C16.8731 20.6446 16.883 20.6742 16.883 20.7103C16.883 20.7464 16.8928 20.776 16.9049 20.776C16.9169 20.776 16.9268 20.8056 16.9268 20.8417C16.9268 20.8779 16.9366 20.9074 16.9487 20.9074C16.9607 20.9074 16.9706 20.9271 16.9706 20.9512C16.9706 20.9753 16.9804 20.995 16.9925 20.995C17.0045 20.995 17.0144 21.0246 17.0144 21.0607C17.0144 21.0969 17.0242 21.1264 17.0363 21.1264C17.0483 21.1264 17.0582 21.1659 17.0582 21.2141C17.0582 21.2622 17.068 21.3017 17.0801 21.3017C17.0921 21.3017 17.102 21.3312 17.102 21.3674C17.102 21.4035 17.1119 21.4331 17.1239 21.4331C17.1359 21.4331 17.1458 21.4626 17.1458 21.4988C17.1458 21.5349 17.1557 21.5645 17.1677 21.5645C17.1797 21.5645 17.1896 21.6039 17.1896 21.6521C17.1896 21.7003 17.1995 21.7397 17.2115 21.7397C17.2236 21.7397 17.2334 21.789 17.2334 21.8492C17.2334 21.9095 17.2433 21.9587 17.2553 21.9587C17.2674 21.9587 17.2772 22.008 17.2772 22.0682C17.2772 22.1285 17.2871 22.1778 17.2991 22.1778C17.3112 22.1778 17.321 22.227 17.321 22.2873C17.321 22.3475 17.3309 22.3968 17.3429 22.3968C17.3554 22.3968 17.3648 22.4625 17.3648 22.5501C17.3648 22.6377 17.3742 22.7034 17.3867 22.7034C17.3999 22.7034 17.4086 22.791 17.4086 22.9224C17.4086 23.0539 17.4174 23.1415 17.4305 23.1415C17.4444 23.1415 17.4524 23.3021 17.4524 23.5795C17.4524 23.857 17.4605 24.0176 17.4743 24.0176C17.4864 24.0176 17.4962 24.057 17.4962 24.1052C17.4962 24.1534 17.5061 24.1928 17.5181 24.1928C17.5302 24.1928 17.54 24.2223 17.54 24.2585C17.54 24.2946 17.5499 24.3242 17.5619 24.3242C17.574 24.3242 17.5838 24.3439 17.5838 24.368C17.5838 24.3921 17.5937 24.4118 17.6057 24.4118C17.6178 24.4118 17.6277 24.4315 17.6277 24.4556C17.6277 24.4797 17.6375 24.4994 17.6496 24.4994C17.6616 24.4994 17.6715 24.517 17.6715 24.5384C17.6715 24.5598 17.6912 24.5916 17.7153 24.6089C17.7394 24.6263 17.7591 24.6533 17.7591 24.6689C17.7591 24.706 18.0344 24.9813 18.0714 24.9813C18.087 24.9813 18.114 25.001 18.1314 25.0251C18.1488 25.0492 18.1805 25.0689 18.202 25.0689C18.2234 25.0689 18.2409 25.0787 18.2409 25.0908C18.2409 25.1028 18.2705 25.1127 18.3066 25.1127C18.3428 25.1127 18.3723 25.1225 18.3723 25.1346C18.3723 25.1466 18.392 25.1565 18.4161 25.1565C18.4402 25.1565 18.4599 25.1663 18.4599 25.1784C18.4599 25.1904 18.4994 25.2003 18.5476 25.2003C18.5957 25.2003 18.6352 25.2101 18.6352 25.2222C18.6352 25.2357 18.752 25.2441 18.9418 25.2441C19.1316 25.2441 19.2484 25.2357 19.2484 25.2222C19.2484 25.2101 19.2879 25.2003 19.336 25.2003C19.3842 25.2003 19.4236 25.1904 19.4236 25.1784C19.4236 25.1663 19.4434 25.1565 19.4675 25.1565C19.4915 25.1565 19.5113 25.1466 19.5113 25.1346C19.5113 25.1225 19.531 25.1127 19.5551 25.1127C19.5792 25.1127 19.5989 25.1028 19.5989 25.0908C19.5989 25.0787 19.6186 25.0689 19.6427 25.0689C19.6668 25.0689 19.6865 25.059 19.6865 25.047C19.6865 25.0349 19.7014 25.0251 19.7196 25.0251C19.7628 25.0251 20.1683 24.6196 20.1683 24.5764C20.1683 24.5581 20.1782 24.5432 20.1902 24.5432C20.2023 24.5432 20.2121 24.5235 20.2121 24.4994C20.2121 24.4753 20.222 24.4556 20.234 24.4556C20.2461 24.4556 20.2559 24.4359 20.2559 24.4118C20.2559 24.3877 20.2658 24.368 20.2778 24.368C20.2899 24.368 20.2997 24.3483 20.2997 24.3242C20.2997 24.3001 20.3096 24.2804 20.3216 24.2804C20.3337 24.2804 20.3435 24.2508 20.3435 24.2147V24.149H22.5995C23.8403 24.149 24.8554 24.1547 24.8554 24.1616C24.8554 24.1686 24.816 24.2122 24.7678 24.2585C24.7196 24.3048 24.6802 24.3543 24.6802 24.3684C24.6802 24.3826 24.6506 24.4219 24.6145 24.4556C24.5784 24.4894 24.5488 24.5306 24.5488 24.5472C24.5488 24.5638 24.5291 24.5916 24.505 24.6089C24.4809 24.6263 24.4612 24.6559 24.4612 24.6746C24.4612 24.6934 24.4415 24.723 24.4174 24.7403C24.3933 24.7577 24.3736 24.7873 24.3736 24.806C24.3736 24.8248 24.3539 24.8544 24.3298 24.8717C24.3057 24.8891 24.286 24.9209 24.286 24.9423C24.286 24.9637 24.2761 24.9813 24.2641 24.9813C24.252 24.9813 24.2422 25.001 24.2422 25.0251C24.2422 25.0492 24.2323 25.0689 24.2203 25.0689C24.2082 25.0689 24.1984 25.0886 24.1984 25.1127C24.1984 25.1368 24.1885 25.1565 24.1765 25.1565C24.1644 25.1565 24.1546 25.1762 24.1546 25.2003C24.1546 25.2244 24.1447 25.2441 24.1327 25.2441C24.1206 25.2441 24.1108 25.2638 24.1108 25.2879C24.1108 25.312 24.1009 25.3317 24.0889 25.3317C24.0768 25.3317 24.0669 25.3613 24.0669 25.3974C24.0669 25.4335 24.0571 25.4631 24.045 25.4631C24.033 25.4631 24.0231 25.4828 24.0231 25.5069C24.0231 25.531 24.0133 25.5507 24.0012 25.5507C23.9892 25.5507 23.9793 25.5803 23.9793 25.6164C23.9793 25.6526 23.9695 25.6821 23.9574 25.6821C23.9454 25.6821 23.9355 25.7117 23.9355 25.7478C23.9355 25.784 23.9257 25.8136 23.9136 25.8136C23.9016 25.8136 23.8917 25.8431 23.8917 25.8793C23.8917 25.9154 23.8819 25.945 23.8698 25.945C23.8578 25.945 23.8479 25.9844 23.8479 26.0326C23.8479 26.0808 23.8381 26.1202 23.826 26.1202C23.814 26.1202 23.8041 26.1695 23.8041 26.2297C23.8041 26.2899 23.7943 26.3392 23.7822 26.3392C23.7697 26.3392 23.7603 26.4049 23.7603 26.4925C23.7603 26.5801 23.7509 26.6458 23.7384 26.6458C23.7245 26.6458 23.7165 26.8065 23.7165 27.0839C23.7165 27.3613 23.7245 27.5219 23.7384 27.5219C23.7512 27.5219 23.7603 27.5949 23.7603 27.6972C23.7603 27.7994 23.7694 27.8724 23.7822 27.8724C23.7943 27.8724 23.8041 27.9217 23.8041 27.9819C23.8041 28.0421 23.814 28.0914 23.826 28.0914C23.8381 28.0914 23.8479 28.1308 23.8479 28.179C23.8479 28.2272 23.8578 28.2666 23.8698 28.2666C23.8819 28.2666 23.8917 28.2962 23.8917 28.3323C23.8917 28.3685 23.9016 28.398 23.9136 28.398C23.9257 28.398 23.9355 28.4276 23.9355 28.4637C23.9355 28.4999 23.9454 28.5294 23.9574 28.5294C23.9695 28.5294 23.9793 28.559 23.9793 28.5952C23.9793 28.6313 23.9892 28.6609 24.0012 28.6609C24.0133 28.6609 24.0231 28.6806 24.0231 28.7047C24.0231 28.7288 24.033 28.7485 24.045 28.7485C24.0571 28.7485 24.0669 28.778 24.0669 28.8142C24.0669 28.8503 24.0768 28.8799 24.0889 28.8799C24.1009 28.8799 24.1108 28.8996 24.1108 28.9237C24.1108 28.9478 24.1206 28.9675 24.1327 28.9675C24.1447 28.9675 24.1546 28.9872 24.1546 29.0113C24.1546 29.0354 24.1644 29.0551 24.1765 29.0551C24.1885 29.0551 24.1984 29.0748 24.1984 29.0989C24.1984 29.123 24.2082 29.1427 24.2203 29.1427C24.2323 29.1427 24.2422 29.1624 24.2422 29.1865C24.2422 29.2106 24.252 29.2303 24.2641 29.2303C24.2761 29.2303 24.286 29.2479 24.286 29.2693C24.286 29.2907 24.3057 29.3225 24.3298 29.3398C24.3539 29.3572 24.3736 29.3868 24.3736 29.4055C24.3736 29.4243 24.3933 29.4539 24.4174 29.4712C24.4415 29.4886 24.4612 29.5182 24.4612 29.537C24.4612 29.5557 24.4809 29.5853 24.505 29.6027C24.5291 29.62 24.5488 29.6478 24.5488 29.6644C24.5488 29.681 24.5784 29.7222 24.6145 29.756C24.6506 29.7897 24.6802 29.8283 24.6802 29.8416C24.6802 29.8733 25.3514 30.5445 25.3831 30.5445C25.3964 30.5445 25.4349 30.574 25.4687 30.6102C25.5025 30.6463 25.5437 30.6759 25.5603 30.6759C25.5769 30.6759 25.6046 30.6956 25.622 30.7197C25.6394 30.7438 25.669 30.7635 25.6877 30.7635C25.7065 30.7635 25.7361 30.7832 25.7534 30.8073C25.7708 30.8314 25.8004 30.8511 25.8191 30.8511C25.8379 30.8511 25.8675 30.8708 25.8848 30.8949C25.9022 30.919 25.9339 30.9387 25.9554 30.9387C25.9768 30.9387 25.9944 30.9486 25.9944 30.9606C25.9944 30.9727 26.0141 30.9825 26.0382 30.9825C26.0623 30.9825 26.082 30.9924 26.082 31.0044C26.082 31.0165 26.1017 31.0263 26.1258 31.0263C26.1499 31.0263 26.1696 31.0362 26.1696 31.0482C26.1696 31.0603 26.1893 31.0701 26.2134 31.0701C26.2375 31.0701 26.2572 31.08 26.2572 31.092C26.2572 31.1041 26.2769 31.1139 26.301 31.1139C26.3251 31.1139 26.3448 31.1238 26.3448 31.1358C26.3448 31.1479 26.3744 31.1577 26.4105 31.1577C26.4466 31.1577 26.4762 31.1676 26.4762 31.1796C26.4762 31.1917 26.4959 31.2015 26.52 31.2015C26.5441 31.2015 26.5638 31.2114 26.5638 31.2234C26.5638 31.2355 26.5934 31.2453 26.6295 31.2453C26.6657 31.2453 26.6952 31.2552 26.6952 31.2672C26.6952 31.2793 26.7248 31.2891 26.7609 31.2891C26.7971 31.2891 26.8266 31.299 26.8266 31.311C26.8266 31.3231 26.8562 31.3329 26.8924 31.3329C26.9285 31.3329 26.9581 31.3428 26.9581 31.3549C26.9581 31.3669 26.9975 31.3768 27.0457 31.3768C27.0939 31.3768 27.1333 31.3866 27.1333 31.3987C27.1333 31.4107 27.1826 31.4206 27.2428 31.4206C27.303 31.4206 27.3523 31.4304 27.3523 31.4425C27.3523 31.4552 27.4253 31.4644 27.5275 31.4644C27.6297 31.4644 27.7027 31.4735 27.7027 31.4863C27.7027 31.5001 27.8634 31.5082 28.1408 31.5082C28.4182 31.5082 28.5788 31.5001 28.5788 31.4863C28.5788 31.4738 28.6445 31.4644 28.7322 31.4644C28.8198 31.4644 28.8855 31.455 28.8855 31.4425C28.8855 31.4304 28.9347 31.4206 28.995 31.4206C29.0552 31.4206 29.1045 31.4107 29.1045 31.3987C29.1045 31.3866 29.1439 31.3768 29.1921 31.3768C29.2403 31.3768 29.2797 31.3669 29.2797 31.3549C29.2797 31.3428 29.3191 31.3329 29.3673 31.3329C29.4155 31.3329 29.4549 31.3231 29.4549 31.311C29.4549 31.299 29.4845 31.2891 29.5206 31.2891C29.5568 31.2891 29.5863 31.2793 29.5863 31.2672C29.5863 31.2552 29.6159 31.2453 29.6521 31.2453C29.6882 31.2453 29.7178 31.2355 29.7178 31.2234C29.7178 31.2114 29.7375 31.2015 29.7616 31.2015C29.7857 31.2015 29.8054 31.1917 29.8054 31.1796C29.8054 31.1676 29.8251 31.1577 29.8492 31.1577C29.8733 31.1577 29.893 31.1479 29.893 31.1358C29.893 31.1238 29.9225 31.1139 29.9587 31.1139C29.9948 31.1139 30.0244 31.1041 30.0244 31.092C30.0244 31.08 30.0441 31.0701 30.0682 31.0701C30.0923 31.0701 30.112 31.0603 30.112 31.0482C30.112 31.0362 30.1295 31.0263 30.151 31.0263C30.1724 31.0263 30.2041 31.0066 30.2215 30.9825C30.2389 30.9584 30.2706 30.9387 30.2921 30.9387C30.3135 30.9387 30.331 30.9289 30.331 30.9168C30.331 30.9048 30.3507 30.8949 30.3748 30.8949C30.3989 30.8949 30.4186 30.885 30.4186 30.873C30.4186 30.861 30.4362 30.8511 30.4576 30.8511C30.479 30.8511 30.5108 30.8314 30.5281 30.8073C30.5455 30.7832 30.5733 30.7635 30.5899 30.7635C30.6065 30.7635 30.6477 30.7339 30.6815 30.6978C30.7152 30.6616 30.7546 30.6321 30.7691 30.6321C30.7835 30.6321 30.8229 30.6025 30.8567 30.5664C30.8904 30.5302 30.929 30.5007 30.9423 30.5007C30.9557 30.5007 31.0996 30.3677 31.2621 30.2052C31.4246 30.0427 31.5576 29.8988 31.5576 29.8854C31.5576 29.8721 31.5871 29.8335 31.6233 29.7998C31.6594 29.766 31.689 29.7266 31.689 29.7122C31.689 29.6977 31.7185 29.6583 31.7547 29.6246C31.7908 29.5908 31.8204 29.5496 31.8204 29.533C31.8204 29.5164 31.8401 29.4886 31.8642 29.4712C31.8883 29.4539 31.908 29.4221 31.908 29.4007C31.908 29.3793 31.9179 29.3617 31.9299 29.3617C31.9419 29.3617 31.9518 29.342 31.9518 29.3179C31.9518 29.2938 31.9617 29.2741 31.9737 29.2741C31.9857 29.2741 31.9956 29.2544 31.9956 29.2303C31.9956 29.2062 32.0055 29.1865 32.0175 29.1865C32.0296 29.1865 32.0394 29.1668 32.0394 29.1427C32.0394 29.1186 32.0493 29.0989 32.0613 29.0989C32.0734 29.0989 32.0832 29.0792 32.0832 29.0551C32.0832 29.031 32.0931 29.0113 32.1051 29.0113C32.1172 29.0113 32.127 28.9916 32.127 28.9675C32.127 28.9434 32.1369 28.9237 32.1489 28.9237C32.161 28.9237 32.1708 28.904 32.1708 28.8799C32.1708 28.8558 32.1807 28.8361 32.1927 28.8361C32.2048 28.8361 32.2146 28.8164 32.2146 28.7923C32.2146 28.7682 32.2245 28.7485 32.2365 28.7485C32.2486 28.7485 32.2584 28.7189 32.2584 28.6828C32.2584 28.6466 32.2683 28.6171 32.2803 28.6171C32.2924 28.6171 32.3022 28.5875 32.3022 28.5513C32.3022 28.5152 32.3121 28.4856 32.3241 28.4856C32.3362 28.4856 32.346 28.4561 32.346 28.4199C32.346 28.3838 32.3559 28.3542 32.3679 28.3542C32.38 28.3542 32.3898 28.3247 32.3898 28.2885C32.3898 28.2524 32.3997 28.2228 32.4118 28.2228C32.4238 28.2228 32.4337 28.1735 32.4337 28.1133C32.4337 28.0531 32.4435 28.0038 32.4556 28.0038C32.4676 28.0038 32.4775 27.9545 32.4775 27.8943C32.4775 27.834 32.4873 27.7848 32.4994 27.7848C32.5123 27.7848 32.5213 27.7045 32.5213 27.5876C32.5213 27.4708 32.5302 27.3905 32.5432 27.3905C32.5567 27.3905 32.5651 27.2737 32.5651 27.0839C32.5651 26.8941 32.5567 26.7773 32.5432 26.7773C32.5302 26.7773 32.5213 26.6969 32.5213 26.5801C32.5213 26.4633 32.5123 26.383 32.4994 26.383C32.4873 26.383 32.4775 26.3337 32.4775 26.2735C32.4775 26.2133 32.4676 26.164 32.4556 26.164C32.4435 26.164 32.4337 26.1246 32.4337 26.0764C32.4337 26.0282 32.4238 25.9888 32.4118 25.9888C32.3997 25.9888 32.3898 25.9493 32.3898 25.9012C32.3898 25.853 32.38 25.8136 32.3679 25.8136C32.3559 25.8136 32.346 25.784 32.346 25.7478C32.346 25.7117 32.3362 25.6821 32.3241 25.6821C32.3121 25.6821 32.3022 25.6526 32.3022 25.6164C32.3022 25.5803 32.2924 25.5507 32.2803 25.5507C32.2683 25.5507 32.2584 25.5212 32.2584 25.485C32.2584 25.4489 32.2486 25.4193 32.2365 25.4193C32.2245 25.4193 32.2146 25.3996 32.2146 25.3755C32.2146 25.3514 32.2048 25.3317 32.1927 25.3317C32.1807 25.3317 32.1708 25.312 32.1708 25.2879C32.1708 25.2638 32.161 25.2441 32.1489 25.2441C32.1369 25.2441 32.127 25.2244 32.127 25.2003C32.127 25.1762 32.1172 25.1565 32.1051 25.1565C32.0931 25.1565 32.0832 25.1368 32.0832 25.1127C32.0832 25.0886 32.0734 25.0689 32.0613 25.0689C32.0493 25.0689 32.0394 25.0492 32.0394 25.0251C32.0394 25.001 32.0296 24.9813 32.0175 24.9813C32.0055 24.9813 31.9956 24.9616 31.9956 24.9375C31.9956 24.9134 31.9857 24.8937 31.9737 24.8937C31.9617 24.8937 31.9518 24.8761 31.9518 24.8547C31.9518 24.8332 31.9321 24.8015 31.908 24.7841C31.8839 24.7668 31.8642 24.7372 31.8642 24.7184C31.8642 24.6997 31.8445 24.6701 31.8204 24.6527C31.7963 24.6354 31.7766 24.6058 31.7766 24.587C31.7766 24.5683 31.7569 24.5387 31.7328 24.5213C31.7087 24.5039 31.689 24.4764 31.689 24.46C31.689 24.4436 31.6495 24.3924 31.6014 24.3461C31.5532 24.2998 31.5138 24.2503 31.5138 24.2361C31.5138 24.222 31.4833 24.1819 31.4461 24.1472C31.3857 24.0907 31.382 24.0805 31.4117 24.0508C31.43 24.0325 31.4703 24.0176 31.5012 24.0176C31.5322 24.0176 31.5576 24.0077 31.5576 23.9957C31.5576 23.9836 31.5773 23.9738 31.6014 23.9738C31.6255 23.9738 31.6452 23.9639 31.6452 23.9519C31.6452 23.9398 31.6649 23.93 31.689 23.93C31.7131 23.93 31.7328 23.9201 31.7328 23.908C31.7328 23.896 31.7503 23.8861 31.7717 23.8861C31.7932 23.8861 31.8249 23.8664 31.8423 23.8423C31.8597 23.8182 31.8875 23.7985 31.9041 23.7985C31.9206 23.7985 31.9619 23.769 31.9956 23.7328C32.0294 23.6967 32.0681 23.6671 32.0818 23.6671C32.114 23.6671 32.2584 23.5227 32.2584 23.4905C32.2584 23.4768 32.288 23.438 32.3241 23.4043C32.3603 23.3705 32.3898 23.3272 32.3898 23.3079C32.3898 23.2886 32.3997 23.2729 32.4118 23.2729C32.4238 23.2729 32.4337 23.2532 32.4337 23.2291C32.4337 23.205 32.4435 23.1853 32.4556 23.1853C32.4676 23.1853 32.4775 23.1656 32.4775 23.1415C32.4775 23.1174 32.4873 23.0977 32.4994 23.0977C32.5114 23.0977 32.5213 23.0681 32.5213 23.032C32.5213 22.9958 32.5311 22.9662 32.5432 22.9662C32.5552 22.9662 32.5651 22.9465 32.5651 22.9224C32.5651 22.8983 32.5749 22.8786 32.587 22.8786C32.599 22.8786 32.6089 22.8491 32.6089 22.8129C32.6089 22.7768 32.6187 22.7472 32.6308 22.7472C32.6428 22.7472 32.6527 22.7275 32.6527 22.7034C32.6527 22.6793 32.6625 22.6596 32.6746 22.6596C32.6866 22.6596 32.6965 22.63 32.6965 22.5939C32.6965 22.5578 32.7063 22.5282 32.7184 22.5282C32.7304 22.5282 32.7403 22.4986 32.7403 22.4625C32.7403 22.4264 32.7501 22.3968 32.7622 22.3968C32.7742 22.3968 32.7841 22.3771 32.7841 22.353C32.7841 22.3289 32.7939 22.3092 32.806 22.3092C32.818 22.3092 32.8279 22.2796 32.8279 22.2435C32.8279 22.2073 32.8378 22.1778 32.8498 22.1778C32.8618 22.1778 32.8717 22.158 32.8717 22.134C32.8717 22.1099 32.8816 22.0902 32.8936 22.0902C32.9057 22.0902 32.9155 22.0606 32.9155 22.0244C32.9155 21.9883 32.9254 21.9587 32.9374 21.9587C32.9495 21.9587 32.9593 21.939 32.9593 21.9149C32.9593 21.8908 32.9692 21.8711 32.9812 21.8711C32.9933 21.8711 33.0031 21.8416 33.0031 21.8054C33.0031 21.7693 33.013 21.7397 33.025 21.7397C33.0371 21.7397 33.0469 21.7101 33.0469 21.674C33.0469 21.6379 33.0568 21.6083 33.0688 21.6083C33.0809 21.6083 33.0907 21.5886 33.0907 21.5645C33.0907 21.5404 33.1006 21.5207 33.1126 21.5207C33.1247 21.5207 33.1345 21.4911 33.1345 21.455C33.1345 21.4188 33.1444 21.3893 33.1564 21.3893C33.1685 21.3893 33.1783 21.3696 33.1783 21.3455C33.1783 21.3214 33.1882 21.3017 33.2002 21.3017C33.2123 21.3017 33.2221 21.2721 33.2221 21.236C33.2221 21.1998 33.232 21.1703 33.244 21.1703C33.2561 21.1703 33.2659 21.1505 33.2659 21.1264C33.2659 21.1024 33.2758 21.0826 33.2878 21.0826C33.2999 21.0826 33.3097 21.0531 33.3097 21.0169C33.3097 20.9808 33.3196 20.9512 33.3316 20.9512C33.3437 20.9512 33.3535 20.9217 33.3535 20.8855C33.3535 20.8494 33.3634 20.8198 33.3755 20.8198C33.3875 20.8198 33.3974 20.8001 33.3974 20.776C33.3974 20.7519 33.4072 20.7322 33.4193 20.7322C33.4313 20.7322 33.4412 20.7026 33.4412 20.6665C33.4412 20.6304 33.451 20.6008 33.4631 20.6008C33.4751 20.6008 33.485 20.5811 33.485 20.557C33.485 20.5329 33.4948 20.5132 33.5069 20.5132C33.5189 20.5132 33.5288 20.4836 33.5288 20.4475C33.5288 20.4113 33.5386 20.3818 33.5507 20.3818C33.5627 20.3818 33.5726 20.3621 33.5726 20.338C33.5726 20.3139 33.5824 20.2942 33.5945 20.2942C33.6065 20.2942 33.6164 20.2646 33.6164 20.2285C33.6164 20.1923 33.6262 20.1627 33.6383 20.1627C33.6503 20.1627 33.6602 20.143 33.6602 20.1189C33.6602 20.0948 33.67 20.0751 33.6821 20.0751C33.6941 20.0751 33.704 20.0456 33.704 20.0094C33.704 19.9733 33.7138 19.9437 33.7259 19.9437C33.7379 19.9437 33.7478 19.9142 33.7478 19.878C33.7478 19.8419 33.7577 19.8123 33.7697 19.8123C33.7817 19.8123 33.7916 19.7926 33.7916 19.7685C33.7916 19.7444 33.8015 19.7247 33.8135 19.7247C33.8256 19.7247 33.8354 19.6951 33.8354 19.659C33.8354 19.6229 33.8453 19.5933 33.8573 19.5933C33.8694 19.5933 33.8792 19.5736 33.8792 19.5495C33.8792 19.5254 33.8891 19.5057 33.9011 19.5057C33.9132 19.5057 33.923 19.4761 33.923 19.44C33.923 19.4038 33.9329 19.3743 33.9449 19.3743C33.957 19.3743 33.9668 19.3545 33.9668 19.3305C33.9668 19.3064 33.9767 19.2866 33.9887 19.2866C34.0008 19.2866 34.0106 19.2571 34.0106 19.2209C34.0106 19.1848 34.0205 19.1552 34.0325 19.1552C34.0446 19.1552 34.0544 19.1257 34.0544 19.0895C34.0544 19.0534 34.0643 19.0238 34.0763 19.0238C34.0884 19.0238 34.0982 19.0041 34.0982 18.98C34.0982 18.9559 34.1081 18.9362 34.1201 18.9362C34.1322 18.9362 34.142 18.9066 34.142 18.8705C34.142 18.8344 34.1519 18.8048 34.1639 18.8048C34.176 18.8048 34.1858 18.7851 34.1858 18.761C34.1858 18.7369 34.1957 18.7172 34.2077 18.7172C34.2198 18.7172 34.2296 18.6876 34.2296 18.6515C34.2296 18.6153 34.2395 18.5858 34.2515 18.5858C34.2636 18.5858 34.2735 18.5562 34.2735 18.5201C34.2735 18.4839 34.2833 18.4544 34.2954 18.4544C34.3074 18.4544 34.3173 18.4346 34.3173 18.4106C34.3173 18.3865 34.3271 18.3668 34.3392 18.3668C34.3512 18.3668 34.3611 18.3372 34.3611 18.301C34.3611 18.2649 34.3709 18.2353 34.383 18.2353C34.395 18.2353 34.4049 18.2156 34.4049 18.1915C34.4049 18.1674 34.4147 18.1477 34.4268 18.1477C34.4388 18.1477 34.4487 18.1182 34.4487 18.082C34.4487 18.0459 34.4585 18.0163 34.4706 18.0163C34.4826 18.0163 34.4925 17.9966 34.4925 17.9725C34.4925 17.9484 34.5023 17.9287 34.5144 17.9287C34.5264 17.9287 34.5363 17.8991 34.5363 17.863C34.5363 17.8269 34.5461 17.7973 34.5582 17.7973C34.5702 17.7973 34.5801 17.7776 34.5801 17.7535C34.5801 17.7294 34.5899 17.7097 34.602 17.7097C34.614 17.7097 34.6239 17.6801 34.6239 17.644C34.6239 17.6078 34.6337 17.5783 34.6458 17.5783C34.6578 17.5783 34.6677 17.5487 34.6677 17.5126C34.6677 17.4764 34.6776 17.4469 34.6896 17.4469C34.7016 17.4469 34.7115 17.4271 34.7115 17.403C34.7115 17.379 34.7214 17.3592 34.7334 17.3592C34.7454 17.3592 34.7553 17.3297 34.7553 17.2935C34.7553 17.2574 34.7652 17.2278 34.7772 17.2278C34.7893 17.2278 34.7991 17.2081 34.7991 17.184C34.7991 17.1599 34.809 17.1402 34.821 17.1402C34.8331 17.1402 34.8429 17.1106 34.8429 17.0745C34.8429 17.0384 34.8528 17.0088 34.8648 17.0088C34.8769 17.0088 34.8867 16.9891 34.8867 16.965C34.8867 16.9409 34.8966 16.9212 34.9086 16.9212C34.9207 16.9212 34.9305 16.8916 34.9305 16.8555C34.9305 16.8193 34.9404 16.7898 34.9524 16.7898C34.9645 16.7898 34.9743 16.7602 34.9743 16.7241C34.9743 16.6879 34.9842 16.6584 34.9962 16.6584C35.0083 16.6584 35.0181 16.6387 35.0181 16.6146C35.0181 16.5905 35.028 16.5708 35.04 16.5708C35.0521 16.5708 35.0619 16.5412 35.0619 16.505C35.0619 16.4689 35.0718 16.4393 35.0838 16.4393C35.0959 16.4393 35.1057 16.4196 35.1057 16.3955C35.1057 16.3714 35.1156 16.3517 35.1276 16.3517C35.1397 16.3517 35.1495 16.3222 35.1495 16.286C35.1495 16.2499 35.1594 16.2203 35.1714 16.2203C35.1835 16.2203 35.1934 16.1908 35.1934 16.1546C35.1934 16.1185 35.2032 16.0889 35.2153 16.0889C35.2273 16.0889 35.2372 16.0692 35.2372 16.0451C35.2372 16.021 35.247 16.0013 35.2591 16.0013C35.2711 16.0013 35.281 15.9717 35.281 15.9356C35.281 15.8994 35.2908 15.8699 35.3029 15.8699C35.3149 15.8699 35.3248 15.8502 35.3248 15.8261C35.3248 15.802 35.3346 15.7823 35.3467 15.7823C35.3587 15.7823 35.3686 15.7527 35.3686 15.7166C35.3686 15.6804 35.3784 15.6509 35.3905 15.6509C35.4025 15.6509 35.4124 15.6213 35.4124 15.5852C35.4124 15.549 35.4222 15.5194 35.4343 15.5194C35.4463 15.5194 35.4562 15.48 35.4562 15.4318C35.4562 15.3836 35.466 15.3442 35.4781 15.3442C35.4903 15.3442 35.5 15.2858 35.5 15.2128C35.5 15.1398 35.4903 15.0814 35.4781 15.0814C35.466 15.0814 35.4562 15.042 35.4562 14.9938C35.4562 14.9456 35.4463 14.9062 35.4343 14.9062C35.4222 14.9062 35.4124 14.8912 35.4124 14.8728C35.4124 14.8155 35.1791 14.5995 35.1172 14.5995C35.0868 14.5995 35.0619 14.5897 35.0619 14.5776C35.0619 14.5651 34.9962 14.5557 34.9086 14.5557C34.821 14.5557 34.7553 14.5463 34.7553 14.5338C34.7553 14.5211 34.6823 14.5119 34.5801 14.5119C34.4779 14.5119 34.4049 14.5028 34.4049 14.49C34.4049 14.477 34.3246 14.4681 34.2077 14.4681C34.0909 14.4681 34.0106 14.4592 34.0106 14.4462C34.0106 14.4332 33.9303 14.4243 33.8135 14.4243C33.6967 14.4243 33.6164 14.4154 33.6164 14.4024C33.6164 14.3897 33.5434 14.3805 33.4412 14.3805C33.3389 14.3805 33.2659 14.3714 33.2659 14.3586C33.2659 14.3456 33.1856 14.3367 33.0688 14.3367C32.952 14.3367 32.8717 14.3278 32.8717 14.3148C32.8717 14.3018 32.7914 14.2929 32.6746 14.2929C32.5578 14.2929 32.4775 14.284 32.4775 14.271C32.4775 14.2582 32.4045 14.2491 32.3022 14.2491C32.2 14.2491 32.127 14.24 32.127 14.2272C32.127 14.2142 32.0467 14.2053 31.9299 14.2053C31.8131 14.2053 31.7328 14.1964 31.7328 14.1834C31.7328 14.1704 31.6525 14.1615 31.5357 14.1615C31.4188 14.1615 31.3385 14.1526 31.3385 14.1396C31.3385 14.1268 31.2655 14.1177 31.1633 14.1177C31.0611 14.1177 30.9881 14.1086 30.9881 14.0958C30.9881 14.0828 30.9078 14.0739 30.791 14.0739C30.6742 14.0739 30.5939 14.065 30.5939 14.052C30.5939 14.039 30.5135 14.0301 30.3967 14.0301C30.2799 14.0301 30.1996 14.0212 30.1996 14.0082C30.1996 13.9952 30.1193 13.9863 30.0025 13.9863C29.8857 13.9863 29.8054 13.9774 29.8054 13.9644C29.8054 13.9523 29.7659 13.9425 29.7178 13.9425H29.6301V11.2704C29.6301 9.50359 29.6376 8.5983 29.6521 8.5983C29.6642 8.5983 29.674 8.53988 29.674 8.46688C29.674 8.39388 29.6837 8.33547 29.6959 8.33547C29.7079 8.33547 29.7178 8.28619 29.7178 8.22596C29.7178 8.16572 29.7276 8.11644 29.7397 8.11644C29.7517 8.11644 29.7616 8.07702 29.7616 8.02883C29.7616 7.98065 29.7714 7.94123 29.7835 7.94123C29.7955 7.94123 29.8054 7.91166 29.8054 7.87552C29.8054 7.83938 29.8152 7.80981 29.8273 7.80981C29.8393 7.80981 29.8492 7.78024 29.8492 7.7441C29.8492 7.70797 29.859 7.6784 29.8711 7.6784C29.8831 7.6784 29.893 7.65868 29.893 7.63459C29.893 7.6105 29.9028 7.59079 29.9149 7.59079C29.9269 7.59079 29.9368 7.56122 29.9368 7.52508C29.9368 7.48894 29.9466 7.45937 29.9587 7.45937C29.9707 7.45937 29.9806 7.43966 29.9806 7.41557C29.9806 7.39148 29.9904 7.37176 30.0025 7.37176C30.0145 7.37176 30.0244 7.35422 30.0244 7.3328C30.0244 7.31136 30.0441 7.27962 30.0682 7.26225C30.0923 7.24488 30.112 7.21532 30.112 7.19655C30.112 7.17777 30.1317 7.14821 30.1558 7.13084C30.1799 7.11347 30.1996 7.08651 30.1996 7.07089C30.1996 7.0339 30.5188 6.71469 30.5558 6.71469C30.5714 6.71469 30.5984 6.69498 30.6158 6.67089C30.6331 6.6468 30.6649 6.62708 30.6863 6.62708C30.7077 6.62708 30.7253 6.61723 30.7253 6.60518C30.7253 6.59313 30.745 6.58328 30.7691 6.58328C30.7932 6.58328 30.8129 6.57342 30.8129 6.56138C30.8129 6.54933 30.8424 6.53947 30.8786 6.53947C30.9147 6.53947 30.9443 6.52962 30.9443 6.51757C30.9443 6.50553 30.964 6.49567 30.9881 6.49567C31.031 6.49567 31.0319 6.48106 31.0319 5.75099V5.00631H30.8567C30.7545 5.00631 30.6815 5.01544 30.6815 5.02821C30.6815 5.04135 30.5939 5.05011 30.4624 5.05011C30.331 5.05011 30.2434 5.05887 30.2434 5.07202C30.2434 5.08452 30.1777 5.09392 30.0901 5.09392C30.0025 5.09392 29.9368 5.10331 29.9368 5.11582C29.9368 5.12787 29.8974 5.13772 29.8492 5.13772C29.801 5.13772 29.7616 5.14758 29.7616 5.15963C29.7616 5.17167 29.7123 5.18153 29.6521 5.18153C29.5918 5.18153 29.5425 5.19138 29.5425 5.20343C29.5425 5.21548 29.513 5.22533 29.4768 5.22533C29.4407 5.22533 29.4111 5.23519 29.4111 5.24723C29.4111 5.25928 29.3816 5.26914 29.3454 5.26914C29.3093 5.26914 29.2797 5.27899 29.2797 5.29104C29.2797 5.30309 29.2501 5.31294 29.214 5.31294C29.1779 5.31294 29.1483 5.3228 29.1483 5.33484C29.1483 5.34689 29.1187 5.35675 29.0826 5.35675C29.0465 5.35675 29.0169 5.3666 29.0169 5.37865C29.0169 5.3907 28.9972 5.40055 28.9731 5.40055C28.949 5.40055 28.9293 5.41041 28.9293 5.42245C28.9293 5.4345 28.9096 5.44436 28.8855 5.44436C28.8614 5.44436 28.8417 5.45421 28.8417 5.46626C28.8417 5.4783 28.822 5.48816 28.7979 5.48816C28.7738 5.48816 28.7541 5.49802 28.7541 5.51006C28.7541 5.52211 28.7343 5.53197 28.7103 5.53197C28.6862 5.53197 28.6664 5.54182 28.6664 5.55387C28.6664 5.56591 28.6467 5.57577 28.6226 5.57577C28.5985 5.57577 28.5788 5.58563 28.5788 5.59767C28.5788 5.60972 28.5591 5.61957 28.535 5.61957C28.5109 5.61957 28.4912 5.62943 28.4912 5.64148C28.4912 5.65352 28.4737 5.66338 28.4523 5.66338C28.4308 5.66338 28.3991 5.68309 28.3817 5.70718C28.3643 5.73128 28.3348 5.75099 28.316 5.75099C28.2972 5.75099 28.2677 5.7707 28.2503 5.79479C28.2329 5.81889 28.2055 5.8386 28.1893 5.8386C28.1731 5.8386 28.1119 5.88788 28.0532 5.94811C27.9945 6.00834 27.9358 6.05762 27.9227 6.05762C27.8915 6.05762 27.6589 6.29047 27.6589 6.3217C27.6589 6.33495 27.6195 6.38366 27.5713 6.42996C27.5231 6.47626 27.4837 6.52574 27.4837 6.53991C27.4837 6.5541 27.4542 6.59333 27.418 6.62708C27.3819 6.66083 27.3523 6.70206 27.3523 6.71864C27.3523 6.73524 27.3326 6.76303 27.3085 6.7804C27.2844 6.79777 27.2647 6.8295 27.2647 6.85095C27.2647 6.87237 27.2548 6.88991 27.2428 6.88991C27.2307 6.88991 27.2209 6.90962 27.2209 6.93372C27.2209 6.95781 27.211 6.97752 27.199 6.97752C27.1869 6.97752 27.1771 6.99723 27.1771 7.02133C27.1771 7.04542 27.1672 7.06513 27.1552 7.06513C27.1431 7.06513 27.1333 7.08484 27.1333 7.10893C27.1333 7.13303 27.1234 7.15274 27.1114 7.15274C27.0993 7.15274 27.0895 7.17245 27.0895 7.19655C27.0895 7.22064 27.0796 7.24035 27.0676 7.24035C27.0555 7.24035 27.0457 7.26006 27.0457 7.28415C27.0457 7.30825 27.0358 7.32796 27.0238 7.32796C27.0117 7.32796 27.0019 7.35753 27.0019 7.39367C27.0019 7.42981 26.992 7.45937 26.98 7.45937C26.9679 7.45937 26.9581 7.48894 26.9581 7.52508C26.9581 7.56122 26.9482 7.59079 26.9362 7.59079C26.9241 7.59079 26.9143 7.62036 26.9143 7.65649C26.9143 7.69263 26.9044 7.7222 26.8924 7.7222C26.8803 7.7222 26.8705 7.75177 26.8705 7.78791C26.8705 7.82405 26.8606 7.85362 26.8485 7.85362C26.8365 7.85362 26.8266 7.89304 26.8266 7.94123C26.8266 7.98941 26.8168 8.02883 26.8047 8.02883C26.7927 8.02883 26.7828 8.07811 26.7828 8.13835C26.7828 8.19858 26.773 8.24786 26.7609 8.24786C26.7488 8.24786 26.739 8.30627 26.739 8.37927C26.739 8.45227 26.7293 8.51069 26.7171 8.51069C26.7039 8.51069 26.6952 8.60559 26.6952 8.75161C26.6952 8.89764 26.6866 8.99254 26.6733 8.99254C26.6589 8.99254 26.6514 9.77373 26.6514 11.2923V13.592H26.4543C26.3375 13.592 26.2572 13.5831 26.2572 13.5701C26.2572 13.5571 26.1769 13.5482 26.0601 13.5482C25.9433 13.5482 25.8629 13.5393 25.8629 13.5263C25.8629 13.5133 25.7826 13.5044 25.6658 13.5044C25.549 13.5044 25.4687 13.4955 25.4687 13.4825C25.4687 13.4695 25.3884 13.4606 25.2716 13.4606C25.1548 13.4606 25.0745 13.4517 25.0745 13.4387C25.0745 13.4259 25.0015 13.4168 24.8992 13.4168C24.797 13.4168 24.724 13.4077 24.724 13.3949C24.724 13.3819 24.6437 13.373 24.5269 13.373C24.4101 13.373 24.3298 13.3641 24.3298 13.3511C24.3298 13.3381 24.2495 13.3292 24.1327 13.3292C24.0159 13.3292 23.9355 13.3203 23.9355 13.3073C23.9355 13.2945 23.8625 13.2854 23.7603 13.2854C23.6581 13.2854 23.5851 13.2763 23.5851 13.2635C23.5851 13.2505 23.5048 13.2416 23.388 13.2416C23.2712 13.2416 23.1909 13.2327 23.1909 13.2197C23.1909 13.2069 23.1179 13.1978 23.0156 13.1978C22.9134 13.1978 22.8404 13.1887 22.8404 13.1759C22.8404 13.1629 22.7601 13.154 22.6433 13.154C22.5265 13.154 22.4462 13.1451 22.4462 13.1321C22.4462 13.1191 22.3659 13.1102 22.2491 13.1102C22.1322 13.1102 22.0519 13.1013 22.0519 13.0883C22.0519 13.0753 21.9716 13.0664 21.8548 13.0664C21.738 13.0664 21.6577 13.0575 21.6577 13.0445C21.6577 13.0317 21.5847 13.0226 21.4825 13.0226C21.3803 13.0226 21.3073 13.0134 21.3073 13.0007C21.3073 12.9877 21.2269 12.9788 21.1101 12.9788C20.9933 12.9788 20.913 12.9699 20.913 12.9569C20.913 12.9439 20.8327 12.935 20.7159 12.935C20.5991 12.935 20.5188 12.9261 20.5188 12.9131C20.5188 12.9001 20.4384 12.8912 20.3216 12.8912C20.2048 12.8912 20.1245 12.8822 20.1245 12.8693C20.1245 12.8572 20.0696 12.8474 20.0025 12.8474C19.8581 12.8474 19.8179 12.8167 19.8179 12.7065C19.8179 12.6635 19.808 12.6283 19.796 12.6283C19.7839 12.6283 19.7741 12.5889 19.7741 12.5407C19.7741 12.4925 19.7642 12.4531 19.7522 12.4531C19.7401 12.4531 19.7303 12.4137 19.7303 12.3655C19.7303 12.3173 19.7204 12.2779 19.7084 12.2779C19.6963 12.2779 19.6865 12.2385 19.6865 12.1903C19.6865 12.1421 19.6766 12.1027 19.6646 12.1027C19.6525 12.1027 19.6427 12.0632 19.6427 12.0151C19.6427 11.9669 19.6328 11.9275 19.6208 11.9275C19.6087 11.9275 19.5989 11.888 19.5989 11.8398C19.5989 11.7917 19.589 11.7522 19.577 11.7522C19.5649 11.7522 19.5551 11.7128 19.5551 11.6646C19.5551 11.6164 19.5452 11.577 19.5332 11.577C19.5211 11.577 19.5113 11.5376 19.5113 11.4894C19.5113 11.4412 19.5014 11.4018 19.4894 11.4018C19.4773 11.4018 19.4675 11.3624 19.4675 11.3142C19.4675 11.266 19.4576 11.2266 19.4455 11.2266C19.4335 11.2266 19.4236 11.1872 19.4236 11.139C19.4236 11.0908 19.4138 11.0514 19.4017 11.0514C19.3897 11.0514 19.3798 11.0218 19.3798 10.9857C19.3798 10.9495 19.37 10.9199 19.3579 10.9199C19.3459 10.9199 19.336 10.8805 19.336 10.8323C19.336 10.7842 19.3262 10.7447 19.3141 10.7447C19.3021 10.7447 19.2922 10.7053 19.2922 10.6571C19.2922 10.6089 19.2824 10.5695 19.2703 10.5695C19.2583 10.5695 19.2484 10.5301 19.2484 10.4819C19.2484 10.4337 19.2386 10.3943 19.2265 10.3943C19.2145 10.3943 19.2046 10.3549 19.2046 10.3067C19.2046 10.2585 19.1948 10.2191 19.1827 10.2191C19.1707 10.2191 19.1608 10.1796 19.1608 10.1315C19.1608 10.0833 19.151 10.0439 19.1389 10.0439C19.1269 10.0439 19.117 10.0044 19.117 9.95624C19.117 9.90806 19.1072 9.86863 19.0951 9.86863C19.0831 9.86863 19.0732 9.82921 19.0732 9.78102C19.0732 9.73284 19.0634 9.69341 19.0513 9.69341C19.0393 9.69341 19.0294 9.65399 19.0294 9.6058C19.0294 9.55762 19.0195 9.5182 19.0075 9.5182C18.9955 9.5182 18.9856 9.47877 18.9856 9.43059C18.9856 9.3824 18.9757 9.34298 18.9637 9.34298C18.9517 9.34298 18.9418 9.30355 18.9418 9.25537C18.9418 9.20718 18.9319 9.16776 18.9199 9.16776C18.9078 9.16776 18.898 9.12833 18.898 9.08015C18.898 9.03196 18.8881 8.99254 18.8761 8.99254C18.864 8.99254 18.8542 8.95311 18.8542 8.90493C18.8542 8.85674 18.8443 8.81732 18.8323 8.81732C18.8202 8.81732 18.8104 8.77789 18.8104 8.72971C18.8104 8.68153 18.8005 8.6421 18.7885 8.6421C18.7764 8.6421 18.7666 8.60268 18.7666 8.55449C18.7666 8.50631 18.7567 8.46688 18.7447 8.46688C18.7326 8.46688 18.7228 8.42746 18.7228 8.37927C18.7228 8.33109 18.7129 8.29166 18.7009 8.29166C18.6888 8.29166 18.679 8.25224 18.679 8.20405C18.679 8.15587 18.6691 8.11644 18.6571 8.11644C18.645 8.11644 18.6352 8.08688 18.6352 8.05074C18.6352 8.0146 18.6253 7.98503 18.6133 7.98503C18.6012 7.98503 18.5914 7.94561 18.5914 7.89742C18.5914 7.84924 18.5815 7.80981 18.5695 7.80981C18.5574 7.80981 18.5476 7.77039 18.5476 7.7222C18.5476 7.67402 18.5377 7.63459 18.5256 7.63459C18.5136 7.63459 18.5037 7.59517 18.5037 7.54698C18.5037 7.4988 18.4939 7.45937 18.4818 7.45937C18.4698 7.45937 18.4599 7.41995 18.4599 7.37176C18.4599 7.32358 18.4501 7.28415 18.438 7.28415C18.426 7.28415 18.4161 7.24473 18.4161 7.19655C18.4161 7.14836 18.4063 7.10893 18.3942 7.10893C18.3822 7.10893 18.3723 7.06951 18.3723 7.02133C18.3723 6.97314 18.3625 6.93372 18.3504 6.93372C18.3384 6.93372 18.3285 6.89429 18.3285 6.84611C18.3285 6.79792 18.3187 6.7585 18.3066 6.7585C18.2946 6.7585 18.2847 6.71907 18.2847 6.67089C18.2847 6.6227 18.2749 6.58328 18.2628 6.58328C18.2508 6.58328 18.2409 6.54385 18.2409 6.49567C18.2409 6.44748 18.2311 6.40806 18.219 6.40806C18.207 6.40806 18.1971 6.36864 18.1971 6.32045C18.1971 6.27226 18.1873 6.23284 18.1752 6.23284C18.1632 6.23284 18.1533 6.19342 18.1533 6.14523C18.1533 6.09705 18.1435 6.05762 18.1314 6.05762C18.1194 6.05762 18.1095 6.0182 18.1095 5.97001C18.1095 5.92183 18.0996 5.8824 18.0876 5.8824C18.0756 5.8824 18.0657 5.84298 18.0657 5.79479C18.0657 5.74661 18.0558 5.70718 18.0438 5.70718C18.0317 5.70718 18.0219 5.66776 18.0219 5.61957C18.0219 5.57139 18.012 5.53197 18 5.53197C17.9879 5.53197 17.9781 5.49254 17.9781 5.44436C17.9781 5.39617 17.9682 5.35675 17.9562 5.35675C17.9441 5.35675 17.9343 5.31732 17.9343 5.26914C17.9343 5.22095 17.9244 5.18153 17.9124 5.18153C17.9003 5.18153 17.8905 5.15196 17.8905 5.11582C17.8905 5.07968 17.8806 5.05011 17.8686 5.05011C17.8565 5.05011 17.8467 5.00083 17.8467 4.9406C17.8467 4.88037 17.8368 4.83109 17.8248 4.83109C17.8127 4.83109 17.8029 4.79167 17.8029 4.74348C17.8029 4.69529 17.793 4.65587 17.781 4.65587C17.7689 4.65587 17.7591 4.61645 17.7591 4.56826C17.7591 4.52008 17.7492 4.48065 17.7372 4.48065C17.7251 4.48065 17.7153 4.45108 17.7153 4.41494C17.7153 4.37881 17.7054 4.34924 17.6934 4.34924C17.6813 4.34924 17.6715 4.30981 17.6715 4.26163C17.6715 4.21344 17.6616 4.17402 17.6496 4.17402C17.6375 4.17402 17.6277 4.13459 17.6277 4.08641C17.6277 4.03822 17.6178 3.9988 17.6057 3.9988C17.5937 3.9988 17.5838 3.95938 17.5838 3.91119C17.5838 3.86301 17.574 3.82358 17.5619 3.82358C17.5499 3.82358 17.54 3.78416 17.54 3.73597C17.54 3.68779 17.5302 3.64836 17.5181 3.64836C17.5061 3.64836 17.4962 3.60894 17.4962 3.56075C17.4962 3.51257 17.4864 3.47314 17.4743 3.47314C17.4623 3.47314 17.4524 3.43372 17.4524 3.38553C17.4524 3.33735 17.4426 3.29792 17.4305 3.29792C17.4185 3.29792 17.4086 3.2585 17.4086 3.21031C17.4086 3.16213 17.3988 3.12271 17.3867 3.12271C17.3747 3.12271 17.3648 3.08328 17.3648 3.0351C17.3648 2.98691 17.355 2.94749 17.3429 2.94749C17.3309 2.94749 17.321 2.90806 17.321 2.85988C17.321 2.81169 17.3112 2.77227 17.2991 2.77227C17.2871 2.77227 17.2772 2.73284 17.2772 2.68466C17.2772 2.63647 17.2674 2.59705 17.2553 2.59705C17.2433 2.59705 17.2334 2.55762 17.2334 2.50944C17.2334 2.46125 17.2236 2.42183 17.2115 2.42183C17.1995 2.42183 17.1896 2.39226 17.1896 2.35612C17.1896 2.31998 17.1797 2.29042 17.1677 2.29042C17.1557 2.29042 17.1458 2.26085 17.1458 2.22471C17.1458 2.18857 17.1359 2.159 17.1239 2.159C17.1119 2.159 17.102 2.13929 17.102 2.1152C17.102 2.0911 17.0921 2.07139 17.0801 2.07139C17.068 2.07139 17.0582 2.05168 17.0582 2.02759C17.0582 2.00349 17.0483 1.98378 17.0363 1.98378C17.0242 1.98378 17.0144 1.96407 17.0144 1.93998C17.0144 1.91589 17.0045 1.89617 16.9925 1.89617C16.9804 1.89617 16.9706 1.87646 16.9706 1.85237C16.9706 1.82828 16.9607 1.80856 16.9487 1.80856C16.9366 1.80856 16.9268 1.79102 16.9268 1.7696C16.9268 1.74816 16.9071 1.71642 16.883 1.69905C16.8589 1.68168 16.8392 1.65411 16.8392 1.63775C16.8392 1.62139 16.7997 1.57013 16.7516 1.52383C16.7034 1.47753 16.6639 1.42871 16.6639 1.41531C16.6639 1.38364 16.5194 1.2391 16.4877 1.2391C16.4743 1.2391 16.4255 1.19968 16.3792 1.15149C16.3329 1.10331 16.2817 1.06388 16.2653 1.06388C16.2489 1.06388 16.2214 1.04417 16.204 1.02008C16.1866 0.995986 16.1549 0.976274 16.1335 0.976274C16.112 0.976274 16.0945 0.966418 16.0945 0.954371C16.0945 0.942325 16.0748 0.932469 16.0507 0.932469C16.0266 0.932469 16.0069 0.922613 16.0069 0.910567C16.0069 0.89852 15.9872 0.888664 15.9631 0.888664C15.939 0.888664 15.9193 0.878808 15.9193 0.866762C15.9193 0.854716 15.8996 0.84486 15.8755 0.84486C15.8514 0.84486 15.8317 0.835004 15.8317 0.822957C15.8317 0.810911 15.8021 0.801055 15.766 0.801055C15.7298 0.801055 15.7002 0.791199 15.7002 0.779153C15.7002 0.767106 15.6707 0.75725 15.6345 0.75725C15.5984 0.75725 15.5688 0.747394 15.5688 0.735348C15.5688 0.723301 15.5294 0.713445 15.4812 0.713445C15.433 0.713445 15.3936 0.703589 15.3936 0.691543C15.3936 0.679497 15.3443 0.669641 15.2841 0.669641C15.2239 0.669641 15.1746 0.659785 15.1746 0.647738C15.1746 0.634466 15.0797 0.625836 14.9337 0.625836C14.7876 0.625836 14.6927 0.617206 14.6927 0.603934C14.6927 0.589412 13.1596 0.582031 10.137 0.582031C7.11452 0.582031 5.58135 0.589412 5.58135 0.603934ZM14.4737 3.62646C14.4737 3.6626 14.4836 3.69217 14.4956 3.69217C14.5077 3.69217 14.5175 3.73159 14.5175 3.77978C14.5175 3.82796 14.5274 3.86739 14.5394 3.86739C14.5515 3.86739 14.5613 3.90681 14.5613 3.955C14.5613 4.00318 14.5712 4.0426 14.5832 4.0426C14.5953 4.0426 14.6051 4.08203 14.6051 4.13021C14.6051 4.1784 14.615 4.21782 14.627 4.21782C14.6391 4.21782 14.6489 4.25725 14.6489 4.30543C14.6489 4.35362 14.6588 4.39304 14.6708 4.39304C14.6829 4.39304 14.6927 4.43247 14.6927 4.48065C14.6927 4.52884 14.7026 4.56826 14.7146 4.56826C14.7267 4.56826 14.7365 4.60769 14.7365 4.65587C14.7365 4.70406 14.7464 4.74348 14.7584 4.74348C14.7705 4.74348 14.7803 4.7829 14.7803 4.83109C14.7803 4.87927 14.7902 4.9187 14.8022 4.9187C14.8143 4.9187 14.8241 4.95812 14.8241 5.00631C14.8241 5.05449 14.834 5.09392 14.8461 5.09392C14.8581 5.09392 14.868 5.13334 14.868 5.18153C14.868 5.22971 14.8778 5.26914 14.8899 5.26914C14.9019 5.26914 14.9118 5.30856 14.9118 5.35675C14.9118 5.40493 14.9216 5.44436 14.9337 5.44436C14.9457 5.44436 14.9556 5.48378 14.9556 5.53197C14.9556 5.58015 14.9654 5.61957 14.9775 5.61957C14.9895 5.61957 14.9994 5.659 14.9994 5.70718C14.9994 5.75537 15.0092 5.79479 15.0213 5.79479C15.0333 5.79479 15.0432 5.82436 15.0432 5.8605C15.0432 5.89664 15.053 5.92621 15.0651 5.92621C15.0771 5.92621 15.087 5.96563 15.087 6.01382C15.087 6.062 15.0968 6.10143 15.1089 6.10143C15.1209 6.10143 15.1308 6.14085 15.1308 6.18904C15.1308 6.23722 15.1406 6.27665 15.1527 6.27665C15.1647 6.27665 15.1746 6.31607 15.1746 6.36425C15.1746 6.41244 15.1844 6.45186 15.1965 6.45186C15.2085 6.45186 15.2184 6.49129 15.2184 6.53947C15.2184 6.58766 15.2282 6.62708 15.2403 6.62708C15.2523 6.62708 15.2622 6.66651 15.2622 6.71469C15.2622 6.76288 15.2721 6.8023 15.2841 6.8023C15.2961 6.8023 15.306 6.84173 15.306 6.88991C15.306 6.9381 15.3159 6.97752 15.3279 6.97752C15.3399 6.97752 15.3498 7.01695 15.3498 7.06513C15.3498 7.11332 15.3597 7.15274 15.3717 7.15274C15.3838 7.15274 15.3936 7.19216 15.3936 7.24035C15.3936 7.28854 15.4035 7.32796 15.4155 7.32796C15.4276 7.32796 15.4374 7.36738 15.4374 7.41557C15.4374 7.46375 15.4473 7.50318 15.4593 7.50318C15.4714 7.50318 15.4812 7.5426 15.4812 7.59079C15.4812 7.63897 15.4911 7.6784 15.5031 7.6784C15.5152 7.6784 15.525 7.71782 15.525 7.76601C15.525 7.81419 15.5349 7.85362 15.5469 7.85362C15.559 7.85362 15.5688 7.89304 15.5688 7.94123C15.5688 7.98941 15.5787 8.02883 15.5907 8.02883C15.6028 8.02883 15.6126 8.06826 15.6126 8.11644C15.6126 8.16463 15.6225 8.20405 15.6345 8.20405C15.6466 8.20405 15.6564 8.24348 15.6564 8.29166C15.6564 8.33985 15.6663 8.37927 15.6783 8.37927C15.6904 8.37927 15.7002 8.4187 15.7002 8.46688C15.7002 8.51507 15.7101 8.55449 15.7221 8.55449C15.7342 8.55449 15.744 8.59391 15.744 8.6421C15.744 8.69029 15.7539 8.72971 15.766 8.72971C15.778 8.72971 15.7879 8.76913 15.7879 8.81732C15.7879 8.8655 15.7977 8.90493 15.8098 8.90493C15.8218 8.90493 15.8317 8.94435 15.8317 8.99254C15.8317 9.04072 15.8415 9.08015 15.8536 9.08015C15.8656 9.08015 15.8755 9.11957 15.8755 9.16776C15.8755 9.21594 15.8853 9.25537 15.8974 9.25537C15.9094 9.25537 15.9193 9.29479 15.9193 9.34298C15.9193 9.39116 15.9291 9.43059 15.9412 9.43059C15.9532 9.43059 15.9631 9.47001 15.9631 9.5182C15.9631 9.56638 15.9729 9.6058 15.985 9.6058C15.997 9.6058 16.0069 9.64523 16.0069 9.69341C16.0069 9.7416 16.0167 9.78102 16.0288 9.78102C16.0408 9.78102 16.0507 9.82045 16.0507 9.86863C16.0507 9.91682 16.0605 9.95624 16.0726 9.95624C16.0846 9.95624 16.0945 9.99567 16.0945 10.0439C16.0945 10.092 16.1043 10.1315 16.1164 10.1315C16.1284 10.1315 16.1383 10.1709 16.1383 10.2191C16.1383 10.2673 16.1481 10.3067 16.1602 10.3067C16.1722 10.3067 16.1821 10.3461 16.1821 10.3943C16.1821 10.4425 16.192 10.4819 16.204 10.4819C16.216 10.4819 16.2259 10.5213 16.2259 10.5695C16.2259 10.6177 16.2358 10.6571 16.2478 10.6571C16.2598 10.6571 16.2697 10.6965 16.2697 10.7447C16.2697 10.7929 16.2796 10.8323 16.2916 10.8323C16.3037 10.8323 16.3135 10.8718 16.3135 10.9199C16.3135 10.9681 16.3234 11.0076 16.3354 11.0076C16.3475 11.0076 16.3573 11.047 16.3573 11.0952C16.3573 11.1434 16.3672 11.1828 16.3792 11.1828C16.3913 11.1828 16.4011 11.2222 16.4011 11.2704C16.4011 11.3186 16.411 11.358 16.423 11.358C16.4351 11.358 16.4449 11.3974 16.4449 11.4456C16.4449 11.4938 16.4548 11.5332 16.4668 11.5332C16.4789 11.5332 16.4887 11.5726 16.4887 11.6208C16.4887 11.669 16.4986 11.7084 16.5106 11.7084C16.5227 11.7084 16.5325 11.7479 16.5325 11.796C16.5325 11.8442 16.5424 11.8837 16.5544 11.8837C16.5665 11.8837 16.5763 11.9231 16.5763 11.9713C16.5763 12.0194 16.5862 12.0589 16.5982 12.0589C16.6103 12.0589 16.6201 12.0983 16.6201 12.1465C16.6201 12.1947 16.63 12.2341 16.642 12.2341C16.6541 12.2341 16.6639 12.2735 16.6639 12.3217C16.6639 12.3699 16.6738 12.4093 16.6859 12.4093C16.6979 12.4093 16.7078 12.429 16.7078 12.4531C16.7078 12.4928 16.6931 12.4969 16.5544 12.4969C16.4668 12.4969 16.4011 12.4875 16.4011 12.475C16.4011 12.462 16.3208 12.4531 16.204 12.4531C16.0872 12.4531 16.0069 12.4442 16.0069 12.4312C16.0069 12.4184 15.9339 12.4093 15.8317 12.4093C15.7294 12.4093 15.6564 12.4002 15.6564 12.3874C15.6564 12.3729 14.0461 12.3655 10.8692 12.3655C6.74947 12.3655 6.07761 12.3611 6.05069 12.3342C6.02378 12.3073 6.0194 11.6952 6.0194 7.96376C6.0194 4.52362 6.02507 3.61816 6.04677 3.59352C6.07023 3.56686 6.6745 3.56231 10.2739 3.56158L14.4737 3.56075V3.62646ZM8.42866 16.8117C8.42866 16.8248 8.34105 16.8336 8.20963 16.8336C8.07822 16.8336 7.99061 16.8423 7.99061 16.8555C7.99061 16.8677 7.9322 16.8774 7.8592 16.8774C7.7862 16.8774 7.72778 16.8871 7.72778 16.8993C7.72778 16.9113 7.6785 16.9212 7.61827 16.9212C7.55804 16.9212 7.50876 16.931 7.50876 16.9431C7.50876 16.9551 7.45948 16.965 7.39925 16.965C7.33902 16.965 7.28973 16.9749 7.28973 16.9869C7.28973 16.9989 7.25031 17.0088 7.20213 17.0088C7.15394 17.0088 7.11452 17.0187 7.11452 17.0307C7.11452 17.0428 7.07509 17.0526 7.02691 17.0526C6.97872 17.0526 6.9393 17.0625 6.9393 17.0745C6.9393 17.0866 6.90973 17.0964 6.87359 17.0964C6.83745 17.0964 6.80788 17.1063 6.80788 17.1183C6.80788 17.1304 6.77831 17.1402 6.74217 17.1402C6.70604 17.1402 6.67647 17.1501 6.67647 17.1621C6.67647 17.1742 6.6469 17.184 6.61076 17.184C6.57462 17.184 6.54505 17.1939 6.54505 17.2059C6.54505 17.218 6.51549 17.2278 6.47935 17.2278C6.44321 17.2278 6.41364 17.2377 6.41364 17.2497C6.41364 17.2618 6.38407 17.2716 6.34793 17.2716C6.31179 17.2716 6.28223 17.2815 6.28223 17.2935C6.28223 17.3056 6.26251 17.3154 6.23842 17.3154C6.21433 17.3154 6.19462 17.3253 6.19462 17.3373C6.19462 17.3494 6.1749 17.3592 6.15081 17.3592C6.12672 17.3592 6.10701 17.3691 6.10701 17.3811C6.10701 17.3932 6.07744 17.403 6.0413 17.403C6.00516 17.403 5.97559 17.4129 5.97559 17.4249C5.97559 17.437 5.95588 17.4469 5.93179 17.4469C5.90769 17.4469 5.88798 17.4567 5.88798 17.4688C5.88798 17.4808 5.86827 17.4907 5.84418 17.4907C5.82009 17.4907 5.80037 17.5005 5.80037 17.5126C5.80037 17.5246 5.78066 17.5345 5.75657 17.5345C5.73248 17.5345 5.71276 17.5443 5.71276 17.5564C5.71276 17.5684 5.69305 17.5783 5.66896 17.5783C5.64487 17.5783 5.62515 17.5881 5.62515 17.6002C5.62515 17.6122 5.60544 17.6221 5.58135 17.6221C5.55726 17.6221 5.53754 17.6319 5.53754 17.644C5.53754 17.656 5.51783 17.6659 5.49374 17.6659C5.46965 17.6659 5.44994 17.6757 5.44994 17.6878C5.44994 17.6998 5.43239 17.7097 5.41097 17.7097C5.38953 17.7097 5.35779 17.7294 5.34042 17.7535C5.32305 17.7776 5.29132 17.7973 5.26988 17.7973C5.24846 17.7973 5.23091 17.8071 5.23091 17.8192C5.23091 17.8312 5.21337 17.8411 5.19195 17.8411C5.17051 17.8411 5.13877 17.8608 5.1214 17.8849C5.10403 17.909 5.07446 17.9287 5.05569 17.9287C5.03692 17.9287 5.00735 17.9484 4.98999 17.9725C4.97262 17.9966 4.94088 18.0163 4.91944 18.0163C4.89802 18.0163 4.88047 18.0262 4.88047 18.0382C4.88047 18.0503 4.86473 18.0601 4.84545 18.0601C4.8262 18.0601 4.78281 18.0897 4.74906 18.1258C4.71531 18.162 4.67588 18.1915 4.66145 18.1915C4.64702 18.1915 4.60759 18.2211 4.57384 18.2572C4.54009 18.2934 4.50086 18.3229 4.48667 18.3229C4.4725 18.3229 4.42302 18.3624 4.37672 18.4106C4.33042 18.4587 4.28153 18.4982 4.26808 18.4982C4.25464 18.4982 4.15568 18.5869 4.04818 18.6953C3.94069 18.8037 3.8418 18.8924 3.82844 18.8924C3.79703 18.8924 3.74155 18.9479 3.74155 18.9793C3.74155 18.9927 3.65285 19.0915 3.54443 19.199C3.43601 19.3065 3.34731 19.4054 3.34731 19.4187C3.34731 19.4319 3.29803 19.4908 3.2378 19.5495C3.17756 19.6082 3.12828 19.6676 3.12828 19.6816C3.12828 19.6957 3.09872 19.7347 3.06258 19.7685C3.02644 19.8023 2.99687 19.8435 2.99687 19.8601C2.99687 19.8767 2.97716 19.9044 2.95307 19.9218C2.92897 19.9392 2.90926 19.9688 2.90926 19.9875C2.90926 20.0063 2.88955 20.0359 2.86546 20.0532C2.84136 20.0706 2.82165 20.1002 2.82165 20.1189C2.82165 20.1377 2.80194 20.1673 2.77785 20.1846C2.75375 20.202 2.73404 20.2338 2.73404 20.2552C2.73404 20.2766 2.72419 20.2942 2.71214 20.2942C2.70009 20.2942 2.69024 20.3117 2.69024 20.3331C2.69024 20.3546 2.67052 20.3863 2.64643 20.4037C2.62234 20.421 2.60263 20.4528 2.60263 20.4742C2.60263 20.4956 2.59277 20.5132 2.58072 20.5132C2.56868 20.5132 2.55882 20.5329 2.55882 20.557C2.55882 20.5811 2.54897 20.6008 2.53692 20.6008C2.52487 20.6008 2.51502 20.6183 2.51502 20.6398C2.51502 20.6612 2.49531 20.6929 2.47121 20.7103C2.44712 20.7277 2.42741 20.7594 2.42741 20.7809C2.42741 20.8023 2.41755 20.8198 2.40551 20.8198C2.39346 20.8198 2.3836 20.8395 2.3836 20.8636C2.3836 20.8877 2.37375 20.9074 2.3617 20.9074C2.34966 20.9074 2.3398 20.937 2.3398 20.9731C2.3398 21.0093 2.32994 21.0388 2.3179 21.0388C2.30585 21.0388 2.29599 21.0585 2.29599 21.0826C2.29599 21.1067 2.28614 21.1264 2.27409 21.1264C2.26205 21.1264 2.25219 21.1462 2.25219 21.1703C2.25219 21.1943 2.24233 21.2141 2.23029 21.2141C2.21824 21.2141 2.20838 21.2338 2.20838 21.2579C2.20838 21.282 2.19853 21.3017 2.18648 21.3017C2.17444 21.3017 2.16458 21.3312 2.16458 21.3674C2.16458 21.4035 2.15472 21.4331 2.14268 21.4331C2.13063 21.4331 2.12078 21.4528 2.12078 21.4769C2.12078 21.501 2.11092 21.5207 2.09887 21.5207C2.08683 21.5207 2.07697 21.5503 2.07697 21.5864C2.07697 21.6225 2.06711 21.6521 2.05507 21.6521C2.04302 21.6521 2.03317 21.6817 2.03317 21.7178C2.03317 21.754 2.02331 21.7835 2.01126 21.7835C1.99922 21.7835 1.98936 21.8131 1.98936 21.8492C1.98936 21.8854 1.9795 21.9149 1.96746 21.9149C1.95541 21.9149 1.94556 21.9445 1.94556 21.9806C1.94556 22.0168 1.9357 22.0463 1.92365 22.0463C1.91161 22.0463 1.90175 22.0759 1.90175 22.1121C1.90175 22.1482 1.8919 22.1778 1.87985 22.1778C1.8678 22.1778 1.85795 22.2172 1.85795 22.2654C1.85795 22.3136 1.84809 22.353 1.83604 22.353C1.824 22.353 1.81414 22.4023 1.81414 22.4625C1.81414 22.5227 1.80429 22.572 1.79224 22.572C1.78019 22.572 1.77034 22.6213 1.77034 22.6815C1.77034 22.7417 1.76048 22.791 1.74844 22.791C1.73639 22.791 1.72653 22.8403 1.72653 22.9005C1.72653 22.9608 1.71668 23.0101 1.70463 23.0101C1.69186 23.0101 1.68273 23.0831 1.68273 23.1853C1.68273 23.2875 1.67359 23.3605 1.66083 23.3605C1.64663 23.3605 1.63892 23.6379 1.63892 24.149C1.63892 24.66 1.64663 24.9375 1.66083 24.9375C1.67359 24.9375 1.68273 25.0105 1.68273 25.1127C1.68273 25.2149 1.69186 25.2879 1.70463 25.2879C1.71681 25.2879 1.72653 25.3463 1.72653 25.4193C1.72653 25.4923 1.73626 25.5507 1.74844 25.5507C1.76048 25.5507 1.77034 25.5901 1.77034 25.6383C1.77034 25.6865 1.78019 25.7259 1.79224 25.7259C1.80429 25.7259 1.81414 25.7752 1.81414 25.8355C1.81414 25.8957 1.824 25.945 1.83604 25.945C1.84809 25.945 1.85795 25.9745 1.85795 26.0107C1.85795 26.0468 1.8678 26.0764 1.87985 26.0764C1.8919 26.0764 1.90175 26.1158 1.90175 26.164C1.90175 26.2122 1.91161 26.2516 1.92365 26.2516C1.9357 26.2516 1.94556 26.2812 1.94556 26.3173C1.94556 26.3534 1.95541 26.383 1.96746 26.383C1.9795 26.383 1.98936 26.4126 1.98936 26.4487C1.98936 26.4849 1.99922 26.5144 2.01126 26.5144C2.02331 26.5144 2.03317 26.544 2.03317 26.5801C2.03317 26.6163 2.04302 26.6458 2.05507 26.6458C2.06711 26.6458 2.07697 26.6754 2.07697 26.7116C2.07697 26.7477 2.08683 26.7773 2.09887 26.7773C2.11092 26.7773 2.12078 26.797 2.12078 26.8211C2.12078 26.8452 2.13063 26.8649 2.14268 26.8649C2.15472 26.8649 2.16458 26.8944 2.16458 26.9306C2.16458 26.9667 2.17444 26.9963 2.18648 26.9963C2.19853 26.9963 2.20838 27.016 2.20838 27.0401C2.20838 27.0642 2.21824 27.0839 2.23029 27.0839C2.24233 27.0839 2.25219 27.1036 2.25219 27.1277C2.25219 27.1518 2.26205 27.1715 2.27409 27.1715C2.28614 27.1715 2.29599 27.1912 2.29599 27.2153C2.29599 27.2394 2.30585 27.2591 2.3179 27.2591C2.32994 27.2591 2.3398 27.2887 2.3398 27.3248C2.3398 27.361 2.34966 27.3905 2.3617 27.3905C2.37375 27.3905 2.3836 27.4102 2.3836 27.4343C2.3836 27.4584 2.39346 27.4781 2.40551 27.4781C2.41755 27.4781 2.42741 27.4957 2.42741 27.5171C2.42741 27.5385 2.44712 27.5703 2.47121 27.5876C2.49531 27.605 2.51502 27.6367 2.51502 27.6582C2.51502 27.6796 2.52487 27.6972 2.53692 27.6972C2.54897 27.6972 2.55882 27.7169 2.55882 27.741C2.55882 27.7651 2.56868 27.7848 2.58072 27.7848C2.59277 27.7848 2.60263 27.8045 2.60263 27.8286C2.60263 27.8527 2.61248 27.8724 2.62453 27.8724C2.63658 27.8724 2.64643 27.8899 2.64643 27.9113C2.64643 27.9328 2.66614 27.9645 2.69024 27.9819C2.71433 27.9993 2.73404 28.0288 2.73404 28.0476C2.73404 28.0664 2.75375 28.0959 2.77785 28.1133C2.80194 28.1307 2.82165 28.1602 2.82165 28.179C2.82165 28.1978 2.84136 28.2273 2.86546 28.2447C2.88955 28.2621 2.90926 28.2917 2.90926 28.3104C2.90926 28.3292 2.92897 28.3588 2.95307 28.3761C2.97716 28.3935 2.99687 28.4213 2.99687 28.4379C2.99687 28.4545 3.02644 28.4957 3.06258 28.5294C3.09872 28.5632 3.12828 28.6024 3.12828 28.6166C3.12828 28.6308 3.16771 28.6803 3.21589 28.7266C3.26408 28.7729 3.3035 28.8218 3.3035 28.8353C3.3035 28.8488 3.38235 28.9379 3.47872 29.0332C3.57509 29.1285 3.65394 29.2171 3.65394 29.23C3.65394 29.2605 3.84283 29.4493 3.87332 29.4493C3.88619 29.4493 3.97475 29.5282 4.07009 29.6246C4.16543 29.7209 4.25448 29.7998 4.268 29.7998C4.28149 29.7998 4.33042 29.8392 4.37672 29.8874C4.42302 29.9356 4.4725 29.975 4.48667 29.975C4.50086 29.975 4.54009 30.0046 4.57384 30.0407C4.60759 30.0768 4.64702 30.1064 4.66145 30.1064C4.67588 30.1064 4.71531 30.136 4.74906 30.1721C4.78281 30.2083 4.82403 30.2378 4.84061 30.2378C4.85721 30.2378 4.88501 30.2575 4.90238 30.2816C4.91974 30.3057 4.95148 30.3254 4.97292 30.3254C4.99434 30.3254 5.01189 30.3353 5.01189 30.3473C5.01189 30.3594 5.02943 30.3692 5.05085 30.3692C5.07229 30.3692 5.10403 30.389 5.1214 30.413C5.13877 30.4371 5.17051 30.4569 5.19195 30.4569C5.21337 30.4569 5.23091 30.4667 5.23091 30.4788C5.23091 30.4908 5.24846 30.5007 5.26988 30.5007C5.29132 30.5007 5.32305 30.5204 5.34042 30.5445C5.35779 30.5686 5.38953 30.5883 5.41097 30.5883C5.43239 30.5883 5.44994 30.5981 5.44994 30.6102C5.44994 30.6222 5.46965 30.6321 5.49374 30.6321C5.51783 30.6321 5.53754 30.6419 5.53754 30.654C5.53754 30.666 5.55726 30.6759 5.58135 30.6759C5.60544 30.6759 5.62515 30.6857 5.62515 30.6978C5.62515 30.7098 5.64487 30.7197 5.66896 30.7197C5.69305 30.7197 5.71276 30.7295 5.71276 30.7416C5.71276 30.7536 5.73248 30.7635 5.75657 30.7635C5.78066 30.7635 5.80037 30.7733 5.80037 30.7854C5.80037 30.7974 5.82009 30.8073 5.84418 30.8073C5.86827 30.8073 5.88798 30.8171 5.88798 30.8292C5.88798 30.8412 5.90769 30.8511 5.93179 30.8511C5.95588 30.8511 5.97559 30.861 5.97559 30.873C5.97559 30.885 6.00516 30.8949 6.0413 30.8949C6.07744 30.8949 6.10701 30.9048 6.10701 30.9168C6.10701 30.9289 6.12672 30.9387 6.15081 30.9387C6.1749 30.9387 6.19462 30.9486 6.19462 30.9606C6.19462 30.9727 6.22418 30.9825 6.26032 30.9825C6.29646 30.9825 6.32603 30.9924 6.32603 31.0044C6.32603 31.0165 6.34574 31.0263 6.36983 31.0263C6.39393 31.0263 6.41364 31.0362 6.41364 31.0482C6.41364 31.0603 6.44321 31.0701 6.47935 31.0701C6.51549 31.0701 6.54505 31.08 6.54505 31.092C6.54505 31.1041 6.57462 31.1139 6.61076 31.1139C6.6469 31.1139 6.67647 31.1238 6.67647 31.1358C6.67647 31.1479 6.70604 31.1577 6.74217 31.1577C6.77831 31.1577 6.80788 31.1676 6.80788 31.1796C6.80788 31.1917 6.83745 31.2015 6.87359 31.2015C6.90973 31.2015 6.9393 31.2114 6.9393 31.2234C6.9393 31.2355 6.97872 31.2453 7.02691 31.2453C7.07509 31.2453 7.11452 31.2552 7.11452 31.2672C7.11452 31.2793 7.15394 31.2891 7.20213 31.2891C7.25031 31.2891 7.28973 31.299 7.28973 31.311C7.28973 31.3231 7.32916 31.3329 7.37734 31.3329C7.42553 31.3329 7.46495 31.3428 7.46495 31.3549C7.46495 31.3669 7.51423 31.3768 7.57447 31.3768C7.6347 31.3768 7.68398 31.3866 7.68398 31.3987C7.68398 31.4112 7.74968 31.4206 7.83729 31.4206C7.9249 31.4206 7.99061 31.43 7.99061 31.4425C7.99061 31.4556 8.07822 31.4644 8.20963 31.4644C8.34105 31.4644 8.42866 31.4731 8.42866 31.4863C8.42866 31.5003 8.63307 31.5082 8.99812 31.5082C9.36317 31.5082 9.56758 31.5003 9.56758 31.4863C9.56758 31.4733 9.6479 31.4644 9.7647 31.4644C9.88151 31.4644 9.96182 31.4554 9.96182 31.4425C9.96182 31.43 10.0275 31.4206 10.1151 31.4206C10.2027 31.4206 10.2685 31.4112 10.2685 31.3987C10.2685 31.3866 10.3177 31.3768 10.378 31.3768C10.4382 31.3768 10.4875 31.3669 10.4875 31.3549C10.4875 31.3428 10.5269 31.3329 10.5751 31.3329C10.6233 31.3329 10.6627 31.3231 10.6627 31.311C10.6627 31.299 10.7021 31.2891 10.7503 31.2891C10.7985 31.2891 10.8379 31.2793 10.8379 31.2672C10.8379 31.2552 10.8773 31.2453 10.9255 31.2453C10.9737 31.2453 11.0131 31.2355 11.0131 31.2234C11.0131 31.2114 11.0427 31.2015 11.0788 31.2015C11.115 31.2015 11.1446 31.1917 11.1446 31.1796C11.1446 31.1676 11.184 31.1577 11.2322 31.1577C11.2803 31.1577 11.3198 31.1479 11.3198 31.1358C11.3198 31.1238 11.3493 31.1139 11.3855 31.1139C11.4216 31.1139 11.4512 31.1041 11.4512 31.092C11.4512 31.08 11.4709 31.0701 11.495 31.0701C11.5191 31.0701 11.5388 31.0603 11.5388 31.0482C11.5388 31.0362 11.5684 31.0263 11.6045 31.0263C11.6406 31.0263 11.6702 31.0165 11.6702 31.0044C11.6702 30.9924 11.6899 30.9825 11.714 30.9825C11.7381 30.9825 11.7578 30.9727 11.7578 30.9606C11.7578 30.9486 11.7874 30.9387 11.8235 30.9387C11.8597 30.9387 11.8892 30.9289 11.8892 30.9168C11.8892 30.9048 11.9089 30.8949 11.933 30.8949C11.9571 30.8949 11.9768 30.885 11.9768 30.873C11.9768 30.861 11.9966 30.8511 12.0206 30.8511C12.0447 30.8511 12.0645 30.8412 12.0645 30.8292C12.0645 30.8171 12.0842 30.8073 12.1083 30.8073C12.1323 30.8073 12.1521 30.7974 12.1521 30.7854C12.1521 30.7733 12.1816 30.7635 12.2178 30.7635C12.2539 30.7635 12.2835 30.7536 12.2835 30.7416C12.2835 30.7295 12.301 30.7197 12.3224 30.7197C12.3439 30.7197 12.3756 30.7 12.393 30.6759C12.4104 30.6518 12.4421 30.6321 12.4635 30.6321C12.485 30.6321 12.5025 30.6222 12.5025 30.6102C12.5025 30.5981 12.5222 30.5883 12.5463 30.5883C12.5704 30.5883 12.5901 30.5784 12.5901 30.5664C12.5901 30.5543 12.6077 30.5445 12.6291 30.5445C12.6505 30.5445 12.6823 30.5248 12.6996 30.5007C12.717 30.4766 12.7487 30.4569 12.7702 30.4569C12.7916 30.4569 12.8091 30.447 12.8091 30.435C12.8091 30.4229 12.8267 30.413 12.8481 30.413C12.8695 30.413 12.9013 30.3933 12.9186 30.3692C12.936 30.3452 12.9656 30.3254 12.9843 30.3254C13.0031 30.3254 13.0327 30.3057 13.0501 30.2816C13.0674 30.2575 13.097 30.2378 13.1158 30.2378C13.1345 30.2378 13.1641 30.2181 13.1815 30.194C13.1988 30.1699 13.2284 30.1502 13.2472 30.1502C13.2659 30.1502 13.2955 30.1305 13.3129 30.1064C13.3303 30.0823 13.3578 30.0626 13.3742 30.0626C13.3906 30.0626 13.4418 30.0232 13.4881 29.975C13.5344 29.9268 13.5834 29.8874 13.5971 29.8874C13.6108 29.8874 13.68 29.8283 13.7509 29.756C13.8219 29.6837 13.8904 29.6246 13.9032 29.6246C13.9337 29.6246 14.4737 29.0846 14.4737 29.0541C14.4737 29.0413 14.5328 28.9727 14.6051 28.9018C14.6774 28.8308 14.7365 28.7616 14.7365 28.748C14.7365 28.7343 14.776 28.6853 14.8241 28.639C14.8723 28.5927 14.9118 28.5414 14.9118 28.525C14.9118 28.5087 14.9315 28.4811 14.9556 28.4637C14.9797 28.4464 14.9994 28.4168 14.9994 28.398C14.9994 28.3793 15.0191 28.3497 15.0432 28.3323C15.0673 28.315 15.087 28.2854 15.087 28.2666C15.087 28.2478 15.1067 28.2183 15.1308 28.2009C15.1549 28.1835 15.1746 28.154 15.1746 28.1352C15.1746 28.1164 15.1943 28.0869 15.2184 28.0695C15.2425 28.0521 15.2622 28.0204 15.2622 27.9989C15.2622 27.9775 15.2721 27.96 15.2841 27.96C15.2961 27.96 15.306 27.9424 15.306 27.921C15.306 27.8996 15.3257 27.8678 15.3498 27.8505C15.3739 27.8331 15.3936 27.8014 15.3936 27.7799C15.3936 27.7585 15.4035 27.741 15.4155 27.741C15.4276 27.741 15.4374 27.7212 15.4374 27.6972C15.4374 27.6731 15.4473 27.6534 15.4593 27.6534C15.4714 27.6534 15.4812 27.6336 15.4812 27.6095C15.4812 27.5855 15.4911 27.5657 15.5031 27.5657C15.5152 27.5657 15.525 27.546 15.525 27.5219C15.525 27.4978 15.5349 27.4781 15.5469 27.4781C15.559 27.4781 15.5688 27.4584 15.5688 27.4343C15.5688 27.4102 15.5787 27.3905 15.5907 27.3905C15.6028 27.3905 15.6126 27.3708 15.6126 27.3467C15.6126 27.3226 15.6225 27.3029 15.6345 27.3029C15.6466 27.3029 15.6564 27.2832 15.6564 27.2591C15.6564 27.235 15.6663 27.2153 15.6783 27.2153C15.6904 27.2153 15.7002 27.1956 15.7002 27.1715C15.7002 27.1474 15.7101 27.1277 15.7221 27.1277C15.7342 27.1277 15.744 27.108 15.744 27.0839C15.744 27.0598 15.7539 27.0401 15.766 27.0401C15.778 27.0401 15.7879 27.0105 15.7879 26.9744C15.7879 26.9382 15.7977 26.9087 15.8098 26.9087C15.8218 26.9087 15.8317 26.889 15.8317 26.8649C15.8317 26.8408 15.8415 26.8211 15.8536 26.8211C15.8656 26.8211 15.8755 26.7915 15.8755 26.7554C15.8755 26.7192 15.8853 26.6896 15.8974 26.6896C15.9094 26.6896 15.9193 26.6601 15.9193 26.6239C15.9193 26.5878 15.9291 26.5582 15.9412 26.5582C15.9532 26.5582 15.9631 26.5287 15.9631 26.4925C15.9631 26.4564 15.9729 26.4268 15.985 26.4268C15.997 26.4268 16.0069 26.3973 16.0069 26.3611C16.0069 26.325 16.0167 26.2954 16.0288 26.2954C16.0408 26.2954 16.0507 26.2658 16.0507 26.2297C16.0507 26.1936 16.0605 26.164 16.0726 26.164C16.0846 26.164 16.0945 26.1246 16.0945 26.0764C16.0945 26.0282 16.1043 25.9888 16.1164 25.9888C16.1284 25.9888 16.1383 25.9493 16.1383 25.9012C16.1383 25.853 16.1481 25.8136 16.1602 25.8136C16.1722 25.8136 16.1821 25.7741 16.1821 25.7259C16.1821 25.6778 16.192 25.6383 16.204 25.6383C16.2162 25.6383 16.2259 25.5799 16.2259 25.5069C16.2259 25.4339 16.2356 25.3755 16.2478 25.3755C16.26 25.3755 16.2697 25.3171 16.2697 25.2441C16.2697 25.1711 16.2794 25.1127 16.2916 25.1127C16.3049 25.1127 16.3135 25.0178 16.3135 24.8717C16.3135 24.7257 16.3221 24.6308 16.3354 24.6308C16.3493 24.6308 16.3573 24.4556 16.3573 24.149C16.3573 23.8423 16.3493 23.6671 16.3354 23.6671C16.3221 23.6671 16.3135 23.5722 16.3135 23.4262C16.3135 23.2802 16.3049 23.1853 16.2916 23.1853C16.2794 23.1853 16.2697 23.1269 16.2697 23.0539C16.2697 22.9809 16.26 22.9224 16.2478 22.9224C16.2358 22.9224 16.2259 22.8732 16.2259 22.8129C16.2259 22.7527 16.216 22.7034 16.204 22.7034C16.192 22.7034 16.1821 22.6541 16.1821 22.5939C16.1821 22.5337 16.1722 22.4844 16.1602 22.4844C16.1481 22.4844 16.1383 22.445 16.1383 22.3968C16.1383 22.3486 16.1284 22.3092 16.1164 22.3092C16.1043 22.3092 16.0945 22.2698 16.0945 22.2216C16.0945 22.1734 16.0846 22.134 16.0726 22.134C16.0605 22.134 16.0507 22.1044 16.0507 22.0682C16.0507 22.0321 16.0408 22.0025 16.0288 22.0025C16.0167 22.0025 16.0069 21.973 16.0069 21.9368C16.0069 21.9007 15.997 21.8711 15.985 21.8711C15.9729 21.8711 15.9631 21.8416 15.9631 21.8054C15.9631 21.7693 15.9532 21.7397 15.9412 21.7397C15.9291 21.7397 15.9193 21.7101 15.9193 21.674C15.9193 21.6379 15.9094 21.6083 15.8974 21.6083C15.8853 21.6083 15.8755 21.5787 15.8755 21.5426C15.8755 21.5065 15.8656 21.4769 15.8536 21.4769C15.8415 21.4769 15.8317 21.4572 15.8317 21.4331C15.8317 21.409 15.8218 21.3893 15.8098 21.3893C15.7977 21.3893 15.7879 21.3597 15.7879 21.3236C15.7879 21.2874 15.778 21.2579 15.766 21.2579C15.7539 21.2579 15.744 21.2381 15.744 21.2141C15.744 21.19 15.7342 21.1703 15.7221 21.1703C15.7101 21.1703 15.7002 21.1505 15.7002 21.1264C15.7002 21.1024 15.6904 21.0826 15.6783 21.0826C15.6663 21.0826 15.6564 21.0629 15.6564 21.0388C15.6564 21.0147 15.6466 20.995 15.6345 20.995C15.6225 20.995 15.6126 20.9753 15.6126 20.9512C15.6126 20.9271 15.6028 20.9074 15.5907 20.9074C15.5787 20.9074 15.5688 20.8877 15.5688 20.8636C15.5688 20.8395 15.559 20.8198 15.5469 20.8198C15.5349 20.8198 15.525 20.8001 15.525 20.776C15.525 20.7519 15.5152 20.7322 15.5031 20.7322C15.4911 20.7322 15.4812 20.7125 15.4812 20.6884C15.4812 20.6643 15.4714 20.6446 15.4593 20.6446C15.4473 20.6446 15.4374 20.6249 15.4374 20.6008C15.4374 20.5767 15.4276 20.557 15.4155 20.557C15.4035 20.557 15.3936 20.5394 15.3936 20.518C15.3936 20.4966 15.3739 20.4648 15.3498 20.4475C15.3257 20.4301 15.306 20.3984 15.306 20.3769C15.306 20.3555 15.2961 20.338 15.2841 20.338C15.2721 20.338 15.2622 20.3204 15.2622 20.299C15.2622 20.2776 15.2425 20.2458 15.2184 20.2285C15.1943 20.2111 15.1746 20.1815 15.1746 20.1627C15.1746 20.144 15.1549 20.1144 15.1308 20.097C15.1067 20.0797 15.087 20.0501 15.087 20.0313C15.087 20.0126 15.0673 19.983 15.0432 19.9656C15.0191 19.9483 14.9994 19.9205 14.9994 19.9039C14.9994 19.8873 14.9698 19.8461 14.9337 19.8123C14.8975 19.7786 14.868 19.7391 14.868 19.7247C14.868 19.7103 14.8384 19.6708 14.8022 19.6371C14.7661 19.6033 14.7365 19.5643 14.7365 19.5504C14.7365 19.5365 14.6774 19.4671 14.6051 19.3962C14.5328 19.3252 14.4737 19.2567 14.4737 19.2439C14.4737 19.2134 13.9337 18.6734 13.9032 18.6734C13.8904 18.6734 13.8219 18.6142 13.7509 18.542C13.68 18.4697 13.6106 18.4106 13.5967 18.4106C13.5828 18.4106 13.5438 18.381 13.51 18.3448C13.4763 18.3087 13.4368 18.2791 13.4224 18.2791C13.408 18.2791 13.3685 18.2496 13.3348 18.2134C13.301 18.1773 13.2598 18.1477 13.2432 18.1477C13.2266 18.1477 13.1988 18.128 13.1815 18.1039C13.1641 18.0798 13.1345 18.0601 13.1158 18.0601C13.097 18.0601 13.0674 18.0404 13.0501 18.0163C13.0327 17.9922 13.0031 17.9725 12.9843 17.9725C12.9656 17.9725 12.936 17.9528 12.9186 17.9287C12.9013 17.9046 12.8717 17.8849 12.8529 17.8849C12.8342 17.8849 12.8046 17.8652 12.7872 17.8411C12.7699 17.817 12.7381 17.7973 12.7167 17.7973C12.6953 17.7973 12.6777 17.7874 12.6777 17.7754C12.6777 17.7633 12.658 17.7535 12.6339 17.7535C12.6098 17.7535 12.5901 17.7436 12.5901 17.7316C12.5901 17.7195 12.5704 17.7097 12.5463 17.7097C12.5222 17.7097 12.5025 17.6998 12.5025 17.6878C12.5025 17.6757 12.4828 17.6659 12.4587 17.6659C12.4346 17.6659 12.4149 17.656 12.4149 17.644C12.4149 17.6319 12.3952 17.6221 12.3711 17.6221C12.347 17.6221 12.3273 17.6122 12.3273 17.6002C12.3273 17.5881 12.3076 17.5783 12.2835 17.5783C12.2594 17.5783 12.2397 17.5684 12.2397 17.5564C12.2397 17.5443 12.22 17.5345 12.1959 17.5345C12.1718 17.5345 12.1521 17.5246 12.1521 17.5126C12.1521 17.5005 12.1323 17.4907 12.1083 17.4907C12.0842 17.4907 12.0645 17.4808 12.0645 17.4688C12.0645 17.4567 12.0447 17.4469 12.0206 17.4469C11.9966 17.4469 11.9768 17.437 11.9768 17.4249C11.9768 17.4129 11.9571 17.403 11.933 17.403C11.9089 17.403 11.8892 17.3932 11.8892 17.3811C11.8892 17.3691 11.8597 17.3592 11.8235 17.3592C11.7874 17.3592 11.7578 17.3494 11.7578 17.3373C11.7578 17.3253 11.7381 17.3154 11.714 17.3154C11.6899 17.3154 11.6702 17.3056 11.6702 17.2935C11.6702 17.2815 11.6406 17.2716 11.6045 17.2716C11.5684 17.2716 11.5388 17.2618 11.5388 17.2497C11.5388 17.2377 11.5092 17.2278 11.4731 17.2278C11.4369 17.2278 11.4074 17.218 11.4074 17.2059C11.4074 17.1939 11.3877 17.184 11.3636 17.184C11.3395 17.184 11.3198 17.1742 11.3198 17.1621C11.3198 17.1501 11.2803 17.1402 11.2322 17.1402C11.184 17.1402 11.1446 17.1304 11.1446 17.1183C11.1446 17.1063 11.115 17.0964 11.0788 17.0964C11.0427 17.0964 11.0131 17.0866 11.0131 17.0745C11.0131 17.0625 10.9737 17.0526 10.9255 17.0526C10.8773 17.0526 10.8379 17.0428 10.8379 17.0307C10.8379 17.0187 10.7985 17.0088 10.7503 17.0088C10.7021 17.0088 10.6627 16.9989 10.6627 16.9869C10.6627 16.9749 10.6233 16.965 10.5751 16.965C10.5269 16.965 10.4875 16.9551 10.4875 16.9431C10.4875 16.931 10.4382 16.9212 10.378 16.9212C10.3177 16.9212 10.2685 16.9113 10.2685 16.8993C10.2685 16.8868 10.2027 16.8774 10.1151 16.8774C10.0275 16.8774 9.96182 16.868 9.96182 16.8555C9.96182 16.8423 9.87421 16.8336 9.7428 16.8336C9.61139 16.8336 9.52378 16.8248 9.52378 16.8117C9.52378 16.7977 9.32665 16.7898 8.97622 16.7898C8.62578 16.7898 8.42866 16.7977 8.42866 16.8117ZM9.30475 19.7466C9.30475 19.7596 9.38507 19.7685 9.50187 19.7685C9.61868 19.7685 9.69899 19.7774 9.69899 19.7904C9.69899 19.8025 9.74827 19.8123 9.80851 19.8123C9.86874 19.8123 9.91802 19.8222 9.91802 19.8342C9.91802 19.8463 9.95744 19.8561 10.0056 19.8561C10.0538 19.8561 10.0932 19.866 10.0932 19.878C10.0932 19.8901 10.1327 19.8999 10.1808 19.8999C10.229 19.8999 10.2685 19.9098 10.2685 19.9218C10.2685 19.9339 10.298 19.9437 10.3342 19.9437C10.3703 19.9437 10.3999 19.9536 10.3999 19.9656C10.3999 19.9777 10.4294 19.9875 10.4656 19.9875C10.5017 19.9875 10.5313 19.9974 10.5313 20.0094C10.5313 20.0215 10.551 20.0313 10.5751 20.0313C10.5992 20.0313 10.6189 20.0412 10.6189 20.0532C10.6189 20.0653 10.6485 20.0751 10.6846 20.0751C10.7207 20.0751 10.7503 20.085 10.7503 20.097C10.7503 20.1091 10.77 20.1189 10.7941 20.1189C10.8182 20.1189 10.8379 20.1288 10.8379 20.1408C10.8379 20.1529 10.8576 20.1627 10.8817 20.1627C10.9058 20.1627 10.9255 20.1726 10.9255 20.1846C10.9255 20.1967 10.9452 20.2065 10.9693 20.2065C10.9934 20.2065 11.0131 20.2164 11.0131 20.2285C11.0131 20.2405 11.0328 20.2504 11.0569 20.2504C11.081 20.2504 11.1007 20.2602 11.1007 20.2723C11.1007 20.2843 11.1183 20.2942 11.1397 20.2942C11.1612 20.2942 11.1929 20.3139 11.2103 20.338C11.2276 20.3621 11.2572 20.3818 11.276 20.3818C11.2947 20.3818 11.3243 20.4015 11.3417 20.4256C11.359 20.4497 11.3886 20.4694 11.4074 20.4694C11.4262 20.4694 11.4557 20.4891 11.4731 20.5132C11.4905 20.5373 11.52 20.557 11.5388 20.557C11.5576 20.557 11.5871 20.5767 11.6045 20.6008C11.6219 20.6249 11.6493 20.6446 11.6655 20.6446C11.6817 20.6446 11.7429 20.6939 11.8016 20.7541C11.8603 20.8143 11.919 20.8636 11.932 20.8636C11.9628 20.8636 12.2835 21.1842 12.2835 21.2151C12.2835 21.2281 12.3328 21.2868 12.393 21.3455C12.4532 21.4041 12.5025 21.4654 12.5025 21.4816C12.5025 21.4978 12.5222 21.5252 12.5463 21.5426C12.5704 21.56 12.5901 21.5895 12.5901 21.6083C12.5901 21.6271 12.6098 21.6566 12.6339 21.674C12.658 21.6914 12.6777 21.7209 12.6777 21.7397C12.6777 21.7585 12.6974 21.7881 12.7215 21.8054C12.7456 21.8228 12.7653 21.8545 12.7653 21.876C12.7653 21.8974 12.7752 21.9149 12.7872 21.9149C12.7993 21.9149 12.8091 21.9325 12.8091 21.9539C12.8091 21.9753 12.8288 22.0071 12.8529 22.0244C12.877 22.0418 12.8967 22.0735 12.8967 22.095C12.8967 22.1164 12.9066 22.134 12.9186 22.134C12.9307 22.134 12.9405 22.1537 12.9405 22.1778C12.9405 22.2019 12.9504 22.2216 12.9624 22.2216C12.9745 22.2216 12.9843 22.2413 12.9843 22.2654C12.9843 22.2895 12.9942 22.3092 13.0063 22.3092C13.0183 22.3092 13.0282 22.3387 13.0282 22.3749C13.0282 22.411 13.038 22.4406 13.0501 22.4406C13.0621 22.4406 13.072 22.4603 13.072 22.4844C13.072 22.5085 13.0818 22.5282 13.0939 22.5282C13.1059 22.5282 13.1158 22.5578 13.1158 22.5939C13.1158 22.63 13.1256 22.6596 13.1377 22.6596C13.1497 22.6596 13.1596 22.6892 13.1596 22.7253C13.1596 22.7615 13.1694 22.791 13.1815 22.791C13.1935 22.791 13.2034 22.8206 13.2034 22.8567C13.2034 22.8929 13.2132 22.9224 13.2253 22.9224C13.2373 22.9224 13.2472 22.952 13.2472 22.9881C13.2472 23.0243 13.257 23.0539 13.2691 23.0539C13.2811 23.0539 13.291 23.1031 13.291 23.1634C13.291 23.2236 13.3008 23.2729 13.3129 23.2729C13.3249 23.2729 13.3348 23.3222 13.3348 23.3824C13.3348 23.4426 13.3446 23.4919 13.3567 23.4919C13.37 23.4919 13.3786 23.5868 13.3786 23.7328C13.3786 23.8789 13.3872 23.9738 13.4005 23.9738C13.4133 23.9738 13.4224 24.0468 13.4224 24.149C13.4224 24.2512 13.4133 24.3242 13.4005 24.3242C13.3872 24.3242 13.3786 24.4191 13.3786 24.5651C13.3786 24.7111 13.37 24.806 13.3567 24.806C13.3446 24.806 13.3348 24.8553 13.3348 24.9156C13.3348 24.9758 13.3249 25.0251 13.3129 25.0251C13.3008 25.0251 13.291 25.0744 13.291 25.1346C13.291 25.1948 13.2811 25.2441 13.2691 25.2441C13.257 25.2441 13.2472 25.2737 13.2472 25.3098C13.2472 25.3459 13.2373 25.3755 13.2253 25.3755C13.2132 25.3755 13.2034 25.4051 13.2034 25.4412C13.2034 25.4774 13.1935 25.5069 13.1815 25.5069C13.1694 25.5069 13.1596 25.5365 13.1596 25.5726C13.1596 25.6088 13.1497 25.6383 13.1377 25.6383C13.1256 25.6383 13.1158 25.6679 13.1158 25.704C13.1158 25.7402 13.1059 25.7697 13.0939 25.7697C13.0818 25.7697 13.072 25.7895 13.072 25.8136C13.072 25.8376 13.0621 25.8574 13.0501 25.8574C13.038 25.8574 13.0282 25.8869 13.0282 25.9231C13.0282 25.9592 13.0183 25.9888 13.0063 25.9888C12.9942 25.9888 12.9843 26.0085 12.9843 26.0326C12.9843 26.0567 12.9745 26.0764 12.9624 26.0764C12.9504 26.0764 12.9405 26.0961 12.9405 26.1202C12.9405 26.1443 12.9307 26.164 12.9186 26.164C12.9066 26.164 12.8967 26.1815 12.8967 26.203C12.8967 26.2244 12.877 26.2561 12.8529 26.2735C12.8288 26.2909 12.8091 26.3226 12.8091 26.344C12.8091 26.3655 12.7993 26.383 12.7872 26.383C12.7752 26.383 12.7653 26.4006 12.7653 26.422C12.7653 26.4434 12.7456 26.4752 12.7215 26.4925C12.6974 26.5099 12.6777 26.5395 12.6777 26.5582C12.6777 26.577 12.658 26.6066 12.6339 26.6239C12.6098 26.6413 12.5901 26.6709 12.5901 26.6896C12.5901 26.7084 12.5704 26.738 12.5463 26.7554C12.5222 26.7727 12.5025 26.8001 12.5025 26.8162C12.5025 26.8322 12.4434 26.9034 12.3711 26.9744C12.2988 27.0453 12.2397 27.114 12.2397 27.1269C12.2397 27.1577 12.0068 27.3905 11.9761 27.3905C11.9631 27.3905 11.8945 27.4497 11.8235 27.5219C11.7526 27.5942 11.6814 27.6534 11.6653 27.6534C11.6492 27.6534 11.6219 27.6731 11.6045 27.6972C11.5871 27.7212 11.5593 27.741 11.5427 27.741C11.5262 27.741 11.4849 27.7705 11.4512 27.8067C11.4174 27.8428 11.374 27.8724 11.3548 27.8724C11.3355 27.8724 11.3198 27.8822 11.3198 27.8943C11.3198 27.9063 11.3022 27.9162 11.2808 27.9162C11.2594 27.9162 11.2276 27.9359 11.2103 27.96C11.1929 27.9841 11.1612 28.0038 11.1397 28.0038C11.1183 28.0038 11.1007 28.0136 11.1007 28.0257C11.1007 28.0377 11.081 28.0476 11.0569 28.0476C11.0328 28.0476 11.0131 28.0574 11.0131 28.0695C11.0131 28.0815 10.9934 28.0914 10.9693 28.0914C10.9452 28.0914 10.9255 28.1013 10.9255 28.1133C10.9255 28.1253 10.9058 28.1352 10.8817 28.1352C10.8576 28.1352 10.8379 28.1451 10.8379 28.1571C10.8379 28.1692 10.8182 28.179 10.7941 28.179C10.77 28.179 10.7503 28.1889 10.7503 28.2009C10.7503 28.213 10.7207 28.2228 10.6846 28.2228C10.6485 28.2228 10.6189 28.2327 10.6189 28.2447C10.6189 28.2568 10.5992 28.2666 10.5751 28.2666C10.551 28.2666 10.5313 28.2765 10.5313 28.2885C10.5313 28.3006 10.5017 28.3104 10.4656 28.3104C10.4294 28.3104 10.3999 28.3203 10.3999 28.3323C10.3999 28.3444 10.3703 28.3542 10.3342 28.3542C10.298 28.3542 10.2685 28.3641 10.2685 28.3761C10.2685 28.3882 10.229 28.398 10.1808 28.398C10.1327 28.398 10.0932 28.4079 10.0932 28.4199C10.0932 28.432 10.0538 28.4418 10.0056 28.4418C9.95744 28.4418 9.91802 28.4517 9.91802 28.4637C9.91802 28.4758 9.86874 28.4856 9.80851 28.4856C9.74827 28.4856 9.69899 28.4955 9.69899 28.5075C9.69899 28.5205 9.61868 28.5294 9.50187 28.5294C9.38507 28.5294 9.30475 28.5384 9.30475 28.5513C9.30475 28.565 9.18063 28.5732 8.97622 28.5732C8.7718 28.5732 8.64768 28.565 8.64768 28.5513C8.64768 28.5386 8.57468 28.5294 8.47246 28.5294C8.37024 28.5294 8.29724 28.5203 8.29724 28.5075C8.29724 28.4954 8.23883 28.4856 8.16583 28.4856C8.09283 28.4856 8.03441 28.4759 8.03441 28.4637C8.03441 28.4517 7.99499 28.4418 7.94681 28.4418C7.89862 28.4418 7.8592 28.432 7.8592 28.4199C7.8592 28.4079 7.82963 28.398 7.79349 28.398C7.75735 28.398 7.72778 28.3882 7.72778 28.3761C7.72778 28.3641 7.69821 28.3542 7.66207 28.3542C7.62594 28.3542 7.59637 28.3444 7.59637 28.3323C7.59637 28.3203 7.5668 28.3104 7.53066 28.3104C7.49452 28.3104 7.46495 28.3006 7.46495 28.2885C7.46495 28.2765 7.43539 28.2666 7.39925 28.2666C7.36311 28.2666 7.33354 28.2568 7.33354 28.2447C7.33354 28.2327 7.31383 28.2228 7.28973 28.2228C7.26564 28.2228 7.24593 28.213 7.24593 28.2009C7.24593 28.1889 7.21636 28.179 7.18022 28.179C7.14408 28.179 7.11452 28.1692 7.11452 28.1571C7.11452 28.1451 7.0948 28.1352 7.07071 28.1352C7.04662 28.1352 7.02691 28.1253 7.02691 28.1133C7.02691 28.1013 7.00719 28.0914 6.9831 28.0914C6.95901 28.0914 6.9393 28.0815 6.9393 28.0695C6.9393 28.0574 6.92175 28.0476 6.90033 28.0476C6.87889 28.0476 6.84715 28.0279 6.82978 28.0038C6.81242 27.9797 6.78068 27.96 6.75924 27.96C6.73782 27.96 6.72027 27.9501 6.72027 27.9381C6.72027 27.926 6.70273 27.9162 6.68131 27.9162C6.65987 27.9162 6.62813 27.8965 6.61076 27.8724C6.59339 27.8483 6.56382 27.8286 6.54505 27.8286C6.52628 27.8286 6.49672 27.8089 6.47935 27.7848C6.46198 27.7607 6.4344 27.741 6.41804 27.741C6.40168 27.741 6.35043 27.7015 6.30413 27.6534C6.25783 27.6052 6.20925 27.5657 6.19615 27.5657C6.16478 27.5657 5.53754 26.9381 5.53754 26.9067C5.53754 26.8934 5.50798 26.8548 5.47184 26.8211C5.4357 26.7873 5.40613 26.7461 5.40613 26.7295C5.40613 26.7129 5.38642 26.6851 5.36233 26.6677C5.33823 26.6504 5.31852 26.6208 5.31852 26.602C5.31852 26.5833 5.29881 26.5537 5.27472 26.5363C5.25062 26.519 5.23091 26.4894 5.23091 26.4706C5.23091 26.4519 5.2112 26.4223 5.18711 26.4049C5.16301 26.3875 5.1433 26.3558 5.1433 26.3344C5.1433 26.313 5.13345 26.2954 5.1214 26.2954C5.10935 26.2954 5.0995 26.2757 5.0995 26.2516C5.0995 26.2275 5.08964 26.2078 5.0776 26.2078C5.06555 26.2078 5.05569 26.1881 5.05569 26.164C5.05569 26.1399 5.04584 26.1202 5.03379 26.1202C5.02174 26.1202 5.01189 26.1005 5.01189 26.0764C5.01189 26.0523 5.00203 26.0326 4.98999 26.0326C4.97794 26.0326 4.96808 26.0129 4.96808 25.9888C4.96808 25.9647 4.95823 25.945 4.94618 25.945C4.93413 25.945 4.92428 25.9154 4.92428 25.8793C4.92428 25.8431 4.91442 25.8136 4.90238 25.8136C4.89033 25.8136 4.88047 25.7938 4.88047 25.7697C4.88047 25.7457 4.87062 25.7259 4.85857 25.7259C4.84653 25.7259 4.83667 25.6964 4.83667 25.6602C4.83667 25.6241 4.82681 25.5945 4.81477 25.5945C4.80272 25.5945 4.79286 25.565 4.79286 25.5288C4.79286 25.4927 4.78301 25.4631 4.77096 25.4631C4.75892 25.4631 4.74906 25.4335 4.74906 25.3974C4.74906 25.3613 4.7392 25.3317 4.72716 25.3317C4.71511 25.3317 4.70525 25.2923 4.70525 25.2441C4.70525 25.1959 4.6954 25.1565 4.68335 25.1565C4.67131 25.1565 4.66145 25.1072 4.66145 25.047C4.66145 24.9867 4.65159 24.9375 4.63955 24.9375C4.62704 24.9375 4.61765 24.8717 4.61765 24.7841C4.61765 24.6965 4.60825 24.6308 4.59574 24.6308C4.58181 24.6308 4.57384 24.4556 4.57384 24.149C4.57384 23.8423 4.58181 23.6671 4.59574 23.6671C4.60825 23.6671 4.61765 23.6014 4.61765 23.5138C4.61765 23.4262 4.62704 23.3605 4.63955 23.3605C4.65159 23.3605 4.66145 23.3112 4.66145 23.251C4.66145 23.1907 4.67131 23.1415 4.68335 23.1415C4.6954 23.1415 4.70525 23.102 4.70525 23.0539C4.70525 23.0057 4.71511 22.9662 4.72716 22.9662C4.7392 22.9662 4.74906 22.9367 4.74906 22.9005C4.74906 22.8644 4.75892 22.8348 4.77096 22.8348C4.78301 22.8348 4.79286 22.8053 4.79286 22.7691C4.79286 22.733 4.80272 22.7034 4.81477 22.7034C4.82681 22.7034 4.83667 22.6738 4.83667 22.6377C4.83667 22.6016 4.84653 22.572 4.85857 22.572C4.87062 22.572 4.88047 22.5523 4.88047 22.5282C4.88047 22.5041 4.89033 22.4844 4.90238 22.4844C4.91442 22.4844 4.92428 22.4548 4.92428 22.4187C4.92428 22.3825 4.93413 22.353 4.94618 22.353C4.95823 22.353 4.96808 22.3333 4.96808 22.3092C4.96808 22.2851 4.97794 22.2654 4.98999 22.2654C5.00203 22.2654 5.01189 22.2457 5.01189 22.2216C5.01189 22.1975 5.02174 22.1778 5.03379 22.1778C5.04584 22.1778 5.05569 22.158 5.05569 22.134C5.05569 22.1099 5.06555 22.0902 5.0776 22.0902C5.08964 22.0902 5.0995 22.0726 5.0995 22.0512C5.0995 22.0297 5.11921 21.998 5.1433 21.9806C5.16739 21.9633 5.18711 21.9315 5.18711 21.9101C5.18711 21.8887 5.19696 21.8711 5.20901 21.8711C5.22106 21.8711 5.23091 21.8536 5.23091 21.8322C5.23091 21.8107 5.25062 21.779 5.27472 21.7616C5.29881 21.7442 5.31852 21.7147 5.31852 21.6959C5.31852 21.6771 5.33823 21.6476 5.36233 21.6302C5.38642 21.6128 5.40613 21.585 5.40613 21.5684C5.40613 21.5519 5.4357 21.5106 5.47184 21.4769C5.50798 21.4431 5.53754 21.4046 5.53754 21.3912C5.53754 21.3599 6.16478 20.7322 6.19615 20.7322C6.20925 20.7322 6.25783 20.6928 6.30413 20.6446C6.35043 20.5964 6.40168 20.557 6.41804 20.557C6.4344 20.557 6.46198 20.5373 6.47935 20.5132C6.49672 20.4891 6.52845 20.4694 6.54989 20.4694C6.57131 20.4694 6.58886 20.4595 6.58886 20.4475C6.58886 20.4354 6.6064 20.4256 6.62782 20.4256C6.64926 20.4256 6.681 20.4059 6.69837 20.3818C6.71574 20.3577 6.74748 20.338 6.76892 20.338C6.79034 20.338 6.80788 20.3281 6.80788 20.3161C6.80788 20.304 6.82759 20.2942 6.85169 20.2942C6.87578 20.2942 6.89549 20.2843 6.89549 20.2723C6.89549 20.2602 6.9152 20.2504 6.9393 20.2504C6.96339 20.2504 6.9831 20.2405 6.9831 20.2285C6.9831 20.2164 7.00281 20.2065 7.02691 20.2065C7.051 20.2065 7.07071 20.1967 7.07071 20.1846C7.07071 20.1726 7.09042 20.1627 7.11452 20.1627C7.13861 20.1627 7.15832 20.1529 7.15832 20.1408C7.15832 20.1288 7.17803 20.1189 7.20213 20.1189C7.22622 20.1189 7.24593 20.1091 7.24593 20.097C7.24593 20.085 7.26564 20.0751 7.28973 20.0751C7.31383 20.0751 7.33354 20.0653 7.33354 20.0532C7.33354 20.0412 7.36311 20.0313 7.39925 20.0313C7.43539 20.0313 7.46495 20.0215 7.46495 20.0094C7.46495 19.9974 7.49452 19.9875 7.53066 19.9875C7.5668 19.9875 7.59637 19.9777 7.59637 19.9656C7.59637 19.9536 7.62594 19.9437 7.66207 19.9437C7.69821 19.9437 7.72778 19.9339 7.72778 19.9218C7.72778 19.9098 7.75735 19.8999 7.79349 19.8999C7.82963 19.8999 7.8592 19.8901 7.8592 19.878C7.8592 19.866 7.90848 19.8561 7.96871 19.8561C8.02894 19.8561 8.07822 19.8463 8.07822 19.8342C8.07822 19.8222 8.1275 19.8123 8.18773 19.8123C8.24796 19.8123 8.29724 19.8025 8.29724 19.7904C8.29724 19.7776 8.37024 19.7685 8.47246 19.7685C8.57468 19.7685 8.64768 19.7594 8.64768 19.7466C8.64768 19.733 8.7718 19.7247 8.97622 19.7247C9.18063 19.7247 9.30475 19.733 9.30475 19.7466ZM28.4912 24.9156C28.4912 24.9276 28.5405 24.9375 28.6007 24.9375C28.661 24.9375 28.7103 24.9473 28.7103 24.9594C28.7103 24.9714 28.7398 24.9813 28.776 24.9813C28.8121 24.9813 28.8417 24.9911 28.8417 25.0032C28.8417 25.0152 28.8712 25.0251 28.9074 25.0251C28.9435 25.0251 28.9731 25.0349 28.9731 25.047C28.9731 25.059 28.9928 25.0689 29.0169 25.0689C29.041 25.0689 29.0607 25.0787 29.0607 25.0908C29.0607 25.1028 29.0804 25.1127 29.1045 25.1127C29.1286 25.1127 29.1483 25.1225 29.1483 25.1346C29.1483 25.1466 29.168 25.1565 29.1921 25.1565C29.2162 25.1565 29.2359 25.1663 29.2359 25.1784C29.2359 25.1904 29.2535 25.2003 29.2749 25.2003C29.2963 25.2003 29.3281 25.22 29.3454 25.2441C29.3628 25.2682 29.3897 25.2879 29.4052 25.2879C29.4208 25.2879 29.5467 25.4011 29.6851 25.5395C29.8235 25.678 29.9368 25.8039 29.9368 25.8194C29.9368 25.835 29.9565 25.8619 29.9806 25.8793C30.0047 25.8966 30.0244 25.9284 30.0244 25.9498C30.0244 25.9712 30.0342 25.9888 30.0463 25.9888C30.0583 25.9888 30.0682 26.0085 30.0682 26.0326C30.0682 26.0567 30.0781 26.0764 30.0901 26.0764C30.1021 26.0764 30.112 26.0961 30.112 26.1202C30.112 26.1443 30.1219 26.164 30.1339 26.164C30.146 26.164 30.1558 26.1837 30.1558 26.2078C30.1558 26.2319 30.1657 26.2516 30.1777 26.2516C30.1898 26.2516 30.1996 26.2812 30.1996 26.3173C30.1996 26.3534 30.2095 26.383 30.2215 26.383C30.2336 26.383 30.2434 26.4126 30.2434 26.4487C30.2434 26.4849 30.2533 26.5144 30.2653 26.5144C30.2774 26.5144 30.2872 26.5637 30.2872 26.6239C30.2872 26.6842 30.2971 26.7335 30.3091 26.7335C30.3229 26.7335 30.331 26.8722 30.331 27.1058C30.331 27.3394 30.3229 27.4781 30.3091 27.4781C30.2971 27.4781 30.2872 27.5274 30.2872 27.5876C30.2872 27.6479 30.2774 27.6972 30.2653 27.6972C30.2533 27.6972 30.2434 27.7267 30.2434 27.7629C30.2434 27.799 30.2336 27.8286 30.2215 27.8286C30.2095 27.8286 30.1996 27.8483 30.1996 27.8724C30.1996 27.8965 30.1898 27.9162 30.1777 27.9162C30.1657 27.9162 30.1558 27.9457 30.1558 27.9819C30.1558 28.018 30.146 28.0476 30.1339 28.0476C30.1219 28.0476 30.112 28.0673 30.112 28.0914C30.112 28.1155 30.1021 28.1352 30.0901 28.1352C30.0781 28.1352 30.0682 28.1527 30.0682 28.1742C30.0682 28.1956 30.0485 28.2273 30.0244 28.2447C30.0003 28.2621 29.9806 28.2899 29.9806 28.3065C29.9806 28.3231 29.951 28.3643 29.9149 28.398C29.8787 28.4318 29.8492 28.4704 29.8492 28.4839C29.8492 28.5158 29.5727 28.7923 29.5408 28.7923C29.5273 28.7923 29.4887 28.8218 29.4549 28.858C29.4212 28.8941 29.38 28.9237 29.3634 28.9237C29.3468 28.9237 29.319 28.9434 29.3016 28.9675C29.2842 28.9916 29.2525 29.0113 29.2311 29.0113C29.2096 29.0113 29.1921 29.0212 29.1921 29.0332C29.1921 29.0452 29.1724 29.0551 29.1483 29.0551C29.1242 29.0551 29.1045 29.065 29.1045 29.077C29.1045 29.0891 29.0848 29.0989 29.0607 29.0989C29.0366 29.0989 29.0169 29.1088 29.0169 29.1208C29.0169 29.1329 28.9873 29.1427 28.9512 29.1427C28.915 29.1427 28.8855 29.1526 28.8855 29.1646C28.8855 29.1767 28.8559 29.1865 28.8198 29.1865C28.7836 29.1865 28.7541 29.1964 28.7541 29.2084C28.7541 29.2205 28.7245 29.2303 28.6883 29.2303C28.6522 29.2303 28.6226 29.2402 28.6226 29.2522C28.6226 29.265 28.5496 29.2741 28.4474 29.2741C28.3452 29.2741 28.2722 29.2833 28.2722 29.296C28.2722 29.3082 28.2138 29.3179 28.1408 29.3179C28.0678 29.3179 28.0094 29.3082 28.0094 29.296C28.0094 29.2835 27.9437 29.2741 27.8561 29.2741C27.7684 29.2741 27.7027 29.2647 27.7027 29.2522C27.7027 29.2402 27.6535 29.2303 27.5932 29.2303C27.533 29.2303 27.4837 29.2205 27.4837 29.2084C27.4837 29.1964 27.4542 29.1865 27.418 29.1865C27.3819 29.1865 27.3523 29.1767 27.3523 29.1646C27.3523 29.1526 27.3326 29.1427 27.3085 29.1427C27.2844 29.1427 27.2647 29.1329 27.2647 29.1208C27.2647 29.1088 27.245 29.0989 27.2209 29.0989C27.1968 29.0989 27.1771 29.0891 27.1771 29.077C27.1771 29.065 27.1574 29.0551 27.1333 29.0551C27.1092 29.0551 27.0895 29.0452 27.0895 29.0332C27.0895 29.0212 27.0698 29.0113 27.0457 29.0113C27.0216 29.0113 27.0019 29.0014 27.0019 28.9894C27.0019 28.9774 26.9861 28.9675 26.9668 28.9675C26.9476 28.9675 26.9042 28.9379 26.8705 28.9018C26.8367 28.8656 26.7981 28.8361 26.7847 28.8361C26.7529 28.8361 26.3886 28.4718 26.3886 28.44C26.3886 28.4266 26.359 28.388 26.3229 28.3542C26.2868 28.3205 26.2572 28.2771 26.2572 28.2578C26.2572 28.2386 26.2473 28.2228 26.2353 28.2228C26.2232 28.2228 26.2134 28.2031 26.2134 28.179C26.2134 28.1549 26.2035 28.1352 26.1915 28.1352C26.1794 28.1352 26.1696 28.1155 26.1696 28.0914C26.1696 28.0673 26.1597 28.0476 26.1477 28.0476C26.1356 28.0476 26.1258 28.0279 26.1258 28.0038C26.1258 27.9797 26.1159 27.96 26.1039 27.96C26.0918 27.96 26.082 27.9403 26.082 27.9162C26.082 27.8921 26.0721 27.8724 26.0601 27.8724C26.048 27.8724 26.0382 27.833 26.0382 27.7848C26.0382 27.7366 26.0283 27.6972 26.0163 27.6972C26.0042 27.6972 25.9944 27.6577 25.9944 27.6095C25.9944 27.5614 25.9845 27.5219 25.9725 27.5219C25.9597 27.5219 25.9506 27.4489 25.9506 27.3467C25.9506 27.2445 25.9414 27.1715 25.9286 27.1715C25.9166 27.1715 25.9067 27.1419 25.9067 27.1058C25.9067 27.0697 25.9166 27.0401 25.9286 27.0401C25.9416 27.0401 25.9506 26.9598 25.9506 26.843C25.9506 26.7262 25.9595 26.6458 25.9725 26.6458C25.9845 26.6458 25.9944 26.6064 25.9944 26.5582C25.9944 26.51 26.0042 26.4706 26.0163 26.4706C26.0283 26.4706 26.0382 26.4411 26.0382 26.4049C26.0382 26.3688 26.048 26.3392 26.0601 26.3392C26.0721 26.3392 26.082 26.3096 26.082 26.2735C26.082 26.2374 26.0918 26.2078 26.1039 26.2078C26.1159 26.2078 26.1258 26.1881 26.1258 26.164C26.1258 26.1399 26.1356 26.1202 26.1477 26.1202C26.1597 26.1202 26.1696 26.1026 26.1696 26.0812C26.1696 26.0598 26.1893 26.028 26.2134 26.0107C26.2375 25.9933 26.2572 25.9616 26.2572 25.9401C26.2572 25.9187 26.267 25.9012 26.2791 25.9012C26.2911 25.9012 26.301 25.8856 26.301 25.8666C26.301 25.8476 26.3404 25.7941 26.3886 25.7478C26.4368 25.7015 26.4762 25.6528 26.4762 25.6395C26.4762 25.6077 26.665 25.4193 26.6968 25.4193C26.7104 25.4193 26.7491 25.3897 26.7828 25.3536C26.8166 25.3175 26.8578 25.2879 26.8744 25.2879C26.891 25.2879 26.9188 25.2682 26.9362 25.2441C26.9535 25.22 26.9853 25.2003 27.0067 25.2003C27.0281 25.2003 27.0457 25.1904 27.0457 25.1784C27.0457 25.1663 27.0654 25.1565 27.0895 25.1565C27.1136 25.1565 27.1333 25.1466 27.1333 25.1346C27.1333 25.1225 27.153 25.1127 27.1771 25.1127C27.2012 25.1127 27.2209 25.1028 27.2209 25.0908C27.2209 25.0787 27.2406 25.0689 27.2647 25.0689C27.2888 25.0689 27.3085 25.059 27.3085 25.047C27.3085 25.0349 27.3381 25.0251 27.3742 25.0251C27.4103 25.0251 27.4399 25.0152 27.4399 25.0032C27.4399 24.9911 27.4695 24.9813 27.5056 24.9813C27.5418 24.9813 27.5713 24.9714 27.5713 24.9594C27.5713 24.9473 27.6206 24.9375 27.6808 24.9375C27.7411 24.9375 27.7903 24.9276 27.7903 24.9156C27.7903 24.9019 27.9218 24.8937 28.1408 24.8937C28.3598 24.8937 28.4912 24.9019 28.4912 24.9156Z" fill="black"/>
</svg>
