<svg width="43" height="20" viewBox="0 0 43 20" fill="none" xmlns="http://www.w3.org/2000/svg">
<path fill-rule="evenodd" clip-rule="evenodd" d="M15.9114 0.0548615C15.9114 0.0850353 15.8726 0.109723 15.8252 0.109723C15.7195 0.109723 15.5823 0.240129 15.5823 0.34058C15.5823 0.381343 15.5329 0.450248 15.4725 0.493753C15.4122 0.537258 15.3628 0.611321 15.3628 0.658338C15.3628 0.705354 15.3134 0.779417 15.2531 0.822922C15.1927 0.866427 15.1434 0.936047 15.1434 0.977632C15.1434 1.01916 15.0693 1.12241 14.9788 1.20695C14.8883 1.29149 14.8142 1.39474 14.8142 1.43627C14.8142 1.47786 14.7648 1.54748 14.7045 1.59098C14.6441 1.63449 14.5948 1.70855 14.5948 1.75557C14.5948 1.80258 14.5454 1.87665 14.485 1.92015C14.4247 1.96366 14.3753 2.03772 14.3753 2.08474C14.3753 2.13175 14.3259 2.20582 14.2656 2.24932C14.2052 2.29283 14.1559 2.36689 14.1559 2.41391C14.1559 2.46092 14.1065 2.53498 14.0461 2.57849C13.9858 2.62199 13.9364 2.69606 13.9364 2.74307C13.9364 2.79009 13.887 2.86415 13.8267 2.90766C13.7663 2.95116 13.717 3.02078 13.717 3.06237C13.717 3.1039 13.6429 3.20715 13.5524 3.29169C13.4619 3.37623 13.3878 3.47948 13.3878 3.52101C13.3878 3.56259 13.3384 3.63221 13.2781 3.67572C13.2177 3.71922 13.1684 3.79329 13.1684 3.8403C13.1684 3.88732 13.119 3.96138 13.0586 4.00489C12.9983 4.04839 12.9489 4.12246 12.9489 4.16947C12.9489 4.21649 12.8995 4.29055 12.8392 4.33406C12.7788 4.37756 12.7295 4.45162 12.7295 4.49864C12.7295 4.54566 12.6801 4.61972 12.6197 4.66323C12.5594 4.70673 12.51 4.78079 12.51 4.82781C12.51 4.87483 12.4606 4.94889 12.4003 4.99239C12.3399 5.0359 12.2906 5.10996 12.2906 5.15698C12.2906 5.204 12.2412 5.27806 12.1808 5.32156C12.1205 5.36507 12.0711 5.43469 12.0711 5.47627C12.0711 5.5178 11.9971 5.62105 11.9065 5.70559C11.816 5.79014 11.742 5.89338 11.742 5.93491C11.742 5.9765 11.6926 6.04612 11.6322 6.08962C11.5719 6.13313 11.5225 6.20719 11.5225 6.25421C11.5225 6.30122 11.4731 6.37529 11.4128 6.41879C11.3524 6.4623 11.3031 6.53636 11.3031 6.58338C11.3031 6.63039 11.2537 6.70446 11.1933 6.74796C11.133 6.79147 11.0836 6.86553 11.0836 6.91255C11.0836 6.95956 11.0342 7.03363 10.9739 7.07713C10.9135 7.12064 10.8642 7.20013 10.8642 7.25384C10.8642 7.34699 11.2424 7.35144 19.1247 7.35144C26.2107 7.35144 27.3965 7.3403 27.4637 7.27304C27.5299 7.20688 27.5421 6.67845 27.5421 3.87163C27.5421 1.69286 27.5232 0.548615 27.4872 0.548615C27.457 0.548615 27.4323 0.485798 27.4323 0.408992C27.4323 0.332186 27.3717 0.208747 27.2977 0.134684L27.163 0H21.5372C17.8232 0 15.9114 0.0186529 15.9114 0.0548615ZM20.1906 1.59098C20.1906 1.62116 20.2294 1.64584 20.2768 1.64584C20.5129 1.64584 20.5198 1.70537 20.5198 3.73058C20.5198 5.75579 20.5129 5.81532 20.2768 5.81532C20.2294 5.81532 20.1906 5.84 20.1906 5.87018C20.1906 5.906 19.2397 5.92504 17.4476 5.92504C15.6554 5.92504 14.7045 5.906 14.7045 5.87018C14.7045 5.84 14.6551 5.81532 14.5948 5.81532C14.5216 5.81532 14.485 5.77872 14.485 5.70559C14.485 5.64525 14.4603 5.59587 14.4302 5.59587C14.4 5.59587 14.3753 5.52181 14.3753 5.43129C14.3753 5.34076 14.4 5.2667 14.4302 5.2667C14.4603 5.2667 14.485 5.22726 14.485 5.17898C14.485 5.13076 14.5591 5.02207 14.6496 4.93753C14.7401 4.85299 14.8142 4.74974 14.8142 4.70821C14.8142 4.66663 14.8636 4.59701 14.9239 4.5535C14.9843 4.51 15.0336 4.43593 15.0336 4.38892C15.0336 4.3419 15.083 4.26784 15.1434 4.22433C15.2037 4.18083 15.2531 4.10677 15.2531 4.05975C15.2531 4.01273 15.3025 3.93867 15.3628 3.89516C15.4232 3.85166 15.4725 3.7776 15.4725 3.73058C15.4725 3.68356 15.5219 3.6095 15.5823 3.566C15.6426 3.52249 15.692 3.44843 15.692 3.40141C15.692 3.3544 15.7414 3.28033 15.8017 3.23683C15.8621 3.19332 15.9114 3.1237 15.9114 3.08212C15.9114 3.04059 15.9855 2.93734 16.076 2.8528C16.1665 2.76826 16.2406 2.66501 16.2406 2.62348C16.2406 2.58189 16.29 2.51227 16.3503 2.46877C16.4107 2.42526 16.46 2.3512 16.46 2.30418C16.46 2.25717 16.5094 2.1831 16.5698 2.1396C16.6301 2.09609 16.6795 2.02823 16.6795 1.98878C16.6795 1.94934 16.7597 1.83303 16.8578 1.73033L17.0361 1.54364L18.6134 1.53991C19.6308 1.53744 20.1906 1.5556 20.1906 1.59098ZM30.1343 2.60812L29.956 2.79481V5.40232V8.00978H15.1135H0.270911L0.136281 8.14446C-0.0343926 8.31508 -0.0470657 8.60881 0.111319 8.72297C0.171667 8.76648 0.221042 8.84054 0.221042 8.88756C0.221042 8.93458 0.270418 9.00864 0.330765 9.05214C0.391113 9.09565 0.440488 9.16971 0.440488 9.21673C0.440488 9.26374 0.489864 9.33781 0.550211 9.38131C0.610559 9.42482 0.659934 9.49444 0.659934 9.53602C0.659934 9.57755 0.733997 9.6808 0.824519 9.76534C0.91504 9.84988 0.989103 9.94864 0.989103 9.98479C0.989103 10.0209 1.06317 10.1197 1.15369 10.2042C1.24421 10.2888 1.31827 10.387 1.31827 10.4226C1.31827 10.4581 1.41702 10.582 1.53772 10.698C1.65841 10.814 1.75716 10.9371 1.75716 10.9716C1.75716 11.006 1.8806 11.1545 2.03147 11.3015C2.18234 11.4484 2.30578 11.5951 2.30578 11.6274C2.30578 11.7041 4.75595 14.1543 4.83264 14.1543C4.86496 14.1543 5.0116 14.2777 5.15858 14.4286C5.30555 14.5794 5.4545 14.7029 5.48961 14.7029C5.52472 14.7029 5.62265 14.7769 5.70719 14.8675C5.79173 14.958 5.89048 15.032 5.92664 15.032C5.96279 15.032 6.06154 15.1061 6.14608 15.1966C6.23063 15.2872 6.33387 15.3612 6.3754 15.3612C6.41699 15.3612 6.48661 15.4106 6.53011 15.4709C6.57362 15.5313 6.64768 15.5807 6.6947 15.5807C6.74171 15.5807 6.81578 15.63 6.85928 15.6904C6.90279 15.7507 6.97685 15.8001 7.02387 15.8001C7.07088 15.8001 7.14495 15.8495 7.18845 15.9098C7.23196 15.9702 7.30602 16.0196 7.35304 16.0196C7.40005 16.0196 7.47412 16.0689 7.51762 16.1293C7.56113 16.1896 7.64062 16.239 7.69433 16.239C7.74798 16.239 7.79193 16.2637 7.79193 16.2939C7.79193 16.324 7.8413 16.3487 7.90165 16.3487C7.962 16.3487 8.01137 16.3734 8.01137 16.4036C8.01137 16.4338 8.05532 16.4584 8.10897 16.4584C8.16268 16.4584 8.24218 16.5078 8.28568 16.5682C8.32919 16.6285 8.40868 16.6779 8.46239 16.6779C8.51605 16.6779 8.55999 16.7026 8.55999 16.7328C8.55999 16.7629 8.60936 16.7876 8.66971 16.7876C8.73006 16.7876 8.77944 16.8123 8.77944 16.8425C8.77944 16.8726 8.82881 16.8973 8.88916 16.8973C8.94951 16.8973 8.99888 16.922 8.99888 16.9522C8.99888 16.9824 9.04826 17.0071 9.1086 17.0071C9.16895 17.0071 9.21833 17.0317 9.21833 17.0619C9.21833 17.0921 9.2677 17.1168 9.32805 17.1168C9.3884 17.1168 9.43777 17.1415 9.43777 17.1716C9.43777 17.2018 9.48715 17.2265 9.5475 17.2265C9.60784 17.2265 9.65722 17.2512 9.65722 17.2814C9.65722 17.3115 9.70659 17.3362 9.76694 17.3362C9.82729 17.3362 9.87667 17.3609 9.87667 17.3911C9.87667 17.4213 9.95073 17.4459 10.0412 17.4459C10.1318 17.4459 10.2058 17.4706 10.2058 17.5008C10.2058 17.531 10.2552 17.5557 10.3156 17.5557C10.3759 17.5557 10.4253 17.5804 10.4253 17.6105C10.4253 17.6407 10.4747 17.6654 10.535 17.6654C10.5954 17.6654 10.6447 17.6901 10.6447 17.7203C10.6447 17.7504 10.7188 17.7751 10.8093 17.7751C10.8998 17.7751 10.9739 17.7998 10.9739 17.83C10.9739 17.8602 11.0233 17.8848 11.0836 17.8848C11.144 17.8848 11.1933 17.9095 11.1933 17.9397C11.1933 17.9699 11.2674 17.9946 11.3579 17.9946C11.4484 17.9946 11.5225 18.0193 11.5225 18.0494C11.5225 18.0796 11.5966 18.1043 11.6871 18.1043C11.7776 18.1043 11.8517 18.129 11.8517 18.1591C11.8517 18.1893 11.9257 18.214 12.0163 18.214C12.1068 18.214 12.1808 18.2387 12.1808 18.2689C12.1808 18.299 12.2549 18.3237 12.3454 18.3237C12.436 18.3237 12.51 18.3484 12.51 18.3786C12.51 18.4088 12.6088 18.4335 12.7295 18.4335C12.8502 18.4335 12.9489 18.4581 12.9489 18.4883C12.9489 18.5185 13.023 18.5432 13.1135 18.5432C13.204 18.5432 13.2781 18.5679 13.2781 18.598C13.2781 18.6282 13.3768 18.6529 13.4975 18.6529C13.6182 18.6529 13.717 18.6776 13.717 18.7078C13.717 18.7379 13.8157 18.7626 13.9364 18.7626C14.0571 18.7626 14.1559 18.7873 14.1559 18.8175C14.1559 18.8477 14.2793 18.8723 14.4302 18.8723C14.581 18.8723 14.7045 18.897 14.7045 18.9272C14.7045 18.9574 14.8032 18.9821 14.9239 18.9821C15.0446 18.9821 15.1434 19.0068 15.1434 19.0369C15.1434 19.0674 15.2897 19.0918 15.4725 19.0918C15.6554 19.0918 15.8017 19.1162 15.8017 19.1467C15.8017 19.1772 15.948 19.2015 16.1309 19.2015C16.3137 19.2015 16.46 19.2259 16.46 19.2564C16.46 19.2877 16.6246 19.3112 16.8441 19.3112C17.0635 19.3112 17.2281 19.3348 17.2281 19.3661C17.2281 19.3986 17.4293 19.421 17.7219 19.421C18.0144 19.421 18.2156 19.4433 18.2156 19.4758C18.2156 19.5093 18.4717 19.5307 18.874 19.5307C19.2763 19.5307 19.5323 19.552 19.5323 19.5855C19.5323 19.6204 19.9712 19.6404 20.7392 19.6404C21.5073 19.6404 21.9462 19.6604 21.9462 19.6953C21.9462 19.7307 22.5679 19.7501 23.7018 19.7501C24.8356 19.7501 25.4573 19.7307 25.4573 19.6953C25.4573 19.6599 26.0608 19.6404 27.158 19.6404C28.2553 19.6404 28.8587 19.6209 28.8587 19.5855C28.8587 19.5504 29.3708 19.5307 30.2851 19.5307C31.1995 19.5307 31.7115 19.511 31.7115 19.4758C31.7115 19.4403 32.3699 19.421 33.5768 19.421C34.7838 19.421 35.4421 19.4016 35.4421 19.3661C35.4421 19.3315 35.8183 19.3112 36.461 19.3112C37.5206 19.3112 37.6366 19.2873 37.6366 19.0683C37.6366 19.0209 37.6613 18.9821 37.6914 18.9821C37.7216 18.9821 37.7463 18.9327 37.7463 18.8723C37.7463 18.812 37.771 18.7626 37.8012 18.7626C37.8313 18.7626 37.856 18.6886 37.856 18.598C37.856 18.5075 37.8807 18.4335 37.9109 18.4335C37.9411 18.4335 37.9658 18.3841 37.9658 18.3237C37.9658 18.2634 37.9904 18.214 38.0206 18.214C38.0508 18.214 38.0755 18.1399 38.0755 18.0494C38.0755 17.9589 38.1002 17.8848 38.1303 17.8848C38.1605 17.8848 38.1852 17.8355 38.1852 17.7751C38.1852 17.7148 38.2099 17.6654 38.2401 17.6654C38.2702 17.6654 38.2949 17.616 38.2949 17.5557C38.2949 17.4953 38.3196 17.4459 38.3498 17.4459C38.38 17.4459 38.4046 17.3719 38.4046 17.2814C38.4046 17.1908 38.4293 17.1168 38.4595 17.1168C38.4897 17.1168 38.5144 17.0674 38.5144 17.0071C38.5144 16.9467 38.5391 16.8973 38.5692 16.8973C38.5994 16.8973 38.6241 16.8233 38.6241 16.7328C38.6241 16.6422 38.6488 16.5682 38.679 16.5682C38.7091 16.5682 38.7338 16.5188 38.7338 16.4584C38.7338 16.3981 38.7585 16.3487 38.7887 16.3487C38.8188 16.3487 38.8435 16.2747 38.8435 16.1841C38.8435 16.0936 38.8682 16.0196 38.8984 16.0196C38.9286 16.0196 38.9533 15.9702 38.9533 15.9098C38.9533 15.8495 38.9779 15.8001 39.0081 15.8001C39.0383 15.8001 39.063 15.7507 39.063 15.6904C39.063 15.63 39.0877 15.5807 39.1178 15.5807C39.148 15.5807 39.1727 15.5066 39.1727 15.4161C39.1727 15.3256 39.1974 15.2515 39.2276 15.2515C39.2577 15.2515 39.2824 15.2021 39.2824 15.1418C39.2824 15.0814 39.3071 15.032 39.3373 15.032C39.3675 15.032 39.3922 14.958 39.3922 14.8675C39.3922 14.7769 39.4168 14.7029 39.447 14.7029C39.4772 14.7029 39.5019 14.6535 39.5019 14.5932C39.5019 14.5328 39.5266 14.4834 39.5567 14.4834C39.5869 14.4834 39.6116 14.4094 39.6116 14.3188C39.6116 14.2283 39.6363 14.1543 39.6665 14.1543C39.6966 14.1543 39.7213 14.1049 39.7213 14.0445C39.7213 13.9842 39.746 13.9348 39.7762 13.9348C39.8064 13.9348 39.831 13.8854 39.831 13.8251C39.831 13.7647 39.8557 13.7154 39.8859 13.7154C39.9161 13.7154 39.9408 13.6413 39.9408 13.5508C39.9408 13.4603 39.9655 13.3862 39.9956 13.3862C40.0258 13.3862 40.0505 13.3368 40.0505 13.2765C40.0505 13.2161 40.0752 13.1668 40.1054 13.1668C40.1355 13.1668 40.1602 13.0927 40.1602 13.0022C40.1602 12.9116 40.1849 12.8376 40.2151 12.8376C40.2452 12.8376 40.2699 12.7882 40.2699 12.7279C40.2699 12.6675 40.2946 12.6181 40.3248 12.6181C40.355 12.6181 40.3797 12.5441 40.3797 12.4536C40.3797 12.363 40.4043 12.289 40.4345 12.289C40.4647 12.289 40.4894 12.2396 40.4894 12.1792C40.4894 12.1189 40.5141 12.0695 40.5442 12.0695C40.5744 12.0695 40.5991 12.0202 40.5991 11.9598C40.5991 11.8995 40.6238 11.8501 40.654 11.8501C40.6841 11.8501 40.7088 11.776 40.7088 11.6855C40.7088 11.595 40.7335 11.5209 40.7637 11.5209C40.7939 11.5209 40.8186 11.4715 40.8186 11.4112C40.8186 11.3508 40.8432 11.3015 40.8734 11.3015C40.9036 11.3015 40.9283 11.2274 40.9283 11.1369C40.9283 11.0464 40.953 10.9723 40.9831 10.9723C41.0133 10.9723 41.038 10.9229 41.038 10.8626C41.038 10.8022 41.0627 10.7528 41.0929 10.7528C41.123 10.7528 41.1477 10.7035 41.1477 10.6431C41.1477 10.5828 41.1724 10.5334 41.2026 10.5334C41.2328 10.5334 41.2574 10.4593 41.2574 10.3688C41.2574 10.2783 41.2821 10.2042 41.3123 10.2042C41.3425 10.2042 41.3672 10.1549 41.3672 10.0945C41.3672 10.0342 41.3918 9.98479 41.422 9.98479C41.4522 9.98479 41.4769 9.91073 41.4769 9.8202C41.4769 9.72968 41.5016 9.65562 41.5317 9.65562C41.5619 9.65562 41.5866 9.60625 41.5866 9.5459C41.5866 9.48555 41.6113 9.43617 41.6415 9.43617C41.6716 9.43617 41.6963 9.36211 41.6963 9.27159C41.6963 9.18107 41.721 9.10701 41.7512 9.10701C41.7814 9.10701 41.8061 9.05763 41.8061 8.99728C41.8061 8.93693 41.8307 8.88756 41.8609 8.88756C41.8911 8.88756 41.9158 8.83818 41.9158 8.77784C41.9158 8.71749 41.9405 8.66811 41.9706 8.66811C42.0867 8.66811 42.0278 8.28139 41.8908 8.14446L41.7562 8.00978H40.4096H39.063V7.13199V6.25421H40.3797C41.2208 6.25421 41.6963 6.2344 41.6963 6.19935C41.6963 6.16917 41.7351 6.14449 41.7825 6.14449C41.8934 6.14449 42.0255 6.01238 42.0255 5.9015C42.0255 5.8541 42.0502 5.81532 42.0804 5.81532C42.1105 5.81532 42.1352 5.69188 42.1352 5.54101C42.1352 5.39014 42.1105 5.2667 42.0804 5.2667C42.0502 5.2667 42.0255 5.22857 42.0255 5.18194C42.0255 5.07216 41.7811 4.82781 41.6714 4.82781C41.6247 4.82781 41.5866 4.80312 41.5866 4.77295C41.5866 4.73795 41.1294 4.71809 40.3248 4.71809H39.063V3.8403C39.063 3.29169 39.0424 2.96252 39.0081 2.96252C38.9779 2.96252 38.9533 2.92467 38.9533 2.87842C38.9533 2.83211 38.8677 2.70868 38.7631 2.60411C38.5879 2.42888 38.5467 2.41391 38.2401 2.41391C37.9334 2.41391 37.8922 2.42888 37.7171 2.60411L37.5269 2.79426V3.7562V4.71809H36.3748H35.2227V3.78544C35.2227 3.20023 35.2022 2.8528 35.1678 2.8528C35.1376 2.8528 35.113 2.81467 35.113 2.76804C35.113 2.7214 35.0523 2.62265 34.9783 2.54859C34.8627 2.433 34.7927 2.41391 34.4845 2.41391C34.2817 2.41391 34.1254 2.43777 34.1254 2.46877C34.1254 2.49894 34.0867 2.52363 34.0393 2.52363C33.9284 2.52363 33.7963 2.65573 33.7963 2.76661C33.7963 2.81401 33.7716 2.8528 33.7414 2.8528C33.707 2.8528 33.6866 3.20023 33.6866 3.78544V4.71809H32.5893H31.4921V3.8403C31.4921 3.29169 31.4715 2.96252 31.4372 2.96252C31.4071 2.96252 31.3824 2.92467 31.3824 2.87842C31.3824 2.83211 31.2968 2.70868 31.1922 2.60411C31.0143 2.42619 30.9797 2.41412 30.6573 2.41769C30.3389 2.42115 30.299 2.43574 30.1343 2.60812ZM33.6866 7.13199V8.00978H32.5893H31.4921V7.13199V6.25421H32.5893H33.6866V7.13199ZM37.4485 6.3326C37.5092 6.39334 37.5269 6.59067 37.5269 7.21039V8.00978H36.3748H35.2227V7.13199V6.25421H36.2964C37.1538 6.25421 37.3859 6.27001 37.4485 6.3326Z" fill="black"/>
</svg>
