<svg width="39" height="28" viewBox="0 0 39 28" fill="none" xmlns="http://www.w3.org/2000/svg">
<path fill-rule="evenodd" clip-rule="evenodd" d="M18.0611 0.527503C18.0611 0.543711 17.8895 0.553231 17.598 0.553231C17.3064 0.553231 17.1348 0.56275 17.1348 0.578959C17.1348 0.593109 17.1142 0.604687 17.0891 0.604687C17.0639 0.604687 17.0266 0.627842 17.0062 0.656143C16.9858 0.684443 16.9538 0.707599 16.935 0.707599C16.8881 0.707599 16.7747 0.825047 16.7747 0.873672C16.7747 0.895541 16.7631 0.913423 16.7489 0.913423C16.7348 0.913423 16.7232 0.936578 16.7232 0.964879C16.7232 0.993179 16.7116 1.01633 16.6975 1.01633C16.6833 1.01633 16.6717 1.05107 16.6717 1.09352C16.6717 1.13597 16.6602 1.1707 16.646 1.1707C16.6313 1.1707 16.6203 1.24789 16.6203 1.3508C16.6203 1.45371 16.6313 1.53089 16.646 1.53089C16.6602 1.53089 16.6717 1.56563 16.6717 1.60808C16.6717 1.65053 16.6833 1.68526 16.6975 1.68526C16.7116 1.68526 16.7232 1.70587 16.7232 1.73103C16.7232 1.75622 16.7464 1.7935 16.7747 1.8139C16.803 1.8343 16.8261 1.87158 16.8261 1.89677C16.8261 1.9235 16.8451 1.94254 16.8719 1.94254C16.8971 1.94254 16.9343 1.9657 16.9548 1.994C16.9752 2.0223 17.0124 2.04545 17.0376 2.04545C17.0628 2.04545 17.0834 2.05703 17.0834 2.07118C17.0834 2.08533 17.1181 2.09691 17.1606 2.09691C17.203 2.09691 17.2378 2.10849 17.2378 2.12264C17.2378 2.13962 18.1211 2.14837 19.8363 2.14837C21.5515 2.14837 22.4348 2.15711 22.4348 2.17409C22.4348 2.18824 22.4811 2.19982 22.5377 2.19982C22.5943 2.19982 22.6406 2.2114 22.6406 2.22555C22.6406 2.2397 22.6638 2.25128 22.6921 2.25128C22.7204 2.25128 22.7436 2.26286 22.7436 2.27701C22.7436 2.29116 22.7621 2.30273 22.7847 2.30273C22.8073 2.30273 22.8583 2.33747 22.8979 2.37992C22.9376 2.42237 22.9836 2.4571 23.0001 2.4571C23.041 2.4571 23.1037 2.52266 23.1037 2.56537C23.1037 2.58448 23.1269 2.6168 23.1552 2.6372C23.1835 2.6576 23.2067 2.69488 23.2067 2.72007C23.2067 2.74523 23.2182 2.76584 23.2324 2.76584C23.2465 2.76584 23.2581 2.78645 23.2581 2.81161C23.2581 2.8368 23.2813 2.87408 23.3096 2.89448C23.3398 2.91627 23.361 2.96109 23.361 3.00308C23.361 3.04239 23.3726 3.07457 23.3868 3.07457C23.4009 3.07457 23.4125 3.09773 23.4125 3.12603C23.4125 3.15433 23.4241 3.17749 23.4382 3.17749C23.4524 3.17749 23.4639 3.20064 23.4639 3.22894C23.4639 3.25724 23.4755 3.2804 23.4897 3.2804C23.5038 3.2804 23.5154 3.30355 23.5154 3.33185C23.5154 3.36016 23.527 3.38331 23.5411 3.38331C23.5553 3.38331 23.5668 3.40647 23.5668 3.43477C23.5668 3.46307 23.5784 3.48622 23.5926 3.48622C23.6067 3.48622 23.6183 3.50938 23.6183 3.53768C23.6183 3.56598 23.6299 3.58913 23.644 3.58913C23.6582 3.58913 23.6698 3.60974 23.6698 3.6349C23.6698 3.66009 23.6929 3.69737 23.7212 3.71777C23.7514 3.73957 23.7727 3.78438 23.7727 3.82637C23.7727 3.86568 23.7843 3.89787 23.7984 3.89787C23.8126 3.89787 23.8241 3.92103 23.8241 3.94933C23.8241 3.97763 23.8357 4.00078 23.8499 4.00078C23.864 4.00078 23.8756 4.02394 23.8756 4.05224C23.8756 4.08054 23.8872 4.10369 23.9013 4.10369C23.9155 4.10369 23.927 4.12685 23.927 4.15515C23.927 4.18345 23.9386 4.20661 23.9528 4.20661C23.9669 4.20661 23.9785 4.22976 23.9785 4.25806C23.9785 4.28636 23.9901 4.30952 24.0042 4.30952C24.0184 4.30952 24.03 4.33267 24.03 4.36097C24.03 4.38927 24.0415 4.41243 24.0557 4.41243C24.0698 4.41243 24.0814 4.43304 24.0814 4.4582C24.0814 4.48339 24.1046 4.52067 24.1329 4.54107C24.1631 4.56286 24.1843 4.60768 24.1843 4.64967C24.1843 4.68898 24.1959 4.72117 24.21 4.72117C24.2242 4.72117 24.2358 4.74432 24.2358 4.77262C24.2358 4.80092 24.2474 4.82408 24.2615 4.82408C24.2757 4.82408 24.2872 4.84723 24.2872 4.87553C24.2872 4.90383 24.2988 4.92699 24.313 4.92699C24.3271 4.92699 24.3387 4.95015 24.3387 4.97845C24.3387 5.00675 24.3503 5.0299 24.3644 5.0299C24.3786 5.0299 24.3901 5.05306 24.3901 5.08136C24.3901 5.10966 24.4017 5.13281 24.4159 5.13281C24.43 5.13281 24.4416 5.15597 24.4416 5.18427C24.4416 5.21257 24.4532 5.23573 24.4673 5.23573C24.4815 5.23573 24.4931 5.25361 24.4931 5.27548C24.4931 5.32696 24.6076 5.44155 24.6591 5.44155C24.681 5.44155 24.6989 5.45313 24.6989 5.46728C24.6989 5.48143 24.7336 5.49301 24.7761 5.49301C24.8185 5.49301 24.8532 5.50458 24.8532 5.51873C24.8532 5.53288 24.888 5.54446 24.9304 5.54446C24.9729 5.54446 25.0076 5.55604 25.0076 5.57019C25.0076 5.58434 25.0423 5.59592 25.0848 5.59592C25.1273 5.59592 25.162 5.6075 25.162 5.62165C25.162 5.6358 25.1967 5.64737 25.2392 5.64737C25.2816 5.64737 25.3164 5.65895 25.3164 5.6731C25.3164 5.68725 25.3511 5.69883 25.3935 5.69883C25.436 5.69883 25.4707 5.71041 25.4707 5.72456C25.4707 5.73871 25.517 5.75029 25.5736 5.75029C25.6302 5.75029 25.6765 5.76186 25.6765 5.77601C25.6765 5.79016 25.7113 5.80174 25.7537 5.80174C25.7962 5.80174 25.8309 5.81332 25.8309 5.82747C25.8309 5.84162 25.8772 5.8532 25.9338 5.8532C25.9904 5.8532 26.0367 5.86478 26.0367 5.87893C26.0367 5.89308 26.0715 5.90465 26.1139 5.90465C26.1564 5.90465 26.1911 5.91623 26.1911 5.93038C26.1911 5.94453 26.2258 5.95611 26.2683 5.95611C26.3107 5.95611 26.3455 5.96769 26.3455 5.98184C26.3455 5.99599 26.3802 6.00757 26.4227 6.00757C26.4651 6.00757 26.4998 6.01914 26.4998 6.03329C26.4998 6.04744 26.5346 6.05902 26.577 6.05902C26.6195 6.05902 26.6542 6.0706 26.6542 6.08475C26.6542 6.0989 26.6658 6.11048 26.6799 6.11048C26.6941 6.11048 26.7057 6.08732 26.7057 6.05902C26.7057 6.03072 26.6941 6.00757 26.6799 6.00757C26.6658 6.00757 26.6542 5.98441 26.6542 5.95611C26.6542 5.92781 26.6426 5.90465 26.6285 5.90465C26.6143 5.90465 26.6028 5.8815 26.6028 5.8532C26.6028 5.8249 26.5912 5.80174 26.577 5.80174C26.5629 5.80174 26.5513 5.77859 26.5513 5.75029C26.5513 5.72198 26.5397 5.69883 26.5256 5.69883C26.5114 5.69883 26.4998 5.67567 26.4998 5.64737C26.4998 5.61907 26.4883 5.59592 26.4741 5.59592C26.46 5.59592 26.4484 5.57276 26.4484 5.54446C26.4484 5.51616 26.4368 5.49301 26.4227 5.49301C26.4085 5.49301 26.3969 5.46985 26.3969 5.44155C26.3969 5.41325 26.3854 5.39009 26.3712 5.39009C26.357 5.39009 26.3455 5.36694 26.3455 5.33864C26.3455 5.31034 26.3339 5.28718 26.3197 5.28718C26.3056 5.28718 26.294 5.26403 26.294 5.23573C26.294 5.20743 26.2824 5.18427 26.2683 5.18427C26.2541 5.18427 26.2426 5.16111 26.2426 5.13281C26.2426 5.10451 26.231 5.08136 26.2168 5.08136C26.2027 5.08136 26.1911 5.0582 26.1911 5.0299C26.1911 5.0016 26.1795 4.97845 26.1654 4.97845C26.1512 4.97845 26.1396 4.95529 26.1396 4.92699C26.1396 4.89869 26.1281 4.87553 26.1139 4.87553C26.0998 4.87553 26.0882 4.85238 26.0882 4.82408C26.0882 4.79578 26.0766 4.77262 26.0625 4.77262C26.0483 4.77262 26.0367 4.74947 26.0367 4.72117C26.0367 4.69286 26.0252 4.66971 26.011 4.66971C25.9969 4.66971 25.9853 4.64655 25.9853 4.61825C25.9853 4.58995 25.9737 4.5668 25.9596 4.5668C25.9454 4.5668 25.9338 4.54364 25.9338 4.51534C25.9338 4.48704 25.9222 4.46389 25.9081 4.46389C25.8939 4.46389 25.8824 4.44073 25.8824 4.41243C25.8824 4.38413 25.8708 4.36097 25.8566 4.36097C25.8425 4.36097 25.8309 4.33782 25.8309 4.30952C25.8309 4.28122 25.8193 4.25806 25.8052 4.25806C25.791 4.25806 25.7795 4.23491 25.7795 4.20661C25.7795 4.17831 25.7679 4.15515 25.7537 4.15515C25.7396 4.15515 25.728 4.13199 25.728 4.10369C25.728 4.07539 25.7164 4.05224 25.7023 4.05224C25.6881 4.05224 25.6765 4.02908 25.6765 4.00078C25.6765 3.97248 25.665 3.94933 25.6508 3.94933C25.6367 3.94933 25.6251 3.92617 25.6251 3.89787C25.6251 3.86957 25.6135 3.84641 25.5994 3.84641C25.5852 3.84641 25.5736 3.82326 25.5736 3.79496C25.5736 3.76666 25.5621 3.7435 25.5479 3.7435C25.5338 3.7435 25.5222 3.72035 25.5222 3.69205C25.5222 3.66375 25.5106 3.64059 25.4964 3.64059C25.4823 3.64059 25.4707 3.61743 25.4707 3.58913C25.4707 3.56083 25.4591 3.53768 25.445 3.53768C25.4308 3.53768 25.4193 3.51452 25.4193 3.48622C25.4193 3.45792 25.4077 3.43477 25.3935 3.43477C25.3794 3.43477 25.3678 3.41161 25.3678 3.38331C25.3678 3.35501 25.3562 3.33185 25.3421 3.33185C25.3279 3.33185 25.3164 3.3087 25.3164 3.2804C25.3164 3.2521 25.3048 3.22894 25.2906 3.22894C25.2765 3.22894 25.2649 3.20579 25.2649 3.17749C25.2649 3.14919 25.2533 3.12603 25.2392 3.12603C25.225 3.12603 25.2134 3.10287 25.2134 3.07457C25.2134 3.04627 25.2019 3.02312 25.1877 3.02312C25.1736 3.02312 25.162 2.99996 25.162 2.97166C25.162 2.94336 25.1504 2.92021 25.1363 2.92021C25.1221 2.92021 25.1105 2.89705 25.1105 2.86875C25.1105 2.84045 25.099 2.81729 25.0848 2.81729C25.0707 2.81729 25.0591 2.79414 25.0591 2.76584C25.0591 2.73754 25.0475 2.71438 25.0333 2.71438C25.0192 2.71438 25.0076 2.69123 25.0076 2.66293C25.0076 2.63463 24.996 2.61147 24.9819 2.61147C24.9677 2.61147 24.9562 2.58832 24.9562 2.56001C24.9562 2.53171 24.9446 2.50856 24.9304 2.50856C24.9163 2.50856 24.9047 2.4854 24.9047 2.4571C24.9047 2.4288 24.8931 2.40565 24.879 2.40565C24.8648 2.40565 24.8532 2.38249 24.8532 2.35419C24.8532 2.32589 24.8417 2.30273 24.8275 2.30273C24.8134 2.30273 24.8018 2.27958 24.8018 2.25128C24.8018 2.22298 24.7902 2.19982 24.7761 2.19982C24.7619 2.19982 24.7503 2.17667 24.7503 2.14837C24.7503 2.12007 24.7388 2.09691 24.7246 2.09691C24.7105 2.09691 24.6989 2.07376 24.6989 2.04545C24.6989 2.01715 24.6873 1.994 24.6732 1.994C24.659 1.994 24.6474 1.97084 24.6474 1.94254C24.6474 1.91424 24.6358 1.89109 24.6217 1.89109C24.6075 1.89109 24.596 1.87048 24.596 1.84532C24.596 1.82013 24.5728 1.78285 24.5445 1.76245C24.5162 1.74204 24.4931 1.70965 24.4931 1.69043C24.4931 1.67121 24.4467 1.61101 24.3901 1.55662C24.3335 1.50223 24.2872 1.44489 24.2872 1.42914C24.2872 1.39194 24.1175 1.22216 24.0802 1.22216C24.0645 1.22216 24.0072 1.17585 23.9528 1.11925C23.8984 1.06264 23.8382 1.01633 23.819 1.01633C23.7997 1.01633 23.7673 0.993179 23.7469 0.964879C23.7265 0.936578 23.6893 0.913423 23.6641 0.913423C23.6389 0.913423 23.6183 0.901845 23.6183 0.887695C23.6183 0.873544 23.5951 0.861967 23.5668 0.861967C23.5385 0.861967 23.5154 0.850389 23.5154 0.836239C23.5154 0.822088 23.4922 0.810511 23.4639 0.810511C23.4356 0.810511 23.4125 0.798933 23.4125 0.784783C23.4125 0.770632 23.3893 0.759055 23.361 0.759055C23.3327 0.759055 23.3096 0.747477 23.3096 0.733327C23.3096 0.719176 23.2748 0.707599 23.2324 0.707599C23.1899 0.707599 23.1552 0.696021 23.1552 0.681871C23.1552 0.66772 23.1205 0.656143 23.078 0.656143C23.0356 0.656143 23.0008 0.644565 23.0008 0.630415C23.0008 0.616264 22.9545 0.604687 22.8979 0.604687C22.8413 0.604687 22.795 0.593109 22.795 0.578959C22.795 0.562338 22.4948 0.553231 21.946 0.553231C21.3971 0.553231 21.097 0.544123 21.097 0.527503C21.097 0.487032 20.2819 0.49331 20.2629 0.533935C20.2509 0.559663 20.2449 0.559663 20.2329 0.533935C20.2151 0.49578 20.1193 0.490377 20.1193 0.527503C20.1193 0.54384 19.922 0.553231 19.579 0.553231C19.236 0.553231 19.0387 0.54384 19.0387 0.527503C19.0387 0.487032 18.2237 0.49331 18.2047 0.533935C18.1927 0.559663 18.1867 0.559663 18.1747 0.533935C18.1569 0.49578 18.0611 0.490377 18.0611 0.527503ZM29.4328 2.48283C29.4328 2.49698 29.3749 2.50856 29.3042 2.50856C29.2334 2.50856 29.1756 2.52014 29.1756 2.53429C29.1756 2.54844 29.1408 2.56001 29.0984 2.56001C29.0559 2.56001 29.0212 2.57159 29.0212 2.58574C29.0212 2.59989 28.998 2.61147 28.9697 2.61147C28.9414 2.61147 28.9183 2.62305 28.9183 2.6372C28.9183 2.65135 28.8951 2.66293 28.8668 2.66293C28.8385 2.66293 28.8154 2.6745 28.8154 2.68865C28.8154 2.7028 28.7948 2.71438 28.7696 2.71438C28.7444 2.71438 28.7071 2.73754 28.6867 2.76584C28.6663 2.79414 28.629 2.81729 28.6039 2.81729C28.5787 2.81729 28.5581 2.82887 28.5581 2.84302C28.5581 2.85717 28.5406 2.86875 28.5192 2.86875C28.4719 2.86875 27.9406 3.39486 27.9406 3.44166C27.9406 3.45993 27.9175 3.49155 27.8892 3.51195C27.8609 3.53235 27.8377 3.56963 27.8377 3.59482C27.8377 3.61998 27.8261 3.64059 27.812 3.64059C27.7978 3.64059 27.7862 3.66375 27.7862 3.69205C27.7862 3.72035 27.7747 3.7435 27.7605 3.7435C27.7464 3.7435 27.7348 3.76666 27.7348 3.79496C27.7348 3.82326 27.7232 3.84641 27.7091 3.84641C27.6949 3.84641 27.6833 3.86957 27.6833 3.89787C27.6833 3.92617 27.6718 3.94933 27.6576 3.94933C27.6434 3.94933 27.6319 3.98406 27.6319 4.02651C27.6319 4.06896 27.6203 4.10369 27.6061 4.10369C27.592 4.10369 27.5804 4.16158 27.5804 4.23233C27.5804 4.30309 27.5688 4.36097 27.5547 4.36097C27.5385 4.36097 27.529 4.5325 27.529 4.82408C27.529 5.11565 27.5385 5.28718 27.5547 5.28718C27.5688 5.28718 27.5804 5.33349 27.5804 5.39009C27.5804 5.4467 27.592 5.49301 27.6061 5.49301C27.6203 5.49301 27.6319 5.52774 27.6319 5.57019C27.6319 5.61264 27.6434 5.64737 27.6576 5.64737C27.6718 5.64737 27.6833 5.68211 27.6833 5.72456C27.6833 5.76701 27.6949 5.80174 27.7091 5.80174C27.7232 5.80174 27.7348 5.82235 27.7348 5.84751C27.7348 5.8727 27.7579 5.90998 27.7862 5.93038C27.8145 5.95078 27.8377 5.98806 27.8377 6.01325C27.8377 6.03841 27.8493 6.05902 27.8634 6.05902C27.8776 6.05902 27.8892 6.07752 27.8892 6.10016C27.8892 6.12278 27.9239 6.17374 27.9663 6.21339C28.0088 6.25304 28.0435 6.29842 28.0435 6.31424C28.0435 6.3517 28.3683 6.67649 28.4058 6.67649C28.4216 6.67649 28.467 6.71123 28.5066 6.75368C28.5463 6.79613 28.5972 6.83086 28.6199 6.83086C28.6425 6.83086 28.661 6.84244 28.661 6.85659C28.661 6.87074 28.6841 6.88232 28.7124 6.88232C28.7407 6.88232 28.7639 6.8939 28.7639 6.90805C28.7639 6.9222 28.7871 6.93377 28.8154 6.93377C28.8437 6.93377 28.8668 6.94535 28.8668 6.9595C28.8668 6.97365 28.89 6.98523 28.9183 6.98523C28.9466 6.98523 28.9697 6.99681 28.9697 7.01096C28.9697 7.02511 29.0045 7.03669 29.0469 7.03669C29.0894 7.03669 29.1241 7.04826 29.1241 7.06241C29.1241 7.07656 29.1588 7.08814 29.2013 7.08814C29.2437 7.08814 29.2785 7.09972 29.2785 7.11387C29.2785 7.12802 29.3364 7.1396 29.4071 7.1396C29.4779 7.1396 29.5357 7.15118 29.5357 7.16533C29.5357 7.18133 29.6815 7.19105 29.9217 7.19105H30.3076V4.82408V2.4571H29.8702C29.5958 2.4571 29.4328 2.4667 29.4328 2.48283ZM24.4738 6.97339C24.4278 7.02156 24.3901 7.0761 24.3901 7.0946C24.3901 7.1131 24.367 7.14492 24.3387 7.16533C24.3104 7.18573 24.2872 7.21838 24.2872 7.23788C24.2872 7.25736 24.2525 7.30578 24.21 7.34542C24.1676 7.38507 24.1329 7.43349 24.1329 7.45296C24.1329 7.47247 24.1097 7.50512 24.0814 7.52552C24.0531 7.54592 24.03 7.58065 24.03 7.6027C24.03 7.62475 24.0068 7.65948 23.9785 7.67989C23.9502 7.70029 23.927 7.73502 23.927 7.75707C23.927 7.77912 23.9039 7.81385 23.8756 7.83425C23.8473 7.85466 23.8241 7.88939 23.8241 7.91144C23.8241 7.93349 23.801 7.96822 23.7727 7.98862C23.7444 8.00902 23.7212 8.04167 23.7212 8.06117C23.7212 8.08065 23.6865 8.12907 23.644 8.16872C23.6016 8.20836 23.5668 8.25678 23.5668 8.27626C23.5668 8.29576 23.5437 8.32841 23.5154 8.34881C23.4871 8.36922 23.4639 8.40395 23.4639 8.426C23.4639 8.44805 23.4408 8.48278 23.4125 8.50318C23.3842 8.52358 23.361 8.55623 23.361 8.57574C23.361 8.59521 23.3263 8.64363 23.2838 8.68328C23.2414 8.72292 23.2067 8.77134 23.2067 8.79082C23.2067 8.81032 23.1835 8.84297 23.1552 8.86337C23.1269 8.88378 23.1037 8.91851 23.1037 8.94056C23.1037 8.96261 23.0806 8.99734 23.0523 9.01774C23.024 9.03814 23.0008 9.07288 23.0008 9.09493C23.0008 9.11697 22.9777 9.15171 22.9494 9.17211C22.9211 9.19251 22.8979 9.22516 22.8979 9.24466C22.8979 9.26414 22.8632 9.31256 22.8207 9.35221C22.7783 9.39185 22.7436 9.44027 22.7436 9.45975C22.7436 9.47925 22.7204 9.5119 22.6921 9.5323C22.6638 9.5527 22.6406 9.58744 22.6406 9.60949C22.6406 9.63153 22.6175 9.66627 22.5892 9.68667C22.5609 9.70707 22.5377 9.74181 22.5377 9.76385C22.5377 9.7859 22.5146 9.82063 22.4863 9.84104C22.458 9.86144 22.4348 9.89409 22.4348 9.91359C22.4348 9.93307 22.4001 9.98149 22.3576 10.0211C22.3152 10.0608 22.2804 10.1092 22.2804 10.1287C22.2804 10.1482 22.2573 10.1808 22.229 10.2012C22.2007 10.2216 22.1775 10.2564 22.1775 10.2784C22.1775 10.3005 22.1544 10.3352 22.1261 10.3556C22.0978 10.376 22.0746 10.4107 22.0746 10.4328C22.0746 10.4548 22.0515 10.4896 22.0232 10.51C21.9949 10.5304 21.9717 10.5651 21.9717 10.5871C21.9717 10.6092 21.9486 10.6439 21.9203 10.6643C21.892 10.6847 21.8688 10.7174 21.8688 10.7369C21.8688 10.7564 21.8341 10.8048 21.7916 10.8444C21.7492 10.8841 21.7144 10.9325 21.7144 10.952C21.7144 10.9715 21.6913 11.0041 21.663 11.0245C21.6347 11.0449 21.6115 11.0797 21.6115 11.1017C21.6115 11.1238 21.5884 11.1585 21.5601 11.1789C21.5318 11.1993 21.5086 11.2319 21.5086 11.2514C21.5086 11.2709 21.4739 11.3193 21.4314 11.359C21.389 11.3986 21.3542 11.4447 21.3542 11.4614C21.3542 11.478 21.3079 11.5362 21.2513 11.5905C21.1947 11.6449 21.1484 11.7024 21.1484 11.7183C21.1484 11.7561 21.0306 11.8735 20.9927 11.8735C20.9765 11.8735 20.9308 11.9083 20.8911 11.9507C20.8515 11.9932 20.8005 12.0279 20.7779 12.0279C20.7553 12.0279 20.7368 12.0395 20.7368 12.0536C20.7368 12.0678 20.7136 12.0794 20.6853 12.0794C20.657 12.0794 20.6339 12.091 20.6339 12.1051C20.6339 12.1193 20.6107 12.1308 20.5824 12.1308C20.5541 12.1308 20.5309 12.1424 20.5309 12.1566C20.5309 12.1707 20.4962 12.1823 20.4538 12.1823C20.4113 12.1823 20.3766 12.1939 20.3766 12.208C20.3766 12.2222 20.3303 12.2337 20.2737 12.2337C20.2171 12.2337 20.1708 12.2453 20.1708 12.2595C20.1708 12.2753 20.0421 12.2852 19.8363 12.2852C19.6305 12.2852 19.5018 12.2753 19.5018 12.2595C19.5018 12.2453 19.4439 12.2337 19.3732 12.2337C19.3024 12.2337 19.2445 12.2222 19.2445 12.208C19.2445 12.1939 19.2098 12.1823 19.1674 12.1823C19.1249 12.1823 19.0902 12.1707 19.0902 12.1566C19.0902 12.1424 19.0554 12.1308 19.013 12.1308C18.9705 12.1308 18.9358 12.1193 18.9358 12.1051C18.9358 12.091 18.9011 12.0794 18.8586 12.0794C18.8162 12.0794 18.7814 12.0678 18.7814 12.0536C18.7814 12.0395 18.7351 12.0279 18.6785 12.0279C18.6219 12.0279 18.5756 12.0163 18.5756 12.0022C18.5756 11.988 18.5409 11.9765 18.4984 11.9765C18.456 11.9765 18.4212 11.9649 18.4212 11.9507C18.4212 11.9366 18.3865 11.925 18.3441 11.925C18.3016 11.925 18.2669 11.9134 18.2669 11.8993C18.2669 11.8851 18.2321 11.8735 18.1897 11.8735C18.1472 11.8735 18.1125 11.862 18.1125 11.8478C18.1125 11.8337 18.0778 11.8221 18.0353 11.8221C17.9929 11.8221 17.9581 11.8105 17.9581 11.7964C17.9581 11.7822 17.9234 11.7706 17.881 11.7706C17.8385 11.7706 17.8038 11.7591 17.8038 11.7449C17.8038 11.7308 17.7575 11.7192 17.7009 11.7192C17.6443 11.7192 17.598 11.7076 17.598 11.6935C17.598 11.6793 17.5632 11.6677 17.5208 11.6677C17.4783 11.6677 17.4436 11.6561 17.4436 11.642C17.4436 11.6278 17.4089 11.6163 17.3664 11.6163C17.3239 11.6163 17.2892 11.6047 17.2892 11.5905C17.2892 11.5764 17.2545 11.5648 17.212 11.5648C17.1696 11.5648 17.1348 11.5532 17.1348 11.5391C17.1348 11.5249 17.0885 11.5134 17.0319 11.5134C16.9753 11.5134 16.929 11.5018 16.929 11.4876C16.929 11.4735 16.8943 11.4619 16.8518 11.4619C16.8094 11.4619 16.7747 11.4503 16.7747 11.4362C16.7747 11.422 16.7399 11.4104 16.6975 11.4104C16.655 11.4104 16.6203 11.3989 16.6203 11.3847C16.6203 11.3706 16.5856 11.359 16.5431 11.359C16.5007 11.359 16.4659 11.3474 16.4659 11.3333C16.4659 11.3191 16.4196 11.3075 16.363 11.3075C16.3064 11.3075 16.2601 11.296 16.2601 11.2818C16.2601 11.2677 16.2254 11.2561 16.1829 11.2561C16.1405 11.2561 16.1057 11.2445 16.1057 11.2303C16.1057 11.2162 16.071 11.2046 16.0285 11.2046C15.9861 11.2046 15.9514 11.193 15.9514 11.1789C15.9514 11.1647 15.9166 11.1532 15.8742 11.1532C15.8317 11.1532 15.797 11.1416 15.797 11.1274C15.797 11.1133 15.7623 11.1017 15.7198 11.1017C15.6774 11.1017 15.6426 11.0901 15.6426 11.076C15.6426 11.0618 15.6079 11.0503 15.5654 11.0503C15.523 11.0503 15.4883 11.0387 15.4883 11.0245C15.4883 11.0104 15.4419 10.9988 15.3853 10.9988C15.3287 10.9988 15.2824 10.9872 15.2824 10.9731C15.2824 10.9589 15.2477 10.9473 15.2052 10.9473C15.1628 10.9473 15.1281 10.9358 15.1281 10.9216C15.1281 10.9075 15.0818 10.8959 15.0252 10.8959C14.9686 10.8959 14.9222 10.8843 14.9222 10.8702C14.9222 10.856 14.8875 10.8444 14.8451 10.8444C14.8026 10.8444 14.7679 10.8329 14.7679 10.8187C14.7679 10.8046 14.7331 10.793 14.6907 10.793C14.6482 10.793 14.6135 10.7814 14.6135 10.7672C14.6135 10.7531 14.5788 10.7415 14.5363 10.7415C14.4939 10.7415 14.4591 10.7299 14.4591 10.7158C14.4591 10.7016 14.4244 10.6901 14.382 10.6901C14.3395 10.6901 14.3048 10.6785 14.3048 10.6643C14.3048 10.6502 14.27 10.6386 14.2276 10.6386C14.1851 10.6386 14.1504 10.627 14.1504 10.6129C14.1504 10.5987 14.1041 10.5871 14.0475 10.5871C13.9909 10.5871 13.9446 10.5756 13.9446 10.5614C13.9446 10.5473 13.9098 10.5357 13.8674 10.5357C13.8249 10.5357 13.7902 10.5241 13.7902 10.51C13.7902 10.4958 13.7555 10.4842 13.713 10.4842C13.6706 10.4842 13.6358 10.4727 13.6358 10.4585C13.6358 10.4444 13.6011 10.4328 13.5587 10.4328C13.5162 10.4328 13.4815 10.4212 13.4815 10.4071C13.4815 10.3929 13.4467 10.3813 13.4043 10.3813C13.3618 10.3813 13.3271 10.3697 13.3271 10.3556C13.3271 10.3414 13.2808 10.3299 13.2242 10.3299C13.1676 10.3299 13.1213 10.3183 13.1213 10.3041C13.1213 10.29 13.0865 10.2784 13.0441 10.2784C13.0016 10.2784 12.9669 10.2668 12.9669 10.2527C12.9669 10.2385 12.9322 10.227 12.8897 10.227C12.8473 10.227 12.8125 10.2154 12.8125 10.2012C12.8125 10.1871 12.7662 10.1755 12.7096 10.1755C12.653 10.1755 12.6067 10.1639 12.6067 10.1498C12.6067 10.1356 12.572 10.124 12.5295 10.124C12.4871 10.124 12.4524 10.1125 12.4524 10.0983C12.4524 10.0842 12.4176 10.0726 12.3752 10.0726C12.3327 10.0726 12.298 10.061 12.298 10.0469C12.298 10.0327 12.2633 10.0211 12.2208 10.0211C12.1783 10.0211 12.1436 10.0096 12.1436 9.99541C12.1436 9.98126 12.1089 9.96968 12.0664 9.96968C12.024 9.96968 11.9892 9.9581 11.9892 9.94395C11.9892 9.9298 11.9545 9.91822 11.9121 9.91822C11.8696 9.91822 11.8349 9.90664 11.8349 9.89249C11.8349 9.87834 11.7886 9.86677 11.732 9.86677C11.6754 9.86677 11.6291 9.85519 11.6291 9.84104C11.6291 9.82689 11.5943 9.81531 11.5519 9.81531C11.5094 9.81531 11.4747 9.80373 11.4747 9.78958C11.4747 9.77543 11.44 9.76385 11.3975 9.76385C11.3551 9.76385 11.3203 9.75228 11.3203 9.73813C11.3203 9.72398 11.2856 9.7124 11.2431 9.7124C11.2007 9.7124 11.166 9.70082 11.166 9.68667C11.166 9.67252 11.1312 9.66094 11.0888 9.66094C11.0463 9.66094 11.0116 9.64936 11.0116 9.63521C11.0116 9.62106 10.9653 9.60949 10.9087 9.60949C10.8521 9.60949 10.8058 9.59791 10.8058 9.58376C10.8058 9.56961 10.771 9.55803 10.7286 9.55803C10.6861 9.55803 10.6514 9.54645 10.6514 9.5323C10.6514 9.51815 10.6167 9.50657 10.5742 9.50657C10.5318 9.50657 10.497 9.495 10.497 9.48085C10.497 9.46669 10.4507 9.45512 10.3941 9.45512C10.3375 9.45512 10.2912 9.44354 10.2912 9.42939C10.2912 9.41524 10.2565 9.40366 10.214 9.40366C10.1716 9.40366 10.1368 9.39208 10.1368 9.37793C10.1368 9.36378 10.1021 9.35221 10.0596 9.35221C10.0172 9.35221 9.98246 9.34063 9.98246 9.32648C9.98246 9.31233 9.94773 9.30075 9.90528 9.30075C9.86283 9.30075 9.8281 9.28917 9.8281 9.27502C9.8281 9.26087 9.79336 9.24929 9.75091 9.24929C9.70846 9.24929 9.67373 9.23772 9.67373 9.22357C9.67373 9.20942 9.62742 9.19784 9.57082 9.19784C9.51421 9.19784 9.4679 9.18626 9.4679 9.17211C9.4679 9.15796 9.43317 9.14638 9.39072 9.14638C9.34827 9.14638 9.31354 9.1348 9.31354 9.12065C9.31354 9.1065 9.2788 9.09493 9.23635 9.09493C9.1939 9.09493 9.15917 9.08335 9.15917 9.0692C9.15917 9.05505 9.12444 9.04347 9.08198 9.04347C9.03953 9.04347 9.0048 9.03189 9.0048 9.01774C9.0048 9.00359 8.97007 8.99201 8.92762 8.99201C8.88517 8.99201 8.85043 8.98044 8.85043 8.96629C8.85043 8.95214 8.80412 8.94056 8.74752 8.94056C8.69092 8.94056 8.64461 8.92898 8.64461 8.91483C8.64461 8.90068 8.60988 8.8891 8.56742 8.8891C8.52497 8.8891 8.49024 8.87752 8.49024 8.86337C8.49024 8.84922 8.45551 8.83765 8.41306 8.83765C8.3706 8.83765 8.33587 8.82607 8.33587 8.81192C8.33587 8.79777 8.30114 8.78619 8.25869 8.78619C8.21624 8.78619 8.1815 8.77461 8.1815 8.76046C8.1815 8.74631 8.13519 8.73473 8.07859 8.73473C8.02199 8.73473 7.97568 8.72316 7.97568 8.70901C7.97568 8.69486 7.94095 8.68328 7.8985 8.68328C7.85604 8.68328 7.82131 8.6717 7.82131 8.65755C7.82131 8.6434 7.78658 8.63182 7.74413 8.63182C7.70168 8.63182 7.66694 8.62024 7.66694 8.60609C7.66694 8.59194 7.62063 8.58037 7.56403 8.58037C7.50743 8.58037 7.46112 8.56879 7.46112 8.55464C7.46112 8.54049 7.43796 8.52891 7.40966 8.52891C7.38136 8.52891 7.35821 8.51733 7.35821 8.50318C7.35821 8.48903 7.3119 8.47745 7.2553 8.47745C7.19869 8.47745 7.15238 8.46588 7.15238 8.45173C7.15238 8.43758 7.11765 8.426 7.0752 8.426C7.03275 8.426 6.99802 8.41442 6.99802 8.40027C6.99802 8.38612 6.95171 8.37454 6.8951 8.37454C6.8385 8.37454 6.79219 8.36296 6.79219 8.34881C6.79219 8.33466 6.75746 8.32309 6.71501 8.32309C6.67256 8.32309 6.63782 8.31151 6.63782 8.29736C6.63782 8.28321 6.60309 8.27163 6.56064 8.27163C6.51819 8.27163 6.48346 8.26005 6.48346 8.2459C6.48346 8.23175 6.44872 8.22017 6.40627 8.22017C6.36382 8.22017 6.32909 8.2086 6.32909 8.19445C6.32909 8.1803 6.29436 8.16872 6.2519 8.16872C6.20945 8.16872 6.17472 8.15714 6.17472 8.14299C6.17472 8.12884 6.13999 8.11726 6.09754 8.11726C6.05508 8.11726 6.02035 8.10568 6.02035 8.09153C6.02035 8.07738 5.98562 8.06581 5.94317 8.06581C5.90072 8.06581 5.86598 8.05423 5.86598 8.04008C5.86598 8.02593 5.81967 8.01435 5.76307 8.01435C5.70647 8.01435 5.66016 8.00277 5.66016 7.98862C5.66016 7.97447 5.61385 7.96289 5.55725 7.96289C5.50065 7.96289 5.45434 7.95132 5.45434 7.93717C5.45434 7.92302 5.4196 7.91144 5.37715 7.91144C5.3347 7.91144 5.29997 7.89986 5.29997 7.88571C5.29997 7.87156 5.25366 7.85998 5.19706 7.85998C5.14045 7.85998 5.09414 7.8484 5.09414 7.83425C5.09414 7.81882 4.99123 7.80853 4.83686 7.80853C4.6825 7.80853 4.57958 7.81882 4.57958 7.83425C4.57958 7.84856 4.51097 7.85998 4.42522 7.85998C4.33946 7.85998 4.27085 7.87141 4.27085 7.88571C4.27085 7.89986 4.23612 7.91144 4.19366 7.91144C4.15121 7.91144 4.11648 7.92302 4.11648 7.93717C4.11648 7.95132 4.08175 7.96289 4.0393 7.96289C3.99684 7.96289 3.96211 7.97447 3.96211 7.98862C3.96211 8.00277 3.93896 8.01435 3.91066 8.01435C3.88236 8.01435 3.8592 8.02593 3.8592 8.04008C3.8592 8.05423 3.83859 8.06581 3.81343 8.06581C3.78824 8.06581 3.75096 8.08896 3.73056 8.11726C3.71016 8.14556 3.67751 8.16872 3.65801 8.16872C3.63853 8.16872 3.59011 8.20345 3.55046 8.2459C3.51082 8.28835 3.46525 8.32309 3.44922 8.32309C3.41166 8.32309 3.24173 8.49258 3.24173 8.53007C3.24173 8.54581 3.19542 8.60316 3.13882 8.65755C3.08221 8.71194 3.0359 8.77214 3.0359 8.79136C3.0359 8.81058 3.01275 8.84297 2.98445 8.86337C2.95615 8.88378 2.93299 8.92106 2.93299 8.94624C2.93299 8.97141 2.92141 8.99201 2.90726 8.99201C2.89311 8.99201 2.88154 9.01262 2.88154 9.03778C2.88154 9.06297 2.85838 9.10025 2.83008 9.12065C2.80178 9.14106 2.77862 9.17579 2.77862 9.19784C2.77862 9.21989 2.75547 9.25462 2.72717 9.27502C2.69887 9.29542 2.67571 9.33016 2.67571 9.35221C2.67571 9.37425 2.65256 9.40899 2.62426 9.42939C2.59596 9.44979 2.5728 9.48452 2.5728 9.50657C2.5728 9.52862 2.54964 9.56336 2.52134 9.58376C2.49304 9.60416 2.46989 9.63889 2.46989 9.66094C2.46989 9.68299 2.44673 9.71772 2.41843 9.73813C2.39013 9.75853 2.36698 9.79326 2.36698 9.81531C2.36698 9.83736 2.34382 9.87209 2.31552 9.89249C2.28722 9.9129 2.26406 9.94763 2.26406 9.96968C2.26406 9.99173 2.24091 10.0265 2.21261 10.0469C2.18431 10.0673 2.16115 10.102 2.16115 10.124C2.16115 10.1461 2.138 10.1808 2.1097 10.2012C2.07949 10.223 2.05824 10.2678 2.05824 10.3098C2.05824 10.3721 2.06817 10.3813 2.13542 10.3813C2.17788 10.3813 2.21261 10.3929 2.21261 10.4071C2.21261 10.4212 2.24734 10.4328 2.28979 10.4328C2.33224 10.4328 2.36698 10.4444 2.36698 10.4585C2.36698 10.4727 2.40171 10.4842 2.44416 10.4842C2.48661 10.4842 2.52134 10.4958 2.52134 10.51C2.52134 10.5241 2.55608 10.5357 2.59853 10.5357C2.64098 10.5357 2.67571 10.5473 2.67571 10.5614C2.67571 10.5756 2.71044 10.5871 2.7529 10.5871C2.79535 10.5871 2.83008 10.5987 2.83008 10.6129C2.83008 10.627 2.86481 10.6386 2.90726 10.6386C2.94972 10.6386 2.98445 10.6502 2.98445 10.6643C2.98445 10.6785 3.03076 10.6901 3.08736 10.6901C3.14396 10.6901 3.19027 10.7016 3.19027 10.7158C3.19027 10.7299 3.225 10.7415 3.26746 10.7415C3.30991 10.7415 3.34464 10.7531 3.34464 10.7672C3.34464 10.7814 3.37937 10.793 3.42182 10.793C3.46428 10.793 3.49901 10.8046 3.49901 10.8187C3.49901 10.8329 3.53374 10.8444 3.57619 10.8444C3.61864 10.8444 3.65338 10.856 3.65338 10.8702C3.65338 10.8843 3.67653 10.8959 3.70483 10.8959C3.73313 10.8959 3.75629 10.9075 3.75629 10.9216C3.75629 10.9358 3.8026 10.9473 3.8592 10.9473C3.9158 10.9473 3.96211 10.9589 3.96211 10.9731C3.96211 10.9872 3.99684 10.9988 4.0393 10.9988C4.08175 10.9988 4.11648 11.0104 4.11648 11.0245C4.11648 11.0387 4.15121 11.0503 4.19366 11.0503C4.23612 11.0503 4.27085 11.0618 4.27085 11.076C4.27085 11.0901 4.30558 11.1017 4.34803 11.1017C4.39048 11.1017 4.42522 11.1133 4.42522 11.1274C4.42522 11.1416 4.45995 11.1532 4.5024 11.1532C4.54485 11.1532 4.57958 11.1647 4.57958 11.1789C4.57958 11.193 4.61432 11.2046 4.65677 11.2046C4.69922 11.2046 4.73395 11.2162 4.73395 11.2303C4.73395 11.2445 4.76868 11.2561 4.81114 11.2561C4.85359 11.2561 4.88832 11.2677 4.88832 11.2818C4.88832 11.296 4.92305 11.3075 4.9655 11.3075C5.00796 11.3075 5.04269 11.3191 5.04269 11.3333C5.04269 11.3474 5.07742 11.359 5.11987 11.359C5.16232 11.359 5.19706 11.3706 5.19706 11.3847C5.19706 11.3989 5.23179 11.4104 5.27424 11.4104C5.31669 11.4104 5.35142 11.422 5.35142 11.4362C5.35142 11.4503 5.38616 11.4619 5.42861 11.4619C5.47106 11.4619 5.50579 11.4735 5.50579 11.4876C5.50579 11.5018 5.54052 11.5134 5.58298 11.5134C5.62543 11.5134 5.66016 11.5249 5.66016 11.5391C5.66016 11.5532 5.69489 11.5648 5.73734 11.5648C5.7798 11.5648 5.81453 11.5764 5.81453 11.5905C5.81453 11.6047 5.84926 11.6163 5.89171 11.6163C5.93416 11.6163 5.9689 11.6278 5.9689 11.642C5.9689 11.6561 6.00363 11.6677 6.04608 11.6677C6.08853 11.6677 6.12326 11.6793 6.12326 11.6935C6.12326 11.7076 6.158 11.7192 6.20045 11.7192C6.2429 11.7192 6.27763 11.7308 6.27763 11.7449C6.27763 11.7591 6.31237 11.7706 6.35482 11.7706C6.39727 11.7706 6.432 11.7822 6.432 11.7964C6.432 11.8105 6.46673 11.8221 6.50918 11.8221C6.55164 11.8221 6.58637 11.8337 6.58637 11.8478C6.58637 11.862 6.6211 11.8735 6.66355 11.8735C6.706 11.8735 6.74074 11.8851 6.74074 11.8993C6.74074 11.9134 6.77547 11.925 6.81792 11.925C6.86037 11.925 6.8951 11.9366 6.8951 11.9507C6.8951 11.9649 6.92984 11.9765 6.97229 11.9765C7.01474 11.9765 7.04947 11.988 7.04947 12.0022C7.04947 12.0163 7.0842 12.0279 7.12666 12.0279C7.16911 12.0279 7.20384 12.0395 7.20384 12.0536C7.20384 12.0678 7.23857 12.0794 7.28102 12.0794C7.32348 12.0794 7.35821 12.091 7.35821 12.1051C7.35821 12.1193 7.40452 12.1308 7.46112 12.1308C7.51772 12.1308 7.56403 12.1424 7.56403 12.1566C7.56403 12.1707 7.59876 12.1823 7.64122 12.1823C7.68367 12.1823 7.7184 12.1939 7.7184 12.208C7.7184 12.2222 7.74156 12.2337 7.76986 12.2337C7.79816 12.2337 7.82131 12.2453 7.82131 12.2595C7.82131 12.2736 7.85604 12.2852 7.8985 12.2852C7.94095 12.2852 7.97568 12.2968 7.97568 12.3109C7.97568 12.3251 8.01041 12.3367 8.05286 12.3367C8.09531 12.3367 8.13005 12.3482 8.13005 12.3624C8.13005 12.3765 8.16478 12.3881 8.20723 12.3881C8.24968 12.3881 8.28442 12.3997 8.28442 12.4138C8.28442 12.428 8.31915 12.4396 8.3616 12.4396C8.40405 12.4396 8.43878 12.4511 8.43878 12.4653C8.43878 12.4794 8.47352 12.491 8.51597 12.491C8.55842 12.491 8.59315 12.5026 8.59315 12.5167C8.59315 12.5309 8.62788 12.5425 8.67034 12.5425C8.71279 12.5425 8.74752 12.5541 8.74752 12.5682C8.74752 12.5824 8.78225 12.5939 8.8247 12.5939C8.86716 12.5939 8.90189 12.6055 8.90189 12.6197C8.90189 12.6338 8.92504 12.6454 8.95334 12.6454C8.98164 12.6454 9.0048 12.657 9.0048 12.6711C9.0048 12.6853 9.02796 12.6968 9.05626 12.6968C9.08456 12.6968 9.10771 12.7084 9.10771 12.7226C9.10771 12.7367 9.13087 12.7483 9.15917 12.7483C9.18747 12.7483 9.21062 12.7599 9.21062 12.774C9.21062 12.7882 9.23378 12.7998 9.26208 12.7998C9.29038 12.7998 9.31354 12.8113 9.31354 12.8255C9.31354 12.8396 9.34827 12.8512 9.39072 12.8512C9.43317 12.8512 9.4679 12.8628 9.4679 12.8769C9.4679 12.8911 9.49106 12.9027 9.51936 12.9027C9.54766 12.9027 9.57082 12.9142 9.57082 12.9284C9.57082 12.9425 9.59142 12.9541 9.61659 12.9541C9.64177 12.9541 9.67905 12.9773 9.69946 13.0056C9.71986 13.0339 9.75714 13.057 9.78233 13.057C9.80749 13.057 9.8281 13.0686 9.8281 13.0828C9.8281 13.0969 9.85125 13.1085 9.87955 13.1085C9.90785 13.1085 9.93101 13.1201 9.93101 13.1342C9.93101 13.1484 9.95162 13.1599 9.97678 13.1599C10.002 13.1599 10.0392 13.1831 10.0596 13.2114C10.0801 13.2397 10.1148 13.2629 10.1368 13.2629C10.1589 13.2629 10.1936 13.286 10.214 13.3143C10.2344 13.3426 10.2692 13.3658 10.2912 13.3658C10.3132 13.3658 10.348 13.3889 10.3684 13.4172C10.3888 13.4455 10.4235 13.4687 10.4456 13.4687C10.4676 13.4687 10.5023 13.4918 10.5228 13.5201C10.5432 13.5484 10.5758 13.5716 10.5953 13.5716C10.6148 13.5716 10.6632 13.6063 10.7028 13.6488C10.7425 13.6912 10.7884 13.726 10.8049 13.726C10.8214 13.726 10.8912 13.7839 10.9601 13.8546C11.0291 13.9254 11.0978 13.9832 11.113 13.9832C11.1492 13.9832 12.1436 14.978 12.1436 15.0142C12.1436 15.0296 12.1899 15.0866 12.2465 15.141C12.3031 15.1954 12.3494 15.2535 12.3494 15.2702C12.3494 15.2868 12.3842 15.3329 12.4266 15.3726C12.4691 15.4122 12.5038 15.4606 12.5038 15.4801C12.5038 15.4996 12.527 15.5322 12.5553 15.5527C12.5836 15.5731 12.6067 15.6078 12.6067 15.6298C12.6067 15.6519 12.6299 15.6866 12.6582 15.707C12.6865 15.7274 12.7096 15.7622 12.7096 15.7842C12.7096 15.8063 12.7328 15.841 12.7611 15.8614C12.7894 15.8818 12.8125 15.9165 12.8125 15.9386C12.8125 15.9606 12.8357 15.9954 12.864 16.0158C12.8923 16.0362 12.9155 16.0734 12.9155 16.0986C12.9155 16.1238 12.927 16.1444 12.9412 16.1444C12.9553 16.1444 12.9669 16.1676 12.9669 16.1959C12.9669 16.2242 12.9785 16.2473 12.9926 16.2473C13.0068 16.2473 13.0184 16.2705 13.0184 16.2988C13.0184 16.3271 13.0299 16.3502 13.0441 16.3502C13.0582 16.3502 13.0698 16.3708 13.0698 16.396C13.0698 16.4212 13.093 16.4585 13.1213 16.4789C13.1496 16.4993 13.1727 16.5365 13.1727 16.5617C13.1727 16.5869 13.1843 16.6075 13.1985 16.6075C13.2126 16.6075 13.2242 16.6307 13.2242 16.659C13.2242 16.6873 13.2358 16.7104 13.2499 16.7104C13.2641 16.7104 13.2756 16.7336 13.2756 16.7619C13.2756 16.7902 13.2872 16.8133 13.3014 16.8133C13.3155 16.8133 13.3271 16.8481 13.3271 16.8905C13.3271 16.933 13.3387 16.9677 13.3528 16.9677C13.367 16.9677 13.3786 16.9908 13.3786 17.0191C13.3786 17.0474 13.3901 17.0706 13.4043 17.0706C13.4184 17.0706 13.43 17.1053 13.43 17.1478C13.43 17.1902 13.4416 17.225 13.4557 17.225C13.4699 17.225 13.4815 17.2481 13.4815 17.2764C13.4815 17.3047 13.493 17.3279 13.5072 17.3279C13.5214 17.3279 13.5329 17.3626 13.5329 17.4051C13.5329 17.4475 13.5445 17.4823 13.5587 17.4823C13.5728 17.4823 13.5844 17.5054 13.5844 17.5337C13.5844 17.562 13.596 17.5852 13.6101 17.5852C13.6243 17.5852 13.6358 17.6199 13.6358 17.6623C13.6358 17.7048 13.6474 17.7395 13.6616 17.7395C13.6757 17.7395 13.6873 17.7743 13.6873 17.8167C13.6873 17.8592 13.6989 17.8939 13.713 17.8939C13.7272 17.8939 13.7388 17.9402 13.7388 17.9968C13.7388 18.0534 13.7503 18.0997 13.7645 18.0997C13.7786 18.0997 13.7902 18.1345 13.7902 18.1769C13.7902 18.2194 13.8018 18.2541 13.8159 18.2541C13.8301 18.2541 13.8417 18.312 13.8417 18.3827C13.8417 18.4535 13.8532 18.5114 13.8674 18.5114C13.8815 18.5114 13.8931 18.5577 13.8931 18.6143C13.8931 18.6709 13.9047 18.7172 13.9188 18.7172C13.933 18.7172 13.9446 18.7751 13.9446 18.8458C13.9446 18.9166 13.9562 18.9745 13.9703 18.9745C13.985 18.9745 13.996 19.0517 13.996 19.1546C13.996 19.2575 14.0071 19.3347 14.0218 19.3347C14.0374 19.3347 14.0475 19.4461 14.0475 19.6177C14.0475 19.7892 14.0576 19.9007 14.0732 19.9007C14.0885 19.9007 14.0989 19.995 14.0989 20.1322V20.3638H19.8106H25.5222V20.0551C25.5222 19.8664 25.5322 19.7463 25.5479 19.7463C25.5633 19.7463 25.5736 19.6434 25.5736 19.489C25.5736 19.3347 25.5839 19.2318 25.5994 19.2318C25.6137 19.2318 25.6251 19.1631 25.6251 19.0774C25.6251 18.9916 25.6365 18.923 25.6508 18.923C25.665 18.923 25.6765 18.8651 25.6765 18.7944C25.6765 18.7236 25.6881 18.6657 25.7023 18.6657C25.7164 18.6657 25.728 18.6079 25.728 18.5371C25.728 18.4663 25.7396 18.4085 25.7537 18.4085C25.7679 18.4085 25.7795 18.3622 25.7795 18.3055C25.7795 18.2489 25.791 18.2026 25.8052 18.2026C25.8193 18.2026 25.8309 18.1679 25.8309 18.1255C25.8309 18.083 25.8425 18.0483 25.8566 18.0483C25.8708 18.0483 25.8824 18.002 25.8824 17.9454C25.8824 17.8888 25.8939 17.8424 25.9081 17.8424C25.9222 17.8424 25.9338 17.8077 25.9338 17.7653C25.9338 17.7228 25.9454 17.6881 25.9596 17.6881C25.9737 17.6881 25.9853 17.6649 25.9853 17.6366C25.9853 17.6083 25.9969 17.5852 26.011 17.5852C26.0252 17.5852 26.0367 17.5504 26.0367 17.508C26.0367 17.4655 26.0483 17.4308 26.0625 17.4308C26.0766 17.4308 26.0882 17.3961 26.0882 17.3536C26.0882 17.3112 26.0998 17.2764 26.1139 17.2764C26.1281 17.2764 26.1396 17.2533 26.1396 17.225C26.1396 17.1967 26.1512 17.1735 26.1654 17.1735C26.1795 17.1735 26.1911 17.1388 26.1911 17.0963C26.1911 17.0539 26.2027 17.0191 26.2168 17.0191C26.231 17.0191 26.2426 16.996 26.2426 16.9677C26.2426 16.9394 26.2541 16.9162 26.2683 16.9162C26.2824 16.9162 26.294 16.8931 26.294 16.8648C26.294 16.8365 26.3056 16.8133 26.3197 16.8133C26.3339 16.8133 26.3455 16.7902 26.3455 16.7619C26.3455 16.7336 26.357 16.7104 26.3712 16.7104C26.3854 16.7104 26.3969 16.6873 26.3969 16.659C26.3969 16.6307 26.4085 16.6075 26.4227 16.6075C26.4368 16.6075 26.4484 16.5843 26.4484 16.556C26.4484 16.5277 26.46 16.5046 26.4741 16.5046C26.4883 16.5046 26.4998 16.4814 26.4998 16.4531C26.4998 16.4248 26.5114 16.4017 26.5256 16.4017C26.5397 16.4017 26.5513 16.3785 26.5513 16.3502C26.5513 16.3219 26.5629 16.2988 26.577 16.2988C26.5912 16.2988 26.6028 16.2782 26.6028 16.253C26.6028 16.2278 26.6259 16.1905 26.6542 16.1701C26.6825 16.1497 26.7057 16.1124 26.7057 16.0873C26.7057 16.0621 26.7172 16.0415 26.7314 16.0415C26.7455 16.0415 26.7571 16.0209 26.7571 15.9957C26.7571 15.9705 26.7803 15.9332 26.8086 15.9128C26.8369 15.8924 26.86 15.8577 26.86 15.8357C26.86 15.8136 26.8832 15.7789 26.9115 15.7585C26.9398 15.7381 26.9629 15.7033 26.9629 15.6813C26.9629 15.6592 26.9861 15.6245 27.0144 15.6041C27.0427 15.5837 27.0659 15.5511 27.0659 15.5316C27.0659 15.5121 27.1006 15.4637 27.143 15.424C27.1855 15.3844 27.2202 15.3383 27.2202 15.3216C27.2202 15.305 27.2665 15.2468 27.3231 15.1925C27.3797 15.1381 27.426 15.0806 27.426 15.0648C27.426 15.0491 27.5302 14.9328 27.6576 14.8065C27.785 14.6803 27.8892 14.5646 27.8892 14.5496C27.8892 14.5138 28.1111 14.292 28.1468 14.292C28.162 14.292 28.266 14.1994 28.378 14.0862C28.49 13.973 28.5946 13.8803 28.6105 13.8803C28.6263 13.8803 28.6838 13.834 28.7382 13.7774C28.7926 13.7208 28.8528 13.6745 28.872 13.6745C28.8912 13.6745 28.9236 13.6514 28.944 13.6231C28.9644 13.5948 28.997 13.5716 29.0166 13.5716C29.036 13.5716 29.0844 13.5369 29.1241 13.4944C29.1637 13.452 29.2122 13.4172 29.2316 13.4172C29.2511 13.4172 29.2838 13.3941 29.3042 13.3658C29.3246 13.3375 29.3619 13.3143 29.3871 13.3143C29.4122 13.3143 29.4328 13.3027 29.4328 13.2886C29.4328 13.2744 29.4534 13.2629 29.4786 13.2629C29.5038 13.2629 29.5411 13.2397 29.5615 13.2114C29.5819 13.1831 29.6192 13.1599 29.6443 13.1599C29.6695 13.1599 29.6901 13.1484 29.6901 13.1342C29.6901 13.1201 29.7133 13.1085 29.7416 13.1085C29.7699 13.1085 29.793 13.0969 29.793 13.0828C29.793 13.0686 29.8136 13.057 29.8388 13.057C29.864 13.057 29.9013 13.0339 29.9217 13.0056C29.9421 12.9773 29.9793 12.9541 30.0045 12.9541C30.0297 12.9541 30.0503 12.9425 30.0503 12.9284C30.0503 12.9142 30.0735 12.9027 30.1018 12.9027C30.1301 12.9027 30.1532 12.8911 30.1532 12.8769C30.1532 12.8628 30.1764 12.8512 30.2047 12.8512C30.233 12.8512 30.2561 12.8396 30.2561 12.8255C30.2561 12.8113 30.2909 12.7998 30.3333 12.7998C30.3758 12.7998 30.4105 12.7882 30.4105 12.774C30.4105 12.7599 30.4337 12.7483 30.462 12.7483C30.4903 12.7483 30.5134 12.7367 30.5134 12.7226C30.5134 12.7084 30.5366 12.6968 30.5649 12.6968C30.5932 12.6968 30.6163 12.6853 30.6163 12.6711C30.6163 12.657 30.6395 12.6454 30.6678 12.6454C30.6961 12.6454 30.7192 12.6338 30.7192 12.6197C30.7192 12.6055 30.754 12.5939 30.7964 12.5939C30.8389 12.5939 30.8736 12.5824 30.8736 12.5682C30.8736 12.5541 30.9083 12.5425 30.9508 12.5425C30.9932 12.5425 31.028 12.5309 31.028 12.5167C31.028 12.5026 31.0511 12.491 31.0794 12.491C31.1077 12.491 31.1309 12.4794 31.1309 12.4653C31.1309 12.4511 31.1772 12.4396 31.2338 12.4396C31.2904 12.4396 31.3367 12.428 31.3367 12.4138C31.3367 12.3997 31.3714 12.3881 31.4139 12.3881C31.4563 12.3881 31.4911 12.3765 31.4911 12.3624C31.4911 12.3482 31.5258 12.3367 31.5683 12.3367C31.6107 12.3367 31.6454 12.3251 31.6454 12.3109C31.6454 12.2968 31.6802 12.2852 31.7226 12.2852C31.7651 12.2852 31.7998 12.2736 31.7998 12.2595C31.7998 12.2453 31.8577 12.2337 31.9284 12.2337C31.9992 12.2337 32.0571 12.2222 32.0571 12.208C32.0571 12.1939 32.1034 12.1823 32.16 12.1823C32.2166 12.1823 32.2629 12.1707 32.2629 12.1566C32.2629 12.1419 32.3401 12.1308 32.443 12.1308C32.5459 12.1308 32.6231 12.1198 32.6231 12.1051C32.6231 12.0901 32.7089 12.0794 32.8289 12.0794C32.949 12.0794 33.0348 12.0686 33.0348 12.0536C33.0348 12.0376 33.1891 12.0279 33.4464 12.0279C33.7037 12.0279 33.858 12.0183 33.858 12.0022C33.858 11.9865 33.9781 11.9765 34.1668 11.9765C34.3554 11.9765 34.4755 11.9865 34.4755 12.0022C34.4755 12.0185 34.6642 12.0279 34.9901 12.0279C35.316 12.0279 35.5046 12.0185 35.5046 12.0022C35.5046 11.9859 35.6933 11.9765 36.0192 11.9765C36.3451 11.9765 36.5338 11.9859 36.5338 12.0022C36.5338 12.0424 37.1946 12.0361 37.2134 11.9958C37.2254 11.97 37.2314 11.97 37.2434 11.9958C37.2635 12.0387 37.3264 12.0365 37.3717 11.9912C37.4133 11.9496 37.4223 11.7706 37.3828 11.7706C37.3686 11.7706 37.3571 11.7127 37.3571 11.642C37.3571 11.5712 37.3455 11.5134 37.3313 11.5134C37.3172 11.5134 37.3056 11.4902 37.3056 11.4619C37.3056 11.4336 37.294 11.4104 37.2799 11.4104C37.2657 11.4104 37.2541 11.3873 37.2541 11.359C37.2541 11.3307 37.2426 11.3075 37.2284 11.3075C37.2143 11.3075 37.2027 11.2844 37.2027 11.2561C37.2027 11.2278 37.1911 11.2046 37.177 11.2046C37.1628 11.2046 37.1512 11.1871 37.1512 11.1656C37.1512 11.1148 36.778 10.7415 36.7271 10.7415C36.7057 10.7415 36.6881 10.7299 36.6881 10.7158C36.6881 10.7016 36.665 10.6901 36.6367 10.6901C36.6084 10.6901 36.5852 10.6785 36.5852 10.6643C36.5852 10.6502 36.5621 10.6386 36.5338 10.6386C36.5055 10.6386 36.4823 10.627 36.4823 10.6129C36.4823 10.5987 36.4476 10.5871 36.4051 10.5871C36.3627 10.5871 36.3279 10.5756 36.3279 10.5614C36.3279 10.5473 36.2932 10.5357 36.2508 10.5357C36.2083 10.5357 36.1736 10.5241 36.1736 10.51C36.1736 10.4958 36.1388 10.4842 36.0964 10.4842C36.0539 10.4842 36.0192 10.4727 36.0192 10.4585C36.0192 10.4444 35.9845 10.4328 35.942 10.4328C35.8996 10.4328 35.8648 10.4212 35.8648 10.4071C35.8648 10.3929 35.8301 10.3813 35.7876 10.3813C35.7452 10.3813 35.7105 10.3697 35.7105 10.3556C35.7105 10.3414 35.6757 10.3299 35.6333 10.3299C35.5908 10.3299 35.5561 10.3183 35.5561 10.3041C35.5561 10.29 35.5214 10.2784 35.4789 10.2784C35.4365 10.2784 35.4017 10.2668 35.4017 10.2527C35.4017 10.2385 35.3554 10.227 35.2988 10.227C35.2422 10.227 35.1959 10.2154 35.1959 10.2012C35.1959 10.1871 35.1612 10.1755 35.1187 10.1755C35.0763 10.1755 35.0415 10.1639 35.0415 10.1498C35.0415 10.1356 35.0068 10.124 34.9644 10.124C34.9219 10.124 34.8872 10.1125 34.8872 10.0983C34.8872 10.0842 34.8524 10.0726 34.81 10.0726C34.7675 10.0726 34.7328 10.061 34.7328 10.0469C34.7328 10.0327 34.6981 10.0211 34.6556 10.0211C34.6132 10.0211 34.5784 10.0096 34.5784 9.99541C34.5784 9.98126 34.5321 9.96968 34.4755 9.96968C34.4189 9.96968 34.3726 9.9581 34.3726 9.94395C34.3726 9.9298 34.3379 9.91822 34.2954 9.91822C34.253 9.91822 34.2182 9.90664 34.2182 9.89249C34.2182 9.87834 34.1835 9.86677 34.1411 9.86677C34.0986 9.86677 34.0639 9.85519 34.0639 9.84104C34.0639 9.82689 34.0291 9.81531 33.9867 9.81531C33.9442 9.81531 33.9095 9.80373 33.9095 9.78958C33.9095 9.77543 33.8632 9.76385 33.8066 9.76385C33.75 9.76385 33.7037 9.75228 33.7037 9.73813C33.7037 9.72398 33.6689 9.7124 33.6265 9.7124C33.584 9.7124 33.5493 9.70082 33.5493 9.68667C33.5493 9.67252 33.5146 9.66094 33.4721 9.66094C33.4297 9.66094 33.3949 9.64936 33.3949 9.63521C33.3949 9.62106 33.3602 9.60949 33.3178 9.60949C33.2753 9.60949 33.2406 9.59791 33.2406 9.58376C33.2406 9.56961 33.2058 9.55803 33.1634 9.55803C33.1209 9.55803 33.0862 9.54645 33.0862 9.5323C33.0862 9.51815 33.0399 9.50657 32.9833 9.50657C32.9267 9.50657 32.8804 9.495 32.8804 9.48085C32.8804 9.46669 32.8456 9.45512 32.8032 9.45512C32.7607 9.45512 32.726 9.44354 32.726 9.42939C32.726 9.41524 32.6913 9.40366 32.6488 9.40366C32.6064 9.40366 32.5716 9.39208 32.5716 9.37793C32.5716 9.36378 32.5369 9.35221 32.4945 9.35221C32.452 9.35221 32.4173 9.34063 32.4173 9.32648C32.4173 9.31233 32.3825 9.30075 32.3401 9.30075C32.2976 9.30075 32.2629 9.28917 32.2629 9.27502C32.2629 9.26087 32.2282 9.24929 32.1857 9.24929C32.1433 9.24929 32.1085 9.23772 32.1085 9.22357C32.1085 9.20942 32.0622 9.19784 32.0056 9.19784C31.949 9.19784 31.9027 9.18626 31.9027 9.17211C31.9027 9.15796 31.868 9.14638 31.8255 9.14638C31.7831 9.14638 31.7484 9.1348 31.7484 9.12065C31.7484 9.1065 31.7136 9.09493 31.6712 9.09493C31.6287 9.09493 31.594 9.08335 31.594 9.0692C31.594 9.05505 31.5593 9.04347 31.5168 9.04347C31.4743 9.04347 31.4396 9.03189 31.4396 9.01774C31.4396 9.00359 31.3933 8.99201 31.3367 8.99201C31.2801 8.99201 31.2338 8.98044 31.2338 8.96629C31.2338 8.95214 31.1991 8.94056 31.1566 8.94056C31.1142 8.94056 31.0794 8.92898 31.0794 8.91483C31.0794 8.90068 31.0447 8.8891 31.0022 8.8891C30.9598 8.8891 30.9251 8.87752 30.9251 8.86337C30.9251 8.84922 30.8903 8.83765 30.8479 8.83765C30.8054 8.83765 30.7707 8.82607 30.7707 8.81192C30.7707 8.79777 30.736 8.78619 30.6935 8.78619C30.6511 8.78619 30.6163 8.77461 30.6163 8.76046C30.6163 8.74631 30.57 8.73473 30.5134 8.73473C30.4568 8.73473 30.4105 8.72316 30.4105 8.70901C30.4105 8.69486 30.3758 8.68328 30.3333 8.68328C30.2909 8.68328 30.2561 8.6717 30.2561 8.65755C30.2561 8.6434 30.2214 8.63182 30.1789 8.63182C30.1365 8.63182 30.1018 8.62024 30.1018 8.60609C30.1018 8.59194 30.067 8.58037 30.0246 8.58037C29.9821 8.58037 29.9474 8.56879 29.9474 8.55464C29.9474 8.54049 29.9127 8.52891 29.8702 8.52891C29.8278 8.52891 29.793 8.51733 29.793 8.50318C29.793 8.48903 29.7467 8.47745 29.6901 8.47745C29.6335 8.47745 29.5872 8.46588 29.5872 8.45173C29.5872 8.43758 29.5525 8.426 29.51 8.426C29.4676 8.426 29.4328 8.41442 29.4328 8.40027C29.4328 8.38612 29.3981 8.37454 29.3556 8.37454C29.3132 8.37454 29.2785 8.36296 29.2785 8.34881C29.2785 8.33466 29.2437 8.32309 29.2013 8.32309C29.1588 8.32309 29.1241 8.31151 29.1241 8.29736C29.1241 8.28321 29.0778 8.27163 29.0212 8.27163C28.9646 8.27163 28.9183 8.26005 28.9183 8.2459C28.9183 8.23175 28.8835 8.22017 28.8411 8.22017C28.7986 8.22017 28.7639 8.2086 28.7639 8.19445C28.7639 8.1803 28.7292 8.16872 28.6867 8.16872C28.6443 8.16872 28.6095 8.15714 28.6095 8.14299C28.6095 8.12884 28.5748 8.11726 28.5324 8.11726C28.4899 8.11726 28.4552 8.10568 28.4552 8.09153C28.4552 8.07738 28.4204 8.06581 28.378 8.06581C28.3355 8.06581 28.3008 8.05423 28.3008 8.04008C28.3008 8.02593 28.2545 8.01435 28.1979 8.01435C28.1413 8.01435 28.095 8.00277 28.095 7.98862C28.095 7.97447 28.0602 7.96289 28.0178 7.96289C27.9753 7.96289 27.9406 7.95132 27.9406 7.93717C27.9406 7.92302 27.9059 7.91144 27.8634 7.91144C27.821 7.91144 27.7862 7.89986 27.7862 7.88571C27.7862 7.87156 27.7515 7.85998 27.7091 7.85998C27.6666 7.85998 27.6319 7.8484 27.6319 7.83425C27.6319 7.8201 27.5971 7.80853 27.5547 7.80853C27.5122 7.80853 27.4775 7.79695 27.4775 7.7828C27.4775 7.76865 27.4428 7.75707 27.4003 7.75707C27.3579 7.75707 27.3231 7.74549 27.3231 7.73134C27.3231 7.71719 27.2768 7.70561 27.2202 7.70561C27.1636 7.70561 27.1173 7.69404 27.1173 7.67989C27.1173 7.66574 27.0826 7.65416 27.0401 7.65416C26.9977 7.65416 26.9629 7.64258 26.9629 7.62843C26.9629 7.61428 26.9282 7.6027 26.8858 7.6027C26.8433 7.6027 26.8086 7.59112 26.8086 7.57697C26.8086 7.56282 26.7738 7.55125 26.7314 7.55125C26.6889 7.55125 26.6542 7.53967 26.6542 7.52552C26.6542 7.51137 26.6079 7.49979 26.5513 7.49979C26.4947 7.49979 26.4484 7.48821 26.4484 7.47406C26.4484 7.45991 26.4137 7.44833 26.3712 7.44833C26.3287 7.44833 26.294 7.43676 26.294 7.42261C26.294 7.40846 26.2593 7.39688 26.2168 7.39688C26.1744 7.39688 26.1396 7.3853 26.1396 7.37115C26.1396 7.357 26.1049 7.34542 26.0625 7.34542C26.02 7.34542 25.9853 7.33384 25.9853 7.31969C25.9853 7.30554 25.9505 7.29397 25.9081 7.29397C25.8656 7.29397 25.8309 7.28239 25.8309 7.26824C25.8309 7.25409 25.7846 7.24251 25.728 7.24251C25.6714 7.24251 25.6251 7.23093 25.6251 7.21678C25.6251 7.20263 25.5904 7.19105 25.5479 7.19105C25.5055 7.19105 25.4707 7.17948 25.4707 7.16533C25.4707 7.15118 25.436 7.1396 25.3935 7.1396C25.3511 7.1396 25.3164 7.12802 25.3164 7.11387C25.3164 7.09972 25.2816 7.08814 25.2392 7.08814C25.1967 7.08814 25.162 7.07656 25.162 7.06241C25.162 7.04826 25.1273 7.03669 25.0848 7.03669C25.0423 7.03669 25.0076 7.02511 25.0076 7.01096C25.0076 6.99681 24.9729 6.98523 24.9304 6.98523C24.888 6.98523 24.8532 6.97365 24.8532 6.9595C24.8532 6.94535 24.8069 6.93377 24.7503 6.93377C24.6937 6.93377 24.6474 6.9222 24.6474 6.90805C24.6474 6.85422 24.554 6.88937 24.4738 6.97339ZM5.6087 14.9866C5.6087 15.0013 5.53152 15.0124 5.42861 15.0124C5.3257 15.0124 5.24851 15.0234 5.24851 15.0381C5.24851 15.0524 5.1799 15.0638 5.09414 15.0638C5.00839 15.0638 4.93978 15.0752 4.93978 15.0895C4.93978 15.1037 4.89347 15.1153 4.83686 15.1153C4.78026 15.1153 4.73395 15.1269 4.73395 15.141C4.73395 15.1552 4.68764 15.1667 4.63104 15.1667C4.57444 15.1667 4.52813 15.1783 4.52813 15.1925C4.52813 15.2066 4.4934 15.2182 4.45094 15.2182C4.40849 15.2182 4.37376 15.2298 4.37376 15.2439C4.37376 15.2581 4.33903 15.2696 4.29658 15.2696C4.25412 15.2696 4.21939 15.2812 4.21939 15.2954C4.21939 15.3095 4.19624 15.3211 4.16794 15.3211C4.13964 15.3211 4.11648 15.3327 4.11648 15.3468C4.11648 15.361 4.08175 15.3726 4.0393 15.3726C3.99684 15.3726 3.96211 15.3841 3.96211 15.3983C3.96211 15.4124 3.93896 15.424 3.91066 15.424C3.88236 15.424 3.8592 15.4356 3.8592 15.4497C3.8592 15.4639 3.82447 15.4755 3.78202 15.4755C3.73956 15.4755 3.70483 15.487 3.70483 15.5012C3.70483 15.5153 3.68168 15.5269 3.65338 15.5269C3.62508 15.5269 3.60192 15.5385 3.60192 15.5527C3.60192 15.5668 3.57876 15.5784 3.55046 15.5784C3.52216 15.5784 3.49901 15.59 3.49901 15.6041C3.49901 15.6183 3.47585 15.6298 3.44755 15.6298C3.41925 15.6298 3.3961 15.6414 3.3961 15.6556C3.3961 15.6697 3.37294 15.6813 3.34464 15.6813C3.31634 15.6813 3.29318 15.6929 3.29318 15.707C3.29318 15.7212 3.27258 15.7327 3.24741 15.7327C3.22223 15.7327 3.18495 15.7559 3.16454 15.7842C3.14414 15.8125 3.10686 15.8357 3.08167 15.8357C3.05651 15.8357 3.0359 15.8472 3.0359 15.8614C3.0359 15.8755 3.0153 15.8871 2.99013 15.8871C2.96495 15.8871 2.92767 15.9103 2.90726 15.9386C2.88686 15.9669 2.85421 15.99 2.83471 15.99C2.81523 15.99 2.76681 16.0248 2.72717 16.0672C2.68752 16.1097 2.6391 16.1444 2.61963 16.1444C2.60012 16.1444 2.56747 16.1676 2.54707 16.1959C2.52667 16.2242 2.49443 16.2473 2.47539 16.2473C2.45638 16.2473 2.38445 16.3052 2.31552 16.3759C2.24659 16.4467 2.17775 16.5046 2.16252 16.5046C2.12637 16.5046 1.59514 17.0358 1.59514 17.072C1.59514 17.0872 1.53725 17.156 1.4665 17.225C1.39574 17.2939 1.33786 17.3637 1.33786 17.3802C1.33786 17.3967 1.30312 17.4426 1.26067 17.4823C1.21822 17.5219 1.18349 17.5703 1.18349 17.5898C1.18349 17.6093 1.16033 17.6419 1.13203 17.6623C1.10373 17.6828 1.08058 17.7175 1.08058 17.7395C1.08058 17.7616 1.05742 17.7963 1.02912 17.8167C1.00082 17.8371 0.977664 17.8744 0.977664 17.8996C0.977664 17.9247 0.966086 17.9454 0.951936 17.9454C0.937786 17.9454 0.926208 17.966 0.926208 17.9911C0.926208 18.0163 0.903053 18.0536 0.874752 18.074C0.846451 18.0944 0.823296 18.1317 0.823296 18.1569C0.823296 18.182 0.811718 18.2026 0.797568 18.2026C0.783418 18.2026 0.77184 18.2258 0.77184 18.2541C0.77184 18.2824 0.760262 18.3055 0.746112 18.3055C0.731962 18.3055 0.720384 18.3287 0.720384 18.357C0.720384 18.3853 0.708806 18.4085 0.694656 18.4085C0.680506 18.4085 0.668928 18.4316 0.668928 18.4599C0.668928 18.4882 0.65735 18.5114 0.6432 18.5114C0.62905 18.5114 0.617472 18.5345 0.617472 18.5628C0.617472 18.5911 0.605894 18.6143 0.591744 18.6143C0.577594 18.6143 0.566016 18.6374 0.566016 18.6657C0.566016 18.694 0.554438 18.7172 0.540288 18.7172C0.526138 18.7172 0.51456 18.7519 0.51456 18.7944C0.51456 18.8368 0.502982 18.8716 0.488832 18.8716C0.474682 18.8716 0.463104 18.8947 0.463104 18.923C0.463104 18.9513 0.451526 18.9745 0.437376 18.9745C0.423226 18.9745 0.411648 19.0092 0.411648 19.0517C0.411648 19.0941 0.40007 19.1288 0.38592 19.1288C0.37177 19.1288 0.360192 19.1636 0.360192 19.206C0.360192 19.2485 0.348614 19.2832 0.334464 19.2832C0.320314 19.2832 0.308736 19.3179 0.308736 19.3604C0.308736 19.4028 0.297158 19.4376 0.283008 19.4376C0.268858 19.4376 0.25728 19.4839 0.25728 19.5405C0.25728 19.5971 0.245702 19.6434 0.231552 19.6434C0.217402 19.6434 0.205824 19.6897 0.205824 19.7463C0.205824 19.8029 0.194246 19.8492 0.180096 19.8492C0.165946 19.8492 0.154368 19.9071 0.154368 19.9779C0.154368 20.0486 0.14279 20.1065 0.12864 20.1065C0.114335 20.1065 0.102912 20.1751 0.102912 20.2609C0.102912 20.3466 0.0914888 20.4152 0.077184 20.4152C0.0613613 20.4152 0.051456 20.5439 0.051456 20.7497C0.051456 20.9555 0.0415507 21.0842 0.025728 21.0842C0.0115776 21.0842 0 21.1305 0 21.1871C0 21.2437 0.0115776 21.29 0.025728 21.29C0.0416536 21.29 0.051456 21.4272 0.051456 21.6502C0.051456 21.8732 0.0612584 22.0104 0.077184 22.0104C0.0918747 22.0104 0.102912 22.0876 0.102912 22.1905C0.102912 22.2934 0.113949 22.3706 0.12864 22.3706C0.14279 22.3706 0.154368 22.4169 0.154368 22.4735C0.154368 22.5301 0.165946 22.5764 0.180096 22.5764C0.194246 22.5764 0.205824 22.6343 0.205824 22.705C0.205824 22.7758 0.217402 22.8337 0.231552 22.8337C0.245702 22.8337 0.25728 22.8684 0.25728 22.9109C0.25728 22.9533 0.268858 22.988 0.283008 22.988C0.297158 22.988 0.308736 23.0344 0.308736 23.091C0.308736 23.1476 0.320314 23.1939 0.334464 23.1939C0.348614 23.1939 0.360192 23.2286 0.360192 23.2711C0.360192 23.3135 0.37177 23.3482 0.38592 23.3482C0.40007 23.3482 0.411648 23.3714 0.411648 23.3997C0.411648 23.428 0.423226 23.4511 0.437376 23.4511C0.451526 23.4511 0.463104 23.4859 0.463104 23.5283C0.463104 23.5708 0.474682 23.6055 0.488832 23.6055C0.502982 23.6055 0.51456 23.6287 0.51456 23.657C0.51456 23.6853 0.526138 23.7084 0.540288 23.7084C0.554438 23.7084 0.566016 23.7316 0.566016 23.7599C0.566016 23.7882 0.577594 23.8113 0.591744 23.8113C0.605894 23.8113 0.617472 23.8461 0.617472 23.8885C0.617472 23.931 0.62905 23.9657 0.6432 23.9657C0.65735 23.9657 0.668928 23.9889 0.668928 24.0172C0.668928 24.0455 0.680506 24.0686 0.694656 24.0686C0.708806 24.0686 0.720384 24.0892 0.720384 24.1144C0.720384 24.1396 0.743539 24.1769 0.77184 24.1973C0.800141 24.2177 0.823296 24.2549 0.823296 24.2801C0.823296 24.3053 0.834874 24.3259 0.849024 24.3259C0.863174 24.3259 0.874752 24.3465 0.874752 24.3717C0.874752 24.3969 0.897907 24.4341 0.926208 24.4545C0.954509 24.4749 0.977664 24.5122 0.977664 24.5374C0.977664 24.5626 0.989242 24.5832 1.00339 24.5832C1.01754 24.5832 1.02912 24.6038 1.02912 24.629C1.02912 24.6541 1.05228 24.6914 1.08058 24.7118C1.10888 24.7322 1.13203 24.7649 1.13203 24.7844C1.13203 24.8038 1.16676 24.8523 1.20922 24.8919C1.25167 24.9316 1.2864 24.9776 1.2864 24.9943C1.2864 25.011 1.33271 25.0691 1.38931 25.1235C1.44591 25.1779 1.49222 25.2349 1.49222 25.2503C1.49222 25.2868 2.28084 26.0754 2.31732 26.0754C2.33271 26.0754 2.38977 26.1217 2.44416 26.1783C2.49855 26.2349 2.55875 26.2812 2.57797 26.2812C2.59719 26.2812 2.62958 26.3044 2.64998 26.3327C2.67039 26.361 2.70512 26.3841 2.72717 26.3841C2.74922 26.3841 2.78395 26.4073 2.80435 26.4356C2.82475 26.4639 2.85949 26.4871 2.88154 26.4871C2.90358 26.4871 2.93832 26.5102 2.95872 26.5385C2.97912 26.5668 3.0164 26.59 3.04159 26.59C3.06675 26.59 3.08736 26.6015 3.08736 26.6157C3.08736 26.6298 3.11052 26.6414 3.13882 26.6414C3.16712 26.6414 3.19027 26.653 3.19027 26.6671C3.19027 26.6813 3.21088 26.6929 3.23604 26.6929C3.26123 26.6929 3.29851 26.716 3.31891 26.7443C3.33931 26.7726 3.37659 26.7958 3.40178 26.7958C3.42694 26.7958 3.44755 26.8074 3.44755 26.8215C3.44755 26.8357 3.47071 26.8472 3.49901 26.8472C3.52731 26.8472 3.55046 26.8588 3.55046 26.873C3.55046 26.8871 3.57362 26.8987 3.60192 26.8987C3.63022 26.8987 3.65338 26.9103 3.65338 26.9244C3.65338 26.9386 3.67653 26.9502 3.70483 26.9502C3.73313 26.9502 3.75629 26.9617 3.75629 26.9759C3.75629 26.99 3.79102 27.0016 3.83347 27.0016C3.87592 27.0016 3.91066 27.0132 3.91066 27.0273C3.91066 27.0415 3.93381 27.0531 3.96211 27.0531C3.99041 27.0531 4.01357 27.0646 4.01357 27.0788C4.01357 27.0929 4.0483 27.1045 4.09075 27.1045C4.1332 27.1045 4.16794 27.1161 4.16794 27.1303C4.16794 27.1444 4.20267 27.156 4.24512 27.156C4.28757 27.156 4.3223 27.1676 4.3223 27.1817C4.3223 27.1959 4.35704 27.2074 4.39949 27.2074C4.44194 27.2074 4.47667 27.219 4.47667 27.2332C4.47667 27.2473 4.52298 27.2589 4.57958 27.2589C4.63619 27.2589 4.6825 27.2705 4.6825 27.2846C4.6825 27.2988 4.71723 27.3103 4.75968 27.3103C4.80213 27.3103 4.83686 27.3219 4.83686 27.3361C4.83686 27.3502 4.89475 27.3618 4.9655 27.3618C5.03626 27.3618 5.09414 27.3734 5.09414 27.3875C5.09414 27.4017 5.15203 27.4133 5.22278 27.4133C5.29354 27.4133 5.35142 27.4248 5.35142 27.439C5.35142 27.4546 5.4629 27.4647 5.63443 27.4647C5.80596 27.4647 5.91744 27.4749 5.91744 27.4904C5.91744 27.5064 6.06324 27.5162 6.30336 27.5162C6.54348 27.5162 6.68928 27.5064 6.68928 27.4904C6.68928 27.4749 6.80076 27.4647 6.97229 27.4647C7.14382 27.4647 7.2553 27.4546 7.2553 27.439C7.2553 27.4248 7.31318 27.4133 7.38394 27.4133C7.45469 27.4133 7.51258 27.4017 7.51258 27.3875C7.51258 27.3734 7.57046 27.3618 7.64122 27.3618C7.71197 27.3618 7.76986 27.3502 7.76986 27.3361C7.76986 27.3219 7.81617 27.3103 7.87277 27.3103C7.92937 27.3103 7.97568 27.2988 7.97568 27.2846C7.97568 27.2705 8.01041 27.2589 8.05286 27.2589C8.09531 27.2589 8.13005 27.2473 8.13005 27.2332C8.13005 27.219 8.16478 27.2074 8.20723 27.2074C8.24968 27.2074 8.28442 27.1959 8.28442 27.1817C8.28442 27.1676 8.31915 27.156 8.3616 27.156C8.40405 27.156 8.43878 27.1444 8.43878 27.1303C8.43878 27.1161 8.47352 27.1045 8.51597 27.1045C8.55842 27.1045 8.59315 27.0929 8.59315 27.0788C8.59315 27.0646 8.62788 27.0531 8.67034 27.0531C8.71279 27.0531 8.74752 27.0415 8.74752 27.0273C8.74752 27.0132 8.77068 27.0016 8.79898 27.0016C8.82728 27.0016 8.85043 26.99 8.85043 26.9759C8.85043 26.9617 8.87359 26.9502 8.90189 26.9502C8.93019 26.9502 8.95334 26.9386 8.95334 26.9244C8.95334 26.9103 8.9765 26.8987 9.0048 26.8987C9.0331 26.8987 9.05626 26.8871 9.05626 26.873C9.05626 26.8588 9.07941 26.8472 9.10771 26.8472C9.13601 26.8472 9.15917 26.8357 9.15917 26.8215C9.15917 26.8074 9.18232 26.7958 9.21062 26.7958C9.23892 26.7958 9.26208 26.7842 9.26208 26.7701C9.26208 26.7559 9.28269 26.7443 9.30785 26.7443C9.33304 26.7443 9.37032 26.7212 9.39072 26.6929C9.41112 26.6646 9.4484 26.6414 9.47359 26.6414C9.49875 26.6414 9.51936 26.6298 9.51936 26.6157C9.51936 26.6015 9.53997 26.59 9.56513 26.59C9.59032 26.59 9.6276 26.5668 9.648 26.5385C9.6684 26.5102 9.70314 26.4871 9.72518 26.4871C9.74723 26.4871 9.78197 26.4639 9.80237 26.4356C9.82277 26.4073 9.8575 26.3841 9.87955 26.3841C9.9016 26.3841 9.93633 26.361 9.95674 26.3327C9.97714 26.3044 10.0095 26.2812 10.0287 26.2812C10.048 26.2812 10.1082 26.2349 10.1626 26.1783C10.2169 26.1217 10.274 26.0754 10.2894 26.0754C10.3262 26.0754 11.166 25.2352 11.166 25.1983C11.166 25.1826 11.2007 25.1374 11.2431 25.0977C11.2856 25.0581 11.3203 25.0118 11.3203 24.9948C11.3203 24.9779 11.3551 24.9316 11.3975 24.8919C11.44 24.8523 11.4747 24.8038 11.4747 24.7844C11.4747 24.7649 11.4978 24.7322 11.5261 24.7118C11.5544 24.6914 11.5776 24.6567 11.5776 24.6346C11.5776 24.6126 11.6008 24.5779 11.6291 24.5575C11.6574 24.537 11.6805 24.4998 11.6805 24.4746C11.6805 24.4494 11.6921 24.4288 11.7062 24.4288C11.7204 24.4288 11.732 24.4082 11.732 24.383C11.732 24.3579 11.7551 24.3206 11.7834 24.3002C11.8117 24.2798 11.8349 24.2425 11.8349 24.2173C11.8349 24.1921 11.8465 24.1715 11.8606 24.1715C11.8748 24.1715 11.8863 24.1368 11.8863 24.0943C11.8863 24.0519 11.8979 24.0172 11.9121 24.0172C11.9262 24.0172 11.9378 23.994 11.9378 23.9657C11.9378 23.9374 11.9494 23.9143 11.9635 23.9143C11.9777 23.9143 11.9892 23.8911 11.9892 23.8628C11.9892 23.8345 12.0008 23.8113 12.015 23.8113C12.0291 23.8113 12.0407 23.7882 12.0407 23.7599C12.0407 23.7316 12.0523 23.7084 12.0664 23.7084C12.0806 23.7084 12.0922 23.6853 12.0922 23.657C12.0922 23.6287 12.1037 23.6055 12.1179 23.6055C12.132 23.6055 12.1436 23.5708 12.1436 23.5283C12.1436 23.4859 12.1552 23.4511 12.1693 23.4511C12.1835 23.4511 12.1951 23.428 12.1951 23.3997C12.1951 23.3714 12.2066 23.3482 12.2208 23.3482C12.235 23.3482 12.2465 23.3135 12.2465 23.2711C12.2465 23.2286 12.2581 23.1939 12.2723 23.1939C12.2864 23.1939 12.298 23.1476 12.298 23.091C12.298 23.0344 12.3096 22.988 12.3237 22.988C12.3379 22.988 12.3494 22.9533 12.3494 22.9109C12.3494 22.8684 12.361 22.8337 12.3752 22.8337C12.3893 22.8337 12.4009 22.7758 12.4009 22.705C12.4009 22.6343 12.4125 22.5764 12.4266 22.5764C12.4408 22.5764 12.4524 22.5301 12.4524 22.4735C12.4524 22.4169 12.4639 22.3706 12.4781 22.3706C12.4928 22.3706 12.5038 22.2934 12.5038 22.1905C12.5038 22.0876 12.5148 22.0104 12.5295 22.0104C12.5455 22.0104 12.5553 21.8646 12.5553 21.6245C12.5553 21.3843 12.565 21.2385 12.581 21.2385C12.5951 21.2385 12.6067 21.1922 12.6067 21.1356C12.6067 21.079 12.5951 21.0327 12.581 21.0327C12.5653 21.0327 12.5553 20.9126 12.5553 20.724C12.5553 20.5353 12.5453 20.4152 12.5295 20.4152C12.5152 20.4152 12.5038 20.3466 12.5038 20.2609C12.5038 20.1751 12.4924 20.1065 12.4781 20.1065C12.4639 20.1065 12.4524 20.0486 12.4524 19.9779C12.4524 19.9071 12.4408 19.8492 12.4266 19.8492C12.4125 19.8492 12.4009 19.8029 12.4009 19.7463C12.4009 19.6897 12.3893 19.6434 12.3752 19.6434C12.361 19.6434 12.3494 19.5971 12.3494 19.5405C12.3494 19.4839 12.3379 19.4376 12.3237 19.4376C12.3096 19.4376 12.298 19.4028 12.298 19.3604C12.298 19.3179 12.2864 19.2832 12.2723 19.2832C12.2581 19.2832 12.2465 19.2485 12.2465 19.206C12.2465 19.1636 12.235 19.1288 12.2208 19.1288C12.2066 19.1288 12.1951 19.0941 12.1951 19.0517C12.1951 19.0092 12.1835 18.9745 12.1693 18.9745C12.1552 18.9745 12.1436 18.9513 12.1436 18.923C12.1436 18.8947 12.132 18.8716 12.1179 18.8716C12.1037 18.8716 12.0922 18.8368 12.0922 18.7944C12.0922 18.7519 12.0806 18.7172 12.0664 18.7172C12.0523 18.7172 12.0407 18.694 12.0407 18.6657C12.0407 18.6374 12.0291 18.6143 12.015 18.6143C12.0008 18.6143 11.9892 18.5911 11.9892 18.5628C11.9892 18.5345 11.9777 18.5114 11.9635 18.5114C11.9494 18.5114 11.9378 18.4882 11.9378 18.4599C11.9378 18.4316 11.9262 18.4085 11.9121 18.4085C11.8979 18.4085 11.8863 18.3853 11.8863 18.357C11.8863 18.3287 11.8748 18.3055 11.8606 18.3055C11.8465 18.3055 11.8349 18.2824 11.8349 18.2541C11.8349 18.2258 11.8233 18.2026 11.8092 18.2026C11.795 18.2026 11.7834 18.1795 11.7834 18.1512C11.7834 18.1229 11.7718 18.0997 11.7577 18.0997C11.7435 18.0997 11.732 18.0791 11.732 18.054C11.732 18.0288 11.7088 17.9915 11.6805 17.9711C11.6522 17.9507 11.6291 17.9159 11.6291 17.8939C11.6291 17.8719 11.6059 17.8371 11.5776 17.8167C11.5493 17.7963 11.5261 17.7616 11.5261 17.7395C11.5261 17.7175 11.503 17.6828 11.4747 17.6623C11.4464 17.6419 11.4232 17.6093 11.4232 17.5898C11.4232 17.5703 11.3885 17.5219 11.346 17.4823C11.3036 17.4426 11.2689 17.3967 11.2689 17.3802C11.2689 17.3637 11.211 17.2939 11.1402 17.225C11.0695 17.156 11.0116 17.0872 11.0116 17.072C11.0116 17.0567 10.8901 16.9228 10.7417 16.7744C10.5933 16.626 10.4594 16.5046 10.4442 16.5046C10.429 16.5046 10.3601 16.4467 10.2912 16.3759C10.2223 16.3052 10.1524 16.2473 10.136 16.2473C10.1195 16.2473 10.0736 16.2126 10.0339 16.1701C9.99427 16.1277 9.94585 16.0929 9.92638 16.0929C9.90688 16.0929 9.87423 16.0698 9.85382 16.0415C9.83342 16.0132 9.79869 15.99 9.77664 15.99C9.75459 15.99 9.71986 15.9669 9.69946 15.9386C9.67905 15.9103 9.64177 15.8871 9.61659 15.8871C9.59142 15.8871 9.57082 15.8755 9.57082 15.8614C9.57082 15.8472 9.55021 15.8357 9.52505 15.8357C9.49986 15.8357 9.46258 15.8125 9.44218 15.7842C9.42177 15.7559 9.38449 15.7327 9.35931 15.7327C9.33414 15.7327 9.31354 15.7212 9.31354 15.707C9.31354 15.6929 9.29038 15.6813 9.26208 15.6813C9.23378 15.6813 9.21062 15.6697 9.21062 15.6556C9.21062 15.6414 9.18747 15.6298 9.15917 15.6298C9.13087 15.6298 9.10771 15.6183 9.10771 15.6041C9.10771 15.59 9.08456 15.5784 9.05626 15.5784C9.02796 15.5784 9.0048 15.5668 9.0048 15.5527C9.0048 15.5385 8.98164 15.5269 8.95334 15.5269C8.92504 15.5269 8.90189 15.5153 8.90189 15.5012C8.90189 15.487 8.87873 15.4755 8.85043 15.4755C8.82213 15.4755 8.79898 15.4639 8.79898 15.4497C8.79898 15.4356 8.76424 15.424 8.72179 15.424C8.67934 15.424 8.64461 15.4124 8.64461 15.3983C8.64461 15.3841 8.60988 15.3726 8.56742 15.3726C8.52497 15.3726 8.49024 15.361 8.49024 15.3468C8.49024 15.3327 8.46708 15.3211 8.43878 15.3211C8.41048 15.3211 8.38733 15.3095 8.38733 15.2954C8.38733 15.2812 8.3526 15.2696 8.31014 15.2696C8.26769 15.2696 8.23296 15.2581 8.23296 15.2439C8.23296 15.2298 8.19823 15.2182 8.15578 15.2182C8.11333 15.2182 8.07859 15.2066 8.07859 15.1925C8.07859 15.1783 8.03228 15.1667 7.97568 15.1667C7.91908 15.1667 7.87277 15.1552 7.87277 15.141C7.87277 15.1269 7.82646 15.1153 7.76986 15.1153C7.71325 15.1153 7.66694 15.1037 7.66694 15.0895C7.66694 15.0752 7.59833 15.0638 7.51258 15.0638C7.42682 15.0638 7.35821 15.0524 7.35821 15.0381C7.35821 15.0234 7.28102 15.0124 7.17811 15.0124C7.0752 15.0124 6.99802 15.0013 6.99802 14.9866C6.99802 14.9701 6.7493 14.9609 6.30336 14.9609C5.85742 14.9609 5.6087 14.9701 5.6087 14.9866ZM31.9542 16.1701C31.9542 16.1848 31.877 16.1959 31.7741 16.1959C31.6712 16.1959 31.594 16.2069 31.594 16.2216C31.594 16.2359 31.5254 16.2473 31.4396 16.2473C31.3539 16.2473 31.2852 16.2587 31.2852 16.273C31.2852 16.2872 31.2389 16.2988 31.1823 16.2988C31.1257 16.2988 31.0794 16.3103 31.0794 16.3245C31.0794 16.3386 31.0447 16.3502 31.0022 16.3502C30.9598 16.3502 30.9251 16.3618 30.9251 16.3759C30.9251 16.3901 30.8903 16.4017 30.8479 16.4017C30.8054 16.4017 30.7707 16.4133 30.7707 16.4274C30.7707 16.4416 30.736 16.4531 30.6935 16.4531C30.6511 16.4531 30.6163 16.4647 30.6163 16.4789C30.6163 16.493 30.5932 16.5046 30.5649 16.5046C30.5366 16.5046 30.5134 16.5162 30.5134 16.5303C30.5134 16.5445 30.4787 16.556 30.4362 16.556C30.3938 16.556 30.359 16.5676 30.359 16.5818C30.359 16.5959 30.3359 16.6075 30.3076 16.6075C30.2793 16.6075 30.2561 16.6191 30.2561 16.6332C30.2561 16.6474 30.233 16.659 30.2047 16.659C30.1764 16.659 30.1532 16.6705 30.1532 16.6847C30.1532 16.6988 30.1301 16.7104 30.1018 16.7104C30.0735 16.7104 30.0503 16.722 30.0503 16.7361C30.0503 16.7503 30.0271 16.7619 29.9988 16.7619C29.9705 16.7619 29.9474 16.7734 29.9474 16.7876C29.9474 16.8017 29.9242 16.8133 29.8959 16.8133C29.8676 16.8133 29.8445 16.8249 29.8445 16.8391C29.8445 16.8532 29.8239 16.8648 29.7987 16.8648C29.7735 16.8648 29.7362 16.8879 29.7158 16.9162C29.6954 16.9445 29.6582 16.9677 29.633 16.9677C29.6078 16.9677 29.5872 16.9793 29.5872 16.9934C29.5872 17.0076 29.5666 17.0191 29.5414 17.0191C29.5162 17.0191 29.479 17.0423 29.4586 17.0706C29.4382 17.0989 29.4055 17.1221 29.386 17.1221C29.3665 17.1221 29.3181 17.1568 29.2785 17.1992C29.2388 17.2417 29.1929 17.2764 29.1764 17.2764C29.16 17.2764 29.0901 17.3343 29.0212 17.4051C28.9523 17.4758 28.8834 17.5337 28.8682 17.5337C28.8318 17.5337 28.3008 18.065 28.3008 18.1014C28.3008 18.1169 28.2545 18.174 28.1979 18.2284C28.1413 18.2828 28.095 18.3409 28.095 18.3575C28.095 18.3742 28.0602 18.4203 28.0178 18.4599C27.9753 18.4996 27.9406 18.548 27.9406 18.5675C27.9406 18.587 27.9175 18.6196 27.8892 18.64C27.8609 18.6604 27.8377 18.6951 27.8377 18.7172C27.8377 18.7392 27.8145 18.774 27.7862 18.7944C27.7579 18.8148 27.7348 18.8521 27.7348 18.8772C27.7348 18.9024 27.7232 18.923 27.7091 18.923C27.6949 18.923 27.6833 18.9436 27.6833 18.9688C27.6833 18.994 27.6602 19.0313 27.6319 19.0517C27.6036 19.0721 27.5804 19.1093 27.5804 19.1345C27.5804 19.1597 27.5688 19.1803 27.5547 19.1803C27.5405 19.1803 27.529 19.2035 27.529 19.2318C27.529 19.2601 27.5174 19.2832 27.5032 19.2832C27.4891 19.2832 27.4775 19.3064 27.4775 19.3347C27.4775 19.363 27.4659 19.3861 27.4518 19.3861C27.4376 19.3861 27.426 19.4209 27.426 19.4633C27.426 19.5058 27.4145 19.5405 27.4003 19.5405C27.3862 19.5405 27.3746 19.5636 27.3746 19.5919C27.3746 19.6202 27.363 19.6434 27.3489 19.6434C27.3347 19.6434 27.3231 19.6666 27.3231 19.6949C27.3231 19.7232 27.3116 19.7463 27.2974 19.7463C27.2833 19.7463 27.2717 19.781 27.2717 19.8235C27.2717 19.866 27.2601 19.9007 27.246 19.9007C27.2318 19.9007 27.2202 19.9354 27.2202 19.9779C27.2202 20.0203 27.2086 20.0551 27.1945 20.0551C27.1803 20.0551 27.1688 20.0898 27.1688 20.1322C27.1688 20.1747 27.1572 20.2094 27.143 20.2094C27.1289 20.2094 27.1173 20.2557 27.1173 20.3123C27.1173 20.3689 27.1057 20.4152 27.0916 20.4152C27.0774 20.4152 27.0659 20.4616 27.0659 20.5182C27.0659 20.5748 27.0543 20.6211 27.0401 20.6211C27.026 20.6211 27.0144 20.679 27.0144 20.7497C27.0144 20.8205 27.0028 20.8783 26.9887 20.8783C26.974 20.8783 26.9629 20.9555 26.9629 21.0584C26.9629 21.1614 26.9519 21.2385 26.9372 21.2385C26.9208 21.2385 26.9115 21.4529 26.9115 21.8303C26.9115 22.2076 26.9208 22.422 26.9372 22.422C26.9519 22.422 26.9629 22.4992 26.9629 22.6021C26.9629 22.705 26.974 22.7822 26.9887 22.7822C27.0028 22.7822 27.0144 22.8401 27.0144 22.9109C27.0144 22.9816 27.026 23.0395 27.0401 23.0395C27.0543 23.0395 27.0659 23.0858 27.0659 23.1424C27.0659 23.199 27.0774 23.2453 27.0916 23.2453C27.1057 23.2453 27.1173 23.2916 27.1173 23.3482C27.1173 23.4048 27.1289 23.4511 27.143 23.4511C27.1572 23.4511 27.1688 23.4859 27.1688 23.5283C27.1688 23.5708 27.1803 23.6055 27.1945 23.6055C27.2086 23.6055 27.2202 23.6402 27.2202 23.6827C27.2202 23.7252 27.2318 23.7599 27.246 23.7599C27.2601 23.7599 27.2717 23.7946 27.2717 23.8371C27.2717 23.8795 27.2833 23.9143 27.2974 23.9143C27.3116 23.9143 27.3231 23.9374 27.3231 23.9657C27.3231 23.994 27.3347 24.0172 27.3489 24.0172C27.363 24.0172 27.3746 24.0403 27.3746 24.0686C27.3746 24.0969 27.3862 24.1201 27.4003 24.1201C27.4145 24.1201 27.426 24.1548 27.426 24.1973C27.426 24.2397 27.4376 24.2744 27.4518 24.2744C27.4659 24.2744 27.4775 24.2976 27.4775 24.3259C27.4775 24.3542 27.4891 24.3774 27.5032 24.3774C27.5174 24.3774 27.529 24.4005 27.529 24.4288C27.529 24.4571 27.5405 24.4803 27.5547 24.4803C27.5688 24.4803 27.5804 24.5009 27.5804 24.526C27.5804 24.5512 27.6036 24.5885 27.6319 24.6089C27.6602 24.6293 27.6833 24.6666 27.6833 24.6918C27.6833 24.7169 27.6949 24.7375 27.7091 24.7375C27.7232 24.7375 27.7348 24.7582 27.7348 24.7833C27.7348 24.8085 27.7579 24.8458 27.7862 24.8662C27.8145 24.8866 27.8377 24.9213 27.8377 24.9434C27.8377 24.9654 27.8609 25.0002 27.8892 25.0206C27.9175 25.041 27.9406 25.0736 27.9406 25.0931C27.9406 25.1126 27.9753 25.161 28.0178 25.2007C28.0602 25.2403 28.095 25.2864 28.095 25.303C28.095 25.3197 28.1413 25.3778 28.1979 25.4322C28.2545 25.4866 28.3008 25.5437 28.3008 25.5591C28.3008 25.5957 28.8834 26.1783 28.92 26.1783C28.9354 26.1783 28.9925 26.2246 29.0469 26.2812C29.1013 26.3378 29.1615 26.3841 29.1807 26.3841C29.1999 26.3841 29.2323 26.4073 29.2527 26.4356C29.2731 26.4639 29.3058 26.4871 29.3253 26.4871C29.3448 26.4871 29.3932 26.5218 29.4328 26.5642C29.4725 26.6067 29.5234 26.6414 29.5461 26.6414C29.5687 26.6414 29.5872 26.653 29.5872 26.6671C29.5872 26.6813 29.6078 26.6929 29.633 26.6929C29.6582 26.6929 29.6954 26.716 29.7158 26.7443C29.7362 26.7726 29.7735 26.7958 29.7987 26.7958C29.8239 26.7958 29.8445 26.8074 29.8445 26.8215C29.8445 26.8357 29.8676 26.8472 29.8959 26.8472C29.9242 26.8472 29.9474 26.8588 29.9474 26.873C29.9474 26.8871 29.9705 26.8987 29.9988 26.8987C30.0271 26.8987 30.0503 26.9103 30.0503 26.9244C30.0503 26.9386 30.0735 26.9502 30.1018 26.9502C30.1301 26.9502 30.1532 26.9617 30.1532 26.9759C30.1532 26.99 30.1764 27.0016 30.2047 27.0016C30.233 27.0016 30.2561 27.0132 30.2561 27.0273C30.2561 27.0415 30.2793 27.0531 30.3076 27.0531C30.3359 27.0531 30.359 27.0646 30.359 27.0788C30.359 27.0929 30.3938 27.1045 30.4362 27.1045C30.4787 27.1045 30.5134 27.1161 30.5134 27.1303C30.5134 27.1444 30.5366 27.156 30.5649 27.156C30.5932 27.156 30.6163 27.1676 30.6163 27.1817C30.6163 27.1959 30.6511 27.2074 30.6935 27.2074C30.736 27.2074 30.7707 27.219 30.7707 27.2332C30.7707 27.2473 30.8054 27.2589 30.8479 27.2589C30.8903 27.2589 30.9251 27.2705 30.9251 27.2846C30.9251 27.2988 30.9598 27.3103 31.0022 27.3103C31.0447 27.3103 31.0794 27.3219 31.0794 27.3361C31.0794 27.3502 31.1257 27.3618 31.1823 27.3618C31.2389 27.3618 31.2852 27.3734 31.2852 27.3875C31.2852 27.4017 31.3431 27.4133 31.4139 27.4133C31.4846 27.4133 31.5425 27.4248 31.5425 27.439C31.5425 27.4533 31.6111 27.4647 31.6969 27.4647C31.7826 27.4647 31.8513 27.4761 31.8513 27.4904C31.8513 27.507 32.1171 27.5162 32.5974 27.5162C33.0776 27.5162 33.3435 27.507 33.3435 27.4904C33.3435 27.4758 33.4207 27.4647 33.5236 27.4647C33.6265 27.4647 33.7037 27.4537 33.7037 27.439C33.7037 27.4248 33.7616 27.4133 33.8323 27.4133C33.9031 27.4133 33.961 27.4017 33.961 27.3875C33.961 27.3734 34.0073 27.3618 34.0639 27.3618C34.1205 27.3618 34.1668 27.3502 34.1668 27.3361C34.1668 27.3219 34.2015 27.3103 34.244 27.3103C34.2864 27.3103 34.3212 27.2988 34.3212 27.2846C34.3212 27.2705 34.3559 27.2589 34.3983 27.2589C34.4408 27.2589 34.4755 27.2473 34.4755 27.2332C34.4755 27.219 34.5103 27.2074 34.5527 27.2074C34.5952 27.2074 34.6299 27.1959 34.6299 27.1817C34.6299 27.1676 34.653 27.156 34.6813 27.156C34.7096 27.156 34.7328 27.1444 34.7328 27.1303C34.7328 27.1161 34.7675 27.1045 34.81 27.1045C34.8524 27.1045 34.8872 27.0929 34.8872 27.0788C34.8872 27.0646 34.9103 27.0531 34.9386 27.0531C34.9669 27.0531 34.9901 27.0415 34.9901 27.0273C34.9901 27.0132 35.0132 27.0016 35.0415 27.0016C35.0698 27.0016 35.093 26.99 35.093 26.9759C35.093 26.9617 35.1161 26.9502 35.1444 26.9502C35.1727 26.9502 35.1959 26.9386 35.1959 26.9244C35.1959 26.9103 35.2191 26.8987 35.2474 26.8987C35.2757 26.8987 35.2988 26.8871 35.2988 26.873C35.2988 26.8588 35.322 26.8472 35.3503 26.8472C35.3786 26.8472 35.4017 26.8357 35.4017 26.8215C35.4017 26.8074 35.4223 26.7958 35.4475 26.7958C35.4727 26.7958 35.51 26.7726 35.5304 26.7443C35.5508 26.716 35.5881 26.6929 35.6132 26.6929C35.6384 26.6929 35.659 26.6813 35.659 26.6671C35.659 26.653 35.6775 26.6414 35.7001 26.6414C35.7228 26.6414 35.7737 26.6067 35.8134 26.5642C35.853 26.5218 35.9014 26.4871 35.9209 26.4871C35.9404 26.4871 35.9731 26.4639 35.9935 26.4356C36.0139 26.4073 36.0461 26.3841 36.0652 26.3841C36.0842 26.3841 36.1561 26.3263 36.225 26.2555C36.2939 26.1847 36.3628 26.1269 36.3781 26.1269C36.4142 26.1269 36.894 25.6471 36.894 25.611C36.894 25.5957 36.9518 25.5269 37.0226 25.4579C37.0933 25.389 37.1512 25.3192 37.1512 25.3027C37.1512 25.2862 37.186 25.2403 37.2284 25.2007C37.2709 25.161 37.3056 25.1126 37.3056 25.0931C37.3056 25.0736 37.3288 25.041 37.3571 25.0206C37.3854 25.0002 37.4085 24.9654 37.4085 24.9434C37.4085 24.9213 37.4317 24.8866 37.46 24.8662C37.4883 24.8458 37.5114 24.8085 37.5114 24.7833C37.5114 24.7582 37.523 24.7375 37.5372 24.7375C37.5513 24.7375 37.5629 24.7144 37.5629 24.6861C37.5629 24.6578 37.5745 24.6346 37.5886 24.6346C37.6028 24.6346 37.6143 24.6115 37.6143 24.5832C37.6143 24.5549 37.6259 24.5317 37.6401 24.5317C37.6542 24.5317 37.6658 24.5086 37.6658 24.4803C37.6658 24.452 37.6774 24.4288 37.6915 24.4288C37.7057 24.4288 37.7172 24.4057 37.7172 24.3774C37.7172 24.3491 37.7288 24.3259 37.743 24.3259C37.7571 24.3259 37.7687 24.3027 37.7687 24.2744C37.7687 24.2461 37.7803 24.223 37.7944 24.223C37.8086 24.223 37.8202 24.1998 37.8202 24.1715C37.8202 24.1432 37.8317 24.1201 37.8459 24.1201C37.86 24.1201 37.8716 24.0969 37.8716 24.0686C37.8716 24.0403 37.8832 24.0172 37.8973 24.0172C37.9115 24.0172 37.9231 23.994 37.9231 23.9657C37.9231 23.9374 37.9347 23.9143 37.9488 23.9143C37.963 23.9143 37.9745 23.8795 37.9745 23.8371C37.9745 23.7946 37.9861 23.7599 38.0003 23.7599C38.0144 23.7599 38.026 23.7252 38.026 23.6827C38.026 23.6402 38.0376 23.6055 38.0517 23.6055C38.0659 23.6055 38.0774 23.5592 38.0774 23.5026C38.0774 23.446 38.089 23.3997 38.1032 23.3997C38.1173 23.3997 38.1289 23.3534 38.1289 23.2968C38.1289 23.2402 38.1405 23.1939 38.1546 23.1939C38.1688 23.1939 38.1804 23.1476 38.1804 23.091C38.1804 23.0344 38.1919 22.988 38.2061 22.988C38.2202 22.988 38.2318 22.9302 38.2318 22.8594C38.2318 22.7887 38.2434 22.7308 38.2575 22.7308C38.2728 22.7308 38.2833 22.6364 38.2833 22.4992C38.2833 22.362 38.2937 22.2677 38.309 22.2677C38.3252 22.2677 38.3347 22.0961 38.3347 21.8046C38.3347 21.513 38.3252 21.3415 38.309 21.3415C38.294 21.3415 38.2833 21.2557 38.2833 21.1356C38.2833 21.0156 38.2725 20.9298 38.2575 20.9298C38.2434 20.9298 38.2318 20.8719 38.2318 20.8012C38.2318 20.7304 38.2202 20.6725 38.2061 20.6725C38.1919 20.6725 38.1804 20.6262 38.1804 20.5696C38.1804 20.513 38.1688 20.4667 38.1546 20.4667C38.1405 20.4667 38.1289 20.4204 38.1289 20.3638C38.1289 20.3072 38.1173 20.2609 38.1032 20.2609C38.089 20.2609 38.0774 20.2146 38.0774 20.158C38.0774 20.1014 38.0659 20.0551 38.0517 20.0551C38.0376 20.0551 38.026 20.0203 38.026 19.9779C38.026 19.9354 38.0144 19.9007 38.0003 19.9007C37.9861 19.9007 37.9745 19.8775 37.9745 19.8492C37.9745 19.8209 37.963 19.7978 37.9488 19.7978C37.9347 19.7978 37.9231 19.763 37.9231 19.7206C37.9231 19.6781 37.9115 19.6434 37.8973 19.6434C37.8832 19.6434 37.8716 19.6202 37.8716 19.5919C37.8716 19.5636 37.86 19.5405 37.8459 19.5405C37.8317 19.5405 37.8202 19.5173 37.8202 19.489C37.8202 19.4607 37.8086 19.4376 37.7944 19.4376C37.7803 19.4376 37.7687 19.4144 37.7687 19.3861C37.7687 19.3578 37.7571 19.3347 37.743 19.3347C37.7288 19.3347 37.7172 19.3115 37.7172 19.2832C37.7172 19.2549 37.7057 19.2318 37.6915 19.2318C37.6774 19.2318 37.6658 19.2086 37.6658 19.1803C37.6658 19.152 37.6542 19.1288 37.6401 19.1288C37.6259 19.1288 37.6143 19.1057 37.6143 19.0774C37.6143 19.0491 37.6028 19.0259 37.5886 19.0259C37.5745 19.0259 37.5629 19.0028 37.5629 18.9745C37.5629 18.9462 37.5513 18.923 37.5372 18.923C37.523 18.923 37.5114 18.9024 37.5114 18.8772C37.5114 18.8521 37.4883 18.8148 37.46 18.7944C37.4317 18.774 37.4085 18.7392 37.4085 18.7172C37.4085 18.6951 37.3854 18.6604 37.3571 18.64C37.3288 18.6196 37.3056 18.587 37.3056 18.5675C37.3056 18.548 37.2709 18.4996 37.2284 18.4599C37.186 18.4203 37.1512 18.3744 37.1512 18.3581C37.1512 18.3418 37.0818 18.2602 36.9969 18.1769C36.912 18.0936 36.8425 18.013 36.8425 17.9979C36.8425 17.9618 36.4142 17.5337 36.3781 17.5337C36.3628 17.5337 36.2939 17.4758 36.225 17.4051C36.1561 17.3343 36.0842 17.2764 36.0652 17.2764C36.0461 17.2764 36.0139 17.2533 35.9935 17.225C35.9731 17.1967 35.9383 17.1735 35.9163 17.1735C35.8942 17.1735 35.8595 17.1504 35.8391 17.1221C35.8187 17.0938 35.784 17.0706 35.7619 17.0706C35.7399 17.0706 35.7051 17.0474 35.6847 17.0191C35.6643 16.9908 35.6271 16.9677 35.6019 16.9677C35.5767 16.9677 35.5561 16.9561 35.5561 16.942C35.5561 16.9278 35.5355 16.9162 35.5103 16.9162C35.4851 16.9162 35.4479 16.8931 35.4275 16.8648C35.4071 16.8365 35.3698 16.8133 35.3446 16.8133C35.3194 16.8133 35.2988 16.8017 35.2988 16.7876C35.2988 16.7734 35.2757 16.7619 35.2474 16.7619C35.2191 16.7619 35.1959 16.7503 35.1959 16.7361C35.1959 16.722 35.1727 16.7104 35.1444 16.7104C35.1161 16.7104 35.093 16.6988 35.093 16.6847C35.093 16.6705 35.0698 16.659 35.0415 16.659C35.0132 16.659 34.9901 16.6474 34.9901 16.6332C34.9901 16.6191 34.9669 16.6075 34.9386 16.6075C34.9103 16.6075 34.8872 16.5959 34.8872 16.5818C34.8872 16.5676 34.8524 16.556 34.81 16.556C34.7675 16.556 34.7328 16.5445 34.7328 16.5303C34.7328 16.5162 34.6981 16.5046 34.6556 16.5046C34.6132 16.5046 34.5784 16.493 34.5784 16.4789C34.5784 16.4647 34.5553 16.4531 34.527 16.4531C34.4987 16.4531 34.4755 16.4416 34.4755 16.4274C34.4755 16.4133 34.4408 16.4017 34.3983 16.4017C34.3559 16.4017 34.3212 16.3901 34.3212 16.3759C34.3212 16.3618 34.2748 16.3502 34.2182 16.3502C34.1616 16.3502 34.1153 16.3386 34.1153 16.3245C34.1153 16.3103 34.069 16.2988 34.0124 16.2988C33.9558 16.2988 33.9095 16.2872 33.9095 16.273C33.9095 16.2589 33.8516 16.2473 33.7809 16.2473C33.7101 16.2473 33.6522 16.2357 33.6522 16.2216C33.6522 16.2073 33.5836 16.1959 33.4979 16.1959C33.4121 16.1959 33.3435 16.1844 33.3435 16.1701C33.3435 16.1536 33.0948 16.1444 32.6488 16.1444C32.2029 16.1444 31.9542 16.1536 31.9542 16.1701ZM6.58637 18.8973C6.58637 18.9116 6.65498 18.923 6.74074 18.923C6.82649 18.923 6.8951 18.9344 6.8951 18.9487C6.8951 18.9629 6.92984 18.9745 6.97229 18.9745C7.01474 18.9745 7.04947 18.9861 7.04947 19.0002C7.04947 19.0144 7.0842 19.0259 7.12666 19.0259C7.16911 19.0259 7.20384 19.0375 7.20384 19.0517C7.20384 19.0658 7.227 19.0774 7.2553 19.0774C7.2836 19.0774 7.30675 19.089 7.30675 19.1031C7.30675 19.1173 7.32991 19.1288 7.35821 19.1288C7.38651 19.1288 7.40966 19.1404 7.40966 19.1546C7.40966 19.1687 7.43027 19.1803 7.45543 19.1803C7.48062 19.1803 7.5179 19.2035 7.5383 19.2318C7.55871 19.2601 7.59344 19.2832 7.61549 19.2832C7.63754 19.2832 7.67227 19.3064 7.69267 19.3347C7.71307 19.363 7.74475 19.3861 7.76309 19.3861C7.78141 19.3861 7.88306 19.4728 7.98896 19.5787C8.09485 19.6846 8.1815 19.7862 8.1815 19.8045C8.1815 19.8229 8.20466 19.8546 8.23296 19.875C8.26126 19.8954 8.28442 19.9301 8.28442 19.9521C8.28442 19.9742 8.30757 20.0089 8.33587 20.0293C8.36417 20.0497 8.38733 20.087 8.38733 20.1122C8.38733 20.1374 8.39891 20.158 8.41306 20.158C8.42721 20.158 8.43878 20.1927 8.43878 20.2351C8.43878 20.2776 8.45036 20.3123 8.46451 20.3123C8.47866 20.3123 8.49024 20.3355 8.49024 20.3638C8.49024 20.3921 8.50182 20.4152 8.51597 20.4152C8.53012 20.4152 8.5417 20.45 8.5417 20.4924C8.5417 20.5349 8.55327 20.5696 8.56742 20.5696C8.58157 20.5696 8.59315 20.6275 8.59315 20.6983C8.59315 20.769 8.60473 20.8269 8.61888 20.8269C8.63496 20.8269 8.64461 20.9813 8.64461 21.2385C8.64461 21.4958 8.63496 21.6502 8.61888 21.6502C8.60473 21.6502 8.59315 21.6965 8.59315 21.7531C8.59315 21.8097 8.58157 21.856 8.56742 21.856C8.55327 21.856 8.5417 21.9023 8.5417 21.9589C8.5417 22.0155 8.53012 22.0618 8.51597 22.0618C8.50182 22.0618 8.49024 22.085 8.49024 22.1133C8.49024 22.1416 8.47866 22.1647 8.46451 22.1647C8.45036 22.1647 8.43878 22.1879 8.43878 22.2162C8.43878 22.2445 8.42721 22.2677 8.41306 22.2677C8.39891 22.2677 8.38733 22.2908 8.38733 22.3191C8.38733 22.3474 8.37575 22.3706 8.3616 22.3706C8.34745 22.3706 8.33587 22.3912 8.33587 22.4163C8.33587 22.4415 8.31272 22.4788 8.28442 22.4992C8.25611 22.5196 8.23296 22.5512 8.23296 22.5695C8.23296 22.6129 7.7034 23.1424 7.66005 23.1424C7.64178 23.1424 7.61016 23.1656 7.58976 23.1939C7.56936 23.2222 7.53208 23.2453 7.50689 23.2453C7.48173 23.2453 7.46112 23.2569 7.46112 23.2711C7.46112 23.2852 7.43796 23.2968 7.40966 23.2968C7.38136 23.2968 7.35821 23.3084 7.35821 23.3225C7.35821 23.3367 7.33505 23.3482 7.30675 23.3482C7.27845 23.3482 7.2553 23.3598 7.2553 23.374C7.2553 23.3881 7.22056 23.3997 7.17811 23.3997C7.13566 23.3997 7.10093 23.4113 7.10093 23.4254C7.10093 23.4396 7.07777 23.4511 7.04947 23.4511C7.02117 23.4511 6.99802 23.4627 6.99802 23.4769C6.99802 23.491 6.95171 23.5026 6.8951 23.5026C6.8385 23.5026 6.79219 23.5142 6.79219 23.5283C6.79219 23.5445 6.62066 23.5541 6.32909 23.5541C6.03751 23.5541 5.86598 23.5445 5.86598 23.5283C5.86598 23.5142 5.81967 23.5026 5.76307 23.5026C5.70647 23.5026 5.66016 23.491 5.66016 23.4769C5.66016 23.4627 5.62543 23.4511 5.58298 23.4511C5.54052 23.4511 5.50579 23.4396 5.50579 23.4254C5.50579 23.4113 5.47106 23.3997 5.42861 23.3997C5.38616 23.3997 5.35142 23.3881 5.35142 23.374C5.35142 23.3598 5.32827 23.3482 5.29997 23.3482C5.27167 23.3482 5.24851 23.3367 5.24851 23.3225C5.24851 23.3084 5.2279 23.2968 5.20274 23.2968C5.17755 23.2968 5.14027 23.2736 5.11987 23.2453C5.09947 23.217 5.06474 23.1939 5.04269 23.1939C5.02064 23.1939 4.98591 23.1707 4.9655 23.1424C4.9451 23.1141 4.91343 23.091 4.89509 23.091C4.85163 23.091 4.47667 22.716 4.47667 22.6725C4.47667 22.6542 4.45352 22.6225 4.42522 22.6021C4.39692 22.5817 4.37376 22.547 4.37376 22.5249C4.37376 22.5029 4.35061 22.4682 4.3223 22.4478C4.294 22.4274 4.27085 22.3901 4.27085 22.3649C4.27085 22.3397 4.25927 22.3191 4.24512 22.3191C4.23097 22.3191 4.21939 22.296 4.21939 22.2677C4.21939 22.2394 4.20781 22.2162 4.19366 22.2162C4.17951 22.2162 4.16794 22.193 4.16794 22.1647C4.16794 22.1364 4.15636 22.1133 4.14221 22.1133C4.12806 22.1133 4.11648 22.0786 4.11648 22.0361C4.11648 21.9937 4.1049 21.9589 4.09075 21.9589C4.0766 21.9589 4.06502 21.9126 4.06502 21.856C4.06502 21.7994 4.05345 21.7531 4.0393 21.7531C4.02499 21.7531 4.01357 21.6845 4.01357 21.5987C4.01357 21.513 4.00214 21.4444 3.98784 21.4444C3.97284 21.4444 3.96211 21.3586 3.96211 21.2385C3.96211 21.1185 3.97284 21.0327 3.98784 21.0327C4.00253 21.0327 4.01357 20.9555 4.01357 20.8526C4.01357 20.7497 4.02461 20.6725 4.0393 20.6725C4.05345 20.6725 4.06502 20.6378 4.06502 20.5953C4.06502 20.5529 4.0766 20.5182 4.09075 20.5182C4.1049 20.5182 4.11648 20.4834 4.11648 20.441C4.11648 20.3985 4.12806 20.3638 4.14221 20.3638C4.15636 20.3638 4.16794 20.3406 4.16794 20.3123C4.16794 20.284 4.17951 20.2609 4.19366 20.2609C4.20781 20.2609 4.21939 20.2287 4.21939 20.1894C4.21939 20.1474 4.24064 20.1026 4.27085 20.0808C4.29915 20.0604 4.3223 20.0231 4.3223 19.9979C4.3223 19.9727 4.33388 19.9521 4.34803 19.9521C4.36218 19.9521 4.37376 19.9346 4.37376 19.9132C4.37376 19.866 4.89987 19.3347 4.94667 19.3347C4.96494 19.3347 4.99656 19.3115 5.01696 19.2832C5.03736 19.2549 5.0721 19.2318 5.09414 19.2318C5.11619 19.2318 5.15093 19.2086 5.17133 19.1803C5.19173 19.152 5.22901 19.1288 5.2542 19.1288C5.27936 19.1288 5.29997 19.1173 5.29997 19.1031C5.29997 19.089 5.3347 19.0774 5.37715 19.0774C5.4196 19.0774 5.45434 19.0658 5.45434 19.0517C5.45434 19.0375 5.47749 19.0259 5.50579 19.0259C5.53409 19.0259 5.55725 19.0144 5.55725 19.0002C5.55725 18.9861 5.60356 18.9745 5.66016 18.9745C5.71676 18.9745 5.76307 18.9629 5.76307 18.9487C5.76307 18.9344 5.83169 18.923 5.91744 18.923C6.00319 18.923 6.07181 18.9116 6.07181 18.8973C6.07181 18.8819 6.17472 18.8716 6.32909 18.8716C6.48346 18.8716 6.58637 18.8819 6.58637 18.8973ZM32.9318 19.7206C32.9318 19.7347 32.9897 19.7463 33.0605 19.7463C33.1312 19.7463 33.1891 19.7579 33.1891 19.772C33.1891 19.7862 33.2239 19.7978 33.2663 19.7978C33.3088 19.7978 33.3435 19.8093 33.3435 19.8235C33.3435 19.8377 33.3666 19.8492 33.3949 19.8492C33.4232 19.8492 33.4464 19.8608 33.4464 19.875C33.4464 19.8891 33.4696 19.9007 33.4979 19.9007C33.5262 19.9007 33.5493 19.9123 33.5493 19.9264C33.5493 19.9406 33.5725 19.9521 33.6008 19.9521C33.6291 19.9521 33.6522 19.9637 33.6522 19.9779C33.6522 19.992 33.6754 20.0036 33.7037 20.0036C33.732 20.0036 33.7551 20.0152 33.7551 20.0293C33.7551 20.0435 33.7734 20.0551 33.7957 20.0551C33.8181 20.0551 33.8808 20.1014 33.9352 20.158C33.9896 20.2146 34.0471 20.2609 34.063 20.2609C34.1008 20.2609 34.2182 20.3787 34.2182 20.4166C34.2182 20.4328 34.253 20.4785 34.2954 20.5182C34.3379 20.5578 34.3726 20.6062 34.3726 20.6257C34.3726 20.6452 34.3958 20.6778 34.4241 20.6983C34.4524 20.7187 34.4755 20.7559 34.4755 20.7811C34.4755 20.8063 34.4871 20.8269 34.5012 20.8269C34.5154 20.8269 34.527 20.85 34.527 20.8783C34.527 20.9066 34.5386 20.9298 34.5527 20.9298C34.5669 20.9298 34.5784 20.953 34.5784 20.9813C34.5784 21.0096 34.59 21.0327 34.6042 21.0327C34.6183 21.0327 34.6299 21.0674 34.6299 21.1099C34.6299 21.1524 34.6415 21.1871 34.6556 21.1871C34.6698 21.1871 34.6813 21.2334 34.6813 21.29C34.6813 21.3466 34.6929 21.3929 34.7071 21.3929C34.7232 21.3929 34.7328 21.5558 34.7328 21.8303C34.7328 22.1047 34.7232 22.2677 34.7071 22.2677C34.6929 22.2677 34.6813 22.314 34.6813 22.3706C34.6813 22.4272 34.6698 22.4735 34.6556 22.4735C34.6415 22.4735 34.6299 22.5082 34.6299 22.5507C34.6299 22.5931 34.6183 22.6279 34.6042 22.6279C34.59 22.6279 34.5784 22.651 34.5784 22.6793C34.5784 22.7076 34.5669 22.7308 34.5527 22.7308C34.5386 22.7308 34.527 22.7539 34.527 22.7822C34.527 22.8105 34.5154 22.8337 34.5012 22.8337C34.4871 22.8337 34.4755 22.8568 34.4755 22.8851C34.4755 22.9134 34.4639 22.9366 34.4498 22.9366C34.4356 22.9366 34.4241 22.9551 34.4241 22.9777C34.4241 23.0003 34.3893 23.0513 34.3469 23.091C34.3044 23.1306 34.2697 23.1762 34.2697 23.1922C34.2697 23.2298 34.1002 23.3997 34.0627 23.3997C34.047 23.3997 33.9896 23.446 33.9352 23.5026C33.8808 23.5592 33.8181 23.6055 33.7957 23.6055C33.7734 23.6055 33.7551 23.6171 33.7551 23.6312C33.7551 23.6454 33.7345 23.657 33.7094 23.657C33.6842 23.657 33.6469 23.6801 33.6265 23.7084C33.6061 23.7367 33.5688 23.7599 33.5436 23.7599C33.5185 23.7599 33.4979 23.7715 33.4979 23.7856C33.4979 23.7998 33.4631 23.8113 33.4207 23.8113C33.3782 23.8113 33.3435 23.8229 33.3435 23.8371C33.3435 23.8512 33.3088 23.8628 33.2663 23.8628C33.2239 23.8628 33.1891 23.8744 33.1891 23.8885C33.1891 23.9027 33.1312 23.9143 33.0605 23.9143C32.9897 23.9143 32.9318 23.9258 32.9318 23.94C32.9318 23.9557 32.8118 23.9657 32.6231 23.9657C32.4344 23.9657 32.3144 23.9557 32.3144 23.94C32.3144 23.9258 32.2565 23.9143 32.1857 23.9143C32.115 23.9143 32.0571 23.9027 32.0571 23.8885C32.0571 23.8744 32.0224 23.8628 31.9799 23.8628C31.9375 23.8628 31.9027 23.8512 31.9027 23.8371C31.9027 23.8229 31.8796 23.8113 31.8513 23.8113C31.823 23.8113 31.7998 23.7998 31.7998 23.7856C31.7998 23.7715 31.7676 23.7599 31.7283 23.7599C31.6863 23.7599 31.6415 23.7386 31.6197 23.7084C31.5993 23.6801 31.562 23.657 31.5368 23.657C31.5117 23.657 31.4911 23.6454 31.4911 23.6312C31.4911 23.6171 31.473 23.6055 31.4508 23.6055C31.4287 23.6055 31.3542 23.5476 31.2852 23.4769C31.2163 23.4061 31.1418 23.3482 31.1197 23.3482C31.0975 23.3482 31.0794 23.33 31.0794 23.3076C31.0794 23.2853 31.0331 23.2225 30.9765 23.1681C30.9199 23.1138 30.8736 23.0535 30.8736 23.0343C30.8736 23.0151 30.8504 22.9827 30.8221 22.9623C30.7938 22.9419 30.7707 22.9046 30.7707 22.8794C30.7707 22.8543 30.7591 22.8337 30.745 22.8337C30.7308 22.8337 30.7192 22.8105 30.7192 22.7822C30.7192 22.7539 30.7077 22.7308 30.6935 22.7308C30.6794 22.7308 30.6678 22.696 30.6678 22.6536C30.6678 22.6111 30.6562 22.5764 30.642 22.5764C30.6279 22.5764 30.6163 22.5532 30.6163 22.5249C30.6163 22.4966 30.6047 22.4735 30.5906 22.4735C30.5764 22.4735 30.5649 22.4272 30.5649 22.3706C30.5649 22.314 30.5533 22.2677 30.5391 22.2677C30.523 22.2677 30.5134 22.1047 30.5134 21.8303C30.5134 21.5558 30.523 21.3929 30.5391 21.3929C30.5533 21.3929 30.5649 21.3582 30.5649 21.3157C30.5649 21.2733 30.5764 21.2385 30.5906 21.2385C30.6047 21.2385 30.6163 21.1922 30.6163 21.1356C30.6163 21.079 30.6279 21.0327 30.642 21.0327C30.6562 21.0327 30.6678 21.0096 30.6678 20.9813C30.6678 20.953 30.6794 20.9298 30.6935 20.9298C30.7077 20.9298 30.7192 20.9066 30.7192 20.8783C30.7192 20.85 30.7308 20.8269 30.745 20.8269C30.7591 20.8269 30.7707 20.8063 30.7707 20.7811C30.7707 20.7559 30.7938 20.7187 30.8221 20.6983C30.8504 20.6778 30.8736 20.6462 30.8736 20.628C30.8736 20.5812 31.4049 20.0551 31.4522 20.0551C31.4736 20.0551 31.4911 20.0435 31.4911 20.0293C31.4911 20.0152 31.5142 20.0036 31.5425 20.0036C31.5708 20.0036 31.594 19.992 31.594 19.9779C31.594 19.9637 31.6171 19.9521 31.6454 19.9521C31.6737 19.9521 31.6969 19.9406 31.6969 19.9264C31.6969 19.9123 31.7201 19.9007 31.7484 19.9007C31.7767 19.9007 31.7998 19.8891 31.7998 19.875C31.7998 19.8608 31.823 19.8492 31.8513 19.8492C31.8796 19.8492 31.9027 19.8377 31.9027 19.8235C31.9027 19.8093 31.9375 19.7978 31.9799 19.7978C32.0224 19.7978 32.0571 19.7862 32.0571 19.772C32.0571 19.7577 32.1257 19.7463 32.2115 19.7463C32.2972 19.7463 32.3658 19.7349 32.3658 19.7206C32.3658 19.705 32.4773 19.6949 32.6488 19.6949C32.8204 19.6949 32.9318 19.705 32.9318 19.7206Z" fill="black"/>
</svg>
