<svg width="39" height="18" viewBox="0 0 39 18" fill="none" xmlns="http://www.w3.org/2000/svg">
<path fill-rule="evenodd" clip-rule="evenodd" d="M24.9106 0.932469C24.9106 0.973989 24.9488 1.03544 24.9955 1.06907C25.0421 1.10271 25.0803 1.16416 25.0803 1.20568C25.0803 1.24716 25.0994 1.28113 25.1227 1.28113C25.146 1.28113 25.1651 1.3151 25.1651 1.35658C25.1651 1.3981 25.2033 1.45955 25.2499 1.49318C25.2966 1.52681 25.3347 1.58827 25.3347 1.62979C25.3347 1.67126 25.3538 1.70523 25.3772 1.70523C25.4005 1.70523 25.4196 1.7392 25.4196 1.78068C25.4196 1.8222 25.4577 1.88366 25.5044 1.91729C25.551 1.95092 25.5892 2.01237 25.5892 2.05389C25.5892 2.09537 25.6083 2.12934 25.6316 2.12934C25.6549 2.12934 25.674 2.16331 25.674 2.20479C25.674 2.24631 25.7122 2.30776 25.7588 2.34139C25.8055 2.37503 25.8437 2.43648 25.8437 2.478C25.8437 2.51948 25.8628 2.55345 25.8861 2.55345C25.9094 2.55345 25.9285 2.58742 25.9285 2.6289C25.9285 2.67042 25.9667 2.73187 26.0133 2.7655C26.06 2.79913 26.0981 2.86059 26.0981 2.90211C26.0981 2.94358 26.1172 2.97756 26.1405 2.97756C26.1639 2.97756 26.183 3.01153 26.183 3.053C26.183 3.09452 26.2211 3.15598 26.2678 3.18961C26.3144 3.22324 26.3526 3.28469 26.3526 3.32621C26.3526 3.36769 26.3717 3.40166 26.395 3.40166C26.4183 3.40166 26.4374 3.43563 26.4374 3.47711C26.4374 3.51863 26.4756 3.58008 26.5222 3.61372C26.5689 3.64735 26.6071 3.7088 26.6071 3.75032C26.6071 3.7918 26.6261 3.82577 26.6495 3.82577C26.6728 3.82577 26.6919 3.85974 26.6919 3.90122C26.6919 3.94274 26.7301 4.00419 26.7767 4.03782C26.8234 4.07145 26.8615 4.13291 26.8615 4.17443C26.8615 4.21591 26.8806 4.24988 26.9039 4.24988C26.9273 4.24988 26.9463 4.28385 26.9463 4.32532C26.9463 4.36684 26.9845 4.4283 27.0312 4.46193C27.0778 4.49556 27.116 4.55701 27.116 4.59853C27.116 4.64001 27.1351 4.67398 27.1584 4.67398C27.1817 4.67398 27.2008 4.70795 27.2008 4.74943C27.2008 4.79095 27.239 4.85241 27.2856 4.88604C27.3323 4.91967 27.3705 4.98112 27.3705 5.02264C27.3705 5.06412 27.3895 5.09809 27.4129 5.09809C27.4362 5.09809 27.4553 5.13206 27.4553 5.17354C27.4553 5.21506 27.4934 5.27651 27.5401 5.31014C27.5868 5.34378 27.6249 5.40523 27.6249 5.44675C27.6249 5.48823 27.644 5.5222 27.6673 5.5222C27.6907 5.5222 27.7097 5.55617 27.7097 5.59765C27.7097 5.63917 27.7479 5.70062 27.7946 5.73425C27.8412 5.76788 27.8794 5.82934 27.8794 5.87086C27.8794 5.91233 27.8985 5.9463 27.9218 5.9463C27.9451 5.9463 27.9642 5.98027 27.9642 6.02175C27.9642 6.06327 28.0024 6.12473 28.049 6.15836C28.0957 6.19199 28.1338 6.23436 28.1338 6.25255C28.1338 6.2707 22.7519 6.28559 16.174 6.28559H4.21421V3.5713V0.85702H14.5624C24.4544 0.85702 24.9106 0.860328 24.9106 0.932469ZM5.99546 2.93514C5.99546 2.95847 5.96599 2.97756 5.92994 2.97756C5.84508 2.97756 5.65618 3.16645 5.65618 3.25132C5.65618 3.28736 5.63709 3.31684 5.61377 3.31684C5.59019 3.31684 5.57136 3.42995 5.57136 3.5713C5.57136 3.71266 5.59019 3.82577 5.61377 3.82577C5.63709 3.82577 5.65618 3.85524 5.65618 3.89129C5.65618 3.97616 5.84508 4.16505 5.92994 4.16505C5.96599 4.16505 5.99546 4.18414 5.99546 4.20747C5.99546 4.23444 6.33475 4.24988 6.9285 4.24988C7.52225 4.24988 7.86153 4.23444 7.86153 4.20747C7.86153 4.18414 7.89101 4.16505 7.92706 4.16505C8.01192 4.16505 8.20082 3.97616 8.20082 3.89129C8.20082 3.85524 8.2199 3.82577 8.24323 3.82577C8.26681 3.82577 8.28564 3.71266 8.28564 3.5713C8.28564 3.42995 8.26681 3.31684 8.24323 3.31684C8.2199 3.31684 8.20082 3.28736 8.20082 3.25132C8.20082 3.16645 8.01192 2.97756 7.92706 2.97756C7.89101 2.97756 7.86153 2.95847 7.86153 2.93514C7.86153 2.90817 7.52225 2.89273 6.9285 2.89273C6.33475 2.89273 5.99546 2.90817 5.99546 2.93514ZM10.0669 2.93514C10.0669 2.95847 10.0374 2.97756 10.0014 2.97756C9.96532 2.97756 9.88898 3.02442 9.83172 3.08167C9.77447 3.13893 9.7276 3.21527 9.7276 3.25132C9.7276 3.28736 9.70852 3.31684 9.68519 3.31684C9.66161 3.31684 9.64278 3.42995 9.64278 3.5713C9.64278 3.71266 9.66161 3.82577 9.68519 3.82577C9.70852 3.82577 9.7276 3.85524 9.7276 3.89129C9.7276 3.97616 9.9165 4.16505 10.0014 4.16505C10.0374 4.16505 10.0669 4.18414 10.0669 4.20747C10.0669 4.23444 10.4062 4.24988 10.9999 4.24988C11.5937 4.24988 11.933 4.23444 11.933 4.20747C11.933 4.18414 11.9624 4.16505 11.9985 4.16505C12.0834 4.16505 12.2722 3.97616 12.2722 3.89129C12.2722 3.85524 12.2913 3.82577 12.3147 3.82577C12.3382 3.82577 12.3571 3.71266 12.3571 3.5713C12.3571 3.42995 12.3382 3.31684 12.3147 3.31684C12.2913 3.31684 12.2722 3.28736 12.2722 3.25132C12.2722 3.16645 12.0834 2.97756 11.9985 2.97756C11.9624 2.97756 11.933 2.95847 11.933 2.93514C11.933 2.90817 11.5937 2.89273 10.9999 2.89273C10.4062 2.89273 10.0669 2.90817 10.0669 2.93514ZM14.1383 2.93514C14.1383 2.95847 14.1088 2.97756 14.0728 2.97756C14.0367 2.97756 13.9604 3.02442 13.9031 3.08167C13.8459 3.13893 13.799 3.21527 13.799 3.25132C13.799 3.28736 13.7799 3.31684 13.7566 3.31684C13.733 3.31684 13.7142 3.42995 13.7142 3.5713C13.7142 3.71266 13.733 3.82577 13.7566 3.82577C13.7799 3.82577 13.799 3.85524 13.799 3.89129C13.799 3.97616 13.9879 4.16505 14.0728 4.16505C14.1088 4.16505 14.1383 4.18414 14.1383 4.20747C14.1383 4.23444 14.4776 4.24988 15.0714 4.24988C15.6651 4.24988 16.0044 4.23444 16.0044 4.20747C16.0044 4.18414 16.0339 4.16505 16.0699 4.16505C16.1548 4.16505 16.3437 3.97616 16.3437 3.89129C16.3437 3.85524 16.3628 3.82577 16.3861 3.82577C16.4097 3.82577 16.4285 3.71266 16.4285 3.5713C16.4285 3.42995 16.4097 3.31684 16.3861 3.31684C16.3628 3.31684 16.3437 3.28736 16.3437 3.25132C16.3437 3.16645 16.1548 2.97756 16.0699 2.97756C16.0339 2.97756 16.0044 2.95847 16.0044 2.93514C16.0044 2.90817 15.6651 2.89273 15.0714 2.89273C14.4776 2.89273 14.1383 2.90817 14.1383 2.93514ZM20.924 2.93514C20.924 2.95847 20.8946 2.97756 20.8585 2.97756C20.7736 2.97756 20.5847 3.16645 20.5847 3.25132C20.5847 3.28736 20.5657 3.31684 20.5423 3.31684C20.5188 3.31684 20.4999 3.42995 20.4999 3.5713C20.4999 3.71266 20.5188 3.82577 20.5423 3.82577C20.5657 3.82577 20.5847 3.85524 20.5847 3.89129C20.5847 3.97616 20.7736 4.16505 20.8585 4.16505C20.8946 4.16505 20.924 4.18414 20.924 4.20747C20.924 4.23499 21.4895 4.24988 22.5356 4.24988C23.5818 4.24988 24.1472 4.23499 24.1472 4.20747C24.1472 4.18414 24.1767 4.16505 24.2128 4.16505C24.2976 4.16505 24.4865 3.97616 24.4865 3.89129C24.4865 3.85524 24.5056 3.82577 24.5289 3.82577C24.5525 3.82577 24.5713 3.71266 24.5713 3.5713C24.5713 3.42995 24.5525 3.31684 24.5289 3.31684C24.5056 3.31684 24.4865 3.28736 24.4865 3.25132C24.4865 3.16645 24.2976 2.97756 24.2128 2.97756C24.1767 2.97756 24.1472 2.95847 24.1472 2.93514C24.1472 2.90762 23.5818 2.89273 22.5356 2.89273C21.4895 2.89273 20.924 2.90762 20.924 2.93514ZM34.0713 7.68514C34.0713 7.70847 34.1668 7.72755 34.2834 7.72755C34.4 7.72755 34.4955 7.74664 34.4955 7.76996C34.4955 7.79329 34.5718 7.81238 34.6651 7.81238C34.7584 7.81238 34.8347 7.83146 34.8347 7.85478C34.8347 7.87811 34.892 7.8972 34.962 7.8972C35.0319 7.8972 35.0892 7.91628 35.0892 7.93961C35.0892 7.96293 35.1274 7.98202 35.174 7.98202C35.2207 7.98202 35.2588 8.0011 35.2588 8.02443C35.2588 8.04775 35.297 8.06684 35.3437 8.06684C35.3903 8.06684 35.4285 8.08592 35.4285 8.10925C35.4285 8.13258 35.4667 8.15166 35.5133 8.15166C35.56 8.15166 35.5981 8.17074 35.5981 8.19407C35.5981 8.2174 35.6363 8.23648 35.683 8.23648C35.7296 8.23648 35.7678 8.25557 35.7678 8.27889C35.7678 8.30222 35.8017 8.3213 35.8432 8.3213C35.8847 8.3213 35.9462 8.35947 35.9798 8.40612C36.0135 8.45278 36.0669 8.49095 36.0985 8.49095C36.1302 8.49095 36.2295 8.56729 36.3191 8.66059C36.4088 8.75389 36.5032 8.83023 36.529 8.83023C36.5899 8.83023 36.9553 9.19556 36.9553 9.25654C36.9553 9.28233 37.0316 9.37674 37.1249 9.46639C37.2182 9.55605 37.2946 9.65529 37.2946 9.68697C37.2946 9.71865 37.3327 9.77205 37.3794 9.80568C37.426 9.83931 37.4642 9.90076 37.4642 9.94228C37.4642 9.98376 37.4833 10.0177 37.5066 10.0177C37.5299 10.0177 37.549 10.0559 37.549 10.1026C37.549 10.1492 37.5681 10.1874 37.5914 10.1874C37.6148 10.1874 37.6338 10.2255 37.6338 10.2722C37.6338 10.3188 37.6529 10.357 37.6763 10.357C37.6996 10.357 37.7187 10.3952 37.7187 10.4418C37.7187 10.4885 37.7378 10.5267 37.7611 10.5267C37.7844 10.5267 37.8035 10.5648 37.8035 10.6115C37.8035 10.6581 37.8226 10.6963 37.8459 10.6963C37.8692 10.6963 37.8883 10.7536 37.8883 10.8235C37.8883 10.8935 37.9074 10.9508 37.9307 10.9508C37.954 10.9508 37.9731 11.0271 37.9731 11.1204C37.9731 11.2137 37.9922 11.2901 38.0155 11.2901C38.0389 11.2901 38.0579 11.3855 38.0579 11.5021C38.0579 11.6187 38.077 11.7142 38.1004 11.7142C38.1269 11.7142 38.1428 11.9686 38.1428 12.3927C38.1428 12.8168 38.1269 13.0713 38.1004 13.0713C38.077 13.0713 38.0579 13.1667 38.0579 13.2834C38.0579 13.4 38.0389 13.4954 38.0155 13.4954C37.9922 13.4954 37.9731 13.5717 37.9731 13.6651C37.9731 13.7584 37.954 13.8347 37.9307 13.8347C37.9074 13.8347 37.8883 13.8919 37.8883 13.9619C37.8883 14.0319 37.8692 14.0892 37.8459 14.0892C37.8226 14.0892 37.8035 14.1273 37.8035 14.174C37.8035 14.2206 37.7844 14.2588 37.7611 14.2588C37.7378 14.2588 37.7187 14.297 37.7187 14.3436C37.7187 14.3903 37.6996 14.4284 37.6763 14.4284C37.6529 14.4284 37.6338 14.4666 37.6338 14.5133C37.6338 14.5599 37.6148 14.5981 37.5914 14.5981C37.5681 14.5981 37.549 14.6363 37.549 14.6829C37.549 14.7296 37.5299 14.7677 37.5066 14.7677C37.4833 14.7677 37.4642 14.8017 37.4642 14.8432C37.4642 14.8847 37.426 14.9462 37.3794 14.9798C37.3327 15.0134 37.2946 15.0668 37.2946 15.0985C37.2946 15.1302 37.2182 15.2294 37.1249 15.3191C37.0316 15.4087 36.9553 15.5031 36.9553 15.5289C36.9553 15.5899 36.5899 15.9552 36.529 15.9552C36.5032 15.9552 36.4088 16.0316 36.3191 16.1249C36.2295 16.2182 36.1302 16.2945 36.0985 16.2945C36.0669 16.2945 36.0135 16.3327 35.9798 16.3793C35.9462 16.426 35.8847 16.4642 35.8432 16.4642C35.8017 16.4642 35.7678 16.4832 35.7678 16.5066C35.7678 16.5299 35.7296 16.549 35.683 16.549C35.6363 16.549 35.5981 16.5681 35.5981 16.5914C35.5981 16.6147 35.56 16.6338 35.5133 16.6338C35.4667 16.6338 35.4285 16.6529 35.4285 16.6762C35.4285 16.6995 35.3903 16.7186 35.3437 16.7186C35.297 16.7186 35.2588 16.7377 35.2588 16.761C35.2588 16.7844 35.2207 16.8034 35.174 16.8034C35.1274 16.8034 35.0892 16.8225 35.0892 16.8459C35.0892 16.8692 35.0319 16.8883 34.962 16.8883C34.892 16.8883 34.8347 16.9073 34.8347 16.9307C34.8347 16.954 34.7584 16.9731 34.6651 16.9731C34.5718 16.9731 34.4955 16.9922 34.4955 17.0155C34.4955 17.0388 34.4 17.0579 34.2834 17.0579C34.1668 17.0579 34.0713 17.077 34.0713 17.1003C34.0713 17.1285 29.0669 17.1427 19.1428 17.1427C9.21868 17.1427 4.21421 17.1285 4.21421 17.1003C4.21421 17.077 4.11879 17.0579 4.00216 17.0579C3.88553 17.0579 3.79011 17.0388 3.79011 17.0155C3.79011 16.9922 3.71377 16.9731 3.62046 16.9731C3.52716 16.9731 3.45082 16.954 3.45082 16.9307C3.45082 16.9073 3.41265 16.8883 3.366 16.8883C3.31935 16.8883 3.28118 16.8692 3.28118 16.8459C3.28118 16.8225 3.22392 16.8034 3.15395 16.8034C3.08397 16.8034 3.02671 16.7844 3.02671 16.761C3.02671 16.7377 2.98854 16.7186 2.94189 16.7186C2.89524 16.7186 2.85707 16.6995 2.85707 16.6762C2.85707 16.6529 2.8189 16.6338 2.77225 16.6338C2.7256 16.6338 2.68743 16.6147 2.68743 16.5914C2.68743 16.5681 2.64926 16.549 2.60261 16.549C2.55596 16.549 2.51779 16.5299 2.51779 16.5066C2.51779 16.4832 2.48381 16.4642 2.44234 16.4642C2.40082 16.4642 2.33936 16.426 2.30573 16.3793C2.2721 16.3327 2.21871 16.2945 2.18702 16.2945C2.15534 16.2945 2.0561 16.2182 1.96645 16.1249C1.87679 16.0316 1.78238 15.9552 1.7566 15.9552C1.69561 15.9552 1.33029 15.5899 1.33029 15.5289C1.33029 15.5031 1.25395 15.4087 1.16064 15.3191C1.06734 15.2294 0.991001 15.1302 0.991001 15.0985C0.991001 15.0668 0.952831 15.0134 0.906179 14.9798C0.859528 14.9462 0.821358 14.8847 0.821358 14.8432C0.821358 14.8017 0.802273 14.7677 0.778947 14.7677C0.755621 14.7677 0.736537 14.7296 0.736537 14.6829C0.736537 14.6363 0.717452 14.5981 0.694126 14.5981C0.6708 14.5981 0.651715 14.5599 0.651715 14.5133C0.651715 14.4666 0.63263 14.4284 0.609305 14.4284C0.585979 14.4284 0.566894 14.3903 0.566894 14.3436C0.566894 14.297 0.547809 14.2588 0.524483 14.2588C0.501157 14.2588 0.482072 14.2206 0.482072 14.174C0.482072 14.1273 0.462988 14.0892 0.439662 14.0892C0.416336 14.0892 0.397251 14.0319 0.397251 13.9619C0.397251 13.8919 0.378166 13.8347 0.35484 13.8347C0.331514 13.8347 0.31243 13.7584 0.31243 13.6651C0.31243 13.5717 0.293345 13.4954 0.270019 13.4954C0.246439 13.4954 0.227608 13.3823 0.227608 13.2409C0.227608 13.0996 0.208778 12.9865 0.185198 12.9865C0.158818 12.9865 0.142787 12.7461 0.142787 12.3503C0.142787 11.9545 0.158818 11.7142 0.185198 11.7142C0.208523 11.7142 0.227608 11.6187 0.227608 11.5021C0.227608 11.3855 0.246693 11.2901 0.270019 11.2901C0.293345 11.2901 0.31243 11.2137 0.31243 11.1204C0.31243 11.0271 0.331514 10.9508 0.35484 10.9508C0.378166 10.9508 0.397251 10.8935 0.397251 10.8235C0.397251 10.7536 0.416336 10.6963 0.439662 10.6963C0.462988 10.6963 0.482072 10.6581 0.482072 10.6115C0.482072 10.5648 0.501157 10.5267 0.524483 10.5267C0.547809 10.5267 0.566894 10.4885 0.566894 10.4418C0.566894 10.3952 0.585979 10.357 0.609305 10.357C0.63263 10.357 0.651715 10.3188 0.651715 10.2722C0.651715 10.2255 0.6708 10.1874 0.694126 10.1874C0.717452 10.1874 0.736537 10.1492 0.736537 10.1026C0.736537 10.0559 0.755621 10.0177 0.778947 10.0177C0.802273 10.0177 0.821358 9.98376 0.821358 9.94228C0.821358 9.90076 0.859528 9.83931 0.906179 9.80568C0.952831 9.77205 0.991001 9.71865 0.991001 9.68697C0.991001 9.65529 1.06734 9.55605 1.16064 9.46639C1.25395 9.37674 1.33029 9.28233 1.33029 9.25654C1.33029 9.19556 1.69561 8.83023 1.7566 8.83023C1.78238 8.83023 1.87679 8.75389 1.96645 8.66059C2.0561 8.56729 2.15534 8.49095 2.18702 8.49095C2.21871 8.49095 2.2721 8.45278 2.30573 8.40612C2.33936 8.35947 2.40082 8.3213 2.44234 8.3213C2.48381 8.3213 2.51779 8.30222 2.51779 8.27889C2.51779 8.25557 2.55596 8.23648 2.60261 8.23648C2.64926 8.23648 2.68743 8.2174 2.68743 8.19407C2.68743 8.17074 2.7256 8.15166 2.77225 8.15166C2.8189 8.15166 2.85707 8.13258 2.85707 8.10925C2.85707 8.08592 2.89524 8.06684 2.94189 8.06684C2.98854 8.06684 3.02671 8.04775 3.02671 8.02443C3.02671 8.0011 3.06488 7.98202 3.11154 7.98202C3.15819 7.98202 3.19636 7.96293 3.19636 7.93961C3.19636 7.91628 3.25361 7.8972 3.32359 7.8972C3.39357 7.8972 3.45082 7.87811 3.45082 7.85478C3.45082 7.83146 3.52716 7.81238 3.62046 7.81238C3.71377 7.81238 3.79011 7.79329 3.79011 7.76996C3.79011 7.74664 3.88553 7.72755 4.00216 7.72755C4.11879 7.72755 4.21421 7.70847 4.21421 7.68514C4.21421 7.65694 9.21868 7.64273 19.1428 7.64273C29.0669 7.64273 34.0713 7.65694 34.0713 7.68514ZM6.41957 9.04228C6.41957 9.06561 6.32415 9.0847 6.20752 9.0847C6.09089 9.0847 5.99546 9.10378 5.99546 9.12711C5.99546 9.15043 5.93821 9.16952 5.86823 9.16952C5.79825 9.16952 5.741 9.1886 5.741 9.21193C5.741 9.23525 5.70283 9.25434 5.65618 9.25434C5.60953 9.25434 5.57136 9.27342 5.57136 9.29675C5.57136 9.32008 5.53319 9.33916 5.48653 9.33916C5.43988 9.33916 5.40171 9.35824 5.40171 9.38157C5.40171 9.4049 5.36354 9.42398 5.31689 9.42398C5.27024 9.42398 5.23207 9.44307 5.23207 9.46639C5.23207 9.48972 5.1981 9.5088 5.15662 9.5088C5.1151 9.5088 5.05365 9.54697 5.02002 9.59362C4.98639 9.64028 4.93418 9.67845 4.90394 9.67845C4.83231 9.67845 4.21421 10.2965 4.21421 10.3682C4.21421 10.3984 4.17604 10.4506 4.12939 10.4842C4.08274 10.5179 4.04457 10.5793 4.04457 10.6209C4.04457 10.6623 4.02549 10.6963 4.00216 10.6963C3.97883 10.6963 3.95975 10.7345 3.95975 10.7811C3.95975 10.8278 3.94066 10.8659 3.91734 10.8659C3.89401 10.8659 3.87493 10.9041 3.87493 10.9508C3.87493 10.9974 3.85584 11.0356 3.83252 11.0356C3.80919 11.0356 3.79011 11.0738 3.79011 11.1204C3.79011 11.1671 3.77102 11.2052 3.7477 11.2052C3.72437 11.2052 3.70529 11.2625 3.70529 11.3325C3.70529 11.4024 3.6862 11.4597 3.66287 11.4597C3.63955 11.4597 3.62046 11.5551 3.62046 11.6717C3.62046 11.7884 3.60138 11.8838 3.57805 11.8838C3.55214 11.8838 3.53564 12.0817 3.53564 12.3927C3.53564 12.7037 3.55214 12.9017 3.57805 12.9017C3.60138 12.9017 3.62046 12.9971 3.62046 13.1137C3.62046 13.2303 3.63955 13.3258 3.66287 13.3258C3.6862 13.3258 3.70529 13.383 3.70529 13.453C3.70529 13.523 3.72437 13.5802 3.7477 13.5802C3.77102 13.5802 3.79011 13.6184 3.79011 13.6651C3.79011 13.7117 3.80919 13.7499 3.83252 13.7499C3.85584 13.7499 3.87493 13.788 3.87493 13.8347C3.87493 13.8813 3.89401 13.9195 3.91734 13.9195C3.94066 13.9195 3.95975 13.9577 3.95975 14.0043C3.95975 14.051 3.97883 14.0892 4.00216 14.0892C4.02549 14.0892 4.04457 14.1231 4.04457 14.1646C4.04457 14.2061 4.08274 14.2676 4.12939 14.3012C4.17604 14.3348 4.21421 14.3871 4.21421 14.4173C4.21421 14.4889 4.83231 15.107 4.90394 15.107C4.93418 15.107 4.98639 15.1452 5.02002 15.1918C5.05365 15.2385 5.1151 15.2767 5.15662 15.2767C5.1981 15.2767 5.23207 15.2957 5.23207 15.3191C5.23207 15.3424 5.27024 15.3615 5.31689 15.3615C5.36354 15.3615 5.40171 15.3806 5.40171 15.4039C5.40171 15.4272 5.43988 15.4463 5.48653 15.4463C5.53319 15.4463 5.57136 15.4654 5.57136 15.4887C5.57136 15.512 5.60953 15.5311 5.65618 15.5311C5.70283 15.5311 5.741 15.5502 5.741 15.5735C5.741 15.5969 5.79825 15.6159 5.86823 15.6159C5.93821 15.6159 5.99546 15.635 5.99546 15.6584C5.99546 15.6817 6.09089 15.7008 6.20752 15.7008C6.32415 15.7008 6.41957 15.7198 6.41957 15.7432C6.41957 15.7691 6.6175 15.7856 6.9285 15.7856C7.2395 15.7856 7.43743 15.7691 7.43743 15.7432C7.43743 15.7198 7.53285 15.7008 7.64948 15.7008C7.76611 15.7008 7.86153 15.6817 7.86153 15.6584C7.86153 15.635 7.91879 15.6159 7.98877 15.6159C8.05874 15.6159 8.116 15.5969 8.116 15.5735C8.116 15.5502 8.15417 15.5311 8.20082 15.5311C8.24747 15.5311 8.28564 15.512 8.28564 15.4887C8.28564 15.4654 8.32381 15.4463 8.37046 15.4463C8.41711 15.4463 8.45528 15.4272 8.45528 15.4039C8.45528 15.3806 8.49345 15.3615 8.5401 15.3615C8.58676 15.3615 8.62493 15.3424 8.62493 15.3191C8.62493 15.2957 8.6589 15.2767 8.70037 15.2767C8.74189 15.2767 8.80335 15.2385 8.83698 15.1918C8.87061 15.1452 8.92282 15.107 8.95306 15.107C9.02469 15.107 9.64278 14.4889 9.64278 14.4173C9.64278 14.3871 9.68095 14.3348 9.7276 14.3012C9.77426 14.2676 9.81243 14.2061 9.81243 14.1646C9.81243 14.1231 9.83151 14.0892 9.85484 14.0892C9.87816 14.0892 9.89725 14.051 9.89725 14.0043C9.89725 13.9577 9.91633 13.9195 9.93966 13.9195C9.96298 13.9195 9.98207 13.8813 9.98207 13.8347C9.98207 13.788 10.0012 13.7499 10.0245 13.7499C10.0478 13.7499 10.0669 13.7117 10.0669 13.6651C10.0669 13.6184 10.086 13.5802 10.1093 13.5802C10.1326 13.5802 10.1517 13.523 10.1517 13.453C10.1517 13.383 10.1708 13.3258 10.1941 13.3258C10.2174 13.3258 10.2365 13.2303 10.2365 13.1137C10.2365 12.9971 10.2556 12.9017 10.2789 12.9017C10.3049 12.9017 10.3214 12.7037 10.3214 12.3927C10.3214 12.0817 10.3049 11.8838 10.2789 11.8838C10.2556 11.8838 10.2365 11.7884 10.2365 11.6717C10.2365 11.5551 10.2174 11.4597 10.1941 11.4597C10.1708 11.4597 10.1517 11.4024 10.1517 11.3325C10.1517 11.2625 10.1326 11.2052 10.1093 11.2052C10.086 11.2052 10.0669 11.1671 10.0669 11.1204C10.0669 11.0738 10.0478 11.0356 10.0245 11.0356C10.0012 11.0356 9.98207 10.9974 9.98207 10.9508C9.98207 10.9041 9.96298 10.8659 9.93966 10.8659C9.91633 10.8659 9.89725 10.8278 9.89725 10.7811C9.89725 10.7345 9.87816 10.6963 9.85484 10.6963C9.83151 10.6963 9.81243 10.6623 9.81243 10.6209C9.81243 10.5793 9.77426 10.5179 9.7276 10.4842C9.68095 10.4506 9.64278 10.3984 9.64278 10.3682C9.64278 10.2965 9.02469 9.67845 8.95306 9.67845C8.92282 9.67845 8.87061 9.64028 8.83698 9.59362C8.80335 9.54697 8.74189 9.5088 8.70037 9.5088C8.6589 9.5088 8.62493 9.48972 8.62493 9.46639C8.62493 9.44307 8.58676 9.42398 8.5401 9.42398C8.49345 9.42398 8.45528 9.4049 8.45528 9.38157C8.45528 9.35824 8.41711 9.33916 8.37046 9.33916C8.32381 9.33916 8.28564 9.32008 8.28564 9.29675C8.28564 9.27342 8.24747 9.25434 8.20082 9.25434C8.15417 9.25434 8.116 9.23525 8.116 9.21193C8.116 9.1886 8.05874 9.16952 7.98877 9.16952C7.91879 9.16952 7.86153 9.15043 7.86153 9.12711C7.86153 9.10378 7.76611 9.0847 7.64948 9.0847C7.53285 9.0847 7.43743 9.06561 7.43743 9.04228C7.43743 9.01637 7.2395 8.99987 6.9285 8.99987C6.6175 8.99987 6.41957 9.01637 6.41957 9.04228ZM14.5624 9.04228C14.5624 9.06561 14.467 9.0847 14.3504 9.0847C14.2337 9.0847 14.1383 9.10378 14.1383 9.12711C14.1383 9.15043 14.0811 9.16952 14.0111 9.16952C13.9411 9.16952 13.8839 9.1886 13.8839 9.21193C13.8839 9.23525 13.8457 9.25434 13.799 9.25434C13.7524 9.25434 13.7142 9.27342 13.7142 9.29675C13.7142 9.32008 13.676 9.33916 13.6294 9.33916C13.5827 9.33916 13.5446 9.35824 13.5446 9.38157C13.5446 9.4049 13.5064 9.42398 13.4597 9.42398C13.4131 9.42398 13.3749 9.44307 13.3749 9.46639C13.3749 9.48972 13.341 9.5088 13.2995 9.5088C13.258 9.5088 13.1965 9.54697 13.1629 9.59362C13.1292 9.64028 13.077 9.67845 13.0468 9.67845C13.0166 9.67845 12.849 9.82129 12.6745 9.99585C12.4999 10.1704 12.3571 10.338 12.3571 10.3682C12.3571 10.3984 12.3189 10.4506 12.2722 10.4842C12.2256 10.5179 12.1874 10.5793 12.1874 10.6209C12.1874 10.6623 12.1683 10.6963 12.145 10.6963C12.1217 10.6963 12.1026 10.7345 12.1026 10.7811C12.1026 10.8278 12.0835 10.8659 12.0602 10.8659C12.0369 10.8659 12.0178 10.9041 12.0178 10.9508C12.0178 10.9974 11.9987 11.0356 11.9754 11.0356C11.952 11.0356 11.933 11.0738 11.933 11.1204C11.933 11.1671 11.9139 11.2052 11.8906 11.2052C11.8672 11.2052 11.8481 11.2625 11.8481 11.3325C11.8481 11.4024 11.8291 11.4597 11.8057 11.4597C11.7824 11.4597 11.7633 11.5551 11.7633 11.6717C11.7633 11.7884 11.7442 11.8838 11.7209 11.8838C11.695 11.8838 11.6785 12.0817 11.6785 12.3927C11.6785 12.7037 11.695 12.9017 11.7209 12.9017C11.7442 12.9017 11.7633 12.9971 11.7633 13.1137C11.7633 13.2303 11.7824 13.3258 11.8057 13.3258C11.8291 13.3258 11.8481 13.383 11.8481 13.453C11.8481 13.523 11.8672 13.5802 11.8906 13.5802C11.9139 13.5802 11.933 13.6184 11.933 13.6651C11.933 13.7117 11.952 13.7499 11.9754 13.7499C11.9987 13.7499 12.0178 13.788 12.0178 13.8347C12.0178 13.8813 12.0369 13.9195 12.0602 13.9195C12.0835 13.9195 12.1026 13.9577 12.1026 14.0043C12.1026 14.051 12.1217 14.0892 12.145 14.0892C12.1683 14.0892 12.1874 14.1231 12.1874 14.1646C12.1874 14.2061 12.2256 14.2676 12.2722 14.3012C12.3189 14.3348 12.3571 14.3871 12.3571 14.4173C12.3571 14.4889 12.9752 15.107 13.0468 15.107C13.077 15.107 13.1292 15.1452 13.1629 15.1918C13.1965 15.2385 13.258 15.2767 13.2995 15.2767C13.341 15.2767 13.3749 15.2957 13.3749 15.3191C13.3749 15.3424 13.4131 15.3615 13.4597 15.3615C13.5064 15.3615 13.5446 15.3806 13.5446 15.4039C13.5446 15.4272 13.5827 15.4463 13.6294 15.4463C13.676 15.4463 13.7142 15.4654 13.7142 15.4887C13.7142 15.512 13.7524 15.5311 13.799 15.5311C13.8457 15.5311 13.8839 15.5502 13.8839 15.5735C13.8839 15.5969 13.9411 15.6159 14.0111 15.6159C14.0811 15.6159 14.1383 15.635 14.1383 15.6584C14.1383 15.6817 14.2337 15.7008 14.3504 15.7008C14.467 15.7008 14.5624 15.7198 14.5624 15.7432C14.5624 15.7691 14.7604 15.7856 15.0714 15.7856C15.3824 15.7856 15.5803 15.7691 15.5803 15.7432C15.5803 15.7198 15.6757 15.7008 15.7923 15.7008C15.909 15.7008 16.0044 15.6817 16.0044 15.6584C16.0044 15.635 16.0616 15.6159 16.1316 15.6159C16.2016 15.6159 16.2589 15.5969 16.2589 15.5735C16.2589 15.5502 16.297 15.5311 16.3437 15.5311C16.3903 15.5311 16.4285 15.512 16.4285 15.4887C16.4285 15.4654 16.4667 15.4463 16.5133 15.4463C16.56 15.4463 16.5981 15.4272 16.5981 15.4039C16.5981 15.3806 16.6363 15.3615 16.683 15.3615C16.7296 15.3615 16.7678 15.3424 16.7678 15.3191C16.7678 15.2957 16.8018 15.2767 16.8432 15.2767C16.8847 15.2767 16.9462 15.2385 16.9798 15.1918C17.0135 15.1452 17.0657 15.107 17.0959 15.107C17.1675 15.107 17.7856 14.4889 17.7856 14.4173C17.7856 14.3871 17.8238 14.3348 17.8705 14.3012C17.9171 14.2676 17.9553 14.2061 17.9553 14.1646C17.9553 14.1231 17.9744 14.0892 17.9977 14.0892C18.021 14.0892 18.0401 14.051 18.0401 14.0043C18.0401 13.9577 18.0592 13.9195 18.0825 13.9195C18.1058 13.9195 18.1249 13.8813 18.1249 13.8347C18.1249 13.788 18.144 13.7499 18.1673 13.7499C18.1907 13.7499 18.2097 13.7117 18.2097 13.6651C18.2097 13.6184 18.2288 13.5802 18.2522 13.5802C18.2755 13.5802 18.2946 13.523 18.2946 13.453C18.2946 13.383 18.3137 13.3258 18.337 13.3258C18.3603 13.3258 18.3794 13.2303 18.3794 13.1137C18.3794 12.9971 18.3985 12.9017 18.4218 12.9017C18.4477 12.9017 18.4642 12.7037 18.4642 12.3927C18.4642 12.0817 18.4477 11.8838 18.4218 11.8838C18.3985 11.8838 18.3794 11.7884 18.3794 11.6717C18.3794 11.5551 18.3603 11.4597 18.337 11.4597C18.3137 11.4597 18.2946 11.4024 18.2946 11.3325C18.2946 11.2625 18.2755 11.2052 18.2522 11.2052C18.2288 11.2052 18.2097 11.1671 18.2097 11.1204C18.2097 11.0738 18.1907 11.0356 18.1673 11.0356C18.144 11.0356 18.1249 10.9974 18.1249 10.9508C18.1249 10.9041 18.1058 10.8659 18.0825 10.8659C18.0592 10.8659 18.0401 10.8278 18.0401 10.7811C18.0401 10.7345 18.021 10.6963 17.9977 10.6963C17.9744 10.6963 17.9553 10.6623 17.9553 10.6209C17.9553 10.5793 17.9171 10.5179 17.8705 10.4842C17.8238 10.4506 17.7856 10.3984 17.7856 10.3682C17.7856 10.2965 17.1675 9.67845 17.0959 9.67845C17.0657 9.67845 17.0135 9.64028 16.9798 9.59362C16.9462 9.54697 16.8847 9.5088 16.8432 9.5088C16.8018 9.5088 16.7678 9.48972 16.7678 9.46639C16.7678 9.44307 16.7296 9.42398 16.683 9.42398C16.6363 9.42398 16.5981 9.4049 16.5981 9.38157C16.5981 9.35824 16.56 9.33916 16.5133 9.33916C16.4667 9.33916 16.4285 9.32008 16.4285 9.29675C16.4285 9.27342 16.3903 9.25434 16.3437 9.25434C16.297 9.25434 16.2589 9.23525 16.2589 9.21193C16.2589 9.1886 16.2016 9.16952 16.1316 9.16952C16.0616 9.16952 16.0044 9.15043 16.0044 9.12711C16.0044 9.10378 15.909 9.0847 15.7923 9.0847C15.6757 9.0847 15.5803 9.06561 15.5803 9.04228C15.5803 9.01637 15.3824 8.99987 15.0714 8.99987C14.7604 8.99987 14.5624 9.01637 14.5624 9.04228ZM22.7053 9.04228C22.7053 9.06561 22.6099 9.0847 22.4932 9.0847C22.3766 9.0847 22.2812 9.10378 22.2812 9.12711C22.2812 9.15043 22.2239 9.16952 22.1539 9.16952C22.084 9.16952 22.0267 9.1886 22.0267 9.21193C22.0267 9.23525 21.9885 9.25434 21.9419 9.25434C21.8952 9.25434 21.8571 9.27342 21.8571 9.29675C21.8571 9.32008 21.8189 9.33916 21.7722 9.33916C21.7256 9.33916 21.6874 9.35824 21.6874 9.38157C21.6874 9.4049 21.6493 9.42398 21.6026 9.42398C21.5559 9.42398 21.5178 9.44307 21.5178 9.46639C21.5178 9.48972 21.4838 9.5088 21.4423 9.5088C21.4008 9.5088 21.3394 9.54697 21.3057 9.59362C21.2721 9.64028 21.2199 9.67845 21.1896 9.67845C21.1595 9.67845 20.9919 9.82129 20.8173 9.99585C20.6428 10.1704 20.4999 10.338 20.4999 10.3682C20.4999 10.3984 20.4618 10.4506 20.4151 10.4842C20.3684 10.5179 20.3303 10.5793 20.3303 10.6209C20.3303 10.6623 20.3112 10.6963 20.2879 10.6963C20.2645 10.6963 20.2455 10.7345 20.2455 10.7811C20.2455 10.8278 20.2264 10.8659 20.203 10.8659C20.1797 10.8659 20.1606 10.9041 20.1606 10.9508C20.1606 10.9974 20.1416 11.0356 20.1182 11.0356C20.0949 11.0356 20.0758 11.0738 20.0758 11.1204C20.0758 11.1671 20.0567 11.2052 20.0334 11.2052C20.0101 11.2052 19.991 11.2625 19.991 11.3325C19.991 11.4024 19.9719 11.4597 19.9486 11.4597C19.9253 11.4597 19.9062 11.5551 19.9062 11.6717C19.9062 11.7884 19.8871 11.8838 19.8638 11.8838C19.8378 11.8838 19.8214 12.0817 19.8214 12.3927C19.8214 12.7037 19.8378 12.9017 19.8638 12.9017C19.8871 12.9017 19.9062 12.9971 19.9062 13.1137C19.9062 13.2303 19.9253 13.3258 19.9486 13.3258C19.9719 13.3258 19.991 13.383 19.991 13.453C19.991 13.523 20.0101 13.5802 20.0334 13.5802C20.0567 13.5802 20.0758 13.6184 20.0758 13.6651C20.0758 13.7117 20.0949 13.7499 20.1182 13.7499C20.1416 13.7499 20.1606 13.788 20.1606 13.8347C20.1606 13.8813 20.1797 13.9195 20.203 13.9195C20.2264 13.9195 20.2455 13.9577 20.2455 14.0043C20.2455 14.051 20.2645 14.0892 20.2879 14.0892C20.3112 14.0892 20.3303 14.1231 20.3303 14.1646C20.3303 14.2061 20.3684 14.2676 20.4151 14.3012C20.4618 14.3348 20.4999 14.3871 20.4999 14.4173C20.4999 14.4889 21.118 15.107 21.1896 15.107C21.2199 15.107 21.2721 15.1452 21.3057 15.1918C21.3394 15.2385 21.4008 15.2767 21.4423 15.2767C21.4838 15.2767 21.5178 15.2957 21.5178 15.3191C21.5178 15.3424 21.5559 15.3615 21.6026 15.3615C21.6493 15.3615 21.6874 15.3806 21.6874 15.4039C21.6874 15.4272 21.7256 15.4463 21.7722 15.4463C21.8189 15.4463 21.8571 15.4654 21.8571 15.4887C21.8571 15.512 21.8952 15.5311 21.9419 15.5311C21.9885 15.5311 22.0267 15.5502 22.0267 15.5735C22.0267 15.5969 22.084 15.6159 22.1539 15.6159C22.2239 15.6159 22.2812 15.635 22.2812 15.6584C22.2812 15.6817 22.3766 15.7008 22.4932 15.7008C22.6099 15.7008 22.7053 15.7198 22.7053 15.7432C22.7053 15.7691 22.9032 15.7856 23.2142 15.7856C23.5252 15.7856 23.7231 15.7691 23.7231 15.7432C23.7231 15.7198 23.8186 15.7008 23.9352 15.7008C24.0518 15.7008 24.1472 15.6817 24.1472 15.6584C24.1472 15.635 24.2045 15.6159 24.2745 15.6159C24.3445 15.6159 24.4017 15.5969 24.4017 15.5735C24.4017 15.5502 24.4399 15.5311 24.4865 15.5311C24.5332 15.5311 24.5713 15.512 24.5713 15.4887C24.5713 15.4654 24.6095 15.4463 24.6562 15.4463C24.7028 15.4463 24.741 15.4272 24.741 15.4039C24.741 15.3806 24.7792 15.3615 24.8258 15.3615C24.8725 15.3615 24.9106 15.3424 24.9106 15.3191C24.9106 15.2957 24.9446 15.2767 24.9861 15.2767C25.0276 15.2767 25.0891 15.2385 25.1227 15.1918C25.1563 15.1452 25.2085 15.107 25.2388 15.107C25.269 15.107 25.4365 14.9642 25.6111 14.7896C25.7857 14.6151 25.9285 14.4475 25.9285 14.4173C25.9285 14.3871 25.9667 14.3348 26.0133 14.3012C26.06 14.2676 26.0981 14.2061 26.0981 14.1646C26.0981 14.1231 26.1172 14.0892 26.1405 14.0892C26.1639 14.0892 26.183 14.051 26.183 14.0043C26.183 13.9577 26.202 13.9195 26.2254 13.9195C26.2487 13.9195 26.2678 13.8813 26.2678 13.8347C26.2678 13.788 26.2869 13.7499 26.3102 13.7499C26.3335 13.7499 26.3526 13.7117 26.3526 13.6651C26.3526 13.6184 26.3717 13.5802 26.395 13.5802C26.4183 13.5802 26.4374 13.523 26.4374 13.453C26.4374 13.383 26.4565 13.3258 26.4798 13.3258C26.5032 13.3258 26.5222 13.2303 26.5222 13.1137C26.5222 12.9971 26.5413 12.9017 26.5647 12.9017C26.5906 12.9017 26.6071 12.7037 26.6071 12.3927C26.6071 12.0817 26.5906 11.8838 26.5647 11.8838C26.5413 11.8838 26.5222 11.7884 26.5222 11.6717C26.5222 11.5551 26.5032 11.4597 26.4798 11.4597C26.4565 11.4597 26.4374 11.4024 26.4374 11.3325C26.4374 11.2625 26.4183 11.2052 26.395 11.2052C26.3717 11.2052 26.3526 11.1671 26.3526 11.1204C26.3526 11.0738 26.3335 11.0356 26.3102 11.0356C26.2869 11.0356 26.2678 10.9974 26.2678 10.9508C26.2678 10.9041 26.2487 10.8659 26.2254 10.8659C26.202 10.8659 26.183 10.8278 26.183 10.7811C26.183 10.7345 26.1639 10.6963 26.1405 10.6963C26.1172 10.6963 26.0981 10.6623 26.0981 10.6209C26.0981 10.5793 26.06 10.5179 26.0133 10.4842C25.9667 10.4506 25.9285 10.3984 25.9285 10.3682C25.9285 10.2965 25.3104 9.67845 25.2388 9.67845C25.2085 9.67845 25.1563 9.64028 25.1227 9.59362C25.0891 9.54697 25.0276 9.5088 24.9861 9.5088C24.9446 9.5088 24.9106 9.48972 24.9106 9.46639C24.9106 9.44307 24.8725 9.42398 24.8258 9.42398C24.7792 9.42398 24.741 9.4049 24.741 9.38157C24.741 9.35824 24.7028 9.33916 24.6562 9.33916C24.6095 9.33916 24.5713 9.32008 24.5713 9.29675C24.5713 9.27342 24.5332 9.25434 24.4865 9.25434C24.4399 9.25434 24.4017 9.23525 24.4017 9.21193C24.4017 9.1886 24.3445 9.16952 24.2745 9.16952C24.2045 9.16952 24.1472 9.15043 24.1472 9.12711C24.1472 9.10378 24.0518 9.0847 23.9352 9.0847C23.8186 9.0847 23.7231 9.06561 23.7231 9.04228C23.7231 9.01637 23.5252 8.99987 23.2142 8.99987C22.9032 8.99987 22.7053 9.01637 22.7053 9.04228ZM30.8481 9.04228C30.8481 9.06561 30.7527 9.0847 30.6361 9.0847C30.5194 9.0847 30.424 9.10378 30.424 9.12711C30.424 9.15043 30.3668 9.16952 30.2968 9.16952C30.2268 9.16952 30.1696 9.1886 30.1696 9.21193C30.1696 9.23525 30.1314 9.25434 30.0847 9.25434C30.0381 9.25434 29.9999 9.27342 29.9999 9.29675C29.9999 9.32008 29.9617 9.33916 29.9151 9.33916C29.8684 9.33916 29.8303 9.35824 29.8303 9.38157C29.8303 9.4049 29.7921 9.42398 29.7455 9.42398C29.6988 9.42398 29.6606 9.44307 29.6606 9.46639C29.6606 9.48972 29.6267 9.5088 29.5852 9.5088C29.5437 9.5088 29.4822 9.54697 29.4486 9.59362C29.4149 9.64028 29.3627 9.67845 29.3325 9.67845C29.3023 9.67845 29.1347 9.82129 28.9602 9.99585C28.7856 10.1704 28.6428 10.338 28.6428 10.3682C28.6428 10.3984 28.6046 10.4506 28.558 10.4842C28.5113 10.5179 28.4731 10.5793 28.4731 10.6209C28.4731 10.6623 28.454 10.6963 28.4307 10.6963C28.4074 10.6963 28.3883 10.7345 28.3883 10.7811C28.3883 10.8278 28.3692 10.8659 28.3459 10.8659C28.3226 10.8659 28.3035 10.9041 28.3035 10.9508C28.3035 10.9974 28.2844 11.0356 28.2611 11.0356C28.2378 11.0356 28.2187 11.0738 28.2187 11.1204C28.2187 11.1671 28.1996 11.2052 28.1763 11.2052C28.1529 11.2052 28.1338 11.2625 28.1338 11.3325C28.1338 11.4024 28.1148 11.4597 28.0914 11.4597C28.0681 11.4597 28.049 11.5551 28.049 11.6717C28.049 11.7884 28.0299 11.8838 28.0066 11.8838C27.9807 11.8838 27.9642 12.0817 27.9642 12.3927C27.9642 12.7037 27.9807 12.9017 28.0066 12.9017C28.0299 12.9017 28.049 12.9971 28.049 13.1137C28.049 13.2303 28.0681 13.3258 28.0914 13.3258C28.1148 13.3258 28.1338 13.383 28.1338 13.453C28.1338 13.523 28.1529 13.5802 28.1763 13.5802C28.1996 13.5802 28.2187 13.6184 28.2187 13.6651C28.2187 13.7117 28.2378 13.7499 28.2611 13.7499C28.2844 13.7499 28.3035 13.788 28.3035 13.8347C28.3035 13.8813 28.3226 13.9195 28.3459 13.9195C28.3692 13.9195 28.3883 13.9577 28.3883 14.0043C28.3883 14.051 28.4074 14.0892 28.4307 14.0892C28.454 14.0892 28.4731 14.1231 28.4731 14.1646C28.4731 14.2061 28.5113 14.2676 28.558 14.3012C28.6046 14.3348 28.6428 14.3871 28.6428 14.4173C28.6428 14.4889 29.2609 15.107 29.3325 15.107C29.3627 15.107 29.4149 15.1452 29.4486 15.1918C29.4822 15.2385 29.5437 15.2767 29.5852 15.2767C29.6267 15.2767 29.6606 15.2957 29.6606 15.3191C29.6606 15.3424 29.6988 15.3615 29.7455 15.3615C29.7921 15.3615 29.8303 15.3806 29.8303 15.4039C29.8303 15.4272 29.8684 15.4463 29.9151 15.4463C29.9617 15.4463 29.9999 15.4654 29.9999 15.4887C29.9999 15.512 30.0381 15.5311 30.0847 15.5311C30.1314 15.5311 30.1696 15.5502 30.1696 15.5735C30.1696 15.5969 30.2268 15.6159 30.2968 15.6159C30.3668 15.6159 30.424 15.635 30.424 15.6584C30.424 15.6817 30.5194 15.7008 30.6361 15.7008C30.7527 15.7008 30.8481 15.7198 30.8481 15.7432C30.8481 15.7691 31.0461 15.7856 31.3571 15.7856C31.6681 15.7856 31.866 15.7691 31.866 15.7432C31.866 15.7198 31.9614 15.7008 32.078 15.7008C32.1947 15.7008 32.2901 15.6817 32.2901 15.6584C32.2901 15.635 32.3474 15.6159 32.4173 15.6159C32.4873 15.6159 32.5446 15.5969 32.5446 15.5735C32.5446 15.5502 32.5827 15.5311 32.6294 15.5311C32.676 15.5311 32.7142 15.512 32.7142 15.4887C32.7142 15.4654 32.7524 15.4463 32.799 15.4463C32.8457 15.4463 32.8838 15.4272 32.8838 15.4039C32.8838 15.3806 32.922 15.3615 32.9687 15.3615C33.0153 15.3615 33.0535 15.3424 33.0535 15.3191C33.0535 15.2957 33.0875 15.2767 33.1289 15.2767C33.1705 15.2767 33.2319 15.2385 33.2655 15.1918C33.2992 15.1452 33.3514 15.107 33.3816 15.107C33.4118 15.107 33.5794 14.9642 33.7539 14.7896C33.9285 14.6151 34.0713 14.4475 34.0713 14.4173C34.0713 14.3871 34.1095 14.3348 34.1562 14.3012C34.2028 14.2676 34.241 14.2061 34.241 14.1646C34.241 14.1231 34.2601 14.0892 34.2834 14.0892C34.3067 14.0892 34.3258 14.051 34.3258 14.0043C34.3258 13.9577 34.3449 13.9195 34.3682 13.9195C34.3915 13.9195 34.4106 13.8813 34.4106 13.8347C34.4106 13.788 34.4297 13.7499 34.453 13.7499C34.4764 13.7499 34.4955 13.7117 34.4955 13.6651C34.4955 13.6184 34.5145 13.5802 34.5379 13.5802C34.5612 13.5802 34.5803 13.523 34.5803 13.453C34.5803 13.383 34.5994 13.3258 34.6227 13.3258C34.646 13.3258 34.6651 13.2303 34.6651 13.1137C34.6651 12.9971 34.6842 12.9017 34.7075 12.9017C34.7334 12.9017 34.7499 12.7037 34.7499 12.3927C34.7499 12.0817 34.7334 11.8838 34.7075 11.8838C34.6842 11.8838 34.6651 11.7884 34.6651 11.6717C34.6651 11.5551 34.646 11.4597 34.6227 11.4597C34.5994 11.4597 34.5803 11.4024 34.5803 11.3325C34.5803 11.2625 34.5612 11.2052 34.5379 11.2052C34.5145 11.2052 34.4955 11.1671 34.4955 11.1204C34.4955 11.0738 34.4764 11.0356 34.453 11.0356C34.4297 11.0356 34.4106 10.9974 34.4106 10.9508C34.4106 10.9041 34.3915 10.8659 34.3682 10.8659C34.3449 10.8659 34.3258 10.8278 34.3258 10.7811C34.3258 10.7345 34.3067 10.6963 34.2834 10.6963C34.2601 10.6963 34.241 10.6623 34.241 10.6209C34.241 10.5793 34.2028 10.5179 34.1562 10.4842C34.1095 10.4506 34.0713 10.3984 34.0713 10.3682C34.0713 10.2965 33.4533 9.67845 33.3816 9.67845C33.3514 9.67845 33.2992 9.64028 33.2655 9.59362C33.2319 9.54697 33.1705 9.5088 33.1289 9.5088C33.0875 9.5088 33.0535 9.48972 33.0535 9.46639C33.0535 9.44307 33.0153 9.42398 32.9687 9.42398C32.922 9.42398 32.8838 9.4049 32.8838 9.38157C32.8838 9.35824 32.8457 9.33916 32.799 9.33916C32.7524 9.33916 32.7142 9.32008 32.7142 9.29675C32.7142 9.27342 32.676 9.25434 32.6294 9.25434C32.5827 9.25434 32.5446 9.23525 32.5446 9.21193C32.5446 9.1886 32.4873 9.16952 32.4173 9.16952C32.3474 9.16952 32.2901 9.15043 32.2901 9.12711C32.2901 9.10378 32.1947 9.0847 32.078 9.0847C31.9614 9.0847 31.866 9.06561 31.866 9.04228C31.866 9.01637 31.6681 8.99987 31.3571 8.99987C31.0461 8.99987 30.8481 9.01637 30.8481 9.04228ZM7.35261 10.3994C7.35261 10.4228 7.40986 10.4418 7.47984 10.4418C7.54982 10.4418 7.60707 10.4609 7.60707 10.4842C7.60707 10.5076 7.66013 10.5267 7.72493 10.5267C7.79414 10.5267 7.86802 10.5617 7.90394 10.6115C7.93758 10.6581 7.98987 10.6963 8.02011 10.6963C8.09182 10.6963 8.62493 11.2294 8.62493 11.3011C8.62493 11.3314 8.6631 11.3837 8.70975 11.4173C8.75954 11.4532 8.79457 11.5271 8.79457 11.5963C8.79457 11.6611 8.81365 11.7142 8.83698 11.7142C8.86031 11.7142 8.87939 11.7714 8.87939 11.8414C8.87939 11.9114 8.89848 11.9686 8.9218 11.9686C8.94725 11.9686 8.96421 12.1383 8.96421 12.3927C8.96421 12.6472 8.94725 12.8168 8.9218 12.8168C8.89848 12.8168 8.87939 12.8741 8.87939 12.9441C8.87939 13.014 8.86031 13.0713 8.83698 13.0713C8.81365 13.0713 8.79457 13.1244 8.79457 13.1892C8.79457 13.2584 8.75954 13.3323 8.70975 13.3682C8.6631 13.4018 8.62493 13.4541 8.62493 13.4843C8.62493 13.5561 8.09182 14.0892 8.02011 14.0892C7.98987 14.0892 7.93758 14.1273 7.90394 14.174C7.86802 14.2238 7.79414 14.2588 7.72493 14.2588C7.66013 14.2588 7.60707 14.2779 7.60707 14.3012C7.60707 14.3245 7.54982 14.3436 7.47984 14.3436C7.40986 14.3436 7.35261 14.3627 7.35261 14.386C7.35261 14.4115 7.18296 14.4284 6.9285 14.4284C6.67403 14.4284 6.50439 14.4115 6.50439 14.386C6.50439 14.3627 6.44714 14.3436 6.37716 14.3436C6.30718 14.3436 6.24993 14.3245 6.24993 14.3012C6.24993 14.2779 6.19687 14.2588 6.13207 14.2588C6.06285 14.2588 5.98897 14.2238 5.95305 14.174C5.91942 14.1273 5.86713 14.0892 5.83689 14.0892C5.76517 14.0892 5.23207 13.5561 5.23207 13.4843C5.23207 13.4541 5.1939 13.4018 5.14725 13.3682C5.09746 13.3323 5.06243 13.2584 5.06243 13.1892C5.06243 13.1244 5.04334 13.0713 5.02002 13.0713C4.99669 13.0713 4.97761 13.014 4.97761 12.9441C4.97761 12.8741 4.95852 12.8168 4.9352 12.8168C4.90975 12.8168 4.89279 12.6472 4.89279 12.3927C4.89279 12.1383 4.90975 11.9686 4.9352 11.9686C4.95852 11.9686 4.97761 11.9114 4.97761 11.8414C4.97761 11.7714 4.99669 11.7142 5.02002 11.7142C5.04334 11.7142 5.06243 11.6611 5.06243 11.5963C5.06243 11.5271 5.09746 11.4532 5.14725 11.4173C5.1939 11.3837 5.23207 11.3314 5.23207 11.3011C5.23207 11.2294 5.76517 10.6963 5.83689 10.6963C5.86713 10.6963 5.91942 10.6581 5.95305 10.6115C5.98897 10.5617 6.06285 10.5267 6.13207 10.5267C6.19687 10.5267 6.24993 10.5076 6.24993 10.4842C6.24993 10.4609 6.30718 10.4418 6.37716 10.4418C6.44714 10.4418 6.50439 10.4228 6.50439 10.3994C6.50439 10.374 6.67403 10.357 6.9285 10.357C7.18296 10.357 7.35261 10.374 7.35261 10.3994ZM15.4955 10.3994C15.4955 10.4228 15.5527 10.4418 15.6227 10.4418C15.6927 10.4418 15.7499 10.4609 15.7499 10.4842C15.7499 10.5076 15.803 10.5267 15.8678 10.5267C15.937 10.5267 16.0109 10.5617 16.0468 10.6115C16.0804 10.6581 16.1327 10.6963 16.163 10.6963C16.2347 10.6963 16.7678 11.2294 16.7678 11.3011C16.7678 11.3314 16.806 11.3837 16.8526 11.4173C16.9024 11.4532 16.9374 11.5271 16.9374 11.5963C16.9374 11.6611 16.9565 11.7142 16.9798 11.7142C17.0032 11.7142 17.0222 11.7714 17.0222 11.8414C17.0222 11.9114 17.0413 11.9686 17.0647 11.9686C17.0901 11.9686 17.1071 12.1383 17.1071 12.3927C17.1071 12.6472 17.0901 12.8168 17.0647 12.8168C17.0413 12.8168 17.0222 12.8741 17.0222 12.9441C17.0222 13.014 17.0032 13.0713 16.9798 13.0713C16.9565 13.0713 16.9374 13.1244 16.9374 13.1892C16.9374 13.2584 16.9024 13.3323 16.8526 13.3682C16.806 13.4018 16.7678 13.4541 16.7678 13.4843C16.7678 13.5561 16.2347 14.0892 16.163 14.0892C16.1327 14.0892 16.0804 14.1273 16.0468 14.174C16.0109 14.2238 15.937 14.2588 15.8678 14.2588C15.803 14.2588 15.7499 14.2779 15.7499 14.3012C15.7499 14.3245 15.6927 14.3436 15.6227 14.3436C15.5527 14.3436 15.4955 14.3627 15.4955 14.386C15.4955 14.4115 15.3258 14.4284 15.0714 14.4284C14.8169 14.4284 14.6472 14.4115 14.6472 14.386C14.6472 14.3627 14.59 14.3436 14.52 14.3436C14.45 14.3436 14.3928 14.3245 14.3928 14.3012C14.3928 14.2779 14.3397 14.2588 14.2749 14.2588C14.2057 14.2588 14.1318 14.2238 14.0959 14.174C14.0623 14.1273 14.01 14.0892 13.9797 14.0892C13.908 14.0892 13.3749 13.5561 13.3749 13.4843C13.3749 13.4541 13.3368 13.4018 13.2901 13.3682C13.2403 13.3323 13.2053 13.2584 13.2053 13.1892C13.2053 13.1244 13.1862 13.0713 13.1629 13.0713C13.1395 13.0713 13.1205 13.014 13.1205 12.9441C13.1205 12.8741 13.1014 12.8168 13.078 12.8168C13.0526 12.8168 13.0356 12.6472 13.0356 12.3927C13.0356 12.1383 13.0526 11.9686 13.078 11.9686C13.1014 11.9686 13.1205 11.9114 13.1205 11.8414C13.1205 11.7714 13.1395 11.7142 13.1629 11.7142C13.1862 11.7142 13.2053 11.6611 13.2053 11.5963C13.2053 11.5271 13.2403 11.4532 13.2901 11.4173C13.3368 11.3837 13.3749 11.3314 13.3749 11.3011C13.3749 11.2294 13.908 10.6963 13.9797 10.6963C14.01 10.6963 14.0623 10.6581 14.0959 10.6115C14.1318 10.5617 14.2057 10.5267 14.2749 10.5267C14.3397 10.5267 14.3928 10.5076 14.3928 10.4842C14.3928 10.4609 14.45 10.4418 14.52 10.4418C14.59 10.4418 14.6472 10.4228 14.6472 10.3994C14.6472 10.374 14.8169 10.357 15.0714 10.357C15.3258 10.357 15.4955 10.374 15.4955 10.3994ZM23.6383 10.3994C23.6383 10.4228 23.6956 10.4418 23.7655 10.4418C23.8355 10.4418 23.8928 10.4609 23.8928 10.4842C23.8928 10.5076 23.9458 10.5267 24.0106 10.5267C24.0799 10.5267 24.1537 10.5617 24.1897 10.6115C24.2233 10.6581 24.2756 10.6963 24.3058 10.6963C24.3775 10.6963 24.9106 11.2294 24.9106 11.3011C24.9106 11.3314 24.9488 11.3837 24.9955 11.4173C25.0452 11.4532 25.0803 11.5271 25.0803 11.5963C25.0803 11.6611 25.0994 11.7142 25.1227 11.7142C25.146 11.7142 25.1651 11.7714 25.1651 11.8414C25.1651 11.9114 25.1842 11.9686 25.2075 11.9686C25.233 11.9686 25.2499 12.1383 25.2499 12.3927C25.2499 12.6472 25.233 12.8168 25.2075 12.8168C25.1842 12.8168 25.1651 12.8741 25.1651 12.9441C25.1651 13.014 25.146 13.0713 25.1227 13.0713C25.0994 13.0713 25.0803 13.1244 25.0803 13.1892C25.0803 13.2584 25.0452 13.3323 24.9955 13.3682C24.9488 13.4018 24.9106 13.4541 24.9106 13.4843C24.9106 13.5561 24.3775 14.0892 24.3058 14.0892C24.2756 14.0892 24.2233 14.1273 24.1897 14.174C24.1537 14.2238 24.0799 14.2588 24.0106 14.2588C23.9458 14.2588 23.8928 14.2779 23.8928 14.3012C23.8928 14.3245 23.8355 14.3436 23.7655 14.3436C23.6956 14.3436 23.6383 14.3627 23.6383 14.386C23.6383 14.4115 23.4687 14.4284 23.2142 14.4284C22.9597 14.4284 22.7901 14.4115 22.7901 14.386C22.7901 14.3627 22.7328 14.3436 22.6629 14.3436C22.5929 14.3436 22.5356 14.3245 22.5356 14.3012C22.5356 14.2779 22.4826 14.2588 22.4178 14.2588C22.3486 14.2588 22.2747 14.2238 22.2388 14.174C22.2051 14.1273 22.1528 14.0892 22.1226 14.0892C22.0509 14.0892 21.5178 13.5561 21.5178 13.4843C21.5178 13.4541 21.4796 13.4018 21.433 13.3682C21.3832 13.3323 21.3481 13.2584 21.3481 13.1892C21.3481 13.1244 21.3291 13.0713 21.3057 13.0713C21.2824 13.0713 21.2633 13.014 21.2633 12.9441C21.2633 12.8741 21.2442 12.8168 21.2209 12.8168C21.1955 12.8168 21.1785 12.6472 21.1785 12.3927C21.1785 12.1383 21.1955 11.9686 21.2209 11.9686C21.2442 11.9686 21.2633 11.9114 21.2633 11.8414C21.2633 11.7714 21.2824 11.7142 21.3057 11.7142C21.3291 11.7142 21.3481 11.6611 21.3481 11.5963C21.3481 11.5271 21.3832 11.4532 21.433 11.4173C21.4796 11.3837 21.5178 11.3314 21.5178 11.3011C21.5178 11.2708 21.6415 11.1224 21.7926 10.9712C21.9438 10.82 22.0923 10.6963 22.1226 10.6963C22.1528 10.6963 22.2051 10.6581 22.2388 10.6115C22.2747 10.5617 22.3486 10.5267 22.4178 10.5267C22.4826 10.5267 22.5356 10.5076 22.5356 10.4842C22.5356 10.4609 22.5929 10.4418 22.6629 10.4418C22.7328 10.4418 22.7901 10.4228 22.7901 10.3994C22.7901 10.374 22.9597 10.357 23.2142 10.357C23.4687 10.357 23.6383 10.374 23.6383 10.3994ZM31.7812 10.3994C31.7812 10.4228 31.8384 10.4418 31.9084 10.4418C31.9784 10.4418 32.0356 10.4609 32.0356 10.4842C32.0356 10.5076 32.0887 10.5267 32.1535 10.5267C32.2227 10.5267 32.2966 10.5617 32.3325 10.6115C32.3661 10.6581 32.4184 10.6963 32.4487 10.6963C32.5204 10.6963 33.0535 11.2294 33.0535 11.3011C33.0535 11.3314 33.0917 11.3837 33.1383 11.4173C33.1881 11.4532 33.2231 11.5271 33.2231 11.5963C33.2231 11.6611 33.2422 11.7142 33.2655 11.7142C33.2889 11.7142 33.308 11.7714 33.308 11.8414C33.308 11.9114 33.327 11.9686 33.3504 11.9686C33.3758 11.9686 33.3928 12.1383 33.3928 12.3927C33.3928 12.6472 33.3758 12.8168 33.3504 12.8168C33.327 12.8168 33.308 12.8741 33.308 12.9441C33.308 13.014 33.2889 13.0713 33.2655 13.0713C33.2422 13.0713 33.2231 13.1244 33.2231 13.1892C33.2231 13.2584 33.1881 13.3323 33.1383 13.3682C33.0917 13.4018 33.0535 13.4541 33.0535 13.4843C33.0535 13.5561 32.5204 14.0892 32.4487 14.0892C32.4184 14.0892 32.3661 14.1273 32.3325 14.174C32.2966 14.2238 32.2227 14.2588 32.1535 14.2588C32.0887 14.2588 32.0356 14.2779 32.0356 14.3012C32.0356 14.3245 31.9784 14.3436 31.9084 14.3436C31.8384 14.3436 31.7812 14.3627 31.7812 14.386C31.7812 14.4115 31.6115 14.4284 31.3571 14.4284C31.1026 14.4284 30.933 14.4115 30.933 14.386C30.933 14.3627 30.8757 14.3436 30.8057 14.3436C30.7357 14.3436 30.6785 14.3245 30.6785 14.3012C30.6785 14.2779 30.6254 14.2588 30.5606 14.2588C30.4914 14.2588 30.4175 14.2238 30.3816 14.174C30.348 14.1273 30.2957 14.0892 30.2655 14.0892C30.1937 14.0892 29.6606 13.5561 29.6606 13.4843C29.6606 13.4541 29.6225 13.4018 29.5758 13.3682C29.526 13.3323 29.491 13.2584 29.491 13.1892C29.491 13.1244 29.4719 13.0713 29.4486 13.0713C29.4253 13.0713 29.4062 13.014 29.4062 12.9441C29.4062 12.8741 29.3871 12.8168 29.3638 12.8168C29.3383 12.8168 29.3213 12.6472 29.3213 12.3927C29.3213 12.1383 29.3383 11.9686 29.3638 11.9686C29.3871 11.9686 29.4062 11.9114 29.4062 11.8414C29.4062 11.7714 29.4253 11.7142 29.4486 11.7142C29.4719 11.7142 29.491 11.6611 29.491 11.5963C29.491 11.5271 29.526 11.4532 29.5758 11.4173C29.6225 11.3837 29.6606 11.3314 29.6606 11.3011C29.6606 11.2708 29.7843 11.1224 29.9355 10.9712C30.0867 10.82 30.2352 10.6963 30.2655 10.6963C30.2957 10.6963 30.348 10.6581 30.3816 10.6115C30.4175 10.5617 30.4914 10.5267 30.5606 10.5267C30.6254 10.5267 30.6785 10.5076 30.6785 10.4842C30.6785 10.4609 30.7357 10.4418 30.8057 10.4418C30.8757 10.4418 30.933 10.4228 30.933 10.3994C30.933 10.374 31.1026 10.357 31.3571 10.357C31.6115 10.357 31.7812 10.374 31.7812 10.3994ZM6.24993 12.3927V13.0713H6.9285H7.60707V12.3927V11.7142H6.9285H6.24993V12.3927ZM14.3928 12.3927V13.0713H15.0714H15.7499V12.3927V11.7142H15.0714H14.3928V12.3927ZM22.5356 12.3927V13.0713H23.2142H23.8928V12.3927V11.7142H23.2142H22.5356V12.3927ZM30.6785 12.3927V13.0713H31.3571H32.0356V12.3927V11.7142H31.3571H30.6785V12.3927Z" fill="black"/>
</svg>
