<svg width="40" height="40" viewBox="0 0 40 40" fill="none" xmlns="http://www.w3.org/2000/svg">
<circle cx="20" cy="20" r="20" fill="white"/>
<path d="M27.0136 22.9202C25.5016 21.5598 25.6946 21.7668 27.5283 19.4305C28.6221 18.011 29.0725 17.1238 28.9438 16.7393C28.8795 16.5027 28.0109 16.5619 28.0109 16.5619H25.3086C25.3086 16.5619 24.8904 16.5619 24.7295 16.8281C24.44 17.3308 24.3113 17.9518 23.7323 18.8686C22.5098 20.85 22.0272 20.9683 21.8342 20.85C21.3838 20.5543 21.4803 19.6967 21.4803 19.0756C21.4803 17.1534 21.7699 16.3549 20.9013 16.1183C20.7083 16.0591 20.5474 16.0591 20.2579 16.0296C19.904 16 19.5501 16 19.2284 16C18.4242 16 17.8129 16.0296 17.3947 16.207C17.073 16.3549 16.8478 16.6802 17.0087 16.7098C17.2017 16.7393 17.5877 16.8281 17.8129 17.0942C18.1025 17.4491 18.0703 18.2771 18.0703 18.2771C18.0703 18.2771 18.2311 20.5543 17.6843 20.8205C17.3304 21.0275 16.8157 20.6134 15.754 18.8095C15.2071 17.8927 15.1428 17.2717 14.7889 16.8576C14.5637 16.5915 14.1455 16.5027 14.1455 16.5027H11.5719C11.5719 16.5027 11.1215 16.4732 11.0572 16.5915C10.9285 16.7393 11.0572 17.0351 11.0572 17.0351C11.0572 17.0351 13.0839 21.6189 15.368 23.9257C17.3947 26.1141 19.7753 25.9958 19.7753 25.9958C19.7753 25.9958 21.1586 26.0549 21.3517 25.7296C21.4803 25.6113 21.5125 25.2565 21.5125 25.2565C21.5125 25.2565 21.4803 23.8369 22.1559 23.6299C22.8315 23.4229 23.6679 24.9903 24.5687 25.5818C25.2443 26.0549 25.4373 25.9958 25.759 25.9958C26.4024 25.9958 28.1717 25.9958 28.1717 25.9958C28.1717 25.9958 29.4264 25.8775 28.8473 24.9016C28.7508 24.8424 28.4613 24.2214 27.0136 22.9202Z" fill="black"/>
</svg>
