<svg width="40" height="40" viewBox="0 0 40 40" fill="none" xmlns="http://www.w3.org/2000/svg">
<circle cx="20" cy="20" r="20" fill="white"/>
<path d="M23.4286 20C23.4286 19.7688 23.3393 19.6 23.1607 19.4938L18.5893 16.4938C18.4048 16.3688 18.2113 16.3625 18.0089 16.475C17.8125 16.5875 17.7143 16.7625 17.7143 17V23C17.7143 23.2375 17.8125 23.4125 18.0089 23.525C18.1042 23.575 18.1964 23.6 18.2857 23.6C18.4048 23.6 18.506 23.5688 18.5893 23.5063L23.1607 20.5063C23.3393 20.4 23.4286 20.2312 23.4286 20ZM28 20C28 20.6 27.997 21.0688 27.9911 21.4063C27.9851 21.7438 27.9598 22.1703 27.9152 22.6859C27.8705 23.2016 27.8036 23.6625 27.7143 24.0688C27.619 24.525 27.4137 24.9094 27.0982 25.2219C26.7827 25.5344 26.4137 25.7156 25.9911 25.7656C24.6696 25.9219 22.6726 26 20 26C17.3274 26 15.3304 25.9219 14.0089 25.7656C13.5863 25.7156 13.2158 25.5344 12.8973 25.2219C12.5789 24.9094 12.372 24.525 12.2768 24.0688C12.1935 23.6625 12.1295 23.2016 12.0848 22.6859C12.0402 22.1703 12.0149 21.7438 12.0089 21.4063C12.003 21.0688 12 20.6 12 20C12 19.4 12.003 18.9313 12.0089 18.5938C12.0149 18.2562 12.0402 17.8297 12.0848 17.3141C12.1295 16.7984 12.1964 16.3375 12.2857 15.9313C12.381 15.475 12.5863 15.0906 12.9018 14.7781C13.2173 14.4656 13.5863 14.2844 14.0089 14.2344C15.3304 14.0781 17.3274 14 20 14C22.6726 14 24.6696 14.0781 25.9911 14.2344C26.4137 14.2844 26.7842 14.4656 27.1027 14.7781C27.4211 15.0906 27.628 15.475 27.7232 15.9313C27.8065 16.3375 27.8705 16.7984 27.9152 17.3141C27.9598 17.8297 27.9851 18.2562 27.9911 18.5938C27.997 18.9313 28 19.4 28 20Z" fill="black"/>
</svg>
